<svg width="17" height="16" viewBox="0 0 17 16" fill="none" xmlns="http://www.w3.org/2000/svg">
<path d="M13.5417 2.66634H10.755C10.475 1.89301 9.74167 1.33301 8.875 1.33301C8.00833 1.33301 7.275 1.89301 6.995 2.66634H4.20833C3.475 2.66634 2.875 3.26634 2.875 3.99967V13.333C2.875 14.0663 3.475 14.6663 4.20833 14.6663H13.5417C14.275 14.6663 14.875 14.0663 14.875 13.333V3.99967C14.875 3.26634 14.275 2.66634 13.5417 2.66634ZM8.875 2.66634C9.24167 2.66634 9.54167 2.96634 9.54167 3.33301C9.54167 3.69967 9.24167 3.99967 8.875 3.99967C8.50833 3.99967 8.20833 3.69967 8.20833 3.33301C8.20833 2.96634 8.50833 2.66634 8.875 2.66634ZM9.54167 11.9997H6.20833C5.84167 11.9997 5.54167 11.6997 5.54167 11.333C5.54167 10.9663 5.84167 10.6663 6.20833 10.6663H9.54167C9.90833 10.6663 10.2083 10.9663 10.2083 11.333C10.2083 11.6997 9.90833 11.9997 9.54167 11.9997ZM11.5417 9.33301H6.20833C5.84167 9.33301 5.54167 9.03301 5.54167 8.66634C5.54167 8.29967 5.84167 7.99967 6.20833 7.99967H11.5417C11.9083 7.99967 12.2083 8.29967 12.2083 8.66634C12.2083 9.03301 11.9083 9.33301 11.5417 9.33301ZM11.5417 6.66634H6.20833C5.84167 6.66634 5.54167 6.36634 5.54167 5.99967C5.54167 5.63301 5.84167 5.33301 6.20833 5.33301H11.5417C11.9083 5.33301 12.2083 5.63301 12.2083 5.99967C12.2083 6.36634 11.9083 6.66634 11.5417 6.66634Z" fill="#08A94C"/>
</svg>
