<svg width="361" height="20" viewBox="0 0 361 20" fill="none" xmlns="http://www.w3.org/2000/svg">
<path opacity="0.5" fill-rule="evenodd" clip-rule="evenodd" d="M-18 2.9827L-4.805 7.31603C7.935 11.6494 33.87 20.316 59.805 21.0383C86.195 21.7605 112.13 14.5383 138.065 13.0938C164 11.6494 189.935 15.9827 215.87 15.9827C241.805 15.9827 287.565 6.60721 313.5 2.9961C339.435 -0.615016 346 0.820685 371.935 2.98735C397.87 5.15402 423.805 13.0938 450.195 15.2605C476.13 17.4271 502.065 14.5383 514.805 13.0938L528 11.6494V41.9827H514.805C502.065 41.9827 476.13 41.9827 450.195 41.9827C423.805 41.9827 397.87 41.9827 371.935 41.9827C346 41.9827 320.065 41.9827 294.13 41.9827C268.195 41.9827 241.805 41.9827 215.87 41.9827C189.935 41.9827 164 41.9827 138.065 41.9827C112.13 41.9827 86.195 41.9827 59.805 41.9827C33.87 41.9827 7.935 41.9827 -4.805 41.9827H-18V2.9827Z" fill="#FEEAD2"/>
</svg>
