<svg width="290" height="109" viewBox="0 0 290 109" fill="none" xmlns="http://www.w3.org/2000/svg">
<rect x="0.5" y="0.625" width="289" height="107" rx="4.5" fill="#D5FADD"/>
<rect x="0.5" y="0.625" width="289" height="107" rx="4.5" stroke="#08A94C" stroke-linecap="round" stroke-linejoin="round" stroke-dasharray="5 5"/>
<path d="M49.115 47.24L41.87 39.995C41.315 39.44 40.55 39.125 39.755 39.125H29C27.35 39.125 26.015 40.475 26.015 42.125L26 66.125C26 67.775 27.335 69.125 28.985 69.125H47C48.65 69.125 50 67.775 50 66.125V49.37C50 48.575 49.685 47.81 49.115 47.24ZM42.2 58.625H39.5V63.125C39.5 63.95 38.825 64.625 38 64.625C37.175 64.625 36.5 63.95 36.5 63.125V58.625H33.815C33.14 58.625 32.81 57.815 33.29 57.35L37.49 53.165C37.79 52.88 38.255 52.88 38.555 53.165L42.74 57.35C43.19 57.815 42.86 58.625 42.2 58.625ZM41 49.625C40.175 49.625 39.5 48.95 39.5 48.125V41.375L47.75 49.625H41Z" fill="#08A94C"/>
<path d="M75.382 23.353C76.4087 23.353 77.3093 23.5537 78.084 23.955C78.868 24.3563 79.47 24.9303 79.89 25.677C80.3193 26.4143 80.534 27.273 80.534 28.253C80.534 29.233 80.3193 30.0917 79.89 30.829C79.47 31.557 78.868 32.1217 78.084 32.523C77.3093 32.9243 76.4087 33.125 75.382 33.125H71.966V23.353H75.382ZM75.312 31.459C76.3387 31.459 77.132 31.179 77.692 30.619C78.252 30.059 78.532 29.2703 78.532 28.253C78.532 27.2357 78.252 26.4423 77.692 25.873C77.132 25.2943 76.3387 25.005 75.312 25.005H73.926V31.459H75.312ZM83.9612 26.573C84.2132 26.1623 84.5398 25.8403 84.9412 25.607C85.3518 25.3737 85.8185 25.257 86.3412 25.257V27.315H85.8232C85.2072 27.315 84.7405 27.4597 84.4232 27.749C84.1152 28.0383 83.9612 28.5423 83.9612 29.261V33.125H82.0012V25.369H83.9612V26.573ZM91.1053 33.251C90.3586 33.251 89.6866 33.0877 89.0893 32.761C88.492 32.425 88.0206 31.9537 87.6753 31.347C87.3393 30.7403 87.1713 30.0403 87.1713 29.247C87.1713 28.4537 87.344 27.7537 87.6893 27.147C88.044 26.5403 88.5246 26.0737 89.1313 25.747C89.738 25.411 90.4146 25.243 91.1613 25.243C91.908 25.243 92.5846 25.411 93.1913 25.747C93.798 26.0737 94.274 26.5403 94.6193 27.147C94.974 27.7537 95.1513 28.4537 95.1513 29.247C95.1513 30.0403 94.9693 30.7403 94.6053 31.347C94.2506 31.9537 93.7653 32.425 93.1493 32.761C92.5426 33.0877 91.8613 33.251 91.1053 33.251ZM91.1053 31.543C91.46 31.543 91.7913 31.459 92.0993 31.291C92.4166 31.1137 92.6686 30.8523 92.8553 30.507C93.042 30.1617 93.1353 29.7417 93.1353 29.247C93.1353 28.5097 92.9393 27.945 92.5473 27.553C92.1646 27.1517 91.6933 26.951 91.1333 26.951C90.5733 26.951 90.102 27.1517 89.7193 27.553C89.346 27.945 89.1593 28.5097 89.1593 29.247C89.1593 29.9843 89.3413 30.5537 89.7053 30.955C90.0786 31.347 90.5453 31.543 91.1053 31.543ZM98.549 26.489C98.801 26.1343 99.1464 25.8403 99.585 25.607C100.033 25.3643 100.542 25.243 101.111 25.243C101.774 25.243 102.371 25.4063 102.903 25.733C103.444 26.0597 103.869 26.5263 104.177 27.133C104.494 27.7303 104.653 28.4257 104.653 29.219C104.653 30.0123 104.494 30.717 104.177 31.333C103.869 31.9397 103.444 32.411 102.903 32.747C102.371 33.083 101.774 33.251 101.111 33.251C100.542 33.251 100.038 33.1343 99.599 32.901C99.1697 32.6677 98.8197 32.3737 98.549 32.019V36.821H96.589V25.369H98.549V26.489ZM102.651 29.219C102.651 28.7523 102.553 28.351 102.357 28.015C102.17 27.6697 101.918 27.4083 101.601 27.231C101.293 27.0537 100.957 26.965 100.593 26.965C100.238 26.965 99.9024 27.0583 99.585 27.245C99.277 27.4223 99.025 27.6837 98.829 28.029C98.6424 28.3743 98.549 28.7803 98.549 29.247C98.549 29.7137 98.6424 30.1197 98.829 30.465C99.025 30.8103 99.277 31.0763 99.585 31.263C99.9024 31.4403 100.238 31.529 100.593 31.529C100.957 31.529 101.293 31.4357 101.601 31.249C101.918 31.0623 102.17 30.7963 102.357 30.451C102.553 30.1057 102.651 29.695 102.651 29.219ZM116.833 25.369L112.031 36.793H109.945L111.625 32.929L108.517 25.369H110.715L112.717 30.787L114.747 25.369H116.833ZM121.334 33.251C120.587 33.251 119.915 33.0877 119.318 32.761C118.72 32.425 118.249 31.9537 117.904 31.347C117.568 30.7403 117.4 30.0403 117.4 29.247C117.4 28.4537 117.572 27.7537 117.918 27.147C118.272 26.5403 118.753 26.0737 119.36 25.747C119.966 25.411 120.643 25.243 121.39 25.243C122.136 25.243 122.813 25.411 123.42 25.747C124.026 26.0737 124.502 26.5403 124.848 27.147C125.202 27.7537 125.38 28.4537 125.38 29.247C125.38 30.0403 125.198 30.7403 124.834 31.347C124.479 31.9537 123.994 32.425 123.378 32.761C122.771 33.0877 122.09 33.251 121.334 33.251ZM121.334 31.543C121.688 31.543 122.02 31.459 122.328 31.291C122.645 31.1137 122.897 30.8523 123.084 30.507C123.27 30.1617 123.364 29.7417 123.364 29.247C123.364 28.5097 123.168 27.945 122.776 27.553C122.393 27.1517 121.922 26.951 121.362 26.951C120.802 26.951 120.33 27.1517 119.948 27.553C119.574 27.945 119.388 28.5097 119.388 29.247C119.388 29.9843 119.57 30.5537 119.934 30.955C120.307 31.347 120.774 31.543 121.334 31.543ZM134.14 25.369V33.125H132.166V32.145C131.914 32.481 131.582 32.747 131.172 32.943C130.77 33.1297 130.332 33.223 129.856 33.223C129.249 33.223 128.712 33.097 128.246 32.845C127.779 32.5837 127.41 32.2057 127.14 31.711C126.878 31.207 126.748 30.6097 126.748 29.919V25.369H128.708V29.639C128.708 30.255 128.862 30.731 129.17 31.067C129.478 31.3937 129.898 31.557 130.43 31.557C130.971 31.557 131.396 31.3937 131.704 31.067C132.012 30.731 132.166 30.255 132.166 29.639V25.369H134.14ZM138.033 26.573C138.285 26.1623 138.612 25.8403 139.013 25.607C139.424 25.3737 139.891 25.257 140.413 25.257V27.315H139.895C139.279 27.315 138.813 27.4597 138.495 27.749C138.187 28.0383 138.033 28.5423 138.033 29.261V33.125H136.073V25.369H138.033V26.573ZM148.626 26.979H147.268V33.125H145.28V26.979H144.398V25.369H145.28V24.977C145.28 24.025 145.55 23.325 146.092 22.877C146.633 22.429 147.45 22.219 148.542 22.247V23.899C148.066 23.8897 147.734 23.969 147.548 24.137C147.361 24.305 147.268 24.6083 147.268 25.047V25.369H148.626V26.979ZM150.89 24.445C150.544 24.445 150.255 24.3377 150.022 24.123C149.798 23.899 149.686 23.6237 149.686 23.297C149.686 22.9703 149.798 22.6997 150.022 22.485C150.255 22.261 150.544 22.149 150.89 22.149C151.235 22.149 151.52 22.261 151.744 22.485C151.977 22.6997 152.094 22.9703 152.094 23.297C152.094 23.6237 151.977 23.899 151.744 24.123C151.52 24.3377 151.235 24.445 150.89 24.445ZM151.856 25.369V33.125H149.896V25.369H151.856ZM155.752 22.765V33.125H153.792V22.765H155.752ZM164.899 29.079C164.899 29.359 164.88 29.611 164.843 29.835H159.173C159.219 30.395 159.415 30.8337 159.761 31.151C160.106 31.4683 160.531 31.627 161.035 31.627C161.763 31.627 162.281 31.3143 162.589 30.689H164.703C164.479 31.4357 164.049 32.0517 163.415 32.537C162.78 33.013 162.001 33.251 161.077 33.251C160.33 33.251 159.658 33.0877 159.061 32.761C158.473 32.425 158.011 31.9537 157.675 31.347C157.348 30.7403 157.185 30.0403 157.185 29.247C157.185 28.4443 157.348 27.7397 157.675 27.133C158.001 26.5263 158.459 26.0597 159.047 25.733C159.635 25.4063 160.311 25.243 161.077 25.243C161.814 25.243 162.472 25.4017 163.051 25.719C163.639 26.0363 164.091 26.489 164.409 27.077C164.735 27.6557 164.899 28.323 164.899 29.079ZM162.869 28.519C162.859 28.015 162.677 27.6137 162.323 27.315C161.968 27.007 161.534 26.853 161.021 26.853C160.535 26.853 160.125 27.0023 159.789 27.301C159.462 27.5903 159.261 27.9963 159.187 28.519H162.869ZM169.297 33.251C168.663 33.251 168.093 33.139 167.589 32.915C167.085 32.6817 166.684 32.369 166.385 31.977C166.096 31.585 165.937 31.151 165.909 30.675H167.883C167.921 30.9737 168.065 31.221 168.317 31.417C168.579 31.613 168.901 31.711 169.283 31.711C169.657 31.711 169.946 31.6363 170.151 31.487C170.366 31.3377 170.473 31.1463 170.473 30.913C170.473 30.661 170.343 30.4743 170.081 30.353C169.829 30.2223 169.423 30.0823 168.863 29.933C168.285 29.793 167.809 29.6483 167.435 29.499C167.071 29.3497 166.754 29.121 166.483 28.813C166.222 28.505 166.091 28.0897 166.091 27.567C166.091 27.1377 166.213 26.7457 166.455 26.391C166.707 26.0363 167.062 25.7563 167.519 25.551C167.986 25.3457 168.532 25.243 169.157 25.243C170.081 25.243 170.819 25.4763 171.369 25.943C171.92 26.4003 172.223 27.021 172.279 27.805H170.403C170.375 27.497 170.245 27.2543 170.011 27.077C169.787 26.8903 169.484 26.797 169.101 26.797C168.747 26.797 168.471 26.8623 168.275 26.993C168.089 27.1237 167.995 27.3057 167.995 27.539C167.995 27.8003 168.126 28.001 168.387 28.141C168.649 28.2717 169.055 28.407 169.605 28.547C170.165 28.687 170.627 28.8317 170.991 28.981C171.355 29.1303 171.668 29.3637 171.929 29.681C172.2 29.989 172.34 30.3997 172.349 30.913C172.349 31.361 172.223 31.7623 171.971 32.117C171.729 32.4717 171.374 32.7517 170.907 32.957C170.45 33.153 169.913 33.251 169.297 33.251ZM181.662 25.257C182.25 25.257 182.773 25.3877 183.23 25.649C183.687 25.901 184.042 26.279 184.294 26.783C184.555 27.2777 184.686 27.875 184.686 28.575V33.125H182.726V28.841C182.726 28.225 182.572 27.7537 182.264 27.427C181.956 27.091 181.536 26.923 181.004 26.923C180.463 26.923 180.033 27.091 179.716 27.427C179.408 27.7537 179.254 28.225 179.254 28.841V33.125H177.294V22.765H179.254V26.335C179.506 25.999 179.842 25.7377 180.262 25.551C180.682 25.355 181.149 25.257 181.662 25.257ZM193.76 29.079C193.76 29.359 193.741 29.611 193.704 29.835H188.034C188.081 30.395 188.277 30.8337 188.622 31.151C188.967 31.4683 189.392 31.627 189.896 31.627C190.624 31.627 191.142 31.3143 191.45 30.689H193.564C193.34 31.4357 192.911 32.0517 192.276 32.537C191.641 33.013 190.862 33.251 189.938 33.251C189.191 33.251 188.519 33.0877 187.922 32.761C187.334 32.425 186.872 31.9537 186.536 31.347C186.209 30.7403 186.046 30.0403 186.046 29.247C186.046 28.4443 186.209 27.7397 186.536 27.133C186.863 26.5263 187.32 26.0597 187.908 25.733C188.496 25.4063 189.173 25.243 189.938 25.243C190.675 25.243 191.333 25.4017 191.912 25.719C192.5 26.0363 192.953 26.489 193.27 27.077C193.597 27.6557 193.76 28.323 193.76 29.079ZM191.73 28.519C191.721 28.015 191.539 27.6137 191.184 27.315C190.829 27.007 190.395 26.853 189.882 26.853C189.397 26.853 188.986 27.0023 188.65 27.301C188.323 27.5903 188.123 27.9963 188.048 28.519H191.73ZM197.151 26.573C197.403 26.1623 197.729 25.8403 198.131 25.607C198.541 25.3737 199.008 25.257 199.531 25.257V27.315H199.013C198.397 27.315 197.93 27.4597 197.613 27.749C197.305 28.0383 197.151 28.5423 197.151 29.261V33.125H195.191V25.369H197.151V26.573ZM208.061 29.079C208.061 29.359 208.042 29.611 208.005 29.835H202.335C202.381 30.395 202.577 30.8337 202.923 31.151C203.268 31.4683 203.693 31.627 204.197 31.627C204.925 31.627 205.443 31.3143 205.751 30.689H207.865C207.641 31.4357 207.211 32.0517 206.577 32.537C205.942 33.013 205.163 33.251 204.239 33.251C203.492 33.251 202.82 33.0877 202.223 32.761C201.635 32.425 201.173 31.9537 200.837 31.347C200.51 30.7403 200.347 30.0403 200.347 29.247C200.347 28.4443 200.51 27.7397 200.837 27.133C201.163 26.5263 201.621 26.0597 202.209 25.733C202.797 25.4063 203.473 25.243 204.239 25.243C204.976 25.243 205.634 25.4017 206.213 25.719C206.801 26.0363 207.253 26.489 207.571 27.077C207.897 27.6557 208.061 28.323 208.061 29.079ZM206.031 28.519C206.021 28.015 205.839 27.6137 205.485 27.315C205.13 27.007 204.696 26.853 204.183 26.853C203.697 26.853 203.287 27.0023 202.951 27.301C202.624 27.5903 202.423 27.9963 202.349 28.519H206.031ZM216.271 33.251C215.525 33.251 214.853 33.0877 214.255 32.761C213.658 32.425 213.187 31.9537 212.841 31.347C212.505 30.7403 212.337 30.0403 212.337 29.247C212.337 28.4537 212.51 27.7537 212.855 27.147C213.21 26.5403 213.691 26.0737 214.297 25.747C214.904 25.411 215.581 25.243 216.327 25.243C217.074 25.243 217.751 25.411 218.357 25.747C218.964 26.0737 219.44 26.5403 219.785 27.147C220.14 27.7537 220.317 28.4537 220.317 29.247C220.317 30.0403 220.135 30.7403 219.771 31.347C219.417 31.9537 218.931 32.425 218.315 32.761C217.709 33.0877 217.027 33.251 216.271 33.251ZM216.271 31.543C216.626 31.543 216.957 31.459 217.265 31.291C217.583 31.1137 217.835 30.8523 218.021 30.507C218.208 30.1617 218.301 29.7417 218.301 29.247C218.301 28.5097 218.105 27.945 217.713 27.553C217.331 27.1517 216.859 26.951 216.299 26.951C215.739 26.951 215.268 27.1517 214.885 27.553C214.512 27.945 214.325 28.5097 214.325 29.247C214.325 29.9843 214.507 30.5537 214.871 30.955C215.245 31.347 215.711 31.543 216.271 31.543ZM223.715 26.573C223.967 26.1623 224.294 25.8403 224.695 25.607C225.106 25.3737 225.572 25.257 226.095 25.257V27.315H225.577C224.961 27.315 224.494 27.4597 224.177 27.749C223.869 28.0383 223.715 28.5423 223.715 29.261V33.125H221.755V25.369H223.715V26.573ZM230.247 29.247C230.247 28.4443 230.41 27.7443 230.737 27.147C231.064 26.5403 231.516 26.0737 232.095 25.747C232.674 25.411 233.336 25.243 234.083 25.243C235.044 25.243 235.838 25.4857 236.463 25.971C237.098 26.447 237.522 27.119 237.737 27.987H235.623C235.511 27.651 235.32 27.3897 235.049 27.203C234.788 27.007 234.461 26.909 234.069 26.909C233.509 26.909 233.066 27.1143 232.739 27.525C232.412 27.9263 232.249 28.5003 232.249 29.247C232.249 29.9843 232.412 30.5583 232.739 30.969C233.066 31.3703 233.509 31.571 234.069 31.571C234.862 31.571 235.38 31.2163 235.623 30.507H237.737C237.522 31.347 237.098 32.0143 236.463 32.509C235.828 33.0037 235.035 33.251 234.083 33.251C233.336 33.251 232.674 33.0877 232.095 32.761C231.516 32.425 231.064 31.9583 230.737 31.361C230.41 30.7543 230.247 30.0497 230.247 29.247ZM241.133 22.765V33.125H239.173V22.765H241.133ZM244.064 24.445C243.718 24.445 243.429 24.3377 243.196 24.123C242.972 23.899 242.86 23.6237 242.86 23.297C242.86 22.9703 242.972 22.6997 243.196 22.485C243.429 22.261 243.718 22.149 244.064 22.149C244.409 22.149 244.694 22.261 244.918 22.485C245.151 22.6997 245.268 22.9703 245.268 23.297C245.268 23.6237 245.151 23.899 244.918 24.123C244.694 24.3377 244.409 24.445 244.064 24.445ZM245.03 25.369V33.125H243.07V25.369H245.03ZM246.462 29.247C246.462 28.4443 246.625 27.7443 246.952 27.147C247.279 26.5403 247.731 26.0737 248.31 25.747C248.889 25.411 249.551 25.243 250.298 25.243C251.259 25.243 252.053 25.4857 252.678 25.971C253.313 26.447 253.737 27.119 253.952 27.987H251.838C251.726 27.651 251.535 27.3897 251.264 27.203C251.003 27.007 250.676 26.909 250.284 26.909C249.724 26.909 249.281 27.1143 248.954 27.525C248.627 27.9263 248.464 28.5003 248.464 29.247C248.464 29.9843 248.627 30.5583 248.954 30.969C249.281 31.3703 249.724 31.571 250.284 31.571C251.077 31.571 251.595 31.2163 251.838 30.507H253.952C253.737 31.347 253.313 32.0143 252.678 32.509C252.043 33.0037 251.25 33.251 250.298 33.251C249.551 33.251 248.889 33.0877 248.31 32.761C247.731 32.425 247.279 31.9583 246.952 31.361C246.625 30.7543 246.462 30.0497 246.462 29.247ZM259.98 33.125L257.348 29.821V33.125H255.388V22.765H257.348V28.659L259.952 25.369H262.5L259.084 29.261L262.528 33.125H259.98ZM74.248 42.979V46.731C74.248 46.9923 74.3087 47.1837 74.43 47.305C74.5607 47.417 74.7753 47.473 75.074 47.473H75.984V49.125H74.752C73.1 49.125 72.274 48.3223 72.274 46.717V42.979H71.35V41.369H72.274V39.451H74.248V41.369H75.984V42.979H74.248ZM80.8377 49.251C80.0911 49.251 79.4191 49.0877 78.8217 48.761C78.2244 48.425 77.7531 47.9537 77.4077 47.347C77.0717 46.7403 76.9037 46.0403 76.9037 45.247C76.9037 44.4537 77.0764 43.7537 77.4217 43.147C77.7764 42.5403 78.2571 42.0737 78.8637 41.747C79.4704 41.411 80.1471 41.243 80.8937 41.243C81.6404 41.243 82.3171 41.411 82.9237 41.747C83.5304 42.0737 84.0064 42.5403 84.3517 43.147C84.7064 43.7537 84.8837 44.4537 84.8837 45.247C84.8837 46.0403 84.7017 46.7403 84.3377 47.347C83.9831 47.9537 83.4977 48.425 82.8817 48.761C82.2751 49.0877 81.5937 49.251 80.8377 49.251ZM80.8377 47.543C81.1924 47.543 81.5237 47.459 81.8317 47.291C82.1491 47.1137 82.4011 46.8523 82.5877 46.507C82.7744 46.1617 82.8677 45.7417 82.8677 45.247C82.8677 44.5097 82.6717 43.945 82.2797 43.553C81.8971 43.1517 81.4257 42.951 80.8657 42.951C80.3057 42.951 79.8344 43.1517 79.4517 43.553C79.0784 43.945 78.8917 44.5097 78.8917 45.247C78.8917 45.9843 79.0737 46.5537 79.4377 46.955C79.8111 47.347 80.2777 47.543 80.8377 47.543ZM96.9794 41.369V49.125H95.0054V48.145C94.7534 48.481 94.4221 48.747 94.0114 48.943C93.6101 49.1297 93.1714 49.223 92.6954 49.223C92.0887 49.223 91.5521 49.097 91.0854 48.845C90.6187 48.5837 90.2501 48.2057 89.9794 47.711C89.7181 47.207 89.5874 46.6097 89.5874 45.919V41.369H91.5474V45.639C91.5474 46.255 91.7014 46.731 92.0094 47.067C92.3174 47.3937 92.7374 47.557 93.2694 47.557C93.8107 47.557 94.2354 47.3937 94.5434 47.067C94.8514 46.731 95.0054 46.255 95.0054 45.639V41.369H96.9794ZM100.873 42.489C101.125 42.1343 101.471 41.8403 101.909 41.607C102.357 41.3643 102.866 41.243 103.435 41.243C104.098 41.243 104.695 41.4063 105.227 41.733C105.769 42.0597 106.193 42.5263 106.501 43.133C106.819 43.7303 106.977 44.4257 106.977 45.219C106.977 46.0123 106.819 46.717 106.501 47.333C106.193 47.9397 105.769 48.411 105.227 48.747C104.695 49.083 104.098 49.251 103.435 49.251C102.866 49.251 102.362 49.1343 101.923 48.901C101.494 48.6677 101.144 48.3737 100.873 48.019V52.821H98.9133V41.369H100.873V42.489ZM104.975 45.219C104.975 44.7523 104.877 44.351 104.681 44.015C104.495 43.6697 104.243 43.4083 103.925 43.231C103.617 43.0537 103.281 42.965 102.917 42.965C102.563 42.965 102.227 43.0583 101.909 43.245C101.601 43.4223 101.349 43.6837 101.153 44.029C100.967 44.3743 100.873 44.7803 100.873 45.247C100.873 45.7137 100.967 46.1197 101.153 46.465C101.349 46.8103 101.601 47.0763 101.909 47.263C102.227 47.4403 102.563 47.529 102.917 47.529C103.281 47.529 103.617 47.4357 103.925 47.249C104.243 47.0623 104.495 46.7963 104.681 46.451C104.877 46.1057 104.975 45.695 104.975 45.219ZM110.362 38.765V49.125H108.402V38.765H110.362ZM115.742 49.251C114.995 49.251 114.323 49.0877 113.726 48.761C113.129 48.425 112.657 47.9537 112.312 47.347C111.976 46.7403 111.808 46.0403 111.808 45.247C111.808 44.4537 111.981 43.7537 112.326 43.147C112.681 42.5403 113.161 42.0737 113.768 41.747C114.375 41.411 115.051 41.243 115.798 41.243C116.545 41.243 117.221 41.411 117.828 41.747C118.435 42.0737 118.911 42.5403 119.256 43.147C119.611 43.7537 119.788 44.4537 119.788 45.247C119.788 46.0403 119.606 46.7403 119.242 47.347C118.887 47.9537 118.402 48.425 117.786 48.761C117.179 49.0877 116.498 49.251 115.742 49.251ZM115.742 47.543C116.097 47.543 116.428 47.459 116.736 47.291C117.053 47.1137 117.305 46.8523 117.492 46.507C117.679 46.1617 117.772 45.7417 117.772 45.247C117.772 44.5097 117.576 43.945 117.184 43.553C116.801 43.1517 116.33 42.951 115.77 42.951C115.21 42.951 114.739 43.1517 114.356 43.553C113.983 43.945 113.796 44.5097 113.796 45.247C113.796 45.9843 113.978 46.5537 114.342 46.955C114.715 47.347 115.182 47.543 115.742 47.543ZM120.722 45.219C120.722 44.435 120.876 43.7397 121.184 43.133C121.501 42.5263 121.926 42.0597 122.458 41.733C122.999 41.4063 123.601 41.243 124.264 41.243C124.842 41.243 125.346 41.3597 125.776 41.593C126.214 41.8263 126.564 42.1203 126.826 42.475V41.369H128.8V49.125H126.826V47.991C126.574 48.355 126.224 48.6583 125.776 48.901C125.337 49.1343 124.828 49.251 124.25 49.251C123.596 49.251 122.999 49.083 122.458 48.747C121.926 48.411 121.501 47.9397 121.184 47.333C120.876 46.717 120.722 46.0123 120.722 45.219ZM126.826 45.247C126.826 44.771 126.732 44.365 126.546 44.029C126.359 43.6837 126.107 43.4223 125.79 43.245C125.472 43.0583 125.132 42.965 124.768 42.965C124.404 42.965 124.068 43.0537 123.76 43.231C123.452 43.4083 123.2 43.6697 123.004 44.015C122.817 44.351 122.724 44.7523 122.724 45.219C122.724 45.6857 122.817 46.0963 123.004 46.451C123.2 46.7963 123.452 47.0623 123.76 47.249C124.077 47.4357 124.413 47.529 124.768 47.529C125.132 47.529 125.472 47.4403 125.79 47.263C126.107 47.0763 126.359 46.815 126.546 46.479C126.732 46.1337 126.826 45.723 126.826 45.247ZM130.21 45.219C130.21 44.435 130.364 43.7397 130.672 43.133C130.989 42.5263 131.419 42.0597 131.96 41.733C132.501 41.4063 133.103 41.243 133.766 41.243C134.27 41.243 134.751 41.355 135.208 41.579C135.665 41.7937 136.029 42.083 136.3 42.447V38.765H138.288V49.125H136.3V47.977C136.057 48.3597 135.717 48.6677 135.278 48.901C134.839 49.1343 134.331 49.251 133.752 49.251C133.099 49.251 132.501 49.083 131.96 48.747C131.419 48.411 130.989 47.9397 130.672 47.333C130.364 46.717 130.21 46.0123 130.21 45.219ZM136.314 45.247C136.314 44.771 136.221 44.365 136.034 44.029C135.847 43.6837 135.595 43.4223 135.278 43.245C134.961 43.0583 134.62 42.965 134.256 42.965C133.892 42.965 133.556 43.0537 133.248 43.231C132.94 43.4083 132.688 43.6697 132.492 44.015C132.305 44.351 132.212 44.7523 132.212 45.219C132.212 45.6857 132.305 46.0963 132.492 46.451C132.688 46.7963 132.94 47.0623 133.248 47.249C133.565 47.4357 133.901 47.529 134.256 47.529C134.62 47.529 134.961 47.4403 135.278 47.263C135.595 47.0763 135.847 46.815 136.034 46.479C136.221 46.1337 136.314 45.723 136.314 45.247Z" fill="#333F47"/>
<path d="M76.928 66.421H73.436L72.836 68.125H71.408L74.396 59.773H75.98L78.968 68.125H77.528L76.928 66.421ZM76.544 65.305L75.188 61.429L73.82 65.305H76.544ZM81.6352 59.245V68.125H80.2672V59.245H81.6352ZM84.7993 59.245V68.125H83.4313V59.245H84.7993ZM89.4633 68.233C88.8393 68.233 88.2753 68.093 87.7713 67.813C87.2673 67.525 86.8713 67.125 86.5833 66.613C86.2953 66.093 86.1513 65.493 86.1513 64.813C86.1513 64.141 86.2993 63.545 86.5953 63.025C86.8913 62.505 87.2953 62.105 87.8073 61.825C88.3193 61.545 88.8913 61.405 89.5233 61.405C90.1553 61.405 90.7273 61.545 91.2393 61.825C91.7513 62.105 92.1553 62.505 92.4513 63.025C92.7473 63.545 92.8953 64.141 92.8953 64.813C92.8953 65.485 92.7433 66.081 92.4393 66.601C92.1353 67.121 91.7193 67.525 91.1913 67.813C90.6713 68.093 90.0953 68.233 89.4633 68.233ZM89.4633 67.045C89.8153 67.045 90.1433 66.961 90.4473 66.793C90.7593 66.625 91.0113 66.373 91.2033 66.037C91.3953 65.701 91.4913 65.293 91.4913 64.813C91.4913 64.333 91.3993 63.929 91.2153 63.601C91.0313 63.265 90.7873 63.013 90.4833 62.845C90.1793 62.677 89.8513 62.593 89.4993 62.593C89.1473 62.593 88.8193 62.677 88.5153 62.845C88.2193 63.013 87.9833 63.265 87.8073 63.601C87.6313 63.929 87.5433 64.333 87.5433 64.813C87.5433 65.525 87.7233 66.077 88.0833 66.469C88.4513 66.853 88.9113 67.045 89.4633 67.045ZM103.128 61.513L101.076 68.125H99.6357L98.3037 63.241L96.9717 68.125H95.5317L93.4677 61.513H94.8597L96.2397 66.829L97.6437 61.513H99.0717L100.416 66.805L101.784 61.513H103.128ZM110.21 64.657C110.21 64.905 110.194 65.129 110.162 65.329H105.11C105.15 65.857 105.346 66.281 105.698 66.601C106.05 66.921 106.482 67.081 106.994 67.081C107.73 67.081 108.25 66.773 108.554 66.157H110.03C109.83 66.765 109.466 67.265 108.938 67.657C108.418 68.041 107.77 68.233 106.994 68.233C106.362 68.233 105.794 68.093 105.29 67.813C104.794 67.525 104.402 67.125 104.114 66.613C103.834 66.093 103.694 65.493 103.694 64.813C103.694 64.133 103.83 63.537 104.102 63.025C104.382 62.505 104.77 62.105 105.266 61.825C105.77 61.545 106.346 61.405 106.994 61.405C107.618 61.405 108.174 61.541 108.662 61.813C109.15 62.085 109.53 62.469 109.802 62.965C110.074 63.453 110.21 64.017 110.21 64.657ZM108.782 64.225C108.774 63.721 108.594 63.317 108.242 63.013C107.89 62.709 107.454 62.557 106.934 62.557C106.462 62.557 106.058 62.709 105.722 63.013C105.386 63.309 105.186 63.713 105.122 64.225H108.782ZM111.1 64.789C111.1 64.125 111.236 63.537 111.508 63.025C111.788 62.513 112.164 62.117 112.636 61.837C113.116 61.549 113.648 61.405 114.232 61.405C114.664 61.405 115.088 61.501 115.504 61.693C115.928 61.877 116.264 62.125 116.512 62.437V59.245H117.892V68.125H116.512V67.129C116.288 67.449 115.976 67.713 115.576 67.921C115.184 68.129 114.732 68.233 114.22 68.233C113.644 68.233 113.116 68.089 112.636 67.801C112.164 67.505 111.788 67.097 111.508 66.577C111.236 66.049 111.1 65.453 111.1 64.789ZM116.512 64.813C116.512 64.357 116.416 63.961 116.224 63.625C116.04 63.289 115.796 63.033 115.492 62.857C115.188 62.681 114.86 62.593 114.508 62.593C114.156 62.593 113.828 62.681 113.524 62.857C113.22 63.025 112.972 63.277 112.78 63.613C112.596 63.941 112.504 64.333 112.504 64.789C112.504 65.245 112.596 65.645 112.78 65.989C112.972 66.333 113.22 66.597 113.524 66.781C113.836 66.957 114.164 67.045 114.508 67.045C114.86 67.045 115.188 66.957 115.492 66.781C115.796 66.605 116.04 66.349 116.224 66.013C116.416 65.669 116.512 65.269 116.512 64.813ZM125.578 62.629H124.354V68.125H122.974V62.629H122.194V61.513H122.974V61.045C122.974 60.285 123.174 59.733 123.574 59.389C123.982 59.037 124.618 58.861 125.482 58.861V60.001C125.066 60.001 124.774 60.081 124.606 60.241C124.438 60.393 124.354 60.661 124.354 61.045V61.513H125.578V62.629ZM127.487 60.637C127.239 60.637 127.031 60.553 126.863 60.385C126.695 60.217 126.611 60.009 126.611 59.761C126.611 59.513 126.695 59.305 126.863 59.137C127.031 58.969 127.239 58.885 127.487 58.885C127.727 58.885 127.931 58.969 128.099 59.137C128.267 59.305 128.351 59.513 128.351 59.761C128.351 60.009 128.267 60.217 128.099 60.385C127.931 60.553 127.727 60.637 127.487 60.637ZM128.159 61.513V68.125H126.791V61.513H128.159ZM131.323 59.245V68.125H129.955V59.245H131.323ZM139.179 64.657C139.179 64.905 139.163 65.129 139.131 65.329H134.079C134.119 65.857 134.315 66.281 134.667 66.601C135.019 66.921 135.451 67.081 135.963 67.081C136.699 67.081 137.219 66.773 137.523 66.157H138.999C138.799 66.765 138.435 67.265 137.907 67.657C137.387 68.041 136.739 68.233 135.963 68.233C135.331 68.233 134.763 68.093 134.259 67.813C133.763 67.525 133.371 67.125 133.083 66.613C132.803 66.093 132.663 65.493 132.663 64.813C132.663 64.133 132.799 63.537 133.071 63.025C133.351 62.505 133.739 62.105 134.235 61.825C134.739 61.545 135.315 61.405 135.963 61.405C136.587 61.405 137.143 61.541 137.631 61.813C138.119 62.085 138.499 62.469 138.771 62.965C139.043 63.453 139.179 64.017 139.179 64.657ZM137.751 64.225C137.743 63.721 137.563 63.317 137.211 63.013C136.859 62.709 136.423 62.557 135.903 62.557C135.431 62.557 135.027 62.709 134.691 63.013C134.355 63.309 134.155 63.713 134.091 64.225H137.751ZM142.925 68.233C142.405 68.233 141.937 68.141 141.521 67.957C141.113 67.765 140.789 67.509 140.549 67.189C140.309 66.861 140.181 66.497 140.165 66.097H141.581C141.605 66.377 141.737 66.613 141.977 66.805C142.225 66.989 142.533 67.081 142.901 67.081C143.285 67.081 143.581 67.009 143.789 66.865C144.005 66.713 144.113 66.521 144.113 66.289C144.113 66.041 143.993 65.857 143.753 65.737C143.521 65.617 143.149 65.485 142.637 65.341C142.141 65.205 141.737 65.073 141.425 64.945C141.113 64.817 140.841 64.621 140.609 64.357C140.385 64.093 140.273 63.745 140.273 63.313C140.273 62.961 140.377 62.641 140.585 62.353C140.793 62.057 141.089 61.825 141.473 61.657C141.865 61.489 142.313 61.405 142.817 61.405C143.569 61.405 144.173 61.597 144.629 61.981C145.093 62.357 145.341 62.873 145.373 63.529H144.005C143.981 63.233 143.861 62.997 143.645 62.821C143.429 62.645 143.137 62.557 142.769 62.557C142.409 62.557 142.133 62.625 141.941 62.761C141.749 62.897 141.653 63.077 141.653 63.301C141.653 63.477 141.717 63.625 141.845 63.745C141.973 63.865 142.129 63.961 142.313 64.033C142.497 64.097 142.769 64.181 143.129 64.285C143.609 64.413 144.001 64.545 144.305 64.681C144.617 64.809 144.885 65.001 145.109 65.257C145.333 65.513 145.449 65.853 145.457 66.277C145.457 66.653 145.353 66.989 145.145 67.285C144.937 67.581 144.641 67.813 144.257 67.981C143.881 68.149 143.437 68.233 142.925 68.233ZM147.487 68.209C147.239 68.209 147.031 68.125 146.863 67.957C146.695 67.789 146.611 67.581 146.611 67.333C146.611 67.085 146.695 66.877 146.863 66.709C147.031 66.541 147.239 66.457 147.487 66.457C147.727 66.457 147.931 66.541 148.099 66.709C148.267 66.877 148.351 67.085 148.351 67.333C148.351 67.581 148.267 67.789 148.099 67.957C147.931 68.125 147.727 68.209 147.487 68.209ZM147.487 63.169C147.239 63.169 147.031 63.085 146.863 62.917C146.695 62.749 146.611 62.541 146.611 62.293C146.611 62.045 146.695 61.837 146.863 61.669C147.031 61.501 147.239 61.417 147.487 61.417C147.727 61.417 147.931 61.501 148.099 61.669C148.267 61.837 148.351 62.045 148.351 62.293C148.351 62.541 148.267 62.749 148.099 62.917C147.931 63.085 147.727 63.169 147.487 63.169ZM153.546 68.209C153.298 68.209 153.09 68.125 152.922 67.957C152.754 67.789 152.67 67.581 152.67 67.333C152.67 67.085 152.754 66.877 152.922 66.709C153.09 66.541 153.298 66.457 153.546 66.457C153.786 66.457 153.99 66.541 154.158 66.709C154.326 66.877 154.41 67.085 154.41 67.333C154.41 67.581 154.326 67.789 154.158 67.957C153.99 68.125 153.786 68.209 153.546 68.209ZM156.584 60.637C156.336 60.637 156.128 60.553 155.96 60.385C155.792 60.217 155.708 60.009 155.708 59.761C155.708 59.513 155.792 59.305 155.96 59.137C156.128 58.969 156.336 58.885 156.584 58.885C156.824 58.885 157.028 58.969 157.196 59.137C157.364 59.305 157.448 59.513 157.448 59.761C157.448 60.009 157.364 60.217 157.196 60.385C157.028 60.553 156.824 60.637 156.584 60.637ZM157.256 69.421C157.256 70.069 157.092 70.537 156.764 70.825C156.444 71.121 155.976 71.269 155.36 71.269H154.652V70.117H155.12C155.4 70.117 155.596 70.061 155.708 69.949C155.828 69.845 155.888 69.669 155.888 69.421V61.513H157.256V69.421ZM160.42 62.485C160.652 62.181 160.968 61.925 161.368 61.717C161.768 61.509 162.22 61.405 162.724 61.405C163.3 61.405 163.824 61.549 164.296 61.837C164.776 62.117 165.152 62.513 165.424 63.025C165.696 63.537 165.832 64.125 165.832 64.789C165.832 65.453 165.696 66.049 165.424 66.577C165.152 67.097 164.776 67.505 164.296 67.801C163.824 68.089 163.3 68.233 162.724 68.233C162.22 68.233 161.772 68.133 161.38 67.933C160.988 67.725 160.668 67.469 160.42 67.165V71.269H159.052V61.513H160.42V62.485ZM164.44 64.789C164.44 64.333 164.344 63.941 164.152 63.613C163.968 63.277 163.72 63.025 163.408 62.857C163.104 62.681 162.776 62.593 162.424 62.593C162.08 62.593 161.752 62.681 161.44 62.857C161.136 63.033 160.888 63.289 160.696 63.625C160.512 63.961 160.42 64.357 160.42 64.813C160.42 65.269 160.512 65.669 160.696 66.013C160.888 66.349 161.136 66.605 161.44 66.781C161.752 66.957 162.08 67.045 162.424 67.045C162.776 67.045 163.104 66.957 163.408 66.781C163.72 66.597 163.968 66.333 164.152 65.989C164.344 65.645 164.44 65.245 164.44 64.789ZM169.849 61.405C170.361 61.405 170.813 61.509 171.205 61.717C171.605 61.917 171.917 62.169 172.141 62.473V61.513H173.521V68.233C173.521 68.841 173.393 69.381 173.137 69.853C172.881 70.333 172.509 70.709 172.021 70.981C171.541 71.253 170.965 71.389 170.293 71.389C169.397 71.389 168.653 71.177 168.061 70.753C167.469 70.337 167.133 69.769 167.053 69.049H168.409C168.513 69.393 168.733 69.669 169.069 69.877C169.413 70.093 169.821 70.201 170.293 70.201C170.845 70.201 171.289 70.033 171.625 69.697C171.969 69.361 172.141 68.873 172.141 68.233V67.129C171.909 67.441 171.593 67.705 171.193 67.921C170.801 68.129 170.353 68.233 169.849 68.233C169.273 68.233 168.745 68.089 168.265 67.801C167.793 67.505 167.417 67.097 167.137 66.577C166.865 66.049 166.729 65.453 166.729 64.789C166.729 64.125 166.865 63.537 167.137 63.025C167.417 62.513 167.793 62.117 168.265 61.837C168.745 61.549 169.273 61.405 169.849 61.405ZM172.141 64.813C172.141 64.357 172.045 63.961 171.853 63.625C171.669 63.289 171.425 63.033 171.121 62.857C170.817 62.681 170.489 62.593 170.137 62.593C169.785 62.593 169.457 62.681 169.153 62.857C168.849 63.025 168.601 63.277 168.409 63.613C168.225 63.941 168.133 64.333 168.133 64.789C168.133 65.245 168.225 65.645 168.409 65.989C168.601 66.333 168.849 66.597 169.153 66.781C169.465 66.957 169.793 67.045 170.137 67.045C170.489 67.045 170.817 66.957 171.121 66.781C171.425 66.605 171.669 66.349 171.853 66.013C172.045 65.669 172.141 65.269 172.141 64.813ZM176.818 66.481L175.366 69.793H174.478L175.33 66.481H176.818ZM181.682 68.209C181.434 68.209 181.226 68.125 181.058 67.957C180.89 67.789 180.806 67.581 180.806 67.333C180.806 67.085 180.89 66.877 181.058 66.709C181.226 66.541 181.434 66.457 181.682 66.457C181.922 66.457 182.126 66.541 182.294 66.709C182.462 66.877 182.546 67.085 182.546 67.333C182.546 67.581 182.462 67.789 182.294 67.957C182.126 68.125 181.922 68.209 181.682 68.209ZM184.721 60.637C184.473 60.637 184.265 60.553 184.097 60.385C183.929 60.217 183.845 60.009 183.845 59.761C183.845 59.513 183.929 59.305 184.097 59.137C184.265 58.969 184.473 58.885 184.721 58.885C184.961 58.885 185.165 58.969 185.333 59.137C185.501 59.305 185.585 59.513 185.585 59.761C185.585 60.009 185.501 60.217 185.333 60.385C185.165 60.553 184.961 60.637 184.721 60.637ZM185.393 69.421C185.393 70.069 185.229 70.537 184.901 70.825C184.581 71.121 184.113 71.269 183.497 71.269H182.789V70.117H183.257C183.537 70.117 183.733 70.061 183.845 69.949C183.965 69.845 184.025 69.669 184.025 69.421V61.513H185.393V69.421ZM188.557 62.485C188.789 62.181 189.105 61.925 189.505 61.717C189.905 61.509 190.357 61.405 190.861 61.405C191.437 61.405 191.961 61.549 192.433 61.837C192.913 62.117 193.289 62.513 193.561 63.025C193.833 63.537 193.969 64.125 193.969 64.789C193.969 65.453 193.833 66.049 193.561 66.577C193.289 67.097 192.913 67.505 192.433 67.801C191.961 68.089 191.437 68.233 190.861 68.233C190.357 68.233 189.909 68.133 189.517 67.933C189.125 67.725 188.805 67.469 188.557 67.165V71.269H187.189V61.513H188.557V62.485ZM192.577 64.789C192.577 64.333 192.481 63.941 192.289 63.613C192.105 63.277 191.857 63.025 191.545 62.857C191.241 62.681 190.913 62.593 190.561 62.593C190.217 62.593 189.889 62.681 189.577 62.857C189.273 63.033 189.025 63.289 188.833 63.625C188.649 63.961 188.557 64.357 188.557 64.813C188.557 65.269 188.649 65.669 188.833 66.013C189.025 66.349 189.273 66.605 189.577 66.781C189.889 66.957 190.217 67.045 190.561 67.045C190.913 67.045 191.241 66.957 191.545 66.781C191.857 66.597 192.105 66.333 192.289 65.989C192.481 65.645 192.577 65.245 192.577 64.789ZM201.382 64.657C201.382 64.905 201.366 65.129 201.334 65.329H196.282C196.322 65.857 196.518 66.281 196.87 66.601C197.222 66.921 197.654 67.081 198.166 67.081C198.902 67.081 199.422 66.773 199.726 66.157H201.202C201.002 66.765 200.638 67.265 200.11 67.657C199.59 68.041 198.942 68.233 198.166 68.233C197.534 68.233 196.966 68.093 196.462 67.813C195.966 67.525 195.574 67.125 195.286 66.613C195.006 66.093 194.866 65.493 194.866 64.813C194.866 64.133 195.002 63.537 195.274 63.025C195.554 62.505 195.942 62.105 196.438 61.825C196.942 61.545 197.518 61.405 198.166 61.405C198.79 61.405 199.346 61.541 199.834 61.813C200.322 62.085 200.702 62.469 200.974 62.965C201.246 63.453 201.382 64.017 201.382 64.657ZM199.954 64.225C199.946 63.721 199.766 63.317 199.414 63.013C199.062 62.709 198.626 62.557 198.106 62.557C197.634 62.557 197.23 62.709 196.894 63.013C196.558 63.309 196.358 63.713 196.294 64.225H199.954ZM205.392 61.405C205.904 61.405 206.356 61.509 206.748 61.717C207.148 61.917 207.46 62.169 207.684 62.473V61.513H209.064V68.233C209.064 68.841 208.936 69.381 208.68 69.853C208.424 70.333 208.052 70.709 207.564 70.981C207.084 71.253 206.508 71.389 205.836 71.389C204.94 71.389 204.196 71.177 203.604 70.753C203.012 70.337 202.676 69.769 202.596 69.049H203.952C204.056 69.393 204.276 69.669 204.612 69.877C204.956 70.093 205.364 70.201 205.836 70.201C206.388 70.201 206.832 70.033 207.168 69.697C207.512 69.361 207.684 68.873 207.684 68.233V67.129C207.452 67.441 207.136 67.705 206.736 67.921C206.344 68.129 205.896 68.233 205.392 68.233C204.816 68.233 204.288 68.089 203.808 67.801C203.336 67.505 202.96 67.097 202.68 66.577C202.408 66.049 202.272 65.453 202.272 64.789C202.272 64.125 202.408 63.537 202.68 63.025C202.96 62.513 203.336 62.117 203.808 61.837C204.288 61.549 204.816 61.405 205.392 61.405ZM207.684 64.813C207.684 64.357 207.588 63.961 207.396 63.625C207.212 63.289 206.968 63.033 206.664 62.857C206.36 62.681 206.032 62.593 205.68 62.593C205.328 62.593 205 62.681 204.696 62.857C204.392 63.025 204.144 63.277 203.952 63.613C203.768 63.941 203.676 64.333 203.676 64.789C203.676 65.245 203.768 65.645 203.952 65.989C204.144 66.333 204.392 66.597 204.696 66.781C205.008 66.957 205.336 67.045 205.68 67.045C206.032 67.045 206.36 66.957 206.664 66.781C206.968 66.605 207.212 66.349 207.396 66.013C207.588 65.669 207.684 65.269 207.684 64.813ZM212.361 66.481L210.909 69.793H210.021L210.873 66.481H212.361ZM217.225 68.209C216.977 68.209 216.769 68.125 216.601 67.957C216.433 67.789 216.349 67.581 216.349 67.333C216.349 67.085 216.433 66.877 216.601 66.709C216.769 66.541 216.977 66.457 217.225 66.457C217.465 66.457 217.669 66.541 217.837 66.709C218.005 66.877 218.089 67.085 218.089 67.333C218.089 67.581 218.005 67.789 217.837 67.957C217.669 68.125 217.465 68.209 217.225 68.209ZM220.936 62.485C221.168 62.181 221.484 61.925 221.884 61.717C222.284 61.509 222.736 61.405 223.24 61.405C223.816 61.405 224.34 61.549 224.812 61.837C225.292 62.117 225.668 62.513 225.94 63.025C226.212 63.537 226.348 64.125 226.348 64.789C226.348 65.453 226.212 66.049 225.94 66.577C225.668 67.097 225.292 67.505 224.812 67.801C224.34 68.089 223.816 68.233 223.24 68.233C222.736 68.233 222.288 68.133 221.896 67.933C221.504 67.725 221.184 67.469 220.936 67.165V71.269H219.568V61.513H220.936V62.485ZM224.956 64.789C224.956 64.333 224.86 63.941 224.668 63.613C224.484 63.277 224.236 63.025 223.924 62.857C223.62 62.681 223.292 62.593 222.94 62.593C222.596 62.593 222.268 62.681 221.956 62.857C221.652 63.033 221.404 63.289 221.212 63.625C221.028 63.961 220.936 64.357 220.936 64.813C220.936 65.269 221.028 65.669 221.212 66.013C221.404 66.349 221.652 66.605 221.956 66.781C222.268 66.957 222.596 67.045 222.94 67.045C223.292 67.045 223.62 66.957 223.924 66.781C224.236 66.597 224.484 66.333 224.668 65.989C224.86 65.645 224.956 65.245 224.956 64.789ZM231.037 61.405C231.557 61.405 232.021 61.513 232.429 61.729C232.845 61.945 233.169 62.265 233.401 62.689C233.633 63.113 233.749 63.625 233.749 64.225V68.125H232.393V64.429C232.393 63.837 232.245 63.385 231.949 63.073C231.653 62.753 231.249 62.593 230.737 62.593C230.225 62.593 229.817 62.753 229.513 63.073C229.217 63.385 229.069 63.837 229.069 64.429V68.125H227.701V61.513H229.069V62.269C229.293 61.997 229.577 61.785 229.921 61.633C230.273 61.481 230.645 61.405 231.037 61.405ZM238.158 61.405C238.67 61.405 239.122 61.509 239.514 61.717C239.914 61.917 240.226 62.169 240.45 62.473V61.513H241.83V68.233C241.83 68.841 241.702 69.381 241.446 69.853C241.19 70.333 240.818 70.709 240.33 70.981C239.85 71.253 239.274 71.389 238.602 71.389C237.706 71.389 236.962 71.177 236.37 70.753C235.778 70.337 235.442 69.769 235.362 69.049H236.718C236.822 69.393 237.042 69.669 237.378 69.877C237.722 70.093 238.13 70.201 238.602 70.201C239.154 70.201 239.598 70.033 239.934 69.697C240.278 69.361 240.45 68.873 240.45 68.233V67.129C240.218 67.441 239.902 67.705 239.502 67.921C239.11 68.129 238.662 68.233 238.158 68.233C237.582 68.233 237.054 68.089 236.574 67.801C236.102 67.505 235.726 67.097 235.446 66.577C235.174 66.049 235.038 65.453 235.038 64.789C235.038 64.125 235.174 63.537 235.446 63.025C235.726 62.513 236.102 62.117 236.574 61.837C237.054 61.549 237.582 61.405 238.158 61.405ZM240.45 64.813C240.45 64.357 240.354 63.961 240.162 63.625C239.978 63.289 239.734 63.033 239.43 62.857C239.126 62.681 238.798 62.593 238.446 62.593C238.094 62.593 237.766 62.681 237.462 62.857C237.158 63.025 236.91 63.277 236.718 63.613C236.534 63.941 236.442 64.333 236.442 64.789C236.442 65.245 236.534 65.645 236.718 65.989C236.91 66.333 237.158 66.597 237.462 66.781C237.774 66.957 238.102 67.045 238.446 67.045C238.798 67.045 239.126 66.957 239.43 66.781C239.734 66.605 239.978 66.349 240.162 66.013C240.354 65.669 240.45 65.269 240.45 64.813ZM245.127 66.481L243.675 69.793H242.787L243.639 66.481H245.127ZM249.991 68.209C249.743 68.209 249.535 68.125 249.367 67.957C249.199 67.789 249.115 67.581 249.115 67.333C249.115 67.085 249.199 66.877 249.367 66.709C249.535 66.541 249.743 66.457 249.991 66.457C250.231 66.457 250.435 66.541 250.603 66.709C250.771 66.877 250.855 67.085 250.855 67.333C250.855 67.581 250.771 67.789 250.603 67.957C250.435 68.125 250.231 68.209 249.991 68.209ZM254.998 61.405C255.51 61.405 255.962 61.509 256.354 61.717C256.754 61.917 257.066 62.169 257.29 62.473V61.513H258.67V68.233C258.67 68.841 258.542 69.381 258.286 69.853C258.03 70.333 257.658 70.709 257.17 70.981C256.69 71.253 256.114 71.389 255.442 71.389C254.546 71.389 253.802 71.177 253.21 70.753C252.618 70.337 252.282 69.769 252.202 69.049H253.558C253.662 69.393 253.882 69.669 254.218 69.877C254.562 70.093 254.97 70.201 255.442 70.201C255.994 70.201 256.438 70.033 256.774 69.697C257.118 69.361 257.29 68.873 257.29 68.233V67.129C257.058 67.441 256.742 67.705 256.342 67.921C255.95 68.129 255.502 68.233 254.998 68.233C254.422 68.233 253.894 68.089 253.414 67.801C252.942 67.505 252.566 67.097 252.286 66.577C252.014 66.049 251.878 65.453 251.878 64.789C251.878 64.125 252.014 63.537 252.286 63.025C252.566 62.513 252.942 62.117 253.414 61.837C253.894 61.549 254.422 61.405 254.998 61.405ZM257.29 64.813C257.29 64.357 257.194 63.961 257.002 63.625C256.818 63.289 256.574 63.033 256.27 62.857C255.966 62.681 255.638 62.593 255.286 62.593C254.934 62.593 254.606 62.681 254.302 62.857C253.998 63.025 253.75 63.277 253.558 63.613C253.374 63.941 253.282 64.333 253.282 64.789C253.282 65.245 253.374 65.645 253.558 65.989C253.75 66.333 253.998 66.597 254.302 66.781C254.614 66.957 254.942 67.045 255.286 67.045C255.638 67.045 255.966 66.957 256.27 66.781C256.574 66.605 256.818 66.349 257.002 66.013C257.194 65.669 257.29 65.269 257.29 64.813ZM261.162 60.637C260.914 60.637 260.706 60.553 260.538 60.385C260.37 60.217 260.286 60.009 260.286 59.761C260.286 59.513 260.37 59.305 260.538 59.137C260.706 58.969 260.914 58.885 261.162 58.885C261.402 58.885 261.606 58.969 261.774 59.137C261.942 59.305 262.026 59.513 262.026 59.761C262.026 60.009 261.942 60.217 261.774 60.385C261.606 60.553 261.402 60.637 261.162 60.637ZM261.834 61.513V68.125H260.466V61.513H261.834ZM266.402 62.629H265.178V68.125H263.798V62.629H263.018V61.513H263.798V61.045C263.798 60.285 263.998 59.733 264.398 59.389C264.806 59.037 265.442 58.861 266.306 58.861V60.001C265.89 60.001 265.598 60.081 265.43 60.241C265.262 60.393 265.178 60.661 265.178 61.045V61.513H266.402V62.629ZM269.115 66.481L267.663 69.793H266.775L267.627 66.481H269.115ZM72.452 84.209C72.204 84.209 71.996 84.125 71.828 83.957C71.66 83.789 71.576 83.581 71.576 83.333C71.576 83.085 71.66 82.877 71.828 82.709C71.996 82.541 72.204 82.457 72.452 82.457C72.692 82.457 72.896 82.541 73.064 82.709C73.232 82.877 73.316 83.085 73.316 83.333C73.316 83.581 73.232 83.789 73.064 83.957C72.896 84.125 72.692 84.209 72.452 84.209ZM76.1625 78.485C76.3945 78.181 76.7105 77.925 77.1105 77.717C77.5105 77.509 77.9625 77.405 78.4665 77.405C79.0425 77.405 79.5665 77.549 80.0385 77.837C80.5185 78.117 80.8945 78.513 81.1665 79.025C81.4385 79.537 81.5745 80.125 81.5745 80.789C81.5745 81.453 81.4385 82.049 81.1665 82.577C80.8945 83.097 80.5185 83.505 80.0385 83.801C79.5665 84.089 79.0425 84.233 78.4665 84.233C77.9625 84.233 77.5145 84.133 77.1225 83.933C76.7305 83.725 76.4105 83.469 76.1625 83.165V87.269H74.7945V77.513H76.1625V78.485ZM80.1825 80.789C80.1825 80.333 80.0865 79.941 79.8945 79.613C79.7105 79.277 79.4625 79.025 79.1505 78.857C78.8465 78.681 78.5185 78.593 78.1665 78.593C77.8225 78.593 77.4945 78.681 77.1825 78.857C76.8785 79.033 76.6305 79.289 76.4385 79.625C76.2545 79.961 76.1625 80.357 76.1625 80.813C76.1625 81.269 76.2545 81.669 76.4385 82.013C76.6305 82.349 76.8785 82.605 77.1825 82.781C77.4945 82.957 77.8225 83.045 78.1665 83.045C78.5185 83.045 78.8465 82.957 79.1505 82.781C79.4625 82.597 79.7105 82.333 79.8945 81.989C80.0865 81.645 80.1825 81.245 80.1825 80.789ZM82.4713 80.789C82.4713 80.125 82.6073 79.537 82.8793 79.025C83.1593 78.513 83.5353 78.117 84.0073 77.837C84.4873 77.549 85.0193 77.405 85.6033 77.405C86.0353 77.405 86.4593 77.501 86.8753 77.693C87.2993 77.877 87.6353 78.125 87.8833 78.437V75.245H89.2633V84.125H87.8833V83.129C87.6593 83.449 87.3473 83.713 86.9473 83.921C86.5553 84.129 86.1033 84.233 85.5913 84.233C85.0153 84.233 84.4873 84.089 84.0073 83.801C83.5353 83.505 83.1593 83.097 82.8793 82.577C82.6073 82.049 82.4713 81.453 82.4713 80.789ZM87.8833 80.813C87.8833 80.357 87.7873 79.961 87.5953 79.625C87.4113 79.289 87.1673 79.033 86.8633 78.857C86.5593 78.681 86.2313 78.593 85.8793 78.593C85.5273 78.593 85.1993 78.681 84.8953 78.857C84.5913 79.025 84.3433 79.277 84.1513 79.613C83.9673 79.941 83.8753 80.333 83.8753 80.789C83.8753 81.245 83.9673 81.645 84.1513 81.989C84.3433 82.333 84.5913 82.597 84.8953 82.781C85.2073 82.957 85.5353 83.045 85.8793 83.045C86.2313 83.045 86.5593 82.957 86.8633 82.781C87.1673 82.605 87.4113 82.349 87.5953 82.013C87.7873 81.669 87.8833 81.269 87.8833 80.813ZM93.8322 78.629H92.6082V84.125H91.2282V78.629H90.4482V77.513H91.2282V77.045C91.2282 76.285 91.4282 75.733 91.8282 75.389C92.2362 75.037 92.8722 74.861 93.7362 74.861V76.001C93.3202 76.001 93.0282 76.081 92.8602 76.241C92.6922 76.393 92.6082 76.661 92.6082 77.045V77.513H93.8322V78.629ZM96.5445 82.481L95.0925 85.793H94.2045L95.0565 82.481H96.5445ZM101.409 84.209C101.161 84.209 100.953 84.125 100.785 83.957C100.617 83.789 100.533 83.581 100.533 83.333C100.533 83.085 100.617 82.877 100.785 82.709C100.953 82.541 101.161 82.457 101.409 82.457C101.649 82.457 101.853 82.541 102.021 82.709C102.189 82.877 102.273 83.085 102.273 83.333C102.273 83.581 102.189 83.789 102.021 83.957C101.853 84.125 101.649 84.209 101.409 84.209ZM103.296 80.789C103.296 80.125 103.432 79.537 103.704 79.025C103.984 78.513 104.36 78.117 104.832 77.837C105.312 77.549 105.844 77.405 106.428 77.405C106.86 77.405 107.284 77.501 107.7 77.693C108.124 77.877 108.46 78.125 108.708 78.437V75.245H110.088V84.125H108.708V83.129C108.484 83.449 108.172 83.713 107.772 83.921C107.38 84.129 106.928 84.233 106.416 84.233C105.84 84.233 105.312 84.089 104.832 83.801C104.36 83.505 103.984 83.097 103.704 82.577C103.432 82.049 103.296 81.453 103.296 80.789ZM108.708 80.813C108.708 80.357 108.612 79.961 108.42 79.625C108.236 79.289 107.992 79.033 107.688 78.857C107.384 78.681 107.056 78.593 106.704 78.593C106.352 78.593 106.024 78.681 105.72 78.857C105.416 79.025 105.168 79.277 104.976 79.613C104.792 79.941 104.7 80.333 104.7 80.789C104.7 81.245 104.792 81.645 104.976 81.989C105.168 82.333 105.416 82.597 105.72 82.781C106.032 82.957 106.36 83.045 106.704 83.045C107.056 83.045 107.384 82.957 107.688 82.781C107.992 82.605 108.236 82.349 108.42 82.013C108.612 81.669 108.708 81.269 108.708 80.813ZM114.752 84.233C114.128 84.233 113.564 84.093 113.06 83.813C112.556 83.525 112.16 83.125 111.872 82.613C111.584 82.093 111.44 81.493 111.44 80.813C111.44 80.141 111.588 79.545 111.884 79.025C112.18 78.505 112.584 78.105 113.096 77.825C113.608 77.545 114.18 77.405 114.812 77.405C115.444 77.405 116.016 77.545 116.528 77.825C117.04 78.105 117.444 78.505 117.74 79.025C118.036 79.545 118.184 80.141 118.184 80.813C118.184 81.485 118.032 82.081 117.728 82.601C117.424 83.121 117.008 83.525 116.48 83.813C115.96 84.093 115.384 84.233 114.752 84.233ZM114.752 83.045C115.104 83.045 115.432 82.961 115.736 82.793C116.048 82.625 116.3 82.373 116.492 82.037C116.684 81.701 116.78 81.293 116.78 80.813C116.78 80.333 116.688 79.929 116.504 79.601C116.32 79.265 116.076 79.013 115.772 78.845C115.468 78.677 115.14 78.593 114.788 78.593C114.436 78.593 114.108 78.677 113.804 78.845C113.508 79.013 113.272 79.265 113.096 79.601C112.92 79.929 112.832 80.333 112.832 80.813C112.832 81.525 113.012 82.077 113.372 82.469C113.74 82.853 114.2 83.045 114.752 83.045ZM119.081 80.813C119.081 80.133 119.217 79.537 119.489 79.025C119.769 78.505 120.153 78.105 120.641 77.825C121.129 77.545 121.689 77.405 122.321 77.405C123.121 77.405 123.781 77.597 124.301 77.981C124.829 78.357 125.185 78.897 125.369 79.601H123.893C123.773 79.273 123.581 79.017 123.317 78.833C123.053 78.649 122.721 78.557 122.321 78.557C121.761 78.557 121.313 78.757 120.977 79.157C120.649 79.549 120.485 80.101 120.485 80.813C120.485 81.525 120.649 82.081 120.977 82.481C121.313 82.881 121.761 83.081 122.321 83.081C123.113 83.081 123.637 82.733 123.893 82.037H125.369C125.177 82.709 124.817 83.245 124.289 83.645C123.761 84.037 123.105 84.233 122.321 84.233C121.689 84.233 121.129 84.093 120.641 83.813C120.153 83.525 119.769 83.125 119.489 82.613C119.217 82.093 119.081 81.493 119.081 80.813Z" fill="#7E93A8"/>
</svg>
