<svg width="89" height="50" viewBox="0 0 89 50" fill="none" xmlns="http://www.w3.org/2000/svg">
<g id="Illustration">
<path id="Vector" d="M9.17314 29.5341C9.55837 29.4797 9.95104 29.546 10.2967 29.7238C10.6423 29.9016 10.9238 30.182 11.1021 30.5261C11.2938 31.0305 11.2795 31.5896 11.0622 32.0836C10.9255 32.3277 10.7328 32.5362 10.4998 32.6922C10.2668 32.8482 10.0001 32.9473 9.72142 32.9814C9.28883 32.9897 8.86474 32.8612 8.51024 32.6144C8.32029 32.4814 8.16049 32.3103 8.04115 32.1121C7.92181 31.9139 7.84558 31.693 7.81741 31.4636C7.80793 31.1589 7.8658 30.8558 7.98689 30.5757C8.25186 30.1044 8.67026 29.7371 9.17314 29.5341Z" fill="#CBD4DC"/>
<path id="Vector_2" d="M9.57031 29.881C9.57031 29.881 10.9659 26.9645 11.3048 26.4833C11.6438 26.0022 14.9982 23.1055 14.9982 23.1055L19.529 25.0399C19.529 25.0399 13.5877 27.2522 12.9148 27.8821C12.2419 28.512 10.5522 30.3026 10.5522 30.3026L9.57031 29.881Z" fill="#CBD4DC"/>
<path id="Vector_3" d="M76.0094 46.7152C75.6987 46.4865 75.3246 46.359 74.9382 46.3501C74.5519 46.3412 74.1722 46.4514 73.8512 46.6656C73.4419 47.0202 73.1894 47.5209 73.1484 48.0594C73.153 48.3386 73.224 48.6128 73.3557 48.8594C73.4874 49.106 73.6761 49.318 73.9061 49.478C74.2823 49.6909 74.7179 49.7762 75.1472 49.7211C75.3779 49.6939 75.6003 49.6185 75.7996 49.4996C75.9989 49.3808 76.1706 49.2213 76.3035 49.0316C76.4546 48.7665 76.5464 48.4721 76.5727 48.1685C76.5567 47.6344 76.358 47.1217 76.0094 46.7152Z" fill="#CBD4DC"/>
<path id="Vector_4" d="M75.4896 46.8483C75.4896 46.8483 75.6441 43.6242 75.5693 43.0439C75.4946 42.4636 73.9096 38.3268 73.9096 38.3268L69 37.9102C69 37.9102 73.1918 42.6471 73.4859 43.5201C73.78 44.3931 74.4279 46.759 74.4279 46.759L75.4896 46.8483Z" fill="#CBD4DC"/>
<path id="Vector_5" d="M42.8172 44.4626C42.5504 44.1842 42.2037 43.9948 41.8244 43.9202C41.4452 43.8456 41.0521 43.8895 40.6989 44.046C40.2363 44.3269 39.9033 44.7776 39.7718 45.3009C39.728 45.5766 39.7503 45.8587 39.837 46.1242C39.9236 46.3897 40.0721 46.6311 40.2703 46.8286C40.6077 47.1003 41.023 47.2584 41.4565 47.28C41.6891 47.2896 41.9212 47.2504 42.1376 47.1649C42.354 47.0795 42.5499 46.9497 42.7126 46.784C42.9058 46.5507 43.0453 46.2781 43.1213 45.9854C43.1973 45.4581 43.0901 44.9209 42.8172 44.4626Z" fill="#CBD4DC"/>
<path id="Vector_6" d="M42.2896 44.4936C42.2896 44.4936 43.4011 41.8548 43.6204 41.3092C43.9194 40.5503 46.0876 36.7409 46.0876 36.7409L41.3176 35.5059C41.3176 35.5059 41.4622 40.1287 41.4472 41.0513C41.4472 42.083 41.2578 44.2258 41.2578 44.2258L42.2896 44.4936Z" fill="#CBD4DC"/>
<path id="Vector_7" d="M0.555247 19.1926C0.659354 18.8201 0.874919 18.4879 1.1733 18.2403L1.47733 18.0022L5.59439 14.793L86.2258 35.9083L88.2444 40.7593L88.374 41.0668C88.5109 41.4316 88.5369 41.8283 88.4488 42.2077C87.2426 46.766 66.5876 45.3028 42.3139 38.9489C18.0402 32.5949 -0.65096 23.7559 0.555247 19.1926Z" fill="#CBD4DC"/>
<path id="Vector_8" d="M5.01555 15.6817C6.13204 11.4705 25.232 12.8197 47.6814 18.6975C70.1307 24.5752 87.4263 32.7595 86.3148 36.9706C85.2033 41.1818 66.0984 39.8326 43.649 33.9549C21.1997 28.0771 3.90405 19.8978 5.01555 15.6817Z" fill="#D8DFE5"/>
<path id="Vector_9" d="M65.789 25.4817C64.8727 25.6491 63.9442 25.742 63.0127 25.7594C61.9411 25.7991 60.8047 25.809 59.4141 25.7297C60.3287 25.562 61.2555 25.4691 62.1853 25.4519C63.262 25.4172 64.3984 25.4023 65.789 25.4817Z" fill="#C7C7C7"/>
<path id="Vector_10" d="M47.1871 19.6855C47.3072 19.852 47.3891 20.0427 47.427 20.2441C47.4649 20.4455 47.4579 20.6528 47.4064 20.8512C47.3538 21.0489 47.2576 21.2325 47.1248 21.3886C46.9921 21.5447 46.8261 21.6695 46.6388 21.7539C46.5188 21.5884 46.4369 21.3986 46.399 21.1979C46.3611 20.9973 46.3681 20.7909 46.4195 20.5933C46.4737 20.3956 46.5705 20.2121 46.703 20.0554C46.8356 19.8987 47.0007 19.7725 47.1871 19.6855Z" fill="#C7C7C7"/>
<path id="Vector_11" d="M28.1797 15.6738C29.4308 16.2839 30.4127 16.8543 31.3348 17.4099C32.1358 17.8826 32.8975 18.4183 33.6126 19.012C32.3565 18.4019 31.3746 17.8315 30.4575 17.276C29.6565 16.8033 28.8948 16.2675 28.1797 15.6738Z" fill="#C7C7C7"/>
<path id="Vector_12" d="M11.1437 14.5737C11.8714 14.0776 13.2272 14.4 13.6359 14.901C14.0432 15.3844 14.2421 16.0084 14.1891 16.6371C14.1316 16.9563 13.9992 17.2574 13.8026 17.516C13.606 17.7746 13.3507 17.9833 13.0577 18.1251C12.5788 18.3053 12.0542 18.3262 11.5624 18.1846C11.3025 18.1132 11.0606 17.9879 10.8528 17.8169C10.6449 17.6459 10.4757 17.4332 10.3562 17.1926C10.2287 16.8608 10.1759 16.5053 10.2017 16.151C10.3233 15.5327 10.6561 14.9754 11.1437 14.5737Z" fill="#B2BECB"/>
<path id="Vector_13" d="M25.4783 13.026C26.1811 12.53 27.472 12.8574 27.8907 13.3435C28.2811 13.8119 28.4725 14.4134 28.424 15.02C28.3706 15.3303 28.2437 15.6235 28.0539 15.8753C27.8641 16.1271 27.6168 16.3304 27.3325 16.4684C26.8742 16.6393 26.373 16.6602 25.902 16.5279C25.6491 16.4532 25.415 16.3262 25.2149 16.1552C25.0148 15.9843 24.8532 15.7732 24.7406 15.5358C24.6196 15.2197 24.5686 14.8813 24.5911 14.5438C24.7041 13.9519 25.0171 13.4163 25.4783 13.026Z" fill="#B2BECB"/>
<path id="Vector_14" d="M66.692 23.8405C67.3948 23.3445 68.7107 23.6718 69.1094 24.1579C69.4998 24.6263 69.6912 25.2278 69.6428 25.8344C69.5893 26.1447 69.4625 26.4379 69.2727 26.6898C69.0829 26.9416 68.8356 27.1449 68.5512 27.2828C68.0929 27.4538 67.5917 27.4746 67.1207 27.3423C66.8672 27.2676 66.6324 27.1407 66.4315 26.9698C66.2305 26.7989 66.068 26.5878 65.9544 26.3503C65.837 26.0333 65.7878 25.6954 65.8098 25.3583C65.9226 24.7675 66.2337 24.2323 66.692 23.8405Z" fill="#B2BECB"/>
<path id="Vector_15" d="M78.4299 32.5971C79.1576 32.1011 80.5184 32.4235 80.9221 32.9245C81.3243 33.4107 81.5224 34.0325 81.4754 34.6605C81.4177 34.9803 81.2847 35.282 81.0871 35.5407C80.8896 35.7993 80.6331 36.0077 80.3389 36.1486C79.8607 36.3316 79.3351 36.3526 78.8436 36.2081C78.584 36.136 78.3424 36.0105 78.1346 35.8396C77.9268 35.6687 77.7574 35.4563 77.6374 35.216C77.5099 34.8843 77.4572 34.5287 77.4829 34.1744C77.607 33.5559 77.9414 32.9989 78.4299 32.5971Z" fill="#B2BECB"/>
<path id="Vector_16" d="M26.0615 23.6588C26.7892 23.1628 28.145 23.4803 28.5537 23.9862C28.9611 24.4696 29.1599 25.0936 29.107 25.7223C29.0491 26.0413 28.9165 26.3423 28.7199 26.6008C28.5233 26.8594 28.2683 27.0682 27.9755 27.2103C27.4962 27.3881 26.9723 27.4089 26.4802 27.2698C26.2205 27.1978 25.979 27.0722 25.7712 26.9013C25.5634 26.7305 25.394 26.518 25.274 26.2778C25.1468 25.9459 25.0941 25.5904 25.1195 25.2362C25.2411 24.6179 25.5739 24.0606 26.0615 23.6588Z" fill="#B2BECB"/>
<path id="Vector_17" d="M60.4873 32.8463C61.215 32.3503 62.5708 32.6678 62.9795 33.1737C63.3869 33.6571 63.5857 34.2811 63.5327 34.9098C63.4756 35.2291 63.3434 35.5304 63.1467 35.7891C62.95 36.0477 62.6946 36.2563 62.4013 36.3978C61.922 36.5756 61.3981 36.5964 60.906 36.4573C60.6463 36.3853 60.4048 36.2597 60.197 36.0888C59.9892 35.918 59.8198 35.7055 59.6998 35.4653C59.5726 35.1334 59.5198 34.7779 59.5453 34.4237C59.6669 33.8054 59.9997 33.2481 60.4873 32.8463Z" fill="#B2BECB"/>
<path id="Vector_18" d="M43.4054 29.3742C44.1331 28.8782 45.4889 29.2006 45.8976 29.7066C46.3047 30.1881 46.5036 30.8105 46.4508 31.4376C46.3953 31.7575 46.2636 32.0595 46.0668 32.3184C45.8699 32.5773 45.6137 32.7855 45.3194 32.9257C44.8411 33.1075 44.3164 33.1301 43.8241 32.9902C43.5651 32.9167 43.3242 32.7907 43.1166 32.6199C42.909 32.4492 42.7392 32.2375 42.6179 31.9981C42.4904 31.6664 42.4376 31.3108 42.4634 30.9565C42.5851 30.3369 42.9178 29.778 43.4054 29.3742Z" fill="#B2BECB"/>
<path id="Vector_19" d="M67.1398 27.6029C67.1099 27.6971 67.07 27.7963 67.0351 27.8955C65.9685 29.4877 56.6129 28.5255 45.6325 25.6486C34.652 22.7717 26.1487 19.0714 25.8945 17.1519C25.9294 17.0031 25.9643 16.8592 26.0042 16.7154C27.4995 10.793 31.1978 5.30705 34.8813 3.36268C40.8431 0.189747 47.8014 -0.584387 54.3201 1.20005C59.5287 2.56905 66.746 9.25533 68.0669 15.7134C69.0538 20.6091 68.3211 24.1903 67.1398 27.6029Z" fill="#CBD4DC"/>
<g id="Group" opacity="0.2">
<path id="Vector_20" d="M57.2515 10.812C55.7263 14.0857 59.6938 20.5884 62.6994 19.3087C65.1517 18.2572 65.69 14.9636 65.361 13.0044C65.032 11.0451 63.5168 8.71882 61.4234 8.54025C59.654 8.43113 57.8147 9.60668 57.2515 10.812Z" fill="#F2F4F6"/>
<path id="Vector_21" d="M54.0562 6.36277C53.9914 7.49369 55.9901 8.34683 57.0119 7.74665C58.0337 7.14647 57.7546 5.39554 56.9621 4.98385C56.1696 4.57216 54.1111 5.34594 54.0562 6.36277Z" fill="#F2F4F6"/>
</g>
<path id="Vector_22" d="M44.5593 12.5966C43.8188 13.5896 42.4654 14.1131 41.2571 13.689C40.6792 13.4832 40.1794 13.1048 39.8258 12.6056C39.4722 12.1063 39.2822 11.5106 39.2817 10.8999C39.2882 10.2183 40.3462 10.2043 40.3458 10.8875C40.3282 11.2763 40.4359 11.6605 40.6531 11.984C40.8704 12.3076 41.1859 12.5536 41.5535 12.6862C41.9212 12.8188 42.3218 12.831 42.6969 12.721C43.072 12.611 43.402 12.3847 43.6387 12.0749C43.7125 11.9568 43.8287 11.8711 43.9637 11.8353C44.0988 11.7995 44.2424 11.8162 44.3655 11.8822C44.4866 11.9538 44.5748 12.0699 44.6109 12.2055C44.647 12.3411 44.6282 12.4854 44.5586 12.6074L44.5593 12.5966Z" fill="#7E93A8"/>
<path id="Vector_23" d="M55.4655 15.456C54.723 16.4484 53.3716 16.9725 52.1633 16.5484C51.5855 16.3425 51.0856 15.9641 50.7321 15.4649C50.3785 14.9657 50.1884 14.37 50.1879 13.7593C50.1945 13.0776 51.2524 13.0637 51.252 13.7469C51.2337 14.1362 51.341 14.5212 51.5583 14.8455C51.7756 15.1697 52.0915 15.4163 52.4597 15.5491C52.8279 15.6818 53.2292 15.6938 53.6048 15.5833C53.9804 15.4728 54.3106 15.2456 54.5471 14.9349C54.6216 14.8171 54.7382 14.7318 54.8735 14.6961C55.0087 14.6604 55.1524 14.6771 55.2758 14.7426C55.3933 14.8147 55.4784 14.9289 55.5137 15.0616C55.549 15.1944 55.5318 15.3355 55.4655 15.456Z" fill="#7E93A8"/>
<path id="Vector_24" d="M43.8418 18.5647C44.0304 18.2296 44.3254 17.9663 44.6807 17.8162C45.0359 17.6662 45.4312 17.6378 45.8044 17.7357C46.1776 17.8335 46.5076 18.052 46.7424 18.3567C46.9773 18.6615 47.1037 19.0352 47.1019 19.4193C47.1022 19.5593 47.0474 19.6939 46.9493 19.7943C46.8511 19.8946 46.7174 19.9527 46.5768 19.9562C46.4361 19.9553 46.3013 19.9001 46.2008 19.8023C46.1002 19.7044 46.0418 19.5715 46.0378 19.4316C46.0459 19.4009 46.035 19.3674 46.0349 19.3345C46.0294 19.2389 46.0524 19.4179 46.03 19.3529C46.0076 19.2879 46.0015 19.236 45.9816 19.1782C45.9617 19.1204 46.0214 19.2521 45.9901 19.1958C45.9589 19.1394 45.966 19.1456 45.9524 19.1223C45.9377 19.0928 45.9209 19.0642 45.9023 19.0369C45.8912 19.0209 45.8328 18.9421 45.8851 19.0105C45.9374 19.079 45.8748 19.0078 45.8627 18.9871C45.8413 18.9619 45.8182 18.9383 45.7934 18.9164C45.7736 18.8968 45.7528 18.8781 45.7311 18.8606C45.6831 18.8174 45.8284 18.9256 45.7517 18.866C45.675 18.8065 45.6466 18.8056 45.5928 18.7762C45.539 18.7467 45.7122 18.8075 45.6196 18.7832L45.5228 18.7578L45.4426 18.7368C45.3767 18.7195 45.5664 18.743 45.4673 18.7433C45.4071 18.7402 45.3467 18.7405 45.2866 18.7441C45.1987 18.7517 45.2678 18.7567 45.3078 18.7387C45.2757 18.749 45.2428 18.7564 45.2094 18.7611C45.1888 18.7557 45.0662 18.8199 45.0508 18.8115L45.1001 18.7916L45.0565 18.8152L44.9842 18.8554C44.9608 18.869 44.9389 18.8851 44.915 18.9008C44.8197 18.9612 44.9975 18.8216 44.915 18.9008L44.7978 19.019C44.7214 19.0997 44.8595 18.9191 44.7978 19.019C44.7897 19.0497 44.761 19.075 44.7446 19.1036C44.6731 19.2242 44.5568 19.3119 44.4209 19.348C44.285 19.384 44.1402 19.3655 44.0179 19.2964C43.8976 19.224 43.8101 19.1079 43.7741 18.9726C43.7381 18.8373 43.7562 18.6934 43.8247 18.5711L43.8418 18.5647Z" fill="#7E93A8"/>
</g>
</svg>
