<svg width="200" height="120" viewBox="0 0 200 120" fill="none" xmlns="http://www.w3.org/2000/svg">
<g id="Empty-State">
<g id="Layer-1">
<g id="Group">
<path id="Vector" d="M33.6475 24.762C30.0005 26.5631 28.2046 30.2905 28.9692 33.8062C29.0263 34.069 29.1005 34.33 29.1868 34.5889C29.3535 35.0919 29.5708 35.5886 29.8493 36.0695C30.3885 36.9992 31.0988 37.7871 31.9206 38.434C32.1295 38.5988 32.3452 38.7545 32.5681 38.9005C35.287 40.6694 38.9856 40.9856 42.1518 39.4222C45.9233 37.5596 47.7105 33.6369 46.7376 30.0193C46.6858 29.8261 46.6277 29.6342 46.56 29.4441C46.3999 28.9933 46.2068 28.5489 45.9559 28.1159C45.4483 27.2414 44.784 26.4943 44.0234 25.8691C43.7859 25.6738 43.5401 25.4913 43.2833 25.3211C40.5601 23.523 36.8333 23.1893 33.6475 24.7617V24.762Z" fill="#08A94C"/>
<path id="Vector_2" d="M30.0413 29.8626C30.0515 29.8427 29.6542 30.8864 29.8839 32.0288C30.1683 33.4428 30.7233 34.7765 31.6003 35.963C32.7359 37.4991 34.3651 38.5643 36.3386 39.0779C37.1901 39.3003 38.8057 39.4599 39.1422 39.4348C39.159 39.4339 35.8292 39.032 33.9187 37.5326C32.1939 36.1781 31.0068 34.6308 30.29 32.6408C29.8206 31.3384 30.023 29.8973 30.041 29.8629L30.0413 29.8626Z" fill="#6BCB94"/>
<path id="Vector_3" d="M43.2831 25.3215C43.5399 25.4916 43.7858 25.6742 44.0232 25.8694C46.4627 25.0429 48.2555 24.8583 48.7705 25.546C49.2936 26.2451 48.3924 27.6956 46.5599 29.4445C44.859 31.0673 42.359 32.9466 39.3772 34.7434C36.6953 36.3599 34.1059 37.6121 31.9204 38.4344C29.0584 39.5113 26.9077 39.8306 26.3362 39.0669C25.7572 38.2926 26.9369 36.5937 29.1866 34.5893C29.1006 34.3304 29.0261 34.0697 28.969 33.8065C25.6845 36.5615 23.8951 39.0011 24.6858 40.0717C25.4685 41.1329 28.5757 40.5798 32.5676 38.9009C34.7125 37.9984 37.101 36.7836 39.5482 35.2902C42.431 33.5307 44.886 31.6964 46.7374 30.0193C49.383 27.6235 50.7567 25.5613 50.0486 24.6015C49.3405 23.6413 46.7284 24.0034 43.2831 25.3215Z" fill="#05652E"/>
<path id="Vector_4" d="M32.39 33.9144C31.9985 33.2394 32.3267 32.3743 33.1227 31.9817C33.9186 31.5882 34.8807 31.8169 35.2721 32.491C35.6633 33.1651 35.3355 34.0311 34.5395 34.4237C33.7435 34.8172 32.7812 34.5885 32.39 33.9144Z" fill="#6ECC96"/>
</g>
<g id="Group_2">
<path id="Vector_5" d="M160.056 75.3701C159.936 75.8022 159.947 77.1356 158.634 77.1721C159.975 77.6866 160.082 78.441 160.27 78.9045C160.592 77.8662 160.715 77.4685 161.866 77.0877C161.301 76.9344 160.248 76.8529 160.056 75.3701H160.056Z" fill="#333F47"/>
<path id="Vector_6" d="M153.935 60.2749C153.815 60.7067 153.826 62.0398 152.512 62.0769C153.852 62.5911 153.961 63.3455 154.149 63.8089C154.47 62.7706 154.593 62.3732 155.744 61.9921C155.18 61.8394 154.127 61.7577 153.935 60.2749Z" fill="#08A94C"/>
<path id="Vector_7" d="M45.0735 6.80518C44.8863 7.21585 44.6867 8.53568 43.3816 8.39145C44.6268 9.08486 44.6141 9.84616 44.7274 10.3299C45.2089 9.34738 45.3939 8.9714 46.5925 8.75324C46.0579 8.52422 45.0298 8.29851 45.0735 6.80518Z" fill="#08A94C"/>
<path id="Vector_8" d="M34.0547 28.6387C33.8259 29.0303 33.49 30.3257 32.206 30.0635C33.3733 30.8668 33.2814 31.6232 33.3438 32.1151C33.9253 31.1812 34.1481 30.8236 35.3638 30.7153C34.8556 30.4389 33.856 30.1205 34.0547 28.6387Z" fill="#08A94C"/>
<path id="Vector_9" d="M39.0334 66.832C38.8794 67.4367 38.8934 69.3027 37.212 69.3549C38.9284 70.0746 39.0663 71.1313 39.3072 71.7791C39.7185 70.3259 39.8765 69.7695 41.3496 69.2363C40.6269 69.0224 39.2792 68.908 39.0331 66.832H39.0334Z" fill="#08A94C"/>
<path id="Vector_10" d="M31.5481 75.3069C31.3845 75.7261 31.2591 77.054 29.9478 76.9738C31.2302 77.6053 31.2603 78.366 31.4006 78.8434C31.8265 77.8389 31.9898 77.4542 33.1745 77.1775C32.6278 76.975 31.5884 76.8 31.5484 75.3066L31.5481 75.3069Z" fill="#333F47"/>
</g>
<path id="Vector_11" opacity="0.29" d="M172.691 60.2581C172.571 60.6899 172.582 62.023 171.268 62.0601C172.608 62.5746 172.717 63.329 172.905 63.7912C173.226 62.7538 173.349 62.3561 174.5 61.975C173.936 61.8224 172.883 61.7406 172.691 60.2578V60.2581Z" fill="#08A94C"/>
<g id="Group_3">
<path id="Vector_12" d="M101.457 87.583C88.9592 87.583 77.2481 88.7643 67.142 90.821C65.6609 90.3995 63.724 90.1364 61.5795 90.1364C56.9564 90.1364 53.2087 91.3271 53.2087 92.7975C53.2087 92.904 53.2342 93.0105 53.2724 93.1137V94.5391C40.494 98.9606 32.552 105.121 32.552 111.943C32.552 112.236 32.5715 112.529 32.6023 112.819C39.03 111.03 50.1847 108.96 62.3978 111.392C70.9921 113.103 79.0334 114.158 86.1544 114.598H99.7824C102.578 114.382 105.088 114.024 107.233 113.511C116.73 111.242 136.152 109.205 151.882 112.79C161.282 114.933 166.578 114.375 170.24 113.341C170.317 112.879 170.36 112.412 170.36 111.943C170.36 108.086 167.817 104.441 163.304 101.201V91.4671H163.244C162.772 90.318 159.358 89.4261 155.209 89.4261C150.738 89.4261 147.113 90.4602 147.113 91.7374C147.113 91.8711 147.162 92.0015 147.238 92.1288V93.7431C135.064 89.9134 119.034 87.5833 101.456 87.5833L101.457 87.583Z" fill="#E8ECF5"/>
<path id="Vector_13" d="M54.5287 106.312C54.5287 105.476 57.028 104.799 60.1113 104.799C63.1946 104.799 65.694 105.476 65.694 106.312C65.694 107.148 63.1946 107.825 60.1113 107.825C57.028 107.825 54.5287 107.148 54.5287 106.312Z" fill="#B2BFC8"/>
<path id="Vector_14" d="M82.227 106.416C82.227 105.235 86.3366 104.277 91.4062 104.277C96.4757 104.277 100.585 105.235 100.585 106.416C100.585 107.597 96.4757 108.555 91.4062 108.555C86.3366 108.555 82.227 107.597 82.227 106.416Z" fill="#B2BFC8"/>
<path id="Vector_15" d="M77.6104 96.7114C77.6104 96.1647 79.4609 95.7202 81.7436 95.7202C84.0263 95.7202 85.8768 96.1647 85.8768 96.7114C85.8768 97.2582 84.0263 97.7027 81.7436 97.7027C79.4609 97.7027 77.6104 97.2591 77.6104 96.7114Z" fill="#B2BFC8"/>
<path id="Vector_16" d="M105.846 94.7807C105.846 94.2047 107.167 93.7373 108.798 93.7373C110.429 93.7373 111.75 94.2047 111.75 94.7807C111.75 95.3568 110.428 95.8242 108.798 95.8242C107.168 95.8242 105.846 95.3577 105.846 94.7807Z" fill="#B2BFC8"/>
<path id="Vector_17" d="M149.279 104.804C149.279 103.888 152.152 103.145 155.695 103.145C159.238 103.145 162.112 103.888 162.112 104.804C162.112 105.721 159.239 106.462 155.695 106.462C152.151 106.462 149.279 105.72 149.279 104.804Z" fill="#B2BFC8"/>
<path id="Vector_18" d="M148.518 91.7384C148.518 90.8954 151.545 90.2119 155.277 90.2119C159.008 90.2119 162.034 90.8954 162.034 91.7384C162.034 92.5815 159.008 93.2641 155.277 93.2641C151.545 93.2641 148.518 92.5806 148.518 91.7384Z" fill="#B2BFC8"/>
<path id="Vector_19" d="M54.3662 92.7577C54.3662 91.8853 57.3778 91.1777 61.0929 91.1777C64.8079 91.1777 67.8195 91.8853 67.8195 92.7577C67.8195 93.63 64.8079 94.3376 61.0929 94.3376C57.3778 94.3376 54.3662 93.63 54.3662 92.7577Z" fill="#B2BFC8"/>
<path id="Vector_20" d="M143.13 102.483C143.13 102.218 144.024 102.003 145.129 102.003C146.233 102.003 147.127 102.218 147.127 102.483C147.127 102.748 146.232 102.964 145.129 102.964C144.025 102.964 143.13 102.749 143.13 102.483Z" fill="#B2BFC8"/>
<path id="Vector_21" d="M96.9209 102.928C96.9209 102.628 97.8377 102.385 98.9686 102.385C100.1 102.385 101.016 102.628 101.016 102.928C101.016 103.227 100.1 103.47 98.9686 103.47C97.8377 103.47 96.9209 103.227 96.9209 102.928Z" fill="#B2BFC8"/>
</g>
<g id="Folder">
<path id="Vector_22" d="M94.9026 47.6076L89.0356 76.9004L88.2732 80.7352L127.387 80.5515C129.143 80.5434 130.701 79.0272 131.263 76.7747L138.201 49.1206C138.63 47.411 137.689 45.6322 136.356 45.6338L96.7588 45.6741C95.897 45.6725 95.1247 46.4652 94.9026 47.6076Z" fill="#08A94C"/>
<g id="Group_4" opacity="0.5">
<path id="Vector_23" d="M94.9026 47.6081L89.0356 76.9009L88.2732 80.7357L127.387 80.552C129.143 80.5439 130.701 79.0277 131.263 76.7752L138.201 49.1211C138.63 47.4115 137.689 45.6327 136.356 45.6343L96.7588 45.6746C95.897 45.6729 95.1247 46.4657 94.9026 47.6081Z" fill="black"/>
</g>
<path id="Vector_24" d="M123.64 74.9121L119.496 42.4596C119.33 41.1303 118.238 40.1378 116.951 40.1426L107.868 40.17C107.531 40.1737 107.197 40.2442 106.889 40.3771C106.58 40.5101 106.303 40.7028 106.073 40.9434L101.764 45.4018L76.5062 45.5339C74.9632 45.5419 73.7765 46.9631 73.9804 48.5582L77.8271 78.5519C77.9928 79.8796 79.085 80.8705 80.3694 80.8689L124.397 80.7835C129.299 80.8818 129.768 79.4752 129.768 79.4752C124.14 80.6852 123.64 74.9201 123.64 74.9121Z" fill="#08A94C"/>
<g id="Group_5" opacity="0.5">
<path id="Vector_25" d="M104.655 68.4207L103.17 69.9707L91.7341 59.968L93.2191 58.418L104.655 68.4207Z" fill="white"/>
<path id="Vector_26" d="M102.548 58.0747L104.189 59.5103L93.8423 70.3139L92.1998 68.8782L102.548 58.0747Z" fill="white"/>
</g>
</g>
<g id="Group 1">
<g id="magnifying-glass">
<path id="Vector_27" d="M87.5446 63.305L86.6467 62.519L89.8273 59.0849L90.7251 59.8709L87.5446 63.305Z" fill="#C7C7C7"/>
<path id="Vector_28" d="M85.0584 66.439L83.7006 65.2502L86.9947 61.6929L88.3525 62.8816L85.0584 66.439Z" fill="#535F67"/>
<path id="Vector_29" d="M94.7943 60.9999C95.8631 60.7958 96.8456 60.2881 97.6175 59.541C98.3894 58.7939 98.916 57.841 99.1308 56.8028C99.3455 55.7647 99.2387 54.688 98.8239 53.7089C98.4091 52.7297 97.7049 51.8922 96.8004 51.3023C95.8959 50.7123 94.8318 50.3964 93.7425 50.3945C92.6533 50.3927 91.588 50.7049 90.6814 51.2918C89.7748 51.8786 89.0675 52.7137 88.6492 53.6914C88.2308 54.6691 88.1201 55.7455 88.3311 56.7843C88.6151 58.1756 89.455 59.4006 90.6665 60.1908C91.8781 60.981 93.3625 61.272 94.7943 60.9999ZM94.6721 60.3976C93.7264 60.5788 92.7466 60.4834 91.8568 60.1233C90.9669 59.7632 90.2068 59.1547 89.6726 58.3747C89.1385 57.5946 88.8542 56.6781 88.8558 55.7411C88.8574 54.804 89.1448 53.8884 89.6816 53.1101C90.2184 52.3318 90.9805 51.7257 91.8717 51.3685C92.7628 51.0113 93.7428 50.919 94.6879 51.1033C95.6329 51.2876 96.5006 51.7402 97.1811 52.4038C97.8616 53.0675 98.3244 53.9124 98.5109 54.8318C98.7599 56.0646 98.4955 57.3432 97.7758 58.3867C97.056 59.4302 95.9398 60.1534 94.6721 60.3976Z" fill="#333F47"/>
<path id="Vector_30" d="M88.8345 54.58C88.9766 54.0246 89.2172 53.4974 89.5453 53.0222C90.2895 51.9436 91.4439 51.1965 92.7547 50.9454C94.0654 50.6942 95.4251 50.9596 96.5346 51.6831C97.6441 52.4066 98.4125 53.5289 98.6709 54.8032C98.9292 56.0775 98.6562 57.3994 97.912 58.478C97.3577 59.2831 96.5701 59.9102 95.6489 60.2798C94.7278 60.6495 93.7145 60.7451 92.7375 60.5545C91.7604 60.364 90.8635 59.8959 90.1602 59.2094C89.457 58.523 88.9791 57.6491 88.787 56.6985C88.6423 55.9975 88.6585 55.2742 88.8345 54.58ZM89.1082 56.6346C89.3181 57.6757 89.8929 58.6138 90.7347 59.289C91.5764 59.9643 92.6329 60.3348 93.7242 60.3374C94.8155 60.34 95.8739 59.9747 96.7191 59.3035C97.5643 58.6324 98.1439 57.6971 98.3591 56.657C98.5744 55.6169 98.4119 54.5365 97.8995 53.5998C97.387 52.6631 96.5562 51.9282 95.5488 51.5204C94.5414 51.1125 93.4197 51.057 92.3749 51.3632C91.33 51.6694 90.4268 52.3184 89.8191 53.1996C89.1235 54.2079 88.8675 55.4432 89.1073 56.6346H89.1082ZM88.8345 54.58C88.9766 54.0246 89.2172 53.4974 89.5453 53.0222C90.2895 51.9436 91.4439 51.1965 92.7547 50.9454C94.0654 50.6942 95.4251 50.9596 96.5346 51.6831C97.6441 52.4066 98.4125 53.5289 98.6709 54.8032C98.9292 56.0775 98.6562 57.3994 97.912 58.478C97.3577 59.2831 96.5701 59.9102 95.6489 60.2798C94.7278 60.6495 93.7145 60.7451 92.7375 60.5545C91.7604 60.364 90.8635 59.8959 90.1602 59.2094C89.457 58.523 88.9791 57.6491 88.787 56.6985C88.6423 55.9975 88.6585 55.2742 88.8345 54.58ZM89.1082 56.6346C89.3181 57.6757 89.8929 58.6138 90.7347 59.289C91.5764 59.9643 92.6329 60.3348 93.7242 60.3374C94.8155 60.34 95.8739 59.9747 96.7191 59.3035C97.5643 58.6324 98.1439 57.6971 98.3591 56.657C98.5744 55.6169 98.4119 54.5365 97.8995 53.5998C97.387 52.6631 96.5562 51.9282 95.5488 51.5204C94.5414 51.1125 93.4197 51.057 92.3749 51.3632C91.33 51.6694 90.4268 52.3184 89.8191 53.1996C89.1235 54.2079 88.8675 55.4432 89.1073 56.6346H89.1082ZM88.2231 54.4336C88.5558 53.1153 89.3774 51.9629 90.5303 51.1973C91.6832 50.4317 93.0863 50.1068 94.4704 50.285C95.8546 50.4632 97.1223 51.1319 98.0305 52.1629C98.9387 53.1939 99.4234 54.5145 99.3917 55.8715C99.3599 57.2286 98.814 58.5264 97.8586 59.5162C96.9031 60.506 95.6055 61.1181 94.2145 61.235C92.8234 61.3518 91.437 60.9653 90.321 60.1496C89.2051 59.3339 88.4382 58.1463 88.1674 56.8147C88.0066 56.0266 88.0253 55.2139 88.2222 54.4336H88.2231ZM88.4886 56.7535C88.743 58.0094 89.4653 59.1299 90.5172 59.8999C91.569 60.67 92.8762 61.0354 94.1881 60.926C95.5 60.8167 96.7241 60.2403 97.6258 59.3074C98.5274 58.3746 99.043 57.1509 99.0738 55.8712C99.1045 54.5914 98.6481 53.3457 97.7922 52.373C96.9363 51.4003 95.7411 50.769 94.4359 50.6003C93.1307 50.4316 91.8073 50.7373 90.7197 51.4588C89.6321 52.1803 88.8568 53.2668 88.5425 54.5099C88.3553 55.2448 88.3366 56.0108 88.4877 56.7535H88.4886ZM89.5453 53.0222C90.2895 51.9436 91.4439 51.1965 92.7547 50.9454C94.0654 50.6942 95.4251 50.9596 96.5346 51.6831C97.6441 52.4066 98.4125 53.5289 98.6709 54.8032C98.9292 56.0775 98.6562 57.3994 97.912 58.478C97.3577 59.2831 96.5701 59.9102 95.6489 60.2798C94.7278 60.6495 93.7145 60.7451 92.7375 60.5545C91.7604 60.364 90.8635 59.8959 90.1602 59.2094C89.457 58.523 88.9791 57.6491 88.787 56.6985C88.6431 55.9983 88.6596 55.2759 88.8354 54.5827C88.977 54.0264 89.2172 53.4983 89.5453 53.0222ZM89.1073 56.6346C89.3172 57.6757 89.892 58.6138 90.7338 59.289C91.5755 59.9643 92.632 60.3348 93.7233 60.3374C94.8146 60.34 95.873 59.9747 96.7182 59.3035C97.5634 58.6324 98.143 57.6971 98.3582 56.657C98.5735 55.6169 98.411 54.5365 97.8985 53.5998C97.3861 52.6631 96.5553 51.9282 95.5479 51.5204C94.5405 51.1125 93.4188 51.057 92.374 51.3632C91.3291 51.6694 90.4259 52.3184 89.8182 53.1996C89.1229 54.208 88.8672 55.4433 89.1073 56.6346Z" fill="#333F47"/>
<g id="Group_6" opacity="0.3">
<path id="Vector_31" d="M89.8164 53.1985C89.2083 54.0788 88.9329 55.1369 89.0373 56.1925C89.1417 57.248 89.6194 58.2357 90.389 58.9872C91.1586 59.7387 92.1724 60.2075 93.2576 60.3137C94.3429 60.4198 95.4325 60.1568 96.3406 59.5695C97.2488 58.9821 97.9193 58.1068 98.238 57.0926C98.5566 56.0785 98.5037 54.9882 98.0881 54.0078C97.6726 53.0273 96.9201 52.2173 95.9591 51.7158C94.998 51.2143 93.8878 51.0523 92.8177 51.2575C91.5923 51.4926 90.513 52.1907 89.8164 53.1985Z" fill="white"/>
</g>
<path id="Vector_32" d="M95.596 52.5335C95.1681 52.2733 94.6887 52.1034 94.1889 52.035C93.9355 51.9963 93.6786 51.9829 93.4224 51.995C93.1632 52.008 92.9059 52.0454 92.6541 52.1068C92.1476 52.2361 91.6745 52.467 91.2653 52.7846C90.8617 53.0967 90.5213 53.479 90.2615 53.9121C90.6107 53.5639 90.9949 53.2506 91.4085 52.9771C91.6118 52.8478 91.8254 52.7345 92.0473 52.6382C92.2658 52.5399 92.4934 52.462 92.7271 52.4058C93.1934 52.2892 93.6755 52.2443 94.1561 52.2727C94.6451 52.3028 95.1286 52.3904 95.596 52.5335Z" fill="white"/>
</g>
<path id="Vector_33" d="M75.8057 100.799C75.8057 100.799 76.4056 101.245 77.3623 101.307C78.319 101.37 79.5221 101.175 79.4628 102.594C79.4049 104.013 76.9451 104.711 74.956 105C72.9668 105.288 71.594 105.292 71.4888 104.607C71.3822 103.924 71.4946 100.366 71.4946 100.366C71.4946 100.366 75.6991 98.217 75.8061 100.799H75.8057Z" fill="#333F47"/>
<path id="Vector_34" d="M64.1379 100.391C64.1379 100.391 64.6785 100.904 65.6198 101.075C66.5621 101.248 67.7806 101.194 67.5486 102.596C67.3175 103.998 64.7902 104.406 62.7785 104.464C60.7681 104.52 59.4048 104.364 59.3836 103.672C59.3623 102.981 59.9097 99.4619 59.9097 99.4619C59.9097 99.4619 64.348 97.8153 64.1383 100.39L64.1379 100.391Z" fill="#333F47"/>
<path id="Vector_35" d="M74.3477 77.002C74.3477 77.002 77.0361 98.8824 76.4897 99.9495C75.9419 101.018 75.2899 100.913 73.66 101.151C72.0287 101.389 70.6206 101.625 70.2507 100.136C69.8809 98.6485 67.3478 82.9728 67.3478 82.9728L65.6112 98.4459C65.6112 98.4459 65.3517 101.201 63.8024 101.428C62.253 101.655 58.7015 102.034 58.9209 99.9842C59.1389 97.9355 61.3793 77.4388 61.3793 77.4388L74.3477 77.002Z" fill="#E8ECF5" stroke="#B2BFC8" stroke-linejoin="round"/>
<path id="Vector_36" d="M74.8657 68.1222C74.8657 68.1222 75.3918 77.2616 74.6024 77.8859C73.814 78.5093 62.3676 79.1627 61.3457 78.3964C60.3239 77.6301 60.0607 61.3667 60.8196 60.742C61.5795 60.1176 62.6593 58.9538 64.85 59.0667C67.0393 59.1807 70.9525 58.8122 72.2376 60.0886C73.5226 61.3663 74.8657 68.1218 74.8657 68.1218V68.1222Z" fill="#E8ECF5" stroke="#B2BFC8" stroke-linejoin="round"/>
<g id="Group_7">
<path id="Vector_37" d="M70.999 58.5442C70.999 58.5442 71.6167 59.4648 68.9125 59.798C66.2086 60.1322 64.287 59.4385 64.37 58.4106L70.999 58.5442Z" fill="#E8ECF5" stroke="#B2BFC8" stroke-linejoin="round"/>
<path id="Vector_38" d="M73.594 54.6112C73.6581 52.0497 71.3917 49.9051 68.5298 49.8205C65.6683 49.7358 63.2962 51.7439 63.2311 54.305C63.167 56.8658 65.4348 59.0115 68.2953 59.0954C69.6161 59.1348 70.8322 58.7279 71.7663 58.0273C72.8546 57.2093 73.5587 55.9902 73.5944 54.6109L73.594 54.6112Z" fill="#333F47" stroke="#B2BFC8" stroke-linejoin="round"/>
<path id="Vector_39" d="M72.6559 54.7772C72.72 52.2158 70.4535 50.0711 67.5916 49.9865C64.7301 49.9018 62.3581 51.9099 62.294 54.471C62.2288 57.0322 64.4963 59.1775 67.3582 59.2618C68.6776 59.3011 69.8937 58.8943 70.8278 58.1936C71.9172 57.3757 72.6212 56.1566 72.6559 54.7772Z" fill="#E8ECF5" stroke="#B2BFC8" stroke-linejoin="round"/>
<path id="Vector_40" d="M73.1292 54.7011C73.1423 54.0267 72.6881 53.4616 72.1146 53.4396C71.5422 53.4173 71.0667 53.9461 71.0537 54.6208C71.0407 55.2954 71.4945 55.8602 72.0683 55.8822C72.3326 55.8925 72.5757 55.7855 72.7632 55.601C72.9812 55.3857 73.1224 55.0645 73.1296 54.7014L73.1292 54.7011Z" fill="#E8ECF5" stroke="#B2BFC8" stroke-linejoin="round"/>
</g>
<path id="Vector_41" d="M86.5421 63.4544C86.5421 63.4544 87.7028 62.0857 86.9202 61.8171C86.1376 61.5486 85.5937 62.5328 85.1707 63.0072C84.7473 63.4807 84.4889 63.8842 84.4889 63.8842C84.4889 63.8842 85.9529 66.7658 85.8617 66.8994C85.7692 67.0343 87.7665 67.0793 88.6417 66.3623C89.5164 65.6467 89.2131 63.445 88.4579 62.5508C87.819 61.7938 87.3531 62.6487 87.2239 63.1315C87.0947 63.6153 86.5421 63.454 86.5421 63.454V63.4544Z" fill="#333F47"/>
<path id="Vector_42" d="M85.9802 67.7875C85.9802 67.7875 86.8718 64.2409 83.7967 63.4862C83.7967 63.4862 81.728 64.1845 79.9761 64.7709C78.2228 65.3573 77.131 65.7481 77.131 65.7481C77.131 65.7481 76.0403 64.604 74.9191 62.8998C73.7989 61.1969 72.7071 59.4651 71.7302 59.7163C70.7533 59.9675 67.8232 60.5829 70.3515 64.9105C72.8799 69.2395 75.7904 70.4966 76.6806 70.6372C77.5708 70.7765 85.55 67.9268 85.9802 67.7875Z" fill="#E8ECF5" stroke="#B2BFC8" stroke-linejoin="round"/>
<g id="Group_8">
<path id="Vector_43" d="M70.5843 61.4217H58.5631V76.2818L70.7705 76.0385L70.5843 61.4214V61.4217Z" fill="#333F47" stroke="#B2BFC8" stroke-linejoin="round"/>
<path id="Vector_44" d="M71.9675 59.6695L62.2291 59.6245L58.5603 61.438H70.6052L71.9675 59.6695Z" fill="#333F47" stroke="#B2BFC8" stroke-linejoin="round"/>
<path id="Vector_45" d="M70.5296 61.4879L70.7133 76.0887L72.4132 74.5101L72.009 59.7974L70.5296 61.4876V61.4879Z" fill="#333F47" stroke="#B2BFC8" stroke-linejoin="round"/>
</g>
<path id="Vector_46" d="M78.2205 65.3998C78.2205 65.3998 77.7865 68.6962 78.1386 70.3255L77.1274 70.565C77.1274 70.565 76.3901 70.6007 76.2903 70.5363C76.1847 70.4694 76.6814 65.3848 76.6814 65.3848L77.2494 65.7616L78.2202 65.3998H78.2205Z" fill="#B2BFC8" stroke="#B2BFC8" stroke-linejoin="round"/>
<path id="Vector_47" d="M64.0899 88.5078C63.7543 88.4835 60.1781 88.2969 60.1781 88.2969L60.0393 89.5619L63.9086 89.7842C63.9086 89.7842 64.7018 89.7898 64.7799 89.2151C64.8488 88.708 64.4255 88.5331 64.0899 88.5078Z" fill="#B2BFC8"/>
<path id="Vector_48" d="M63.9266 90.3145C63.591 90.2775 60.0148 90 60.0148 90L59.876 91.8791L63.7439 92.21C63.7439 92.21 64.5371 92.2193 64.6153 91.3644C64.6842 90.612 64.2619 90.3515 63.9266 90.3149V90.3145Z" fill="#B2BFC8"/>
</g>
<g id="Group_9">
<path id="Vector_49" d="M140.328 12.4489L139.327 11.7387L138.158 12.1406L138.544 10.9974L137.792 10.0414H139.03L139.733 9.0542L140.115 10.2014L141.301 10.5447L140.296 11.251L140.324 12.4528L140.328 12.4489Z" fill="#08A94C"/>
<path id="Vector_50" d="M148.952 17.3535L148.804 16.4405L147.944 16.0386L148.792 15.6211L148.916 14.7041L149.591 15.3596L150.528 15.1918L150.094 16.0191L150.548 16.8307L149.607 16.6863L148.948 17.3574L148.952 17.3535Z" fill="#08A94C"/>
<path id="Vector_51" d="M137.294 28.7438L136.076 28.2287L134.947 28.9116L135.076 27.6278L134.059 26.7967L135.357 26.5197L135.855 25.3218L136.53 26.4338L137.857 26.5275L136.972 27.4952L137.29 28.7477L137.294 28.7438Z" fill="#08A94C"/>
<path id="Vector_52" d="M96.6688 22.8518L94.9609 22.0051L93.2771 22.8909L93.5785 21.053L92.188 19.7693L94.0808 19.4806L94.9086 17.8027L95.7767 19.4611L97.6775 19.7069L96.3232 21.0218L96.6688 22.8518Z" fill="#08A94C"/>
<path id="Vector_53" d="M84.6167 30.6436L94.4384 20.4284L136.466 27.3894L139.488 10.8452L148.956 15.7656" stroke="#08A94C" stroke-width="0.65" stroke-linejoin="round"/>
</g>
<g id="Group_10">
<path id="Vector_54" d="M146.932 42.5217C146.932 42.5217 152.034 35.206 154.408 35.2633C156.781 35.3206 153.038 38.1106 152.382 39.7922C151.728 41.477 161.115 30.2757 163.591 30.1643C166.067 30.056 159.582 37.4895 157.51 39.5056C155.435 41.5216 159.224 38.5692 159.819 38.9928C160.413 39.4132 153.015 46.2958 150.845 46.4328C148.675 46.5697 145.339 45.5442 146.935 42.5185L146.932 42.5217Z" fill="#F8981D"/>
<path id="Vector_55" d="M148.425 40.8785C150.99 40.2224 153.281 41.3753 153.541 43.4519C153.8 45.5284 151.932 47.7451 149.368 48.4012C146.803 49.0573 144.512 47.9044 144.252 45.8278C143.993 43.7512 145.858 41.5346 148.425 40.8785Z" fill="#633D0C"/>
<path id="Vector_56" d="M146.216 43.2761C147.021 42.8493 147.891 43.085 148.163 43.8048C148.432 44.5246 147.999 45.4514 147.195 45.8781C146.39 46.3049 145.52 46.0692 145.251 45.3494C144.978 44.6297 145.412 43.7028 146.216 43.2761Z" fill="#C67A17"/>
<path id="Vector_57" d="M149.407 42.9515C149.758 42.7541 150.146 42.8656 150.267 43.2031C150.389 43.5406 150.202 43.9769 149.85 44.1743C149.499 44.3717 149.112 44.2603 148.99 43.9227C148.869 43.5852 149.056 43.149 149.407 42.9515Z" fill="#C67A17"/>
</g>
</g>
</g>
</svg>
