<svg width="16" height="16" viewBox="0 0 16 16" fill="none" xmlns="http://www.w3.org/2000/svg">
<g id="bar_chart">
<path id="Vector" d="M4.40065 5.834H4.26732C3.5883 5.834 3.03398 6.38831 3.03398 7.06733V11.734C3.03398 12.413 3.5883 12.9674 4.26732 12.9674H4.40065C5.07967 12.9674 5.63398 12.413 5.63398 11.734V7.06733C5.63398 6.38831 5.07967 5.834 4.40065 5.834ZM9.23398 4.26732C9.23398 3.5883 8.67967 3.03398 8.00065 3.03398C7.32163 3.03398 6.76732 3.5883 6.76732 4.26732V11.734C6.76732 12.413 7.32163 12.9674 8.00065 12.9674C8.67967 12.9674 9.23398 12.413 9.23398 11.734V4.26732ZM12.9673 9.60068C12.9673 8.92166 12.413 8.36734 11.734 8.36734C11.055 8.36734 10.5007 8.92166 10.5007 9.60068V11.734C10.5007 12.413 11.055 12.9674 11.734 12.9674C12.413 12.9674 12.9673 12.413 12.9673 11.734V9.60068Z" fill="#08A94C" stroke="white" stroke-width="0.6"/>
</g>
</svg>
