<svg width="17" height="16" viewBox="0 0 17 16" fill="none" xmlns="http://www.w3.org/2000/svg">
<g id="rainy">
<path id="Vector" d="M9.39928 14.6154C9.27706 14.6709 9.14651 14.6765 9.00762 14.632C8.86873 14.5876 8.77151 14.5043 8.71595 14.382L7.56595 12.082C7.5104 11.9598 7.50206 11.8293 7.54095 11.6904C7.57984 11.5515 7.6604 11.4543 7.78262 11.3987C7.90484 11.3431 8.0354 11.3376 8.17428 11.382C8.31317 11.4265 8.4104 11.5098 8.46595 11.632L9.61595 13.932C9.67151 14.0543 9.67984 14.1848 9.64095 14.3237C9.60206 14.4626 9.52151 14.5598 9.39928 14.6154ZM13.3993 14.5987C13.2771 14.6543 13.1465 14.6598 13.0076 14.6154C12.8687 14.5709 12.7715 14.4876 12.716 14.3654L11.566 12.0654C11.5104 11.9431 11.5021 11.8126 11.541 11.6737C11.5798 11.5348 11.6604 11.4376 11.7826 11.382C11.9048 11.3265 12.0354 11.3209 12.1743 11.3654C12.3132 11.4098 12.4104 11.4931 12.466 11.6154L13.616 13.9154C13.6715 14.0376 13.6798 14.1681 13.641 14.307C13.6021 14.4459 13.5215 14.5431 13.3993 14.5987ZM5.39928 14.5987C5.27706 14.6543 5.14651 14.6626 5.00762 14.6237C4.86873 14.5848 4.77151 14.5043 4.71595 14.382L3.56595 12.082C3.5104 11.9598 3.50484 11.8293 3.54928 11.6904C3.59373 11.5515 3.67706 11.4543 3.79928 11.3987C3.92151 11.3431 4.05206 11.3348 4.19095 11.3737C4.32984 11.4126 4.42706 11.4931 4.48262 11.6154L5.63262 13.932C5.68817 14.0543 5.69373 14.182 5.64928 14.3154C5.60484 14.4487 5.52151 14.5431 5.39928 14.5987ZM4.93262 10.332C3.96595 10.332 3.14095 9.99037 2.45762 9.30703C1.77428 8.6237 1.43262 7.7987 1.43262 6.83203C1.43262 5.95425 1.74651 5.17092 2.37428 4.48203C3.00206 3.79314 3.78262 3.41536 4.71595 3.3487C5.07151 2.72648 5.54095 2.23481 6.12428 1.8737C6.70762 1.51259 7.36595 1.33203 8.09928 1.33203C9.1104 1.33203 9.95762 1.65148 10.641 2.29036C11.3243 2.92925 11.7437 3.72092 11.8993 4.66536C12.7771 4.70981 13.4743 5.00703 13.991 5.55703C14.5076 6.10703 14.766 6.75425 14.766 7.4987C14.766 8.27648 14.491 8.94314 13.941 9.4987C13.391 10.0543 12.7215 10.332 11.9326 10.332H4.93262Z" fill="#7E93A8"/>
</g>
</svg>
