<svg width="17" height="16" viewBox="0 0 17 16" fill="none" xmlns="http://www.w3.org/2000/svg">
<g id="lightbulb_circle">
<path id="Vector" d="M8.50004 1.3335C4.82004 1.3335 1.83337 4.32016 1.83337 8.00016C1.83337 11.6802 4.82004 14.6668 8.50004 14.6668C12.18 14.6668 15.1667 11.6802 15.1667 8.00016C15.1667 4.32016 12.18 1.3335 8.50004 1.3335ZM8.50004 12.6668C7.94671 12.6668 7.50004 12.2202 7.50004 11.6668H9.50004C9.50004 12.2202 9.05337 12.6668 8.50004 12.6668ZM10 11.0002H7.00004C6.72671 11.0002 6.50004 10.7735 6.50004 10.5002C6.50004 10.2268 6.72671 10.0002 7.00004 10.0002H10C10.2734 10.0002 10.5 10.2268 10.5 10.5002C10.5 10.7735 10.2734 11.0002 10 11.0002ZM10.48 9.3335H6.52004C5.70004 8.72683 5.16671 7.76016 5.16671 6.66683C5.16671 4.82683 6.66004 3.3335 8.50004 3.3335C10.34 3.3335 11.8334 4.82683 11.8334 6.66683C11.8334 7.76016 11.3 8.72683 10.48 9.3335Z" fill="#F8981D"/>
</g>
</svg>
