<svg width="22" height="22" viewBox="0 0 22 22" fill="none" xmlns="http://www.w3.org/2000/svg">
<path d="M20.493 7.475C21.2995 9.64124 21.3405 12.0182 20.6092 14.211C19.8779 16.4038 18.4183 18.2803 16.473 19.5288C14.5276 20.7773 12.2137 21.3225 9.91555 21.074C7.61745 20.8254 5.47358 19.798 3.84016 18.1625C2.00533 16.3337 0.941276 13.8712 0.866964 11.2817C0.792652 8.69218 1.71374 6.17269 3.44067 4.24169C5.1676 2.31069 7.56901 1.11508 10.1507 0.900906C12.7324 0.686731 15.298 1.47028 17.3195 3.09031L19.2039 1.205C19.3086 1.10035 19.4328 1.01734 19.5695 0.960708C19.7062 0.904074 19.8528 0.874924 20.0008 0.874924C20.1488 0.874924 20.2953 0.904074 20.4321 0.960708C20.5688 1.01734 20.693 1.10035 20.7977 1.205C20.9023 1.30965 20.9853 1.43388 21.042 1.57061C21.0986 1.70734 21.1277 1.85388 21.1277 2.00188C21.1277 2.14987 21.0986 2.29641 21.042 2.43314C20.9853 2.56987 20.9023 2.6941 20.7977 2.79875L11.7977 11.7988C11.693 11.9034 11.5688 11.9864 11.4321 12.043C11.2953 12.0997 11.1488 12.1288 11.0008 12.1288C10.8528 12.1288 10.7062 12.0997 10.5695 12.043C10.4328 11.9864 10.3086 11.9034 10.2039 11.7988C10.0993 11.6941 10.0163 11.5699 9.95962 11.4331C9.90298 11.2964 9.87383 11.1499 9.87383 11.0019C9.87383 10.8539 9.90298 10.7073 9.95962 10.5706C10.0163 10.4339 10.0993 10.3096 10.2039 10.205L12.4539 7.955C11.8198 7.65203 11.1069 7.55458 10.4147 7.67625C9.72247 7.79793 9.08553 8.13265 8.59272 8.63373C8.09991 9.1348 7.77582 9.77722 7.66568 10.4713C7.55553 11.1655 7.66482 11.8767 7.9783 12.5057C8.29178 13.1347 8.7938 13.6502 9.41432 13.9801C10.0348 14.3101 10.7429 14.4382 11.4397 14.3464C12.1365 14.2546 12.7872 13.9476 13.3011 13.4682C13.8151 12.9888 14.1665 12.3609 14.3064 11.6722C14.3653 11.3797 14.5381 11.1225 14.7866 10.9573C15.0351 10.7922 15.339 10.7325 15.6316 10.7914C15.9241 10.8503 16.1812 11.0231 16.3464 11.2716C16.5116 11.5201 16.5713 11.824 16.5123 12.1166C16.2727 13.297 15.6605 14.3694 14.7657 15.1758C13.8709 15.9823 12.7409 16.4802 11.542 16.5963C10.3431 16.7124 9.13852 16.4406 8.10565 15.8208C7.07277 15.2011 6.26612 14.2661 5.80441 13.1536C5.3427 12.041 5.25033 10.8097 5.54088 9.64068C5.83143 8.4717 6.48957 7.42686 7.41842 6.65994C8.34727 5.89302 9.49778 5.44452 10.7006 5.38046C11.9035 5.31639 13.0951 5.64014 14.1002 6.30406L15.7155 4.69438C14.1981 3.56117 12.3232 3.01272 10.4344 3.14953C8.54553 3.28634 6.76924 4.09924 5.43103 5.43927C4.09282 6.77929 3.28233 8.55669 3.14809 10.4457C3.01384 12.3348 3.56483 14.2089 4.70009 15.7247C5.83535 17.2405 7.47883 18.2964 9.32935 18.699C11.1799 19.1015 13.1135 18.8237 14.7758 17.9165C16.4382 17.0093 17.7179 15.5334 18.3805 13.7593C19.0431 11.9852 19.0442 10.0317 18.3836 8.25688C18.331 8.11812 18.3064 7.97032 18.3112 7.82201C18.3159 7.67369 18.35 7.52779 18.4114 7.3927C18.4728 7.2576 18.5603 7.13599 18.6689 7.03487C18.7775 6.93374 18.905 6.8551 19.0442 6.80347C19.1833 6.75184 19.3312 6.72824 19.4795 6.73404C19.6278 6.73984 19.7735 6.77491 19.9081 6.83724C20.0428 6.89957 20.1638 6.98793 20.2642 7.09722C20.3645 7.20652 20.4423 7.33459 20.493 7.47406V7.475Z" fill="#F8981D"/>
</svg>
