<svg width="21" height="20" viewBox="0 0 21 20" fill="none" xmlns="http://www.w3.org/2000/svg">
<path d="M0.833008 10C0.833008 4.47715 5.31016 0 10.833 0C16.3559 0 20.833 4.47715 20.833 10C20.833 15.5228 16.3559 20 10.833 20C5.31016 20 0.833008 15.5228 0.833008 10Z" fill="#047CDD"/>
<path d="M16.6998 7.1975C17.3936 8.64863 17.5253 10.3053 17.0695 11.8479C16.6137 13.3904 15.6026 14.7094 14.2315 15.5503C12.8604 16.3912 11.2263 16.6944 9.64478 16.4014C8.06322 16.1084 6.64626 15.24 5.66737 13.9637C4.68848 12.6874 4.21704 11.0937 4.34406 9.49027C4.47108 7.88683 5.18754 6.38727 6.35516 5.28101C7.52279 4.17474 9.05881 3.5402 10.6668 3.49985C12.2747 3.4595 13.8406 4.0162 15.0623 5.0625L16.4792 3.645C16.573 3.55118 16.7002 3.49848 16.8329 3.49848C16.9656 3.49848 17.0928 3.55118 17.1867 3.645C17.2805 3.73882 17.3332 3.86607 17.3332 3.99875C17.3332 4.13144 17.2805 4.25868 17.1867 4.3525L11.1867 10.3525C11.0928 10.4463 10.9656 10.499 10.8329 10.499C10.7002 10.499 10.573 10.4463 10.4792 10.3525C10.3853 10.2587 10.3326 10.1314 10.3326 9.99875C10.3326 9.86607 10.3853 9.73882 10.4792 9.645L12.2117 7.9125C11.7421 7.60198 11.1815 7.459 10.6206 7.50672C10.0597 7.55444 9.53137 7.79007 9.12105 8.17546C8.71073 8.56084 8.44249 9.07343 8.35974 9.63024C8.27699 10.1871 8.38459 10.7555 8.66511 11.2435C8.94564 11.7316 9.38267 12.1107 9.90545 12.3194C10.4282 12.5282 11.0062 12.5544 11.5457 12.3939C12.0853 12.2333 12.5548 11.8953 12.8784 11.4347C13.2019 10.974 13.3605 10.4176 13.3285 9.85563C13.3248 9.78997 13.3341 9.72422 13.3558 9.66215C13.3776 9.60007 13.4113 9.54288 13.4551 9.49384C13.4989 9.4448 13.552 9.40487 13.6112 9.37633C13.6705 9.34779 13.7348 9.3312 13.8004 9.3275C13.933 9.32005 14.0632 9.36557 14.1622 9.45406C14.2113 9.49788 14.2512 9.55093 14.2797 9.61018C14.3083 9.66943 14.3248 9.73372 14.3285 9.79938C14.3741 10.5949 14.1469 11.3821 13.6845 12.031C13.222 12.6798 12.552 13.1515 11.7852 13.368C11.0184 13.5844 10.2007 13.5328 9.46716 13.2216C8.73367 12.9103 8.12832 12.3581 7.75118 11.6563C7.37403 10.9544 7.24766 10.1448 7.39296 9.36139C7.53825 8.57796 7.94651 7.86755 8.55025 7.34758C9.154 6.82762 9.91709 6.52921 10.7134 6.5017C11.5097 6.47418 12.2916 6.7192 12.9298 7.19625L14.3517 5.77438C13.3097 4.90925 11.9848 4.45961 10.6315 4.5118C9.27813 4.564 7.9918 5.11436 7.01953 6.05717C6.04727 6.99999 5.45761 8.26878 5.36382 9.61985C5.27003 10.9709 5.67872 12.309 6.51139 13.3771C7.34407 14.4453 8.54201 15.1681 9.87514 15.4067C11.2083 15.6454 12.5826 15.3832 13.7341 14.6703C14.8857 13.9575 15.7332 12.8443 16.114 11.5446C16.4948 10.2449 16.382 8.85034 15.7973 7.62875C15.7401 7.50908 15.7328 7.37158 15.777 7.24652C15.8212 7.12145 15.9132 7.01907 16.0329 6.96188C16.1526 6.90469 16.2901 6.89739 16.4152 6.94158C16.5402 6.98577 16.6426 7.07783 16.6998 7.1975Z" fill="white"/>
</svg>
