<svg width="20" height="20" viewBox="0 0 20 20" fill="none" xmlns="http://www.w3.org/2000/svg">
<g clip-path="url(#clip0_18403_54000)">
<path d="M12.152 0H2.13598C0.955977 0 0 0.955996 0 2.136V17.864C0 19.044 0.955977 20 2.13598 20H12.152C13.332 20 14.288 19.044 14.288 17.864V2.136C14.288 0.955996 13.332 0 12.152 0Z" fill="#E8ECF5"/>
<path d="M5.95206 14.8555H2.26007C2.06407 14.8555 1.90405 14.6956 1.90405 14.4996C1.90405 14.3036 2.06407 14.1436 2.26007 14.1436H5.95206C6.14806 14.1436 6.30808 14.3036 6.30808 14.4996C6.30808 14.6956 6.15206 14.8555 5.95206 14.8555Z" fill="#333F47"/>
<path d="M7.16796 10.7598H2.26394C2.06794 10.7598 1.90796 10.5998 1.90796 10.4038C1.90796 10.2078 2.06794 10.0479 2.26394 10.0479H7.16796C7.36396 10.0479 7.52394 10.2078 7.52394 10.4038C7.52394 10.5998 7.36396 10.7598 7.16796 10.7598Z" fill="#333F47"/>
<path d="M11.9521 12.9044H2.26007C2.06407 12.9044 1.90405 12.7444 1.90405 12.5484C1.90405 12.3524 2.06407 12.1924 2.26007 12.1924H11.9521C12.1481 12.1924 12.3081 12.3524 12.3081 12.5484C12.3081 12.7444 12.1521 12.9044 11.9521 12.9044Z" fill="#333F47"/>
<path d="M9.02806 15.6478C9.02806 15.7838 8.92003 15.8918 8.78403 15.8918C8.64803 15.8918 8.54005 15.7838 8.54005 15.6478V15.4038C8.54005 14.9998 8.86806 14.6758 9.26806 14.6758C9.66806 14.6758 9.99603 15.0038 9.99603 15.4038V15.4638C9.99603 15.6238 9.98806 15.7798 9.96806 15.9358L10.896 15.6558C10.984 15.6318 11.076 15.6558 11.14 15.7198C11.204 15.7838 11.224 15.8798 11.196 15.9638L11.06 16.3718H11.696C11.832 16.3718 11.94 16.4798 11.94 16.6158C11.94 16.7518 11.832 16.8598 11.696 16.8598H10.724C10.644 16.8598 10.5721 16.8238 10.5281 16.7598C10.4841 16.6958 10.468 16.6158 10.496 16.5398L10.592 16.2558L9.87603 16.4718C9.78403 16.8718 9.63604 17.2558 9.43204 17.6118L9.32806 17.7958C9.23206 17.9678 9.04804 18.0718 8.85204 18.0718C8.54804 18.0718 8.30005 17.8238 8.30005 17.5198V16.9838C8.30005 16.6638 8.51205 16.3798 8.82005 16.2838L9.46005 16.0918C9.49605 15.8838 9.51204 15.6758 9.51204 15.4678V15.4078C9.51204 15.2718 9.40406 15.1638 9.26806 15.1638C9.13206 15.1638 9.02403 15.2718 9.02403 15.4078V15.6478H9.02806ZM8.96005 16.7478C8.85605 16.7798 8.78806 16.8718 8.78806 16.9798V17.5278C8.78806 17.5638 8.81604 17.5918 8.85204 17.5918C8.87604 17.5918 8.89606 17.5798 8.90806 17.5598L9.01204 17.3758C9.14404 17.1438 9.25204 16.8958 9.33204 16.6398L8.96005 16.7478Z" fill="#333F47"/>
<path d="M19.1759 4.99242C19.1759 5.50442 19.0919 6.00041 18.9399 6.46441C18.3239 8.32441 16.5679 9.66842 14.5039 9.66842C12.3839 9.66842 10.5919 8.24842 10.0199 6.31242C9.89587 5.89242 9.82788 5.45242 9.82788 4.99242C9.82788 4.53242 9.89587 4.09242 10.0199 3.67242C10.5919 1.73642 12.3839 0.316406 14.5039 0.316406C16.5759 0.316406 18.3399 1.67242 18.9479 3.54842C19.0959 4.00042 19.1759 4.48842 19.1759 4.99242Z" fill="#F8981D"/>
<path d="M15.9181 8.95212C17.7938 8.17516 18.6845 6.02475 17.9076 4.14905C17.1306 2.27335 14.9802 1.38264 13.1045 2.1596C11.2288 2.93655 10.3381 5.08696 11.1151 6.96266C11.892 8.83836 14.0424 9.72908 15.9181 8.95212Z" fill="#333F47"/>
<path d="M12.1598 4.21688C12.1198 4.21688 12.0798 4.20488 12.0438 4.18088C11.9478 4.11688 11.9198 3.98489 11.9798 3.88889C12.5438 3.02089 13.4958 2.50488 14.5318 2.50488C14.6478 2.50488 14.7438 2.60088 14.7438 2.71688C14.7438 2.83288 14.6478 2.92889 14.5318 2.92889C13.6438 2.92889 12.8197 3.37288 12.3357 4.12088C12.2957 4.18488 12.2278 4.21688 12.1598 4.21688Z" fill="#E8ECF5"/>
<path d="M11.7039 5.75683C11.5879 5.75683 11.4919 5.66084 11.4919 5.54484C11.4919 5.16084 11.56 4.78883 11.7 4.43683C11.744 4.32883 11.8639 4.27283 11.9719 4.31683C12.0799 4.36083 12.1359 4.48085 12.0919 4.58885C11.9719 4.89285 11.9119 5.21284 11.9119 5.54084C11.9159 5.66484 11.8239 5.75683 11.7039 5.75683Z" fill="#E8ECF5"/>
<path d="M11.604 9.68453C11.26 9.68453 10.98 9.40453 10.98 9.06053C10.98 8.71653 11.26 8.43652 11.604 8.43652H17.444C17.788 8.43652 18.068 8.71653 18.068 9.06053C18.068 9.40453 17.788 9.68453 17.444 9.68453H11.604Z" fill="#F8981D"/>
<path d="M10.0159 3.67186C9.89186 4.09186 9.82387 4.53186 9.82387 4.99186C9.82387 5.45186 9.89186 5.89186 10.0159 6.31186V6.46385H9.88387C9.33187 6.46385 8.87988 6.01584 8.87988 5.45984V4.55186C8.87988 3.99986 9.32787 3.54785 9.88387 3.54785H10.0159V3.67186Z" fill="#333F47"/>
<path d="M19.9998 4.54795V5.45594C19.9998 6.00794 19.5518 6.45994 18.9958 6.45994H18.9358C19.0878 5.99594 19.1718 5.50395 19.1718 4.98795C19.1718 4.48395 19.0918 3.99995 18.9438 3.54395H18.9958C19.5518 3.54795 19.9998 3.99595 19.9998 4.54795Z" fill="#333F47"/>
<path d="M7.40789 3.81573C7.40389 3.81173 7.39986 3.80773 7.39586 3.80373C7.22786 3.63573 6.95589 3.63573 6.78789 3.80373L4.70789 5.88373L3.81988 4.99573C3.73988 4.91573 3.63186 4.87174 3.51586 4.87174C3.39986 4.87174 3.29187 4.91573 3.21187 4.99573C3.13187 5.07573 3.08789 5.18373 3.08789 5.29973C3.08789 5.41573 3.13187 5.52373 3.21187 5.60373L4.40387 6.79573C4.48387 6.87573 4.59189 6.91973 4.70789 6.91973C4.82389 6.91973 4.93187 6.87573 5.01187 6.79573L7.39586 4.41174C7.47586 4.33174 7.51988 4.22374 7.51988 4.10774C7.51988 3.99574 7.47989 3.89573 7.40789 3.81573Z" fill="#333F47"/>
<path d="M4.67591 8.41203C4.33991 8.41203 4.00393 8.35202 3.67193 8.22402C2.24793 7.66802 1.54393 6.06002 2.09993 4.64002C2.36793 3.95202 2.88794 3.40803 3.56794 3.11203C4.24394 2.81603 4.99594 2.80003 5.68794 3.06803C5.85594 3.13203 5.93593 3.32003 5.87193 3.48803C5.80793 3.65603 5.61993 3.73603 5.45193 3.67203C4.92393 3.46403 4.34794 3.47602 3.82794 3.70402C3.30794 3.93202 2.90792 4.34801 2.70392 4.87601C2.27992 5.96401 2.81994 7.20002 3.90794 7.62402C4.43594 7.82802 5.01193 7.81603 5.53193 7.59203C6.05193 7.36403 6.45191 6.94802 6.65591 6.42002C6.71991 6.25202 6.90791 6.17201 7.07591 6.23601C7.24391 6.30001 7.32393 6.48801 7.25993 6.65601C6.83193 7.74001 5.78391 8.41203 4.67591 8.41203Z" fill="#333F47"/>
</g>
<defs>
<clipPath id="clip0_18403_54000">
<rect width="20" height="20" fill="white"/>
</clipPath>
</defs>
</svg>
