<svg width="17" height="16" viewBox="0 0 17 16" fill="none" xmlns="http://www.w3.org/2000/svg">
<g id="gpp_bad">
<path id="Vector" d="M13.1667 2.97709L9.1667 1.47709C8.8667 1.36376 8.53337 1.36376 8.23337 1.47709L4.23337 2.97709C3.71337 3.17709 3.3667 3.67042 3.3667 4.23042V7.36376C3.3667 10.6571 5.5467 13.7438 8.5067 14.5838C8.63337 14.6171 8.7667 14.6171 8.8867 14.5838C11.8534 13.7438 14.0334 10.6571 14.0334 7.36376V4.23042C14.0334 3.67042 13.6867 3.17709 13.1667 2.97709ZM10.5667 9.83042C10.3067 10.0904 9.8867 10.0904 9.6267 9.83709L8.70003 8.91709L7.77337 9.83709C7.51337 10.0971 7.09337 10.0971 6.83337 9.83709C6.57337 9.57709 6.57337 9.15709 6.83337 8.89709L7.76003 7.97042L6.83337 7.04376C6.57337 6.78376 6.57337 6.36376 6.83337 6.10376C7.09337 5.84376 7.51337 5.84376 7.77337 6.10376L8.70003 7.03042L9.6267 6.10376C9.8867 5.84376 10.3067 5.84376 10.5667 6.10376C10.8267 6.36376 10.8267 6.78376 10.5667 7.04376L9.6467 7.97042L10.5667 8.89042C10.8267 9.15042 10.8267 9.57042 10.5667 9.83042Z" fill="#D62926"/>
</g>
</svg>
