<svg width="17" height="16" viewBox="0 0 17 16" fill="none" xmlns="http://www.w3.org/2000/svg">
<g id="grain">
<path id="Vector" d="M6.96777 8.0013C6.23444 8.0013 5.63444 8.6013 5.63444 9.33463C5.63444 10.068 6.23444 10.668 6.96777 10.668C7.70111 10.668 8.30111 10.068 8.30111 9.33463C8.30111 8.6013 7.70111 8.0013 6.96777 8.0013ZM4.30111 5.33464C3.56777 5.33464 2.96777 5.93464 2.96777 6.66797C2.96777 7.4013 3.56777 8.0013 4.30111 8.0013C5.03444 8.0013 5.63444 7.4013 5.63444 6.66797C5.63444 5.93464 5.03444 5.33464 4.30111 5.33464ZM4.30111 10.668C3.56777 10.668 2.96777 11.268 2.96777 12.0013C2.96777 12.7346 3.56777 13.3346 4.30111 13.3346C5.03444 13.3346 5.63444 12.7346 5.63444 12.0013C5.63444 11.268 5.03444 10.668 4.30111 10.668ZM12.3011 5.33464C13.0344 5.33464 13.6344 4.73464 13.6344 4.0013C13.6344 3.26797 13.0344 2.66797 12.3011 2.66797C11.5678 2.66797 10.9678 3.26797 10.9678 4.0013C10.9678 4.73464 11.5678 5.33464 12.3011 5.33464ZM9.63444 10.668C8.90111 10.668 8.30111 11.268 8.30111 12.0013C8.30111 12.7346 8.90111 13.3346 9.63444 13.3346C10.3678 13.3346 10.9678 12.7346 10.9678 12.0013C10.9678 11.268 10.3678 10.668 9.63444 10.668ZM12.3011 8.0013C11.5678 8.0013 10.9678 8.6013 10.9678 9.33463C10.9678 10.068 11.5678 10.668 12.3011 10.668C13.0344 10.668 13.6344 10.068 13.6344 9.33463C13.6344 8.6013 13.0344 8.0013 12.3011 8.0013ZM9.63444 5.33464C8.90111 5.33464 8.30111 5.93464 8.30111 6.66797C8.30111 7.4013 8.90111 8.0013 9.63444 8.0013C10.3678 8.0013 10.9678 7.4013 10.9678 6.66797C10.9678 5.93464 10.3678 5.33464 9.63444 5.33464ZM6.96777 2.66797C6.23444 2.66797 5.63444 3.26797 5.63444 4.0013C5.63444 4.73464 6.23444 5.33464 6.96777 5.33464C7.70111 5.33464 8.30111 4.73464 8.30111 4.0013C8.30111 3.26797 7.70111 2.66797 6.96777 2.66797Z" fill="#7E93A8"/>
</g>
</svg>
