<svg width="17" height="17" viewBox="0 0 17 17" fill="none" xmlns="http://www.w3.org/2000/svg">
<g id="muslim">
<path id="Vector" d="M8.5001 11.8333C9.42232 11.8333 10.2084 11.5111 10.8584 10.8667C11.5084 10.2222 11.8334 9.43333 11.8334 8.5C11.8334 8.41111 11.8307 8.32222 11.8251 8.23333C11.8195 8.14444 11.8057 8.05555 11.7834 7.96667C11.6612 8.48889 11.389 8.91944 10.9668 9.25833C10.5445 9.59722 10.0501 9.76667 9.48343 9.76667C8.81676 9.76667 8.25565 9.53889 7.8001 9.08333C7.34454 8.62778 7.11676 8.06667 7.11676 7.4C7.11676 6.88889 7.26121 6.43055 7.5501 6.025C7.83899 5.61944 8.21676 5.33333 8.68343 5.16667H8.5001C7.56676 5.16667 6.77788 5.49167 6.13343 6.14167C5.48899 6.79167 5.16676 7.57778 5.16676 8.5C5.16676 9.43333 5.48899 10.2222 6.13343 10.8667C6.77788 11.5111 7.56676 11.8333 8.5001 11.8333ZM9.18343 8.16667L10.1668 7.45L11.1334 8.16667L10.7501 7.03333L11.7334 6.31667L10.5334 6.33333L10.1668 5.16667L9.8001 6.33333L8.58343 6.31667L9.56676 7.03333L9.18343 8.16667ZM6.27131 13.8333H4.16676C3.89176 13.8333 3.65635 13.7354 3.46051 13.5396C3.26468 13.3437 3.16676 13.1083 3.16676 12.8333V10.7288L1.63343 9.2C1.44454 9.01184 1.3501 8.77869 1.3501 8.50055C1.3501 8.2224 1.44454 7.98889 1.63343 7.8L3.16676 6.27122V4.16667C3.16676 3.89166 3.26468 3.65625 3.46051 3.46042C3.65635 3.26458 3.89176 3.16667 4.16676 3.16667H6.27131L7.8001 1.63333C7.98899 1.43333 8.22232 1.33889 8.5001 1.35C8.77788 1.36111 9.01676 1.46111 9.21676 1.65L10.7385 3.16667H12.8334C13.1084 3.16667 13.3438 3.26458 13.5397 3.46042C13.7355 3.65625 13.8334 3.89166 13.8334 4.16667V6.27122L15.3668 7.8C15.5557 7.98815 15.6501 8.2213 15.6501 8.49945C15.6501 8.77759 15.5557 9.01111 15.3668 9.2L13.8334 10.7288V12.8333C13.8334 13.1083 13.7355 13.3437 13.5397 13.5396C13.3438 13.7354 13.1084 13.8333 12.8334 13.8333H10.7334L9.23343 15.3167C9.03343 15.5056 8.79454 15.6 8.51676 15.6C8.23899 15.6 8.0001 15.5056 7.8001 15.3167L6.27131 13.8333ZM8.51676 14.6167L10.3154 12.8333H12.8334V10.3167L14.6501 8.5L12.8334 6.68333V4.16667H10.3168L8.51676 2.35L6.68343 4.16667H4.16676V6.68333L2.3501 8.5L4.16676 10.3167V12.8333H6.66676L8.51676 14.6167Z" fill="#08A94C"/>
</g>
</svg>
