<svg width="32" height="32" viewBox="0 0 32 32" fill="none" xmlns="http://www.w3.org/2000/svg">
<path d="M27.9936 13.2326C27.5186 13.2514 27.0623 13.3951 26.5998 13.4889C25.1873 13.7701 23.7811 14.0639 22.3748 14.3576C22.2873 14.3764 22.1873 14.3701 22.1248 14.4576C21.831 14.4639 21.5435 14.4701 21.2873 14.6451C21.2248 14.5951 21.1623 14.6076 21.0935 14.6201C20.7435 14.6951 20.3935 14.7576 20.0435 14.8264C19.9435 14.7764 19.831 14.7826 19.7248 14.7826C18.5623 14.7826 17.3998 14.7764 16.2435 14.7764C16.2185 14.6826 16.1998 14.5764 16.156 14.4889C15.5748 13.2076 14.9873 11.9264 14.3998 10.6514C14.3185 10.4764 14.3248 10.4326 14.531 10.4326C19.0185 10.4389 23.5123 10.4389 27.9998 10.4389C27.9936 11.3639 27.9936 12.2951 27.9936 13.2326Z" fill="#B2BFC8"/>
<path d="M5.60784 10.0015C5.67034 9.03897 6.31409 8.42022 7.2766 8.41397C8.5141 8.40772 9.75786 8.41396 10.9954 8.40771C11.1766 8.40771 11.2141 8.46397 11.2141 8.63272C11.2079 9.93272 11.2079 11.2327 11.2141 12.5327C11.2141 12.6265 11.2204 12.7202 11.2266 12.814C11.2266 12.8265 11.2204 12.8452 11.2204 12.8577C11.1641 13.0952 11.1579 13.3265 11.2266 13.564H11.2329C11.2266 13.5765 11.2266 13.589 11.2329 13.6077C11.2141 14.0077 11.2141 14.4078 11.2329 14.8078C11.2329 14.8328 11.2266 14.8515 11.2266 14.8765C11.1766 14.939 11.1891 15.0078 11.1891 15.0765C11.1891 15.8015 11.1891 16.5328 11.1891 17.2578C10.7204 17.214 10.2454 17.1765 9.77661 17.2578C8.57036 17.464 7.65785 18.0953 7.00159 19.114C6.73909 19.5265 6.60784 19.989 6.47034 20.4453C6.18284 20.1515 5.88909 19.8578 5.60158 19.564C5.60783 18.0265 5.60783 16.4828 5.61408 14.9453C5.61408 14.7953 5.53284 14.789 5.42033 14.789C4.95158 14.789 4.48283 14.7828 4.02032 14.7828C4.02032 14.6765 4.02032 14.564 4.02032 14.4578C4.07658 14.4453 4.08283 14.389 4.09533 14.3515C4.32033 13.689 4.77658 13.3077 5.47658 13.2265C5.52033 13.2202 5.56408 13.2077 5.61408 13.1952C6.87659 13.1952 8.14535 13.1952 9.40786 13.2015C9.58911 13.2015 9.60786 13.1265 9.60786 12.9765C9.60161 12.0702 9.60161 11.1702 9.60786 10.264C9.60786 10.0515 9.54536 10.0077 9.34536 10.0077C8.0891 10.0077 6.84534 10.0015 5.60784 10.0015ZM9.21411 14.4015C9.14536 14.4015 9.07661 14.4015 9.00161 14.4015C8.38285 14.4015 8.3891 14.4015 8.4016 15.014C8.4016 15.1515 8.4391 15.2078 8.58285 15.2015C8.85785 15.189 9.12661 15.2015 9.40161 15.2015C10.0204 15.2015 10.0141 15.2015 10.0016 14.589C10.0016 14.4515 9.96411 14.389 9.82036 14.4015C9.62036 14.4078 9.41411 14.4015 9.21411 14.4015Z" fill="#F8981D"/>
<path d="M27.9946 10.4265C23.507 10.4265 19.0133 10.4265 14.5257 10.4203C14.3195 10.4203 14.3132 10.464 14.3945 10.639C14.9882 11.914 15.5695 13.1953 16.1507 14.4765C16.1945 14.564 16.207 14.6703 16.2382 14.764C15.9632 14.764 15.682 14.7703 15.407 14.7703C15.2882 14.4953 15.1695 14.2203 15.0445 13.9515C14.982 13.8265 14.9632 13.6703 14.8257 13.5828C14.7882 13.289 14.6257 13.0453 14.4882 12.789C14.3195 12.2765 14.0632 11.8078 13.8445 11.3203C13.3195 10.1515 12.782 8.98275 12.257 7.814C12.1882 7.65774 12.1007 7.59524 11.9257 7.60149C11.3507 7.61399 10.7694 7.6015 10.1944 7.60775C10.0507 7.60775 9.99444 7.5765 9.98819 7.42024C9.98194 6.80774 9.9757 6.80774 10.5882 6.80774C11.1257 6.80774 11.6632 6.82649 12.2007 6.80149C12.5382 6.78274 12.7195 6.92024 12.8382 7.22024C12.9695 7.55149 13.1257 7.8765 13.282 8.2015C13.3195 8.2765 13.3382 8.364 13.4132 8.42025C13.507 8.75775 13.6945 9.05776 13.8195 9.38276C13.8757 9.53276 13.9445 9.58276 14.107 9.58276C18.732 9.57651 23.3633 9.57651 27.9883 9.57651C27.9946 9.86401 27.9946 10.1453 27.9946 10.4265Z" fill="#7E93A8"/>
<path d="M27.9944 9.58282C23.3694 9.58282 18.7381 9.58282 14.1131 9.58907C13.9506 9.58907 13.8881 9.53282 13.8256 9.38907C13.7006 9.06407 13.5131 8.76407 13.4193 8.42656C13.4631 8.42031 13.5131 8.41406 13.5568 8.41406C18.3693 8.41406 23.1819 8.41406 27.9944 8.41406C27.9944 8.80781 27.9944 9.19532 27.9944 9.58282Z" fill="#B2BFC8"/>
<path d="M4 14.7764C4.46875 14.7764 4.93751 14.7826 5.40001 14.7826C5.51251 14.7826 5.59376 14.7826 5.59376 14.9389C5.58751 16.4764 5.58126 18.0201 5.58126 19.5576C5.05626 19.0389 4.525 18.5201 4 18.0076C4 16.9264 4 15.8514 4 14.7764Z" fill="#B2BFC8"/>
<path d="M24.1563 17.5266C24.425 17.8016 24.7813 17.9578 25.0688 18.2141C26.6751 19.6203 26.8438 22.2016 25.4188 23.7891C23.8438 25.5454 21.2813 25.6516 19.5875 24.0141C18.7938 23.2454 18.4313 22.2766 18.3875 21.1828C18.4188 20.7266 18.4875 20.2766 18.6375 19.8391C18.8375 19.2391 19.2188 18.7641 19.6125 18.2891C19.675 18.2453 19.75 18.2141 19.8063 18.1641C20.2125 17.7953 20.6938 17.5516 21.2063 17.3766C21.3375 17.3328 21.4875 17.3516 21.5938 17.2453C22.0625 17.2203 22.5313 17.1953 23 17.2203C23.3625 17.3391 23.7438 17.4016 24.0875 17.5766C24.1125 17.5828 24.1375 17.5516 24.1563 17.5266ZM22.4 18.7953C21.1 18.7703 19.975 19.8641 19.9938 21.1891C20.0188 22.5703 21.1 23.5391 22.3563 23.5641C23.675 23.5891 24.8063 22.5328 24.7938 21.1516C24.7876 19.8516 23.6938 18.7766 22.4 18.7953Z" fill="#7E93A8"/>
<path d="M6.4581 20.4327C6.59561 19.9764 6.72686 19.5139 6.98936 19.1014C7.64561 18.0827 8.55812 17.4514 9.76438 17.2452C10.2394 17.1639 10.7081 17.2014 11.1769 17.2452H11.1956H11.2144C11.4894 17.3702 11.7831 17.4202 12.0644 17.5452C12.4769 17.7327 12.8206 18.0202 13.1894 18.2827C13.2144 18.3139 13.2331 18.3452 13.2581 18.3764C13.9956 19.1639 14.3832 20.1014 14.4082 21.1827C14.3707 22.2139 14.0456 23.1389 13.3206 23.8952C12.3769 24.8889 11.2081 25.3265 9.85187 25.1202C8.08311 24.8514 6.97686 23.8014 6.5081 22.0827C6.36435 21.5389 6.38935 20.9827 6.4581 20.4327ZM10.4144 18.7952C9.10187 18.7639 7.98937 19.8514 7.99562 21.1827C8.00187 22.5139 9.07687 23.5389 10.3456 23.5702C11.6644 23.6014 12.7894 22.5389 12.7956 21.1889C12.8081 19.8514 11.6769 18.7639 10.4144 18.7952Z" fill="#7E93A8"/>
<path d="M19.6063 18.2823C19.2125 18.7573 18.8313 19.2323 18.6313 19.8323C18.4813 20.2698 18.4188 20.7198 18.3813 21.1761C17.85 21.1761 17.3188 21.1698 16.7938 21.1698C16.7938 19.8448 16.7938 18.5198 16.7938 17.1948C17.2125 17.1948 17.6438 17.2323 18.0563 17.1886C18.6125 17.1261 19.025 17.3011 19.3688 17.7323C19.5063 17.9073 19.6438 18.0511 19.6063 18.2823Z" fill="#F9AD4A"/>
<path d="M14.406 21.1833C14.381 20.102 13.9935 19.1708 13.256 18.377C13.231 18.3458 13.2123 18.3145 13.1873 18.2833C13.156 18.0645 13.2435 17.8958 13.4123 17.7583C13.5498 17.6458 13.6748 17.5145 13.7935 17.377C13.9123 17.2458 14.0373 17.1895 14.2185 17.1958C14.8123 17.2083 15.4061 17.202 15.9936 17.202C15.9936 18.527 15.9936 19.852 15.9936 21.1708C15.4623 21.1771 14.9373 21.1833 14.406 21.1833Z" fill="#F9AD4A"/>
<path d="M15.9941 21.1765C15.9941 19.8515 15.9941 18.5265 15.9941 17.2077C16.2628 17.1515 16.5253 17.1515 16.7941 17.2077C16.7941 18.5327 16.7941 19.8577 16.7941 21.1827C16.5253 21.1765 16.2628 21.1765 15.9941 21.1765Z" fill="#F8981D"/>
<path d="M24.157 17.5262C24.1383 17.5512 24.1133 17.5824 24.082 17.5637C23.7383 17.3887 23.357 17.3262 22.9945 17.2074C22.4258 16.3512 21.857 15.4949 21.2883 14.6387C21.5445 14.4637 21.832 14.4574 22.1258 14.4512C22.7945 15.4824 23.4758 16.5012 24.157 17.5262Z" fill="#333F47"/>
<path d="M5.60574 10.0015C6.8495 10.0015 8.087 10.0077 9.33076 10.0015C9.53701 10.0015 9.59326 10.0515 9.59326 10.2577C9.58076 11.164 9.58701 12.064 9.59326 12.9702C9.59326 13.1202 9.57451 13.1952 9.39326 13.1952C8.13075 13.189 6.862 13.189 5.59949 13.189C5.59949 12.1265 5.59949 11.064 5.60574 10.0015Z" fill="#B2BFC8"/>
<path d="M14.4871 12.8076C14.6246 13.0576 14.7871 13.3014 14.8246 13.6014C13.6371 13.6014 12.4496 13.6014 11.2683 13.6014C11.2558 13.5889 11.2371 13.5764 11.2246 13.5639H11.2183C11.2183 13.3264 11.2183 13.0951 11.2121 12.8576C11.2121 12.8451 11.2183 12.8264 11.2183 12.8139C12.3059 12.8076 13.3996 12.8076 14.4871 12.8076Z" fill="#333F47"/>
<path d="M16.7938 17.2012C16.5251 17.1449 16.2626 17.1449 15.9938 17.2012C15.4001 17.2012 14.8063 17.2074 14.2188 17.1949C14.0376 17.1887 13.9063 17.2449 13.7938 17.3762C13.6751 17.5137 13.5501 17.6387 13.4126 17.7574C13.2438 17.9012 13.1563 18.0637 13.1876 18.2824C12.8251 18.0262 12.4813 17.7387 12.0626 17.5449C11.7876 17.4199 11.4876 17.3762 11.2126 17.2449C11.2126 16.4512 11.2125 15.6574 11.2063 14.8637C11.2063 14.8387 11.2126 14.8199 11.2126 14.7949C11.3501 14.7887 11.4938 14.7887 11.6313 14.7824C12.8876 14.7762 14.1438 14.7762 15.4001 14.7699C15.6751 14.7699 15.9563 14.7637 16.2313 14.7637C17.3938 14.7637 18.5563 14.7699 19.7126 14.7699C19.8189 14.7699 19.9314 14.7637 20.0314 14.8137C20.0314 14.8387 20.0251 14.8637 20.0376 14.8824C20.5064 15.5824 20.9814 16.2824 21.4564 16.9824C21.5064 17.0574 21.5814 17.1262 21.5814 17.2262C21.4751 17.3324 21.3251 17.3137 21.1939 17.3574C20.6814 17.5324 20.2001 17.7762 19.7939 18.1449C19.7376 18.1949 19.6688 18.2324 19.6001 18.2699C19.6376 18.0387 19.5001 17.8949 19.3626 17.7262C19.0188 17.2949 18.6063 17.1137 18.0501 17.1824C17.6438 17.2387 17.2188 17.2012 16.7938 17.2012Z" fill="#C67A17"/>
<path d="M9.21182 14.4009C9.41182 14.4009 9.61807 14.4071 9.81807 14.4009C9.96808 14.3946 9.99933 14.4509 9.99933 14.5884C10.0118 15.2009 10.0181 15.2009 9.39932 15.2009C9.12432 15.2009 8.85557 15.1946 8.58057 15.2009C8.43682 15.2071 8.39932 15.1509 8.39932 15.0134C8.38682 14.4009 8.38057 14.4009 8.99932 14.4009C9.06807 14.4009 9.14307 14.4009 9.21182 14.4009Z" fill="#C67A17"/>
<path d="M11.2072 14.8701C11.2072 15.6639 11.2072 16.4576 11.2134 17.2514H11.1947H11.1759C11.1759 16.5264 11.1759 15.7951 11.1759 15.0701C11.1759 15.0014 11.1572 14.9264 11.2072 14.8701Z" fill="#F9AD4A"/>
<path d="M11.2057 12.8574C11.2057 13.0949 11.2057 13.3262 11.2119 13.5637C11.1432 13.3262 11.1494 13.0949 11.2057 12.8574Z" fill="#F9AD4A"/>
<path d="M11.2618 13.5949C11.2431 13.5949 11.2307 13.6011 11.2121 13.6011C11.2121 13.5887 11.2121 13.5762 11.2121 13.5576C11.2307 13.57 11.2494 13.5825 11.2618 13.5949Z" fill="#7E93A8"/>
<path d="M22.4003 18.7953C23.694 18.7766 24.7878 19.8516 24.8003 21.1579C24.8128 22.5329 23.6753 23.5954 22.3628 23.5704C21.1065 23.5454 20.0253 22.5766 20.0003 21.1954C19.969 19.8703 21.094 18.7703 22.4003 18.7953Z" fill="#B2BFC8"/>
<path d="M10.4123 18.7951C11.6748 18.7638 12.806 19.8513 12.7998 21.1889C12.7935 22.5389 11.6623 23.5951 10.3498 23.5701C9.08099 23.5389 7.99974 22.5201 7.99974 21.1826C7.98724 19.8513 9.09974 18.7638 10.4123 18.7951Z" fill="#B2BFC8"/>
</svg>