<svg width="16" height="14" viewBox="0 0 16 14" fill="none" xmlns="http://www.w3.org/2000/svg">
<g id="Group">
<path id="Vector" d="M5.73322 8.48648C5.64326 8.33003 5.62761 8.16184 5.63543 7.98975C5.96789 7.98975 6.30035 7.98975 6.6328 7.98975C7.29772 7.98975 7.95872 7.98975 8.62363 7.98975C9.62882 7.98975 10.634 7.98975 11.6392 7.98975C11.9717 7.98975 12.3041 7.98975 12.6327 7.98975C13.4619 7.98975 14.291 7.98975 15.1202 7.98975C15.1202 7.99757 15.1202 8.00931 15.1202 8.01713C15.0381 8.16576 15.0303 8.34958 14.9129 8.48256C11.8504 8.48647 8.79182 8.48648 5.73322 8.48648Z" fill="#333F47"/>
<path id="Vector_2" d="M15.1211 7.98955C14.2919 7.98955 13.4627 7.98955 12.6335 7.98955C12.6335 7.40677 12.6335 6.82008 12.6335 6.2373C12.88 6.2373 13.1264 6.2373 13.3728 6.2373C13.541 6.24513 13.7052 6.25295 13.8734 6.26077C14.2606 6.35073 14.5814 6.53847 14.8278 6.85528C14.9803 7.05476 15.0507 7.28943 15.125 7.5202C15.1211 7.67665 15.1211 7.8331 15.1211 7.98955Z" fill="#F8981D"/>
<path id="Vector_3" d="M15.086 10.9738C15.0978 10.9816 15.1095 10.9933 15.1212 11.0011C15.1212 11.1654 15.1212 11.3336 15.1212 11.4979L15.1095 11.5018H15.0978C14.7536 11.5018 14.4094 11.5018 14.0691 11.5018C14.1317 11.3375 14.1473 11.1693 14.073 11.0051C14.116 10.9581 14.1708 10.9777 14.2216 10.9777C14.5072 10.9738 14.7966 10.9738 15.086 10.9738Z" fill="#333F47"/>
<path id="Vector_4" d="M15.0851 10.9741C14.7957 10.9741 14.5063 10.9741 14.2168 10.9741C14.166 10.9741 14.1112 10.9546 14.0682 11.0015C14.033 10.9624 14.0017 10.9194 13.9626 10.8803C13.7944 10.7121 13.5715 10.6886 13.3485 10.8177C13.1803 10.9155 13.0904 11.1619 13.1412 11.3692C13.196 11.5804 13.3955 11.7251 13.6145 11.7329C13.814 11.7407 13.9352 11.6156 14.0643 11.4982C14.4085 11.4982 14.7527 11.4982 15.0929 11.4982C14.9482 12.2218 14.3537 12.7185 13.6223 12.7303C13.2038 12.7342 12.7853 12.7303 12.3668 12.7264C12.3668 12.5191 12.3629 12.3079 12.3668 12.1006C12.3707 11.9324 12.2377 11.9832 12.1712 11.9989C12.0695 12.0223 11.8935 11.8815 11.874 12.1006C11.8544 12.3079 11.8701 12.5191 11.8701 12.7264C11.7058 12.7264 11.5376 12.7264 11.3733 12.7264C11.3733 12.5191 11.3694 12.3079 11.3733 12.1006C11.3773 11.9324 11.2443 11.9871 11.1778 11.9989C11.0761 12.0223 10.9001 11.8815 10.8805 12.1006C10.8649 12.3079 10.8766 12.5191 10.8766 12.7264C10.7123 12.7264 10.5442 12.7264 10.3799 12.7264C10.3799 12.6012 10.3799 12.4721 10.3799 12.347C10.3799 11.9832 10.3799 11.9832 10.0083 11.991C9.91445 11.991 9.87925 12.0184 9.88316 12.1162C9.88707 12.3196 9.88316 12.523 9.88316 12.7264C9.71889 12.7264 9.5507 12.7264 9.38643 12.7225C9.38643 12.6012 9.38643 12.48 9.38643 12.3587C9.38643 11.9715 9.38643 11.9715 8.99922 11.991C8.91708 11.995 8.88579 12.0184 8.8897 12.1006C8.89361 12.3079 8.8897 12.5191 8.8897 12.7264C8.72543 12.7264 8.55725 12.7225 8.39297 12.7225C8.39297 12.6012 8.39297 12.48 8.39297 12.3587C8.39297 11.9715 8.39297 11.9715 8.00185 11.991C7.91971 11.995 7.89233 12.0223 7.89233 12.1006C7.89624 12.3079 7.89233 12.5191 7.89233 12.7264C7.71632 12.7264 7.54423 12.7264 7.36822 12.7264C7.36822 12.6051 7.36822 12.4839 7.36822 12.3626C7.36822 11.9715 7.36822 11.9754 6.98492 11.991C6.89105 11.995 6.86758 12.0302 6.87149 12.1123C6.87541 12.3157 6.87149 12.5191 6.87149 12.7225C6.35521 12.7185 5.83501 12.7811 5.32655 12.6912C4.73595 12.5895 4.23531 12.0497 4.17273 11.4982C4.51692 11.4982 4.86111 11.4943 5.20139 11.4943C5.22486 11.5217 5.25224 11.553 5.2757 11.5804C5.43215 11.7407 5.70985 11.7759 5.89368 11.6586C6.11662 11.5139 6.18702 11.2714 6.08924 11.0367C5.9367 10.6847 5.47909 10.6065 5.20139 10.9663C4.8572 10.9663 4.51692 10.9624 4.17273 10.9624C4.2314 10.4148 4.75942 9.87506 5.3422 9.76163C5.54558 9.72252 5.74896 9.73425 5.95235 9.73425C6.25743 9.73425 6.56642 9.73817 6.87149 9.73817C6.87149 9.85942 6.87149 9.98066 6.87149 10.1019C6.87149 10.4813 6.87149 10.4774 7.2548 10.4657C7.34476 10.4617 7.37605 10.4344 7.37213 10.3483C7.36822 10.1449 7.36822 9.93764 7.36822 9.73425C7.54423 9.73425 7.72024 9.73425 7.89624 9.73425C7.89624 9.8555 7.89624 9.97675 7.89624 10.098C7.89624 10.4774 7.89624 10.4735 8.27563 10.4657C8.37733 10.4617 8.39688 10.4226 8.39688 10.3327C8.39297 10.1332 8.39688 9.93373 8.39688 9.73425C8.56507 9.73425 8.72934 9.73425 8.89752 9.73034C8.89752 9.85159 8.89752 9.97284 8.89752 10.0941C8.89752 10.4735 8.89752 10.4696 9.27691 10.4617C9.37861 10.4578 9.39816 10.4187 9.39816 10.3288C9.39425 10.1293 9.39816 9.92982 9.39816 9.73034C9.56635 9.73034 9.73062 9.73034 9.89881 9.73034C9.89881 9.85159 9.89881 9.97284 9.89881 10.0941C9.89881 10.4735 9.8988 10.4696 10.2782 10.4617C10.3642 10.4578 10.3994 10.4344 10.3955 10.3444C10.3916 10.141 10.3916 9.93373 10.3916 9.73034C10.5598 9.73034 10.7241 9.73034 10.8923 9.73034C10.8923 9.85159 10.8923 9.97284 10.8923 10.0941C10.8923 10.4735 10.8923 10.4696 11.2717 10.4617C11.3577 10.4578 11.3929 10.4344 11.389 10.3444C11.3851 10.141 11.3851 9.93373 11.3851 9.73034C11.5533 9.73034 11.7175 9.73034 11.8857 9.73034C11.8857 9.85159 11.8857 9.97284 11.8857 10.0941C11.8857 10.4735 11.8857 10.4696 12.2651 10.4617C12.3512 10.4578 12.3864 10.4344 12.3825 10.3444C12.3785 10.141 12.3785 9.93373 12.3785 9.73034C12.8909 9.73425 13.4111 9.6795 13.9196 9.75772C14.4984 9.86724 15.0265 10.4265 15.0851 10.9741Z" fill="#7E93A8"/>
<path id="Vector_5" d="M11.6356 7.98966C10.6304 7.98966 9.62522 7.98966 8.62003 7.98966C8.62003 7.37559 8.62003 6.76152 8.62003 6.14746C8.62003 5.8854 8.62003 5.61944 8.62003 5.35738C8.62003 5.29871 8.62394 5.24005 8.53398 5.24005C7.9825 5.24396 7.43101 5.23614 6.88343 5.24396C6.70351 5.24787 6.6292 5.34565 6.6292 5.53339C6.6292 6.35084 6.6292 7.1722 6.6292 7.98966C6.29674 7.98966 5.96429 7.98966 5.63183 7.98966C5.63183 7.15265 5.61619 6.31173 5.63183 5.47472C5.64357 4.74723 6.1755 4.25832 6.91863 4.24659C7.15331 4.24268 7.38798 4.24268 7.61875 4.24268C7.64613 4.28179 7.68915 4.27397 7.72435 4.27397C8.15068 4.27397 8.58092 4.27397 9.00724 4.27397C9.04636 4.27397 9.08547 4.27788 9.11285 4.24268C9.2693 4.24659 9.42575 4.2505 9.5822 4.25441C9.59002 4.26223 9.59784 4.27005 9.60958 4.27397C9.61349 4.92714 9.61349 5.57641 9.6174 6.22959C9.6174 6.52685 9.6174 6.8241 9.60958 7.12136C9.60567 7.23088 9.6526 7.26608 9.7582 7.26216C9.99679 7.25825 10.2354 7.25434 10.474 7.26216C10.5874 7.26608 10.6109 7.21914 10.6109 7.11745C10.6069 6.82411 10.6109 6.53467 10.6109 6.24133H10.6187C10.6343 6.24133 10.65 6.23742 10.6617 6.23742C10.7047 6.28435 10.7634 6.26479 10.8142 6.26479C11.088 6.26871 11.3579 6.26479 11.6317 6.2687C11.6356 6.83975 11.6356 7.4147 11.6356 7.98966Z" fill="#F8981D"/>
<path id="Vector_6" d="M0.135746 5.73652C0.135746 4.6844 0.131836 3.63227 0.131836 2.57623C0.131836 2.51756 0.151391 2.47845 0.194415 2.43542C0.734168 1.89958 1.27001 1.35983 1.80585 0.820077C1.86061 0.765319 1.89581 0.753587 1.95448 0.816167C2.09528 0.964794 2.24 1.10951 2.38472 1.25423C2.38472 1.58277 2.38472 1.91523 2.38081 2.24377C2.15395 2.47063 1.9271 2.69748 1.69634 2.92433C1.6494 2.97127 1.62202 3.0182 1.62202 3.0886C1.62593 3.64009 1.62594 4.18767 1.62594 4.73915C1.62594 4.75871 1.62594 4.77827 1.62594 4.79782C1.62594 5.11072 1.62594 5.42753 1.62594 5.74043C1.13312 5.74043 0.636387 5.73652 0.135746 5.73652Z" fill="#F9AD4A"/>
<path id="Vector_7" d="M5.73425 8.48682C8.79285 8.48682 11.8515 8.48682 14.914 8.48682C14.6167 8.98355 14.1747 9.23777 13.5998 9.24169C12.8801 9.24951 12.1565 9.2456 11.4369 9.2456C9.95058 9.2456 8.46431 9.2456 6.97803 9.2456C6.62993 9.2456 6.31312 9.16346 6.04715 8.92488C5.90635 8.79971 5.80466 8.655 5.73425 8.48682Z" fill="#F8981D"/>
<path id="Vector_8" d="M9.12123 4.23884C9.09385 4.27795 9.05474 4.27013 9.01563 4.27013C8.5893 4.27013 8.15906 4.27013 7.73273 4.27013C7.69362 4.27013 7.65451 4.27795 7.62713 4.23884C7.62713 3.78122 7.62322 3.3236 7.63104 2.86599C7.63104 2.77603 7.59193 2.71736 7.54108 2.65087C7.30641 2.35752 7.03262 2.16587 6.63758 2.2441C6.63367 1.91164 6.63367 1.5831 6.62976 1.25064C6.62976 1.11766 6.63367 0.988587 6.63367 0.855604C6.63367 0.785202 6.64541 0.75 6.72754 0.75C7.00524 0.753911 7.28294 0.753911 7.56064 0.75C7.61931 0.75 7.65842 0.773468 7.70145 0.816492C8.15515 1.27411 8.60885 1.72781 9.06647 2.18152C9.11732 2.23236 9.12905 2.28321 9.12905 2.3497C9.12123 2.97942 9.12123 3.60913 9.12123 4.23884Z" fill="#F9AD4A"/>
<path id="Vector_9" d="M6.62542 1.25439C6.62934 1.58685 6.62934 1.9154 6.63325 2.24785C6.13261 2.25176 5.63197 2.25176 5.13132 2.25567C4.79887 2.25567 4.4625 2.25958 4.13004 2.25958C3.54727 2.25567 2.96449 2.25176 2.38171 2.25176C2.38171 1.92322 2.38171 1.59076 2.38562 1.26222C3.63331 1.26222 4.881 1.2583 6.12869 1.2583C6.29297 1.25439 6.46115 1.25439 6.62542 1.25439Z" fill="#333F47"/>
<path id="Vector_10" d="M0.637373 10.7393C1.45874 11.5567 2.2801 12.3742 3.10146 13.1916C3.04279 13.2464 2.99586 13.2307 2.95675 13.2307C2.38571 13.2307 1.81466 13.2307 1.24362 13.2346C1.15757 13.2346 1.0989 13.2112 1.03632 13.1525C0.758623 12.8709 0.480925 12.5932 0.199315 12.3116C0.160202 12.2725 0.125 12.2412 0.125 12.1747C0.128911 11.854 0.132823 11.5332 0.132823 11.2086C0.316652 11.0639 0.453544 10.8801 0.637373 10.7393Z" fill="#333F47"/>
<path id="Vector_11" d="M1.62725 6.76172C1.62725 7.57917 1.62725 8.40053 1.62725 9.21799C1.2987 9.21799 0.966245 9.21799 0.637699 9.21799C0.637699 8.40053 0.633789 7.57917 0.633789 6.76172C0.962334 6.76172 1.29479 6.76172 1.62725 6.76172Z" fill="#333F47"/>
<path id="Vector_12" d="M10.6653 6.23395C10.6496 6.23395 10.634 6.23786 10.6222 6.23786C10.6222 5.95234 10.6261 5.66291 10.6183 5.37739C10.6144 5.27961 10.6379 5.24049 10.7474 5.24441C11.3302 5.24832 11.9169 5.24832 12.4996 5.24441C12.6052 5.24441 12.6287 5.27961 12.6287 5.37739C12.6248 5.66291 12.6287 5.95234 12.6326 6.23786C12.6131 6.23786 12.5935 6.23786 12.5739 6.23786C11.9364 6.23395 11.3028 6.23395 10.6653 6.23395Z" fill="#F8981D"/>
<path id="Vector_13" d="M0.636386 10.7387C0.452557 10.8756 0.315665 11.0634 0.139659 11.212C0.135748 10.5823 0.135747 9.95649 0.131836 9.32677C0.131836 9.26419 0.155304 9.24072 0.217884 9.24463C0.354778 9.24854 0.491672 9.24463 0.628566 9.24072C0.961022 9.24463 1.29348 9.24464 1.62594 9.24855C1.64549 9.72963 1.64549 9.72963 1.30912 10.066C1.08227 10.2928 0.859328 10.5158 0.636386 10.7387Z" fill="#F9AD4A"/>
<path id="Vector_14" d="M4.8807 3.25293C4.8807 3.4837 4.87287 3.71055 4.8807 3.94131C4.88461 4.05083 4.84549 4.14079 4.77118 4.2151C4.38006 4.60623 3.98502 5.00126 3.59389 5.39239C3.51958 5.4667 3.42571 5.5019 3.31619 5.5019C3.08934 5.5019 2.85858 5.50582 2.63173 5.50973C2.61999 5.33763 2.61999 5.16945 2.63173 4.99735C2.81164 4.99735 2.99156 4.99735 3.17148 5.00517C3.25362 5.00909 3.30837 4.98171 3.36313 4.92304C3.55869 4.71965 3.76208 4.52409 3.96155 4.32462C4.40352 3.88265 4.40352 3.88265 4.37615 3.25293C4.54433 3.24902 4.71251 3.24902 4.8807 3.25293Z" fill="#333F47"/>
<path id="Vector_15" d="M1.62629 6.76156C1.29384 6.76156 0.96529 6.76156 0.632833 6.76156C0.503762 6.76156 0.370779 6.75374 0.241708 6.76156C0.159571 6.76547 0.132192 6.73418 0.136103 6.65205C0.140015 6.34697 0.140016 6.04189 0.140016 5.74072C0.636745 5.74072 1.13738 5.74464 1.63411 5.74464C1.6302 6.081 1.62629 6.42128 1.62629 6.76156Z" fill="#7E93A8"/>
<path id="Vector_16" d="M13.8695 6.26117C13.7014 6.25335 13.5371 6.24553 13.3689 6.2377C13.3689 5.76835 13.3689 5.30291 13.3689 4.83356C13.3689 4.27426 13.717 3.95744 14.2724 4.00047C14.3389 4.00438 14.3702 4.02785 14.3663 4.09434C14.3624 4.13345 14.3663 4.17256 14.3663 4.21167C14.3663 4.47764 14.3663 4.47764 14.1042 4.50111C13.983 4.51284 13.9047 4.57151 13.8852 4.69276C13.8774 4.7436 13.8695 4.79836 13.8695 4.85312C13.8656 5.32247 13.8695 5.79182 13.8695 6.26117Z" fill="#333F47"/>
<path id="Vector_17" d="M10.6144 6.23781C10.6144 6.53115 10.6105 6.82058 10.6144 7.11393C10.6144 7.21953 10.5949 7.26256 10.4775 7.25865C10.239 7.25082 10.0004 7.25473 9.76179 7.25865C9.65618 7.26256 9.61316 7.22736 9.61316 7.11784C9.62098 6.82059 9.61707 6.52333 9.62098 6.22607C9.95344 6.22999 10.282 6.2339 10.6144 6.23781Z" fill="#C67A17"/>
<path id="Vector_18" d="M4.88047 3.25323C4.71229 3.25323 4.5441 3.25323 4.37592 3.25323C4.35636 3.25323 4.33681 3.24932 4.31725 3.25323C4.17645 3.2767 4.12169 3.22976 4.12951 3.07722C4.14516 2.80735 4.13342 2.53356 4.13342 2.25977C4.46588 2.25977 4.80225 2.25586 5.1347 2.25586C5.1347 2.52965 5.12297 2.79952 5.13862 3.07331C5.14644 3.22194 5.0995 3.2767 4.95479 3.25323C4.92741 3.24541 4.90394 3.24932 4.88047 3.25323Z" fill="#7E93A8"/>
<path id="Vector_19" d="M2.62921 4.99349C2.61356 5.16558 2.61747 5.33377 2.62921 5.50586C2.62921 5.52542 2.62529 5.54498 2.62921 5.56453C2.65267 5.70143 2.60574 5.75227 2.45711 5.74445C2.19114 5.73272 1.92127 5.74054 1.6553 5.74054C1.6553 5.54106 1.65921 5.34159 1.6553 5.14212C1.65139 5.02869 1.68659 4.91135 1.63184 4.79793C1.63184 4.77837 1.63184 4.75881 1.63184 4.73926C1.87825 4.73926 2.12857 4.73926 2.37497 4.73926C2.62529 4.74317 2.62529 4.74317 2.62921 4.99349Z" fill="#7E93A8"/>
<path id="Vector_20" d="M5.19412 11.5021C4.84993 11.5021 4.50574 11.5061 4.16546 11.5061C4.12244 11.3261 4.11853 11.1501 4.16546 10.9741C4.50965 10.9741 4.84993 10.978 5.19412 10.978C5.11981 11.1501 5.11199 11.3261 5.19412 11.5021Z" fill="#333F47"/>
<path id="Vector_21" d="M9.38223 9.7493C9.38223 9.94877 9.37832 10.1482 9.38223 10.3477C9.38614 10.4377 9.36659 10.4768 9.26098 10.4807C8.88159 10.4885 8.88159 10.4924 8.88159 10.113C8.88159 9.9918 8.88159 9.87055 8.88159 9.7493C9.04978 9.74539 9.21405 9.7493 9.38223 9.7493Z" fill="#333F47"/>
<path id="Vector_22" d="M7.36477 9.74609C7.36477 9.94948 7.36086 10.1568 7.36868 10.3602C7.37259 10.4501 7.3413 10.4775 7.25134 10.4775C6.86804 10.4892 6.86804 10.4931 6.86804 10.1138C6.86804 9.9925 6.86804 9.87125 6.86804 9.75C7.03231 9.75 7.19659 9.74609 7.36477 9.74609Z" fill="#333F47"/>
<path id="Vector_23" d="M8.38528 9.7493C8.38528 9.94877 8.38137 10.1482 8.38528 10.3477C8.3892 10.4377 8.36573 10.4768 8.26403 10.4807C7.88464 10.4885 7.88464 10.4924 7.88464 10.113C7.88464 9.9918 7.88464 9.87055 7.88464 9.7493C8.05674 9.74539 8.22101 9.7493 8.38528 9.7493Z" fill="#333F47"/>
<path id="Vector_24" d="M10.3773 9.75C10.3773 9.95339 10.3734 10.1607 10.3813 10.3641C10.3852 10.454 10.35 10.4775 10.2639 10.4814C9.88452 10.4931 9.88452 10.4931 9.88452 10.1137C9.88452 9.9925 9.88452 9.87125 9.88452 9.75C10.0488 9.75 10.2131 9.75 10.3773 9.75Z" fill="#333F47"/>
<path id="Vector_25" d="M11.3744 9.75C11.3744 9.95339 11.3705 10.1607 11.3783 10.3641C11.3822 10.454 11.347 10.4775 11.261 10.4814C10.8816 10.4931 10.8816 10.4931 10.8816 10.1137C10.8816 9.9925 10.8816 9.87125 10.8816 9.75C11.042 9.75 11.2062 9.75 11.3744 9.75Z" fill="#333F47"/>
<path id="Vector_26" d="M12.3676 9.75C12.3676 9.95339 12.3637 10.1607 12.3715 10.3641C12.3754 10.454 12.3402 10.4775 12.2541 10.4814C11.8748 10.4931 11.8748 10.4931 11.8748 10.1137C11.8748 9.9925 11.8748 9.87125 11.8748 9.75C12.0351 9.75 12.2033 9.75 12.3676 9.75Z" fill="#333F47"/>
<path id="Vector_27" d="M6.86414 12.73C6.86414 12.5266 6.86805 12.3232 6.86414 12.1198C6.86414 12.0338 6.88369 12.0025 6.97756 11.9986C7.36478 11.9868 7.36087 11.9829 7.36087 12.3702C7.36087 12.4914 7.36087 12.6127 7.36087 12.7339C7.19659 12.7417 7.03232 12.7495 6.86414 12.73Z" fill="#333F47"/>
<path id="Vector_28" d="M7.88757 12.7341C7.88757 12.5268 7.89148 12.3156 7.88757 12.1083C7.88757 12.0261 7.91495 12.0027 7.99709 11.9988C8.38821 11.9831 8.38821 11.9792 8.38821 12.3664C8.38821 12.4877 8.38821 12.6089 8.38821 12.7302C8.22003 12.7497 8.05576 12.7419 7.88757 12.7341Z" fill="#333F47"/>
<path id="Vector_29" d="M8.8866 12.7341C8.8866 12.5268 8.89051 12.3156 8.8866 12.1083C8.8866 12.0261 8.91789 12.0027 8.99611 11.9988C9.38333 11.9831 9.38333 11.9792 9.38333 12.3664C9.38333 12.4877 9.38333 12.6089 9.38333 12.7302C9.21514 12.7497 9.05087 12.7458 8.8866 12.7341Z" fill="#333F47"/>
<path id="Vector_30" d="M9.87895 12.7303C9.87895 12.5269 9.88286 12.3235 9.87895 12.1201C9.87504 12.0223 9.91024 11.9989 10.0041 11.9949C10.3757 11.991 10.3757 11.9871 10.3757 12.3509C10.3757 12.476 10.3757 12.6051 10.3757 12.7303C10.2114 12.7459 10.0432 12.7459 9.87895 12.7303Z" fill="#333F47"/>
<path id="Vector_31" d="M10.877 12.7302C10.877 12.5229 10.8653 12.3117 10.8809 12.1044C10.9005 11.8853 11.0765 12.0261 11.1782 12.0027C11.2447 11.987 11.3777 11.9362 11.3738 12.1044C11.3698 12.3117 11.3738 12.5229 11.3738 12.7302C11.2056 12.7458 11.0413 12.7458 10.877 12.7302Z" fill="#333F47"/>
<path id="Vector_32" d="M11.8702 12.7302C11.8702 12.5229 11.8585 12.3117 11.8741 12.1044C11.8937 11.8853 12.0697 12.0261 12.1714 12.0027C12.2378 11.987 12.3708 11.9362 12.3669 12.1044C12.363 12.3117 12.3669 12.5229 12.3669 12.7302C12.2026 12.7458 12.0345 12.7458 11.8702 12.7302Z" fill="#333F47"/>
<path id="Vector_33" d="M1.62628 9.24907C1.29382 9.24515 0.961363 9.24515 0.628906 9.24124C0.628906 9.23342 0.632816 9.2256 0.636727 9.21777C0.965272 9.21777 1.29773 9.21777 1.62628 9.21777C1.62628 9.22951 1.62628 9.23733 1.62628 9.24907Z" fill="#7E93A8"/>
<path id="Vector_34" d="M1.63184 4.80225C1.68268 4.91176 1.65139 5.0291 1.6553 5.14644C1.66313 5.34591 1.6553 5.54539 1.6553 5.74486L1.64357 5.74877L1.63184 5.74486C1.63184 5.42805 1.63184 5.11515 1.63184 4.80225Z" fill="#7E93A8"/>
<path id="Vector_35" d="M9.61289 4.26981C9.60512 4.26204 9.59735 4.25426 9.58569 4.25038C9.60512 4.24649 9.61678 4.25038 9.61289 4.26981Z" fill="#C67A17"/>
<path id="Vector_36" d="M6.63269 7.98985C6.63269 7.17239 6.63269 6.35103 6.63269 5.53358C6.63269 5.34975 6.707 5.24806 6.88692 5.24415C7.43841 5.23633 7.98989 5.24023 8.53747 5.24023C8.62743 5.24023 8.62352 5.2989 8.62352 5.35757C8.62352 5.61963 8.62352 5.88559 8.62352 6.14765C8.62352 6.76171 8.62352 7.37578 8.62352 7.98985C7.9586 7.98985 7.29369 7.98985 6.63269 7.98985Z" fill="#B2BFC8"/>
<path id="Vector_37" d="M12.5742 6.2334C12.5937 6.2334 12.6133 6.2334 12.6329 6.2334C12.6329 6.81618 12.6329 7.40286 12.6329 7.98564C12.3004 7.98564 11.9679 7.98564 11.6394 7.98564C11.6394 7.41069 11.6394 6.83573 11.6394 6.26078C11.8975 6.26078 12.1557 6.26078 12.4138 6.25687C12.4608 6.26078 12.5233 6.28424 12.5742 6.2334Z" fill="#C67A17"/>
<path id="Vector_38" d="M14.0644 11.5016C13.9353 11.619 13.8141 11.7441 13.6146 11.7363C13.3956 11.7285 13.1961 11.5837 13.1414 11.3725C13.0866 11.1692 13.1805 10.9188 13.3487 10.8211C13.5755 10.692 13.7945 10.7115 13.9627 10.8836C14.0018 10.9227 14.0331 10.9619 14.0683 11.0049C14.1426 11.1692 14.127 11.3373 14.0644 11.5016Z" fill="#B2BFC8"/>
<path id="Vector_39" d="M5.19433 11.5019C5.11219 11.3259 5.12001 11.1499 5.19433 10.9778C5.47202 10.618 5.92964 10.6962 6.08218 11.0482C6.18387 11.2829 6.10956 11.5254 5.88662 11.6701C5.70279 11.7874 5.42509 11.7522 5.26864 11.5919C5.24517 11.5606 5.2217 11.5293 5.19433 11.5019Z" fill="#B2BFC8"/>
<path id="Vector_40" d="M12.5745 6.2334C12.5275 6.28425 12.4649 6.26078 12.4102 6.26078C12.152 6.26469 11.8939 6.26078 11.6358 6.26469C11.362 6.26469 11.0921 6.26469 10.8183 6.26078C10.7675 6.26078 10.7088 6.28033 10.6658 6.2334C11.3033 6.2334 11.9369 6.2334 12.5745 6.2334Z" fill="#FBC177"/>
</g>
</svg>
