<svg width="20" height="20" viewBox="0 0 20 20" fill="none" xmlns="http://www.w3.org/2000/svg">
<g clip-path="url(#clip0_19006_100038)">
<path d="M19.9879 9.19979V10.8438C19.9879 11.8478 19.1759 12.6598 18.1719 12.6598H18.0679C18.3439 11.8238 18.4959 10.9278 18.4959 9.99979C18.4959 9.08779 18.3518 8.20779 18.0838 7.38379H18.1759C19.1759 7.38379 19.9879 8.19579 19.9879 9.19979Z" fill="#333F47"/>
<path d="M1.9958 12.6598H1.80377C0.79977 12.6598 -0.012207 11.8478 -0.012207 10.8438V9.19979C-0.012207 8.19579 0.79977 7.38379 1.80377 7.38379H1.97979C1.71179 8.20779 1.56779 9.08779 1.56779 9.99979C1.56779 10.9278 1.7198 11.8238 1.9958 12.6598Z" fill="#333F47"/>
<path d="M10.1079 18.8922C15.0564 18.8922 19.0679 14.8806 19.0679 9.93217C19.0679 4.9837 15.0564 0.972168 10.1079 0.972168C5.15948 0.972168 1.14795 4.9837 1.14795 9.93217C1.14795 14.8806 5.15948 18.8922 10.1079 18.8922Z" fill="#F8981D"/>
<path d="M15.2779 16.4203C18.1115 13.5867 18.1115 8.99247 15.2779 6.15885C12.4443 3.32523 7.85006 3.32523 5.01644 6.15885C2.18283 8.99247 2.18285 13.5867 5.01647 16.4203C7.85009 19.2539 12.4443 19.2539 15.2779 16.4203Z" fill="#333F47"/>
<path d="M9.79586 5.51611C7.94386 5.51611 6.23585 6.44411 5.22785 7.99611C5.17585 8.07611 5.15986 8.17212 5.17586 8.26412C5.19586 8.35612 5.25184 8.43612 5.33184 8.48812C5.39184 8.52412 5.45585 8.54412 5.52785 8.54412C5.64785 8.54412 5.76385 8.48412 5.82785 8.38012C6.70385 7.03212 8.18786 6.22412 9.79586 6.22412C9.99186 6.22412 10.1559 6.06412 10.1559 5.86412C10.1519 5.67612 9.99186 5.51611 9.79586 5.51611Z" fill="#E8ECF5"/>
<path d="M5.18807 8.77215C5.10007 8.73615 5.00007 8.74016 4.91607 8.77616C4.82807 8.81616 4.76004 8.88415 4.72404 8.97215C4.47604 9.60415 4.35205 10.2722 4.35205 10.9562C4.35205 11.1522 4.51205 11.3162 4.71205 11.3162C4.91205 11.3162 5.07205 11.1562 5.07205 10.9562C5.07205 10.3602 5.18007 9.78015 5.39607 9.23215C5.43207 9.14415 5.42805 9.04416 5.39205 8.96016C5.34405 8.87616 5.27607 8.80815 5.18807 8.77215Z" fill="#E8ECF5"/>
<path d="M4.33988 18.9762C3.53588 18.9762 2.87988 18.3802 2.87988 17.6402C2.87988 16.9042 3.53188 16.3042 4.33988 16.3042H15.8239C16.6279 16.3042 17.2839 16.9002 17.2839 17.6402C17.2839 18.3762 16.6319 18.9762 15.8239 18.9762H4.33988Z" fill="#F8981D"/>
</g>
<defs>
<clipPath id="clip0_19006_100038">
<rect width="20" height="20" fill="white"/>
</clipPath>
</defs>
</svg>
