<svg width="21" height="20" viewBox="0 0 21 20" fill="none" xmlns="http://www.w3.org/2000/svg">
<path d="M10.3335 0C4.8335 0 0.333496 4.5 0.333496 10C0.333496 15.5 4.8335 20 10.3335 20C15.8335 20 20.3335 15.5 20.3335 10C20.3335 4.5 15.8335 0 10.3335 0ZM13.8835 13.8L9.8035 11.29C9.5035 11.11 9.3235 10.79 9.3235 10.44V5.75C9.3335 5.34 9.6735 5 10.0835 5C10.4935 5 10.8335 5.34 10.8335 5.75V10.2L14.6735 12.51C15.0335 12.73 15.1535 13.2 14.9335 13.56C14.7135 13.91 14.2435 14.02 13.8835 13.8Z" fill="#D62926"/>
</svg>
