<svg width="17" height="16" viewBox="0 0 17 16" fill="none" xmlns="http://www.w3.org/2000/svg">
<g id="gpp_good">
<path id="Vector" d="M8.43332 1.4587L4.43332 2.9587C3.91332 3.1587 3.56665 3.65203 3.56665 4.21203V7.35203C3.56665 10.7187 5.83998 13.8587 8.89998 14.6254C11.96 13.8587 14.2333 10.7187 14.2333 7.35203V4.21203C14.2333 3.6587 13.8867 3.1587 13.3667 2.96536L9.36665 1.46536C9.06665 1.34536 8.73332 1.34536 8.43332 1.4587ZM7.71998 9.8387L6.30665 8.42536C6.04665 8.16536 6.04665 7.74536 6.30665 7.48536C6.56665 7.22536 6.98665 7.22536 7.24665 7.48536L8.18665 8.42536L10.5466 6.06536C10.8067 5.80536 11.2267 5.80536 11.4866 6.06536C11.7466 6.32536 11.7466 6.74536 11.4866 7.00536L8.65998 9.83203C8.40665 10.0987 7.97998 10.0987 7.71998 9.8387Z" fill="#08A94C"/>
</g>
</svg>
