<svg width="17" height="16" viewBox="0 0 17 16" fill="none" xmlns="http://www.w3.org/2000/svg">
<g id="report">
<path id="Vector" d="M10.3167 2H5.89006C5.71673 2 5.54339 2.07333 5.42339 2.19333L2.29673 5.32C2.17673 5.44 2.10339 5.61333 2.10339 5.78667V10.2067C2.10339 10.3867 2.17673 10.5533 2.29673 10.68L5.41673 13.8C5.54339 13.9267 5.71673 14 5.89006 14H10.3101C10.4901 14 10.6567 13.9267 10.7834 13.8067L13.9034 10.6867C14.0301 10.56 14.0967 10.3933 14.0967 10.2133V5.78667C14.0967 5.60667 14.0234 5.44 13.9034 5.31333L10.7834 2.19333C10.6634 2.07333 10.4901 2 10.3167 2ZM8.10339 11.5333C7.62339 11.5333 7.23673 11.1467 7.23673 10.6667C7.23673 10.1867 7.62339 9.8 8.10339 9.8C8.58339 9.8 8.97006 10.1867 8.97006 10.6667C8.97006 11.1467 8.58339 11.5333 8.10339 11.5333ZM8.10339 8.66667C7.73673 8.66667 7.43673 8.36667 7.43673 8V5.33333C7.43673 4.96667 7.73673 4.66667 8.10339 4.66667C8.47006 4.66667 8.77006 4.96667 8.77006 5.33333V8C8.77006 8.36667 8.47006 8.66667 8.10339 8.66667Z" fill="#047CDD"/>
</g>
</svg>
