<svg width="25" height="24" viewBox="0 0 25 24" fill="none" xmlns="http://www.w3.org/2000/svg">
<g id="user_engineering">
<g id="Vector">
<path d="M12.166 14C9.49602 14 4.16602 15.34 4.16602 18V19C4.16602 19.55 4.61602 20 5.16602 20H19.166C19.716 20 20.166 19.55 20.166 19V18C20.166 15.34 14.836 14 12.166 14Z" fill="#7E93A8"/>
<path d="M7.90602 9H16.436C16.706 9 16.926 8.78 16.926 8.51V8.49C16.926 8.22 16.706 8 16.436 8H16.166C16.166 6.52 15.356 5.25 14.166 4.55V5.5C14.166 5.78 13.946 6 13.666 6C13.386 6 13.166 5.78 13.166 5.5V4.14C12.846 4.06 12.516 4 12.166 4C11.816 4 11.486 4.06 11.166 4.14V5.5C11.166 5.78 10.946 6 10.666 6C10.386 6 10.166 5.78 10.166 5.5V4.55C8.97602 5.25 8.16602 6.52 8.16602 8H7.90602C7.63602 8 7.41602 8.22 7.41602 8.49V8.52C7.41602 8.78 7.63602 9 7.90602 9Z" fill="#7E93A8"/>
<path d="M12.166 13C14.026 13 15.576 11.72 16.026 10H8.30602C8.75602 11.72 10.306 13 12.166 13Z" fill="#7E93A8"/>
</g>
</g>
</svg>
