<svg width="25" height="24" viewBox="0 0 25 24" fill="none" xmlns="http://www.w3.org/2000/svg">
<g id="map">
<path id="Vector" d="M14.8214 4.97999L9.82139 3.22999C9.40139 3.07999 8.94139 3.07999 8.52139 3.21999L4.53139 4.55999C3.72139 4.83999 3.17139 5.59999 3.17139 6.45999V18.31C3.17139 19.72 4.58139 20.68 5.89139 20.17L8.82139 19.03C9.04139 18.94 9.29139 18.94 9.51139 19.02L14.5114 20.77C14.9314 20.92 15.3914 20.92 15.8114 20.78L19.8014 19.44C20.6114 19.17 21.1614 18.4 21.1614 17.54V5.68999C21.1614 4.27999 19.7514 3.31999 18.4414 3.82999L15.5114 4.96999C15.2914 5.04999 15.0514 5.05999 14.8214 4.97999ZM15.1714 18.89L9.17139 16.78V5.10999L15.1714 7.21999V18.89Z" fill="#7E93A8"/>
</g>
</svg>
