<svg width="17" height="16" viewBox="0 0 17 16" fill="none" xmlns="http://www.w3.org/2000/svg">
<g id="foggy">
<path id="Vector" d="M12.4997 12.582C12.3441 12.582 12.208 12.5237 12.0913 12.407C11.9747 12.2904 11.9163 12.1543 11.9163 11.9987C11.9163 11.8431 11.9747 11.707 12.0913 11.5904C12.208 11.4737 12.3441 11.4154 12.4997 11.4154C12.6552 11.4154 12.7913 11.4737 12.908 11.5904C13.0247 11.707 13.083 11.8431 13.083 11.9987C13.083 12.1543 13.0247 12.2904 12.908 12.407C12.7913 12.5237 12.6552 12.582 12.4997 12.582ZM5.16634 14.6654C5.01079 14.6654 4.87467 14.607 4.75801 14.4904C4.64134 14.3737 4.58301 14.2376 4.58301 14.082C4.58301 13.9265 4.64134 13.7904 4.75801 13.6737C4.87467 13.557 5.01079 13.4987 5.16634 13.4987C5.3219 13.4987 5.45801 13.557 5.57467 13.6737C5.69134 13.7904 5.74967 13.9265 5.74967 14.082C5.74967 14.2376 5.69134 14.3737 5.57467 14.4904C5.45801 14.607 5.3219 14.6654 5.16634 14.6654ZM4.49967 12.582C4.34412 12.582 4.20801 12.5237 4.09134 12.407C3.97467 12.2904 3.91634 12.1543 3.91634 11.9987C3.91634 11.8431 3.97467 11.707 4.09134 11.5904C4.20801 11.4737 4.34412 11.4154 4.49967 11.4154H10.4997C10.6552 11.4154 10.7913 11.4737 10.908 11.5904C11.0247 11.707 11.083 11.8431 11.083 11.9987C11.083 12.1543 11.0247 12.2904 10.908 12.407C10.7913 12.5237 10.6552 12.582 10.4997 12.582H4.49967ZM7.16634 14.6654C7.01079 14.6654 6.87467 14.607 6.75801 14.4904C6.64134 14.3737 6.58301 14.2376 6.58301 14.082C6.58301 13.9265 6.64134 13.7904 6.75801 13.6737C6.87467 13.557 7.01079 13.4987 7.16634 13.4987H11.833C11.9886 13.4987 12.1247 13.557 12.2413 13.6737C12.358 13.7904 12.4163 13.9265 12.4163 14.082C12.4163 14.2376 12.358 14.3737 12.2413 14.4904C12.1247 14.607 11.9886 14.6654 11.833 14.6654H7.16634ZM5.33301 10.332C4.36634 10.332 3.54134 9.99037 2.85801 9.30703C2.17467 8.6237 1.83301 7.7987 1.83301 6.83203C1.83301 5.95425 2.1469 5.17092 2.77467 4.48203C3.40245 3.79314 4.18301 3.41536 5.11634 3.3487C5.4719 2.72648 5.94134 2.23481 6.52467 1.8737C7.10801 1.51259 7.76634 1.33203 8.49967 1.33203C9.51079 1.33203 10.358 1.65148 11.0413 2.29036C11.7247 2.92925 12.1441 3.72092 12.2997 4.66536C13.1775 4.70981 13.8747 5.00703 14.3913 5.55703C14.908 6.10703 15.1663 6.75425 15.1663 7.4987C15.1663 8.27648 14.8913 8.94314 14.3413 9.4987C13.7913 10.0543 13.1219 10.332 12.333 10.332H5.33301Z" fill="#7E93A8"/>
</g>
</svg>
