<svg width="20" height="20" viewBox="0 0 20 20" fill="none" xmlns="http://www.w3.org/2000/svg">
<g clip-path="url(#clip0_18403_54088)">
<path d="M11.812 0H2.07598C0.927976 0 0 0.928006 0 2.07601V17.888C0 19.036 0.927976 19.964 2.07598 19.964H11.812C12.96 19.964 13.888 19.036 13.888 17.888V2.07601C13.888 0.928006 12.96 0 11.812 0Z" fill="#E8ECF5"/>
<path d="M11.732 2.61563H2.17598C2.01198 2.61563 1.87598 2.47963 1.87598 2.31563C1.87598 2.15163 2.01198 2.01562 2.17598 2.01562H11.732C11.896 2.01562 12.032 2.15163 12.032 2.31563C12.032 2.47963 11.896 2.61563 11.732 2.61563Z" fill="#333F47"/>
<path d="M11.732 4.92812H2.17598C2.01198 4.92812 1.87598 4.79212 1.87598 4.62812C1.87598 4.46412 2.01198 4.32812 2.17598 4.32812H11.732C11.896 4.32812 12.032 4.46412 12.032 4.62812C12.032 4.79212 11.896 4.92812 11.732 4.92812Z" fill="#333F47"/>
<path d="M11.732 7.05996H2.17598C2.01198 7.05996 1.87598 6.92396 1.87598 6.75996C1.87598 6.59596 2.01198 6.45996 2.17598 6.45996H11.732C11.896 6.45996 12.032 6.59596 12.032 6.75996C12.032 6.92396 11.896 7.05996 11.732 7.05996Z" fill="#333F47"/>
<path d="M8.52 9.27969H2.17598C2.01198 9.27969 1.87598 9.14369 1.87598 8.97969C1.87598 8.81569 2.01198 8.67969 2.17598 8.67969H8.52C8.684 8.67969 8.82 8.81569 8.82 8.97969C8.82 9.14369 8.684 9.27969 8.52 9.27969Z" fill="#333F47"/>
<path d="M6.94398 11.5043H2.17598C2.01198 11.5043 1.87598 11.3683 1.87598 11.2043C1.87598 11.0403 2.01198 10.9043 2.17598 10.9043H6.94398C7.10798 10.9043 7.24398 11.0403 7.24398 11.2043C7.24398 11.3683 7.11198 11.5043 6.94398 11.5043Z" fill="#333F47"/>
<path d="M6.94398 17.06H2.17598C2.01198 17.06 1.87598 16.924 1.87598 16.76C1.87598 16.596 2.01198 16.46 2.17598 16.46H6.94398C7.10798 16.46 7.24398 16.596 7.24398 16.76C7.24398 16.924 7.11198 17.06 6.94398 17.06Z" fill="#333F47"/>
<path d="M20.0852 10.6825C19.949 10.2738 19.6859 10.0061 19.3055 9.87458C18.0747 9.46121 16.8206 9.03374 15.6133 8.62038L15.4818 8.5734C15.1953 8.47476 14.9134 8.47476 14.6175 8.57811C13.6123 8.92101 12.5929 9.26861 11.6065 9.60212L10.8596 9.85577C10.2678 10.0578 10 10.4242 10 11.0489V11.5797C10 12.3407 10 13.1251 10.0047 13.8955C10.0047 14.1538 10.0235 14.4028 10.0517 14.6377C10.2114 15.8449 10.7469 16.9159 11.6957 17.9164C12.5225 18.7854 13.5465 19.4994 14.7443 20.0349L14.8148 20.0678H15.2798L15.3456 20.0396C16.5199 19.5276 17.5439 18.823 18.3848 17.9399C19.3759 16.9018 19.9255 15.7838 20.0664 14.5203C20.0664 14.5156 20.0711 14.5155 20.0711 14.5108L20.0993 14.4451V10.7295L20.0852 10.6825Z" fill="#F8981D"/>
<path d="M18.2345 11.6874C18.2298 11.6827 18.2251 11.6781 18.2204 11.6734C18.0231 11.4761 17.7037 11.4761 17.5064 11.6734L15.0638 14.116L14.021 13.0732C13.927 12.9792 13.8002 12.9276 13.664 12.9276C13.5278 12.9276 13.4009 12.9792 13.307 13.0732C13.2131 13.1671 13.1614 13.2939 13.1614 13.4302C13.1614 13.5664 13.2131 13.6932 13.307 13.7872L14.7068 15.187C14.8007 15.2809 14.9276 15.3326 15.0638 15.3326C15.2 15.3326 15.3269 15.2809 15.4208 15.187L18.2204 12.3874C18.3144 12.2934 18.366 12.1666 18.366 12.0304C18.366 11.8988 18.3191 11.7814 18.2345 11.6874Z" fill="#E8ECF5"/>
<path d="M15.0261 17.0848C14.6315 17.0848 14.237 17.0144 13.8471 16.8641C12.1748 16.2111 11.3481 14.3228 12.001 12.6552C12.3157 11.8473 12.9264 11.2085 13.7249 10.8609C14.5188 10.5132 15.4019 10.4945 16.2145 10.8092C16.4118 10.8843 16.5058 11.1051 16.4306 11.3024C16.3555 11.4997 16.1347 11.5936 15.9374 11.5185C15.3174 11.2742 14.6409 11.2883 14.0303 11.556C13.4196 11.8238 12.9499 12.3123 12.7103 12.9324C12.2124 14.21 12.8465 15.6615 14.1242 16.1595C14.7443 16.399 15.4207 16.3849 16.0314 16.1219C16.642 15.8541 17.1117 15.3656 17.3513 14.7455C17.4265 14.5483 17.6472 14.4543 17.8445 14.5295C18.0418 14.6046 18.1358 14.8254 18.0606 15.0227C17.558 16.2957 16.3273 17.0848 15.0261 17.0848Z" fill="#333F47"/>
</g>
<defs>
<clipPath id="clip0_18403_54088">
<rect width="20" height="20" fill="white"/>
</clipPath>
</defs>
</svg>
