<svg width="24" height="24" viewBox="0 0 24 24" fill="none" xmlns="http://www.w3.org/2000/svg">
<path d="M2 12.9752C2 12.7919 2.0625 12.6169 2.1875 12.4502C2.3125 12.2835 2.49167 12.1585 2.725 12.0752C3.10833 11.9252 3.47917 11.721 3.8375 11.4627C4.19583 11.2044 4.66667 11.0752 5.25 11.0752C6 11.0752 6.58333 11.3002 7 11.7502C7.41667 12.2002 7.95 12.4252 8.6 12.4252C9.25 12.4252 9.79167 12.2002 10.225 11.7502C10.6583 11.3002 11.25 11.0752 12 11.0752C12.75 11.0752 13.3375 11.3002 13.7625 11.7502C14.1875 12.2002 14.725 12.4252 15.375 12.4252C16.025 12.4252 16.5625 12.2002 16.9875 11.7502C17.4125 11.3002 18 11.0752 18.75 11.0752C19.3333 11.0752 19.8042 11.2044 20.1625 11.4627C20.5208 11.721 20.8917 11.9252 21.275 12.0752C21.5083 12.1585 21.6875 12.2835 21.8125 12.4502C21.9375 12.6169 22 12.7919 22 12.9752C22 13.1919 21.925 13.3669 21.775 13.5002C21.625 13.6335 21.4583 13.6752 21.275 13.6252C20.775 13.4919 20.3583 13.2835 20.025 13.0002C19.6917 12.7169 19.2667 12.5752 18.75 12.5752C18.1167 12.5752 17.5833 12.8002 17.15 13.2502C16.7167 13.7002 16.125 13.9252 15.375 13.9252C14.625 13.9252 14.0333 13.7002 13.6 13.2502C13.1667 12.8002 12.6333 12.5752 12 12.5752C11.3667 12.5752 10.8292 12.8002 10.3875 13.2502C9.94583 13.7002 9.35 13.9252 8.6 13.9252C7.85 13.9252 7.2625 13.7002 6.8375 13.2502C6.4125 12.8002 5.88333 12.5752 5.25 12.5752C4.73333 12.5752 4.30833 12.7169 3.975 13.0002C3.64167 13.2835 3.225 13.4919 2.725 13.6252C2.54167 13.6752 2.375 13.6335 2.225 13.5002C2.075 13.3669 2 13.1919 2 12.9752ZM2 16.9752C2 16.7919 2.0625 16.6169 2.1875 16.4502C2.3125 16.2835 2.49167 16.1585 2.725 16.0752C3.10833 15.9252 3.47917 15.721 3.8375 15.4627C4.19583 15.2044 4.66667 15.0752 5.25 15.0752C6 15.0752 6.58333 15.3002 7 15.7502C7.41667 16.2002 7.95 16.4252 8.6 16.4252C9.25 16.4252 9.79167 16.2002 10.225 15.7502C10.6583 15.3002 11.25 15.0752 12 15.0752C12.75 15.0752 13.3375 15.3002 13.7625 15.7502C14.1875 16.2002 14.725 16.4252 15.375 16.4252C16.025 16.4252 16.5625 16.2002 16.9875 15.7502C17.4125 15.3002 18 15.0752 18.75 15.0752C19.3333 15.0752 19.8042 15.2044 20.1625 15.4627C20.5208 15.721 20.8917 15.9252 21.275 16.0752C21.5083 16.1585 21.6875 16.2835 21.8125 16.4502C21.9375 16.6169 22 16.7919 22 16.9752C22 17.1919 21.925 17.3669 21.775 17.5002C21.625 17.6335 21.4583 17.6752 21.275 17.6252C20.775 17.4919 20.3583 17.2835 20.025 17.0002C19.6917 16.7169 19.2667 16.5752 18.75 16.5752C18.1167 16.5752 17.5833 16.8002 17.15 17.2502C16.7167 17.7002 16.125 17.9252 15.375 17.9252C14.625 17.9252 14.0333 17.7002 13.6 17.2502C13.1667 16.8002 12.6333 16.5752 12 16.5752C11.3667 16.5752 10.8292 16.8002 10.3875 17.2502C9.94583 17.7002 9.35 17.9252 8.6 17.9252C7.85 17.9252 7.2625 17.7002 6.8375 17.2502C6.4125 16.8002 5.88333 16.5752 5.25 16.5752C4.73333 16.5752 4.30833 16.7169 3.975 17.0002C3.64167 17.2835 3.225 17.4919 2.725 17.6252C2.54167 17.6752 2.375 17.6335 2.225 17.5002C2.075 17.3669 2 17.1919 2 16.9752ZM2 8.9752C2 8.79186 2.0625 8.61686 2.1875 8.4502C2.3125 8.28353 2.49167 8.15853 2.725 8.0752C3.10833 7.9252 3.47917 7.72103 3.8375 7.4627C4.19583 7.20436 4.66667 7.0752 5.25 7.0752C6 7.0752 6.58333 7.3002 7 7.7502C7.41667 8.2002 7.95 8.4252 8.6 8.4252C9.25 8.4252 9.79167 8.2002 10.225 7.7502C10.6583 7.3002 11.25 7.0752 12 7.0752C12.75 7.0752 13.3375 7.3002 13.7625 7.7502C14.1875 8.2002 14.725 8.4252 15.375 8.4252C16.025 8.4252 16.5625 8.2002 16.9875 7.7502C17.4125 7.3002 18 7.0752 18.75 7.0752C19.3333 7.0752 19.8042 7.20436 20.1625 7.4627C20.5208 7.72103 20.8917 7.9252 21.275 8.0752C21.5083 8.15853 21.6875 8.28353 21.8125 8.4502C21.9375 8.61686 22 8.79186 22 8.9752C22 9.19186 21.925 9.36686 21.775 9.5002C21.625 9.63353 21.4583 9.6752 21.275 9.6252C20.775 9.49186 20.3583 9.28353 20.025 9.0002C19.6917 8.71686 19.2667 8.5752 18.75 8.5752C18.1167 8.5752 17.5833 8.8002 17.15 9.2502C16.7167 9.7002 16.125 9.9252 15.375 9.9252C14.625 9.9252 14.0333 9.7002 13.6 9.2502C13.1667 8.8002 12.6333 8.5752 12 8.5752C11.3667 8.5752 10.8292 8.8002 10.3875 9.2502C9.94583 9.7002 9.35 9.9252 8.6 9.9252C7.85 9.9252 7.2625 9.7002 6.8375 9.2502C6.4125 8.8002 5.88333 8.5752 5.25 8.5752C4.73333 8.5752 4.30833 8.71686 3.975 9.0002C3.64167 9.28353 3.225 9.49186 2.725 9.6252C2.54167 9.6752 2.375 9.63353 2.225 9.5002C2.075 9.36686 2 9.19186 2 8.9752Z" fill="#7E93A8"/>
</svg>
