<svg width="21" height="20" viewBox="0 0 21 20" fill="none" xmlns="http://www.w3.org/2000/svg">
<path d="M0.666504 10C0.666504 4.47715 5.14366 0 10.6665 0C16.1894 0 20.6665 4.47715 20.6665 10C20.6665 15.5228 16.1894 20 10.6665 20C5.14366 20 0.666504 15.5228 0.666504 10Z" fill="#047CDD"/>
<path d="M9.11967 10.7933L10.6663 9.62L12.2063 10.7933L11.6197 8.89333L13.1663 7.66667H11.273L10.6663 5.79333L10.0597 7.66667H8.16634L9.70634 8.89333L9.11967 10.7933ZM15.9997 8.33333C15.9997 5.38667 13.613 3 10.6663 3C7.71967 3 5.33301 5.38667 5.33301 8.33333C5.33301 9.68667 5.83967 10.9133 6.66634 11.8533V17L10.6663 15.6667L14.6663 17V11.8533C15.493 10.9133 15.9997 9.68667 15.9997 8.33333ZM10.6663 4.33333C12.873 4.33333 14.6663 6.12667 14.6663 8.33333C14.6663 10.54 12.873 12.3333 10.6663 12.3333C8.45967 12.3333 6.66634 10.54 6.66634 8.33333C6.66634 6.12667 8.45967 4.33333 10.6663 4.33333ZM10.6663 14.3333L7.99967 15.0133V12.9467C8.78634 13.4 9.69301 13.6667 10.6663 13.6667C11.6397 13.6667 12.5463 13.4 13.333 12.9467V15.0133L10.6663 14.3333Z" fill="white"/>
</svg>
