<svg width="32" height="32" viewBox="0 0 32 32" fill="none" xmlns="http://www.w3.org/2000/svg">
<path d="M12.9731 18.3783C12.8292 18.1279 12.8042 17.8588 12.8167 17.5835C13.3486 17.5835 13.8805 17.5835 14.4125 17.5835C15.4763 17.5835 16.5339 17.5835 17.5978 17.5835C19.2061 17.5835 20.8144 17.5835 22.4227 17.5835C22.9546 17.5835 23.4866 17.5835 24.0122 17.5835C25.3389 17.5835 26.6656 17.5835 27.9923 17.5835C27.9923 17.596 27.9923 17.6148 27.9923 17.6273C27.8609 17.8651 27.8484 18.1592 27.6607 18.372C22.7606 18.3783 17.8669 18.3783 12.9731 18.3783Z" fill="#C67A17"/>
<path d="M27.9938 17.5834C26.6671 17.5834 25.3404 17.5834 24.0137 17.5834C24.0137 16.6509 24.0137 15.7122 24.0137 14.7798C24.4079 14.7798 24.8022 14.7798 25.1964 14.7798C25.4655 14.7923 25.7284 14.8048 25.9975 14.8173C26.617 14.9613 27.1302 15.2617 27.5244 15.7685C27.7685 16.0877 27.8811 16.4632 28 16.8324C27.9938 17.0827 27.9938 17.3331 27.9938 17.5834Z" fill="#F8981D"/>
<path d="M27.9376 22.3581C27.9564 22.3706 27.9752 22.3894 27.994 22.4019C27.994 22.6648 27.994 22.9339 27.994 23.1967L27.9752 23.203H27.9564C27.4057 23.203 26.855 23.203 26.3105 23.203C26.4107 22.9401 26.4357 22.671 26.3168 22.4082C26.3856 22.3331 26.4733 22.3644 26.5546 22.3644C27.0114 22.3581 27.4745 22.3581 27.9376 22.3581Z" fill="#333F47"/>
<path d="M27.9362 22.3588C27.4731 22.3588 27.01 22.3588 26.5469 22.3588C26.4656 22.3588 26.378 22.3275 26.3091 22.4026C26.2528 22.34 26.2027 22.2712 26.1402 22.2086C25.8711 21.9395 25.5144 21.902 25.1577 22.1085C24.8886 22.2649 24.7446 22.6592 24.826 22.9908C24.9136 23.3288 25.2328 23.5603 25.5832 23.5728C25.9024 23.5854 26.0964 23.3851 26.3029 23.1974C26.8536 23.1974 27.4043 23.1974 27.9487 23.1974C27.7172 24.3551 26.766 25.1499 25.5957 25.1686C24.9261 25.1749 24.2565 25.1686 23.5869 25.1624C23.5869 24.8307 23.5806 24.4928 23.5869 24.1611C23.5932 23.892 23.3804 23.9734 23.274 23.9984C23.1113 24.0359 22.8297 23.8106 22.7984 24.1611C22.7671 24.4928 22.7921 24.8307 22.7921 25.1624C22.5293 25.1624 22.2602 25.1624 21.9974 25.1624C21.9974 24.8307 21.9911 24.4928 21.9974 24.1611C22.0036 23.892 21.7909 23.9796 21.6845 23.9984C21.5218 24.0359 21.2401 23.8106 21.2089 24.1611C21.1838 24.4928 21.2026 24.8307 21.2026 25.1624C20.9398 25.1624 20.6707 25.1624 20.4078 25.1624C20.4078 24.9621 20.4078 24.7556 20.4078 24.5553C20.4078 23.9734 20.4078 23.9734 19.8133 23.9859C19.6631 23.9859 19.6068 24.0297 19.6131 24.1861C19.6193 24.5115 19.6131 24.837 19.6131 25.1624C19.3502 25.1624 19.0811 25.1624 18.8183 25.1561C18.8183 24.9621 18.8183 24.7681 18.8183 24.5741C18.8183 23.9546 18.8183 23.9546 18.1988 23.9859C18.0673 23.9921 18.0173 24.0297 18.0235 24.1611C18.0298 24.4928 18.0235 24.8307 18.0235 25.1624C17.7607 25.1624 17.4916 25.1561 17.2288 25.1561C17.2288 24.9621 17.2288 24.7681 17.2288 24.5741C17.2288 23.9546 17.2288 23.9546 16.603 23.9859C16.4715 23.9921 16.4277 24.0359 16.4277 24.1611C16.434 24.4928 16.4277 24.8307 16.4277 25.1624C16.1461 25.1624 15.8708 25.1624 15.5892 25.1624C15.5892 24.9684 15.5892 24.7744 15.5892 24.5804C15.5892 23.9546 15.5892 23.9608 14.9759 23.9859C14.8257 23.9921 14.7881 24.0484 14.7944 24.1799C14.8007 24.5053 14.7944 24.8307 14.7944 25.1561C13.9683 25.1499 13.136 25.25 12.3225 25.1061C11.3775 24.9433 10.5765 24.0797 10.4764 23.1974C11.0271 23.1974 11.5778 23.1911 12.1222 23.1911C12.1598 23.2349 12.2036 23.285 12.2411 23.3288C12.4915 23.5854 12.9358 23.6417 13.2299 23.4539C13.5866 23.2224 13.6993 22.8344 13.5428 22.4589C13.2987 21.8957 12.5666 21.7705 12.1222 22.3463C11.5715 22.3463 11.0271 22.34 10.4764 22.34C10.5702 21.4639 11.4151 20.6003 12.3475 20.4188C12.6729 20.3562 12.9984 20.375 13.3238 20.375C13.8119 20.375 14.3063 20.3813 14.7944 20.3813C14.7944 20.5753 14.7944 20.7693 14.7944 20.9633C14.7944 21.5703 14.7944 21.564 15.4077 21.5452C15.5516 21.539 15.6017 21.4952 15.5954 21.3575C15.5892 21.0321 15.5892 20.7004 15.5892 20.375C15.8708 20.375 16.1524 20.375 16.434 20.375C16.434 20.569 16.434 20.763 16.434 20.957C16.434 21.564 16.434 21.5578 17.041 21.5452C17.2037 21.539 17.235 21.4764 17.235 21.3325C17.2288 21.0133 17.235 20.6942 17.235 20.375C17.5041 20.375 17.767 20.375 18.036 20.3687C18.036 20.5627 18.036 20.7567 18.036 20.9507C18.036 21.5578 18.036 21.5515 18.6431 21.539C18.8058 21.5327 18.8371 21.4702 18.8371 21.3262C18.8308 21.0071 18.8371 20.6879 18.8371 20.3687C19.1062 20.3687 19.369 20.3687 19.6381 20.3687C19.6381 20.5627 19.6381 20.7567 19.6381 20.9507C19.6381 21.5578 19.6381 21.5515 20.2451 21.539C20.3828 21.5327 20.4391 21.4952 20.4329 21.3513C20.4266 21.0258 20.4266 20.6942 20.4266 20.3687C20.6957 20.3687 20.9585 20.3687 21.2276 20.3687C21.2276 20.5627 21.2276 20.7567 21.2276 20.9507C21.2276 21.5578 21.2276 21.5515 21.8347 21.539C21.9723 21.5327 22.0287 21.4952 22.0224 21.3513C22.0161 21.0258 22.0161 20.6942 22.0161 20.3687C22.2852 20.3687 22.5481 20.3687 22.8172 20.3687C22.8172 20.5627 22.8172 20.7567 22.8172 20.9507C22.8172 21.5578 22.8172 21.5515 23.4242 21.539C23.5619 21.5327 23.6182 21.4952 23.6119 21.3513C23.6057 21.0258 23.6057 20.6942 23.6057 20.3687C24.4255 20.375 25.2578 20.2874 26.0713 20.4126C26.9975 20.5878 27.8423 21.4827 27.9362 22.3588Z" fill="#7E93A8"/>
<path d="M22.417 17.5835C20.8087 17.5835 19.2004 17.5835 17.592 17.5835C17.592 16.601 17.592 15.6185 17.592 14.636C17.592 14.2167 17.592 13.7912 17.592 13.3719C17.592 13.278 17.5983 13.1842 17.4544 13.1842C16.572 13.1904 15.6896 13.1779 14.8135 13.1904C14.5256 13.1967 14.4067 13.3531 14.4067 13.6535C14.4067 14.9614 14.4067 16.2756 14.4067 17.5835C13.8748 17.5835 13.3429 17.5835 12.8109 17.5835C12.8109 16.2443 12.7859 14.8989 12.8109 13.5597C12.8297 12.3957 13.6808 11.6134 14.8698 11.5946C15.2453 11.5884 15.6208 11.5884 15.99 11.5884C16.0338 11.651 16.1026 11.6384 16.159 11.6384C16.8411 11.6384 17.5295 11.6384 18.2116 11.6384C18.2742 11.6384 18.3367 11.6447 18.3806 11.5884C18.6309 11.5946 18.8812 11.6009 19.1315 11.6072C19.144 11.6197 19.1565 11.6322 19.1753 11.6384C19.1816 12.6835 19.1816 13.7224 19.1878 14.7674C19.1878 15.2431 19.1878 15.7187 19.1753 16.1943C19.1691 16.3695 19.2442 16.4258 19.4131 16.4196C19.7949 16.4133 20.1766 16.407 20.5583 16.4196C20.7398 16.4258 20.7774 16.3507 20.7774 16.188C20.7711 15.7187 20.7774 15.2556 20.7774 14.7862H20.7899C20.8149 14.7862 20.84 14.78 20.8587 14.78C20.9276 14.8551 21.0214 14.8238 21.1028 14.8238C21.5408 14.83 21.9727 14.8238 22.4107 14.83C22.417 15.7437 22.417 16.6636 22.417 17.5835Z" fill="#F8981D"/>
<path d="M4.01718 13.9782C4.01718 12.2948 4.01093 10.6114 4.01093 8.92177C4.01093 8.8279 4.04221 8.76532 4.11105 8.69648C4.97466 7.83914 5.832 6.97553 6.68935 6.11193C6.77696 6.02432 6.83328 6.00554 6.92716 6.10567C7.15244 6.34348 7.38399 6.57502 7.61554 6.80657C7.61554 7.33224 7.61554 7.86417 7.60928 8.38984C7.24631 8.75281 6.88335 9.11577 6.51413 9.47873C6.43903 9.55383 6.39522 9.62893 6.39522 9.74157C6.40148 10.6239 6.40148 11.5001 6.40148 12.3824C6.40148 12.4137 6.40148 12.445 6.40148 12.4763C6.40148 12.977 6.40148 13.4839 6.40148 13.9845C5.61298 13.9845 4.81821 13.9782 4.01718 13.9782Z" fill="#F9AD4A"/>
<path d="M12.9748 18.3789C17.8686 18.3789 22.7623 18.3789 27.6623 18.3789C27.1867 19.1737 26.4796 19.5804 25.5596 19.5867C24.4082 19.5992 23.2504 19.593 22.099 19.593C19.7209 19.593 17.3429 19.593 14.9648 19.593C14.4079 19.593 13.901 19.4615 13.4754 19.0798C13.2501 18.8795 13.0874 18.648 12.9748 18.3789Z" fill="#F8981D"/>
<path d="M18.3939 11.5821C18.3501 11.6447 18.2876 11.6322 18.225 11.6322C17.5429 11.6322 16.8545 11.6322 16.1724 11.6322C16.1098 11.6322 16.0472 11.6447 16.0034 11.5821C16.0034 10.85 15.9971 10.1178 16.0096 9.38558C16.0096 9.24165 15.9471 9.14777 15.8657 9.04139C15.4902 8.57204 15.0522 8.2654 14.4201 8.39056C14.4139 7.85863 14.4139 7.33295 14.4076 6.80102C14.4076 6.58825 14.4139 6.38174 14.4139 6.16897C14.4139 6.05632 14.4326 6 14.564 6C15.0084 6.00626 15.4527 6.00626 15.897 6C15.9909 6 16.0534 6.03755 16.1223 6.10639C16.8482 6.83857 17.5741 7.5645 18.3063 8.29043C18.3877 8.37178 18.4065 8.45314 18.4065 8.55953C18.3939 9.56706 18.3939 10.5746 18.3939 11.5821Z" fill="#F9AD4A"/>
<path d="M14.4007 6.80713C14.4069 7.33906 14.4069 7.86473 14.4132 8.39666C13.6121 8.40292 12.8111 8.40292 12.0101 8.40918C11.4782 8.40918 10.94 8.41543 10.408 8.41543C9.4756 8.40918 8.54316 8.40292 7.61072 8.40292C7.61072 7.87725 7.61072 7.34531 7.61697 6.81964C9.61328 6.81964 11.6096 6.81339 13.6059 6.81339C13.8687 6.80713 14.1378 6.80713 14.4007 6.80713Z" fill="#333F47"/>
<path d="M4.8198 21.9829C6.13398 23.2908 7.44816 24.5988 8.76234 25.9067C8.66847 25.9943 8.59338 25.9693 8.5308 25.9693C7.61713 25.9693 6.70346 25.9693 5.78979 25.9755C5.65211 25.9755 5.55824 25.938 5.45811 25.8441C5.0138 25.3935 4.56948 24.9492 4.1189 24.4986C4.05632 24.436 4 24.386 4 24.2796C4.00626 23.7664 4.01252 23.2533 4.01252 22.7339C4.30664 22.5023 4.52567 22.2082 4.8198 21.9829Z" fill="#333F47"/>
<path d="M6.40362 15.6187C6.40362 16.9266 6.40362 18.2408 6.40362 19.5487C5.87795 19.5487 5.34602 19.5487 4.82034 19.5487C4.82034 18.2408 4.81409 16.9266 4.81409 15.6187C5.33976 15.6187 5.87169 15.6187 6.40362 15.6187Z" fill="#333F47"/>
<path d="M20.8644 14.7741C20.8394 14.7741 20.8144 14.7804 20.7956 14.7804C20.7956 14.3236 20.8019 13.8605 20.7893 13.4036C20.7831 13.2472 20.8206 13.1846 20.9958 13.1909C21.9283 13.1971 22.867 13.1971 23.7994 13.1909C23.9684 13.1909 24.006 13.2472 24.006 13.4036C23.9997 13.8605 24.006 14.3236 24.0122 14.7804C23.9809 14.7804 23.9496 14.7804 23.9183 14.7804C22.8983 14.7741 21.8845 14.7741 20.8644 14.7741Z" fill="#F8981D"/>
<path d="M4.81821 21.9818C4.52408 22.2008 4.30505 22.5012 4.02344 22.739C4.01718 21.7315 4.01718 20.7302 4.01093 19.7226C4.01093 19.6225 4.04847 19.585 4.1486 19.5912C4.36763 19.5975 4.58666 19.5912 4.80569 19.585C5.33762 19.5912 5.86955 19.5912 6.40148 19.5975C6.43277 20.3672 6.43277 20.3672 5.89458 20.9054C5.53162 21.2684 5.17491 21.6251 4.81821 21.9818Z" fill="#F9AD4A"/>
<path d="M11.6091 10.0047C11.6091 10.3739 11.5966 10.7369 11.6091 11.1061C11.6154 11.2813 11.5528 11.4253 11.4339 11.5442C10.8081 12.17 10.1761 12.802 9.55026 13.4278C9.43135 13.5467 9.28116 13.603 9.10594 13.603C8.74297 13.603 8.37375 13.6093 8.01078 13.6156C7.99201 13.3402 7.99201 13.0711 8.01078 12.7958C8.29865 12.7958 8.58652 12.7958 8.87439 12.8083C9.00581 12.8145 9.09342 12.7707 9.18103 12.6769C9.49393 12.3514 9.81935 12.0385 10.1385 11.7194C10.8457 11.0122 10.8457 11.0122 10.8019 10.0047C11.071 9.99844 11.34 9.99844 11.6091 10.0047Z" fill="#333F47"/>
<path d="M6.40209 15.6187C5.87016 15.6187 5.34449 15.6187 4.81256 15.6187C4.60604 15.6187 4.39327 15.6062 4.18676 15.6187C4.05534 15.625 4.01153 15.5749 4.01779 15.4435C4.02405 14.9553 4.02405 14.4672 4.02405 13.9854C4.81882 13.9854 5.61984 13.9916 6.41461 13.9916C6.40835 14.5298 6.40209 15.0742 6.40209 15.6187Z" fill="#7E93A8"/>
<path d="M25.9913 14.8177C25.7222 14.8052 25.4593 14.7926 25.1902 14.7801C25.1902 14.0292 25.1902 13.2845 25.1902 12.5335C25.1902 11.6386 25.7472 11.1317 26.6358 11.2005C26.7422 11.2068 26.7923 11.2444 26.786 11.3507C26.7798 11.4133 26.786 11.4759 26.786 11.5385C26.786 11.964 26.786 11.964 26.3668 12.0016C26.1728 12.0204 26.0476 12.1142 26.0163 12.3082C26.0038 12.3896 25.9913 12.4772 25.9913 12.5648C25.985 13.3158 25.9913 14.0667 25.9913 14.8177Z" fill="#333F47"/>
<path d="M20.7831 14.7805C20.7831 15.2498 20.7768 15.7129 20.7831 16.1823C20.7831 16.3512 20.7518 16.4201 20.5641 16.4138C20.1823 16.4013 19.8006 16.4076 19.4188 16.4138C19.2499 16.4201 19.181 16.3638 19.181 16.1885C19.1935 15.7129 19.1873 15.2373 19.1935 14.7617C19.7255 14.768 20.2512 14.7742 20.7831 14.7805Z" fill="#C67A17"/>
<path d="M11.6088 10.005C11.3397 10.005 11.0706 10.005 10.8015 10.005C10.7702 10.005 10.7389 9.99871 10.7076 10.005C10.4823 10.0425 10.3947 9.96742 10.4072 9.72336C10.4323 9.29156 10.4135 8.8535 10.4135 8.41544C10.9454 8.41544 11.4836 8.40918 12.0155 8.40918C12.0155 8.84724 11.9968 9.27904 12.0218 9.7171C12.0343 9.95491 11.9592 10.0425 11.7277 10.005C11.6839 9.99246 11.6463 9.99871 11.6088 10.005Z" fill="#7E93A8"/>
<path d="M8.00674 12.7896C7.98171 13.0649 7.98797 13.334 8.00674 13.6094C8.00674 13.6407 8.00048 13.672 8.00674 13.7033C8.04429 13.9223 7.96919 14.0036 7.73139 13.9911C7.30584 13.9723 6.87404 13.9849 6.4485 13.9849C6.4485 13.6657 6.45475 13.3465 6.4485 13.0274C6.44224 12.8459 6.49856 12.6582 6.41095 12.4767C6.41095 12.4454 6.41095 12.4141 6.41095 12.3828C6.8052 12.3828 7.20572 12.3828 7.59997 12.3828C8.00048 12.3891 8.00048 12.3891 8.00674 12.7896Z" fill="#7E93A8"/>
<path d="M12.1106 23.2032C11.5599 23.2032 11.0092 23.2095 10.4648 23.2095C10.3959 22.9216 10.3897 22.64 10.4648 22.3584C11.0155 22.3584 11.5599 22.3647 12.1106 22.3647C11.9917 22.64 11.9792 22.9216 12.1106 23.2032Z" fill="#333F47"/>
<path d="M18.8116 20.3988C18.8116 20.7179 18.8053 21.0371 18.8116 21.3563C18.8178 21.5002 18.7865 21.5628 18.6176 21.569C18.0106 21.5815 18.0106 21.5878 18.0106 20.9808C18.0106 20.7868 18.0106 20.5928 18.0106 20.3988C18.2797 20.3925 18.5425 20.3988 18.8116 20.3988Z" fill="#333F47"/>
<path d="M15.5836 20.3936C15.5836 20.719 15.5774 21.0506 15.5899 21.3761C15.5962 21.52 15.5461 21.5638 15.4022 21.5638C14.7889 21.5826 14.7889 21.5888 14.7889 20.9818C14.7889 20.7878 14.7889 20.5938 14.7889 20.3998C15.0517 20.3998 15.3145 20.3936 15.5836 20.3936Z" fill="#333F47"/>
<path d="M17.2164 20.3988C17.2164 20.7179 17.2102 21.0371 17.2164 21.3563C17.2227 21.5002 17.1851 21.5628 17.0224 21.569C16.4154 21.5815 16.4154 21.5878 16.4154 20.9808C16.4154 20.7868 16.4154 20.5928 16.4154 20.3988C16.6908 20.3925 16.9536 20.3988 17.2164 20.3988Z" fill="#333F47"/>
<path d="M20.4037 20.3999C20.4037 20.7253 20.3975 21.057 20.41 21.3824C20.4163 21.5263 20.3599 21.5639 20.2223 21.5702C19.6152 21.5889 19.6152 21.5889 19.6152 20.9819C19.6152 20.7879 19.6152 20.5939 19.6152 20.3999C19.8781 20.3999 20.1409 20.3999 20.4037 20.3999Z" fill="#333F47"/>
<path d="M21.9991 20.3999C21.9991 20.7253 21.9928 21.057 22.0053 21.3824C22.0116 21.5263 21.9553 21.5639 21.8176 21.5702C21.2106 21.5889 21.2106 21.5889 21.2106 20.9819C21.2106 20.7879 21.2106 20.5939 21.2106 20.3999C21.4671 20.3999 21.73 20.3999 21.9991 20.3999Z" fill="#333F47"/>
<path d="M23.5881 20.3999C23.5881 20.7253 23.5819 21.057 23.5944 21.3824C23.6006 21.5263 23.5443 21.5639 23.4066 21.5702C22.7996 21.5889 22.7996 21.5889 22.7996 20.9819C22.7996 20.7879 22.7996 20.5939 22.7996 20.3999C23.0562 20.3999 23.3253 20.3999 23.5881 20.3999Z" fill="#333F47"/>
<path d="M14.7826 25.168C14.7826 24.8426 14.7889 24.5171 14.7826 24.1917C14.7826 24.0541 14.8139 24.004 14.9641 23.9977C15.5836 23.979 15.5774 23.9727 15.5774 24.5922C15.5774 24.7862 15.5774 24.9802 15.5774 25.1742C15.3145 25.1868 15.0517 25.1993 14.7826 25.168Z" fill="#333F47"/>
<path d="M16.4201 25.1744C16.4201 24.8427 16.4264 24.5048 16.4201 24.1731C16.4201 24.0417 16.4639 24.0042 16.5953 23.9979C17.2211 23.9729 17.2211 23.9666 17.2211 24.5862C17.2211 24.7802 17.2211 24.9742 17.2211 25.1682C16.952 25.1995 16.6892 25.1869 16.4201 25.1744Z" fill="#333F47"/>
<path d="M18.0186 25.1744C18.0186 24.8427 18.0248 24.5048 18.0186 24.1731C18.0186 24.0417 18.0686 24.0042 18.1938 23.9979C18.8133 23.9729 18.8133 23.9666 18.8133 24.5862C18.8133 24.7802 18.8133 24.9742 18.8133 25.1682C18.5442 25.1995 18.2814 25.1932 18.0186 25.1744Z" fill="#333F47"/>
<path d="M19.6063 25.1685C19.6063 24.8431 19.6126 24.5177 19.6063 24.1923C19.6 24.0358 19.6564 23.9983 19.8066 23.992C20.4011 23.9858 20.4011 23.9795 20.4011 24.5615C20.4011 24.7617 20.4011 24.9683 20.4011 25.1685C20.1382 25.1936 19.8691 25.1936 19.6063 25.1685Z" fill="#333F47"/>
<path d="M21.2032 25.1683C21.2032 24.8367 21.1845 24.4987 21.2095 24.1671C21.2408 23.8166 21.5224 24.0419 21.6851 24.0044C21.7915 23.9793 22.0043 23.898 21.998 24.1671C21.9917 24.4987 21.998 24.8367 21.998 25.1683C21.7289 25.1934 21.4661 25.1934 21.2032 25.1683Z" fill="#333F47"/>
<path d="M22.7923 25.1683C22.7923 24.8367 22.7735 24.4987 22.7985 24.1671C22.8298 23.8166 23.1114 24.0419 23.2741 24.0044C23.3805 23.9793 23.5933 23.898 23.587 24.1671C23.5808 24.4987 23.587 24.8367 23.587 25.1683C23.3242 25.1934 23.0551 25.1934 22.7923 25.1683Z" fill="#333F47"/>
<path d="M6.40207 19.5984C5.87014 19.5921 5.3382 19.5921 4.80627 19.5859C4.80627 19.5734 4.81253 19.5609 4.81879 19.5483C5.34446 19.5483 5.87639 19.5483 6.40207 19.5483C6.40207 19.5671 6.40207 19.5796 6.40207 19.5984Z" fill="#7E93A8"/>
<path d="M6.41095 12.4834C6.4923 12.6586 6.44224 12.8464 6.4485 13.0341C6.46101 13.3533 6.4485 13.6724 6.4485 13.9916L6.42972 13.9978L6.41095 13.9916C6.41095 13.4847 6.41095 12.984 6.41095 12.4834Z" fill="#7E93A8"/>
<path d="M19.1806 11.6319C19.1682 11.6195 19.1557 11.607 19.1371 11.6008C19.1682 11.5946 19.1868 11.6008 19.1806 11.6319Z" fill="#C67A17"/>
<path d="M14.4123 17.5836C14.4123 16.2756 14.4123 14.9615 14.4123 13.6535C14.4123 13.3594 14.5312 13.1967 14.8191 13.1904C15.7014 13.1779 16.5838 13.1842 17.4599 13.1842C17.6039 13.1842 17.5976 13.2781 17.5976 13.3719C17.5976 13.7912 17.5976 14.2168 17.5976 14.636C17.5976 15.6185 17.5976 16.6011 17.5976 17.5836C16.5338 17.5836 15.4699 17.5836 14.4123 17.5836Z" fill="#B2BFC8"/>
<path d="M23.9187 14.7734C23.95 14.7734 23.9813 14.7734 24.0126 14.7734C24.0126 15.7059 24.0126 16.6446 24.0126 17.577C23.4806 17.577 22.9487 17.577 22.423 17.577C22.423 16.6571 22.423 15.7372 22.423 14.8172C22.8361 14.8172 23.2491 14.8172 23.6621 14.811C23.7372 14.8172 23.8373 14.8548 23.9187 14.7734Z" fill="#C67A17"/>
<path d="M26.303 23.2024C26.0965 23.3901 25.9025 23.5904 25.5834 23.5779C25.2329 23.5654 24.9138 23.3338 24.8262 22.9959C24.7385 22.6705 24.8887 22.2699 25.1578 22.1135C25.5208 21.907 25.8712 21.9383 26.1403 22.2136C26.2029 22.2762 26.253 22.3388 26.3093 22.4076C26.4282 22.6705 26.4032 22.9395 26.303 23.2024Z" fill="#B2BFC8"/>
<path d="M12.1109 23.2032C11.9795 22.9216 11.992 22.64 12.1109 22.3647C12.5552 21.7889 13.2874 21.9141 13.5315 22.4773C13.6942 22.8528 13.5753 23.2408 13.2186 23.4723C12.9244 23.6601 12.4801 23.6037 12.2298 23.3472C12.1923 23.2971 12.1547 23.247 12.1109 23.2032Z" fill="#B2BFC8"/>
<path d="M23.9191 14.7734C23.844 14.8548 23.7439 14.8172 23.6563 14.8172C23.2433 14.8235 22.8302 14.8172 22.4172 14.8235C21.9792 14.8235 21.5474 14.8235 21.1093 14.8172C21.0279 14.8172 20.9341 14.8485 20.8652 14.7734C21.8853 14.7734 22.8991 14.7734 23.9191 14.7734Z" fill="#FBC177"/>
</svg>
