<svg width="12" height="14" viewBox="0 0 12 14" fill="none" xmlns="http://www.w3.org/2000/svg">
<path d="M5.28008 7.29533L6.00008 6.74866L6.71341 7.28866C6.97341 7.482 7.32675 7.23533 7.23341 6.922L6.95341 6.01533L7.75341 5.382C8.00008 5.19533 7.86008 4.79533 7.54008 4.79533H6.60675L6.32008 3.902C6.22008 3.59533 5.78675 3.59533 5.68675 3.902L5.39341 4.79533H4.45341C4.14008 4.79533 4.00008 5.19533 4.24675 5.38866L5.04008 6.022L4.76008 6.92866C4.66675 7.242 5.02008 7.48866 5.28008 7.29533ZM2.00008 13.202C2.00008 13.6553 2.44675 13.9753 2.88008 13.8353L6.00008 12.7953L9.12008 13.8353C9.55341 13.982 10.0001 13.662 10.0001 13.202V8.982C10.8267 8.042 11.3334 6.81533 11.3334 5.462C11.3334 2.51533 8.94675 0.128662 6.00008 0.128662C3.05341 0.128662 0.666748 2.51533 0.666748 5.462C0.666748 6.81533 1.17341 8.042 2.00008 8.982V13.202ZM6.00008 1.462C8.20675 1.462 10.0001 3.25533 10.0001 5.462C10.0001 7.66866 8.20675 9.462 6.00008 9.462C3.79341 9.462 2.00008 7.66866 2.00008 5.462C2.00008 3.25533 3.79341 1.462 6.00008 1.462Z" fill="#F8981D"/>
</svg>
