<svg width="101" height="100" viewBox="0 0 101 100" fill="none" xmlns="http://www.w3.org/2000/svg">
<path opacity="0.5" fill-rule="evenodd" clip-rule="evenodd" d="M47.3195 99.9785C36.1225 99.5991 18.5408 99.9785 7.64286 87.8532C0.545381 79.9564 0.142863 65.7114 7.68686 55.8822C8.21367 45.7232 15.6921 38.3077 21.7291 30.1455C29.527 19.6027 34.7228 5.78465 47.3195 2.29808C62.6129 -1.93486 81.4018 -0.948824 92.3437 10.6006C103.193 22.0526 101.082 40.3538 98.0855 55.8822C95.6697 68.3997 91.1666 79.5187 81.5714 87.8532C72.8557 95.4238 58.8294 100.368 47.3195 99.9785Z" fill="#F7D4D4"/>
<ellipse cx="50.5002" cy="49.9978" rx="42.8571" ry="42.8552" fill="#D62926"/>
<g clip-path="url(#clip0_20794_19722)">
<path d="M58.3596 47.8835L66.9893 32.9371C68.0482 31.103 67.4198 28.7577 65.5853 27.6976L62.2634 25.7798C60.4291 24.7208 58.0837 25.3493 57.0236 27.1837L48.3939 42.1301L33.4468 33.5008C31.6126 32.4419 29.2672 33.0703 28.207 34.9047L26.2891 38.2265C25.2301 40.0606 25.8586 42.4059 27.6931 43.4661L42.6402 52.0954L34.0105 67.0418C32.9515 68.8759 33.5799 71.2212 35.4145 72.2813L38.7364 74.1991C40.5706 75.2581 42.9172 74.6293 43.9762 72.7952L52.6059 57.8488L67.5529 66.4781C69.3871 67.5371 71.7337 66.9083 72.7927 65.0742L74.7106 61.7524C75.7696 59.9183 75.1412 57.573 73.3066 56.5129L58.3596 47.8835Z" fill="#F5F8FA"/>
</g>
<path opacity="0.5" fill-rule="evenodd" clip-rule="evenodd" d="M88.4106 88.4814C89.8826 87.4837 92.0491 86.1873 93.798 86.5011C95.659 86.8351 96.8648 88.8826 97.0977 90.7573C97.2985 92.3742 95.9054 93.5907 94.8311 94.8188C93.9791 95.7929 93.0282 96.617 91.7574 96.8623C90.2387 97.1554 88.5319 97.2959 87.3914 96.2547C86.1684 95.1384 85.5924 93.2833 86.1131 91.7099C86.5772 90.3077 87.187 89.3107 88.4106 88.4814Z" fill="#F7D4D4"/>
<path opacity="0.5" fill-rule="evenodd" clip-rule="evenodd" d="M0.553501 11.8949C0.772927 8.0529 3.14411 4.9909 6.62666 3.46112C11.9361 1.12886 18.8746 -2.38959 22.2892 2.34706C25.7122 7.0954 20.124 12.5831 16.5316 17.201C13.5777 20.998 9.98688 25.4923 5.45436 23.9871C0.938946 22.4876 0.278796 16.7047 0.553501 11.8949Z" fill="#F7D4D4"/>
<defs>
<clipPath id="clip0_20794_19722">
<rect width="57.1427" height="57.1405" fill="white" transform="matrix(0.965929 -0.258808 0.25883 0.965923 15.5073 29.7871)"/>
</clipPath>
</defs>
</svg>
