<svg width="20" height="20" viewBox="0 0 20 20" fill="none" xmlns="http://www.w3.org/2000/svg">
<path d="M11.9439 15.6241C11.2639 15.6241 10.7119 15.0721 10.7119 14.3921C10.7119 13.7121 11.2639 13.1602 11.9439 13.1602C12.6239 13.1602 13.1759 13.7121 13.1759 14.3921C13.1719 15.0721 12.6199 15.6241 11.9439 15.6241Z" fill="#D2DFE8"/>
<path d="M11.2517 9.30369V10.9757H0.699707L5.71571 7.67969L11.2517 9.30369Z" fill="#333F47"/>
<path d="M15.6039 10.3042C15.6039 10.0242 15.4879 9.86817 15.2199 9.79217C14.8999 9.70417 14.5759 9.61618 14.2519 9.52818C13.0959 9.21218 11.9399 8.89217 10.7839 8.57617V10.5122H0.343906C0.339906 10.5122 0.339908 10.5162 0.335908 10.5162C0.207908 10.6042 0.115906 10.7402 0.00390625 10.8562V11.1002C0.0159063 11.1282 0.0279082 11.1522 0.0359082 11.1802C0.275908 12.2522 0.515907 13.3282 0.759907 14.4002C0.835907 14.7362 0.975906 14.8442 1.32391 14.8442C1.48391 14.8442 1.63991 14.8442 1.79991 14.8442C2.03991 14.8442 2.27991 14.8442 2.51991 14.8442C2.80391 15.7082 3.36791 16.2442 4.27191 16.2922C4.31991 16.2962 4.36391 16.2962 4.40791 16.2962C5.35191 16.2962 5.95591 15.7522 6.26791 14.8482H10.0799C10.0959 14.8922 10.1079 14.9282 10.1199 14.9682C10.3799 15.7722 11.1199 16.3042 11.9599 16.3042C11.9959 16.3042 12.0319 16.3042 12.0679 16.3002C12.9159 16.2562 13.6599 15.6122 13.8239 14.7642C13.8479 14.6362 13.8959 14.5442 13.9879 14.4522C14.4639 13.9882 14.9359 13.5202 15.4119 13.0562C15.5399 12.9322 15.6039 12.7922 15.6039 12.6122C15.6039 11.8482 15.6039 11.0762 15.6039 10.3042ZM4.41191 15.2682C3.92791 15.2682 3.53591 14.8762 3.53591 14.3922H5.28791C5.28791 14.8762 4.89591 15.2682 4.41191 15.2682ZM11.9439 15.2682C11.4599 15.2682 11.0679 14.8762 11.0679 14.3922H12.8199C12.8199 14.8762 12.4239 15.2682 11.9439 15.2682Z" fill="#F8981D"/>
<path d="M10.7837 8.58002V10.516H0.34375C1.90775 9.42002 3.47575 8.33202 5.04375 7.24002C5.15575 7.16002 5.26775 7.12402 5.38775 7.12402C5.44775 7.12402 5.50775 7.13201 5.57575 7.15201C7.31175 7.62801 9.04775 8.10402 10.7837 8.58002Z" fill="#333F47"/>
<path d="M4.39178 16.2962C3.33178 16.2962 2.46777 15.4322 2.46777 14.3722C2.46777 13.3122 3.33178 12.4482 4.39178 12.4482C5.45178 12.4482 6.31578 13.3122 6.31578 14.3722C6.31578 15.4322 5.45178 16.2962 4.39178 16.2962Z" fill="#D2DFE8"/>
<path d="M11.9518 16.2962C10.8918 16.2962 10.0278 15.4322 10.0278 14.3722C10.0278 13.3122 10.8918 12.4482 11.9518 12.4482C13.0118 12.4482 13.8758 13.3122 13.8758 14.3722C13.8758 15.4322 13.0118 16.2962 11.9518 16.2962Z" fill="#D2DFE8"/>
<path d="M17.8438 2.15234H10.8598C9.68384 2.15234 8.73584 3.10435 8.73584 4.27635V15.7564C8.73584 16.9284 9.68784 17.8804 10.8598 17.8804H17.8438C19.0158 17.8804 19.9678 16.9284 19.9678 15.7564V4.27635C19.9678 3.10035 19.0158 2.15234 17.8438 2.15234Z" fill="#E8ECF5"/>
<path d="M18.2241 5.58799H10.4961C10.3001 5.58799 10.1401 5.42797 10.1401 5.23197C10.1401 5.03597 10.3001 4.87598 10.4961 4.87598H18.2241C18.4201 4.87598 18.5801 5.03597 18.5801 5.23197C18.5801 5.42797 18.4201 5.58799 18.2241 5.58799Z" fill="#333F47"/>
<path d="M18.2241 7.97566H10.4961C10.3001 7.97566 10.1401 7.81567 10.1401 7.61967C10.1401 7.42367 10.3001 7.26367 10.4961 7.26367H18.2241C18.4201 7.26367 18.5801 7.42367 18.5801 7.61967C18.5801 7.81567 18.4201 7.97566 18.2241 7.97566Z" fill="#333F47"/>
<path d="M15.6242 10.0557H10.4922C10.2962 10.0557 10.1362 9.89575 10.1362 9.69975C10.1362 9.50375 10.2962 9.34375 10.4922 9.34375H15.6242C15.8202 9.34375 15.9802 9.50375 15.9802 9.69975C15.9802 9.89575 15.8202 10.0557 15.6242 10.0557Z" fill="#333F47"/>
<path d="M13.6642 12.1876H10.4922C10.2962 12.1876 10.1362 12.0276 10.1362 11.8316C10.1362 11.6356 10.2962 11.4756 10.4922 11.4756H13.6642C13.8602 11.4756 14.0202 11.6356 14.0202 11.8316C14.0202 12.0276 13.8602 12.1876 13.6642 12.1876Z" fill="#333F47"/>
<path d="M15.3518 13.796C15.3518 13.928 15.2438 14.036 15.1118 14.036C14.9798 14.036 14.8718 13.928 14.8718 13.796V13.556C14.8718 13.156 15.1958 12.832 15.5958 12.832C15.9958 12.832 16.3198 13.156 16.3198 13.556V13.616C16.3198 13.772 16.3118 13.932 16.2918 14.088L17.2158 13.808C17.3038 13.784 17.3958 13.808 17.4598 13.872C17.5238 13.936 17.5438 14.032 17.5158 14.116L17.3798 14.524H18.0118C18.1438 14.524 18.2518 14.632 18.2518 14.764C18.2518 14.896 18.1438 15.004 18.0118 15.004H17.0438C16.9678 15.004 16.8918 14.968 16.8478 14.904C16.8038 14.84 16.7878 14.76 16.8158 14.688L16.9118 14.404L16.1998 14.6161C16.1118 15.0161 15.9598 15.396 15.7598 15.752L15.6558 15.9361C15.5598 16.1081 15.3758 16.212 15.1798 16.212C14.8758 16.212 14.6318 15.968 14.6318 15.664V15.12C14.6318 14.8 14.8438 14.516 15.1478 14.424L15.7838 14.232C15.8198 14.028 15.8358 13.82 15.8358 13.608V13.548C15.8358 13.416 15.7278 13.308 15.5958 13.308C15.4638 13.308 15.3558 13.416 15.3558 13.548V13.796H15.3518ZM15.2798 14.892C15.1798 14.924 15.1078 15.016 15.1078 15.124V15.668C15.1078 15.704 15.1358 15.732 15.1718 15.732C15.1958 15.732 15.2158 15.72 15.2278 15.7L15.3318 15.5161C15.4638 15.2841 15.5718 15.036 15.6518 14.78L15.2798 14.892Z" fill="#333F47"/>
</svg>
