<svg width="17" height="16" viewBox="0 0 17 16" fill="none" xmlns="http://www.w3.org/2000/svg">
<g id="health_and_safety">
<path id="Vector" d="M7.10091 8.62309H6.43424C5.88091 8.62309 5.43424 8.17642 5.43424 7.62309C5.43424 7.06976 5.88091 6.62309 6.43424 6.62309H7.10091V5.95642C7.10091 5.40309 7.54758 4.95642 8.10091 4.95642C8.65424 4.95642 9.10091 5.40309 9.10091 5.95642V6.62309H9.76758C10.3209 6.62309 10.7676 7.06976 10.7676 7.62309C10.7676 8.17642 10.3209 8.62309 9.76758 8.62309H9.10091V9.28976C9.10091 9.84309 8.65424 10.2898 8.10091 10.2898C7.54758 10.2898 7.10091 9.84309 7.10091 9.28976V8.62309ZM7.63424 1.46309L3.63424 2.96309C3.11424 3.16309 2.76758 3.65642 2.76758 4.21642V7.34976C2.76758 10.7164 5.04091 13.8564 8.10091 14.6231C11.1609 13.8564 13.4342 10.7164 13.4342 7.34976V4.21642C13.4342 3.66309 13.0876 3.16309 12.5676 2.96976L8.56758 1.46976C8.26758 1.34976 7.93424 1.34976 7.63424 1.46309Z" fill="#7E93A8"/>
</g>
</svg>
