<svg width="101" height="100" viewBox="0 0 101 100" fill="none" xmlns="http://www.w3.org/2000/svg">
<path opacity="0.5" fill-rule="evenodd" clip-rule="evenodd" d="M47.3195 99.9785C36.1225 99.5991 18.5408 99.9785 7.64286 87.8532C0.545381 79.9564 0.142863 65.7114 7.68686 55.8822C8.21367 45.7232 15.6921 38.3077 21.7291 30.1455C29.527 19.6027 34.7228 5.78465 47.3195 2.29808C62.6129 -1.93486 81.4018 -0.948824 92.3437 10.6006C103.193 22.0526 101.082 40.3538 98.0855 55.8822C95.6697 68.3997 91.1666 79.5187 81.5714 87.8532C72.8557 95.4238 58.8294 100.368 47.3195 99.9785Z" fill="#CDE5F8"/>
<ellipse cx="50.5" cy="49.9978" rx="42.8571" ry="42.8552" fill="#047CDD"/>
<path d="M47.722 66.9349L49.5188 66.4535L46.0414 53.4764L44.2447 53.9578C43.2523 54.2237 42.2324 53.6349 41.9665 52.6426L40.8166 48.3512C40.5507 47.3589 41.1395 46.339 42.1319 46.0731L52.1936 43.3772C53.186 43.1113 54.2059 43.7002 54.4718 44.6925L59.5805 63.7576L61.3772 63.2762C62.3696 63.0103 63.3895 63.5991 63.6554 64.5914L64.8053 68.8828C65.0712 69.8751 64.4824 70.895 63.49 71.1609L49.8348 74.8196C48.8425 75.0855 47.8226 74.4967 47.5567 73.5044L46.4067 69.213C46.1408 68.2207 46.7297 67.2008 47.722 66.9349ZM44.3377 26.9959C40.7654 27.953 38.6454 31.6247 39.6026 35.1969C40.5598 38.7691 44.2317 40.889 47.804 39.9318C51.3764 38.9746 53.4963 35.3029 52.5391 31.7307C51.5819 28.1585 47.91 26.0387 44.3377 26.9959Z" fill="#F5F8FA"/>
<path opacity="0.5" fill-rule="evenodd" clip-rule="evenodd" d="M88.4107 88.4814C89.8827 87.4837 92.0492 86.1873 93.7981 86.5011C95.6592 86.8351 96.8649 88.8826 97.0978 90.7573C97.2986 92.3742 95.9055 93.5907 94.8312 94.8188C93.9792 95.7929 93.0283 96.617 91.7576 96.8623C90.2389 97.1554 88.5321 97.2959 87.3915 96.2547C86.1686 95.1384 85.5926 93.2833 86.1133 91.7099C86.5773 90.3077 87.1871 89.3107 88.4107 88.4814Z" fill="#CDE5F8"/>
<path opacity="0.5" fill-rule="evenodd" clip-rule="evenodd" d="M0.553501 11.8949C0.772927 8.0529 3.14411 4.9909 6.62666 3.46112C11.9361 1.12886 18.8746 -2.38959 22.2892 2.34706C25.7122 7.0954 20.124 12.5831 16.5316 17.201C13.5777 20.998 9.98688 25.4923 5.45436 23.9871C0.938946 22.4876 0.278796 16.7047 0.553501 11.8949Z" fill="#CDE5F8"/>
</svg>
