<svg width="303" height="188" viewBox="0 0 303 188" fill="none" xmlns="http://www.w3.org/2000/svg">
<path d="M249.001 66.3994H56.2134V113.112H249.001V66.3994Z" fill="#08A94C"/>
<path opacity="0.1" d="M249.001 66.3994H56.2134V113.112H249.001V66.3994Z" fill="#FAFAFA"/>
<path d="M239.803 103.915V75.5977L65.4112 75.5977V103.915L239.803 103.915Z" fill="#08A94C"/>
<path opacity="0.9" d="M239.803 103.915V75.5977L65.4112 75.5977V103.915L239.803 103.915Z" fill="#FAFAFA"/>
<path d="M210.468 75.5969V103.914H211.492V75.5969H210.468Z" fill="#08A94C"/>
<path opacity="0.6" d="M210.468 75.5969V103.914H211.492V75.5969H210.468Z" fill="#FAFAFA"/>
<path d="M69.7588 79.5037V100.009H70.7828V79.5037H69.7588Z" fill="#08A94C"/>
<path opacity="0.6" d="M69.7588 79.5037V100.009H70.7828V79.5037H69.7588Z" fill="#FAFAFA"/>
<path d="M224.669 93.331C223.925 93.3307 223.193 93.1469 222.537 92.7959C221.881 92.445 221.321 91.9376 220.908 91.3189C220.495 90.7001 220.24 89.989 220.168 89.2485C220.095 88.508 220.206 87.761 220.491 87.0736C220.775 86.3862 221.225 85.7796 221.8 85.3076C222.375 84.8355 223.058 84.5126 223.788 84.3673C224.518 84.2221 225.272 84.259 225.984 84.4749C226.696 84.6907 227.344 85.0788 227.87 85.6048C228.504 86.2377 228.935 87.0442 229.11 87.9223C229.284 88.8003 229.195 89.7105 228.852 90.5377C228.509 91.3648 227.929 92.0717 227.185 92.5689C226.44 93.0661 225.565 93.3314 224.669 93.331ZM224.669 85.5128C223.906 85.513 223.166 85.778 222.576 86.2625C221.986 86.7471 221.583 87.4212 221.434 88.1701C221.286 88.9189 221.402 89.6961 221.762 90.3691C222.122 91.0421 222.705 91.5692 223.411 91.8607C224.116 92.1523 224.901 92.19 225.631 91.9677C226.362 91.7453 226.992 91.2765 227.416 90.6412C227.839 90.006 228.029 89.2436 227.953 88.4839C227.877 87.7243 227.54 87.0145 227 86.4755C226.697 86.1632 226.335 85.9145 225.935 85.7439C225.534 85.5733 225.104 85.4843 224.669 85.4821V85.5128Z" fill="#08A94C"/>
<path d="M230.538 95.256C230.456 95.2557 230.376 95.2392 230.301 95.2076C230.227 95.1761 230.159 95.13 230.102 95.072L227.006 91.9754C226.941 91.9204 226.889 91.8528 226.852 91.7767C226.816 91.7007 226.795 91.6178 226.792 91.5333C226.788 91.4489 226.803 91.3647 226.834 91.286C226.864 91.2073 226.911 91.1358 226.971 91.0761C227.031 91.0163 227.102 90.9696 227.181 90.9387C227.259 90.9079 227.344 90.8937 227.428 90.8969C227.513 90.9002 227.595 90.9209 227.671 90.9577C227.748 90.9945 227.815 91.0466 227.87 91.1108L230.967 94.2074C231.081 94.3223 231.145 94.4777 231.145 94.6397C231.145 94.8017 231.081 94.9571 230.967 95.072C230.854 95.1876 230.699 95.2537 230.538 95.256Z" fill="#08A94C"/>
<g opacity="0.6">
<path d="M224.669 93.331C223.925 93.3307 223.193 93.1469 222.537 92.7959C221.881 92.445 221.321 91.9376 220.908 91.3189C220.495 90.7001 220.24 89.989 220.168 89.2485C220.095 88.508 220.206 87.761 220.491 87.0736C220.775 86.3862 221.225 85.7796 221.8 85.3076C222.375 84.8355 223.058 84.5126 223.788 84.3673C224.518 84.2221 225.272 84.259 225.984 84.4749C226.696 84.6907 227.344 85.0788 227.87 85.6048C228.504 86.2377 228.935 87.0442 229.11 87.9223C229.284 88.8003 229.195 89.7105 228.852 90.5377C228.509 91.3648 227.929 92.0717 227.185 92.5689C226.44 93.0661 225.565 93.3314 224.669 93.331ZM224.669 85.5128C223.906 85.513 223.166 85.778 222.576 86.2625C221.986 86.7471 221.583 87.4212 221.434 88.1701C221.286 88.9189 221.402 89.6961 221.762 90.3691C222.122 91.0421 222.705 91.5692 223.411 91.8607C224.116 92.1523 224.901 92.19 225.631 91.9677C226.362 91.7453 226.992 91.2765 227.416 90.6412C227.839 90.006 228.029 89.2436 227.953 88.4839C227.877 87.7243 227.54 87.0145 227 86.4755C226.697 86.1632 226.335 85.9145 225.935 85.7439C225.534 85.5733 225.104 85.4843 224.669 85.4821V85.5128Z" fill="#FAFAFA"/>
<path d="M230.538 95.256C230.457 95.2557 230.376 95.2392 230.302 95.2076C230.227 95.1761 230.159 95.13 230.102 95.072L227.006 91.9754C226.941 91.9204 226.889 91.8528 226.853 91.7767C226.816 91.7007 226.795 91.6178 226.792 91.5333C226.789 91.4489 226.803 91.3647 226.834 91.286C226.864 91.2073 226.911 91.1358 226.971 91.0761C227.031 91.0163 227.102 90.9696 227.181 90.9387C227.26 90.9079 227.344 90.8937 227.428 90.8969C227.513 90.9002 227.595 90.9209 227.672 90.9577C227.748 90.9945 227.815 91.0466 227.87 91.1108L230.967 94.2074C231.081 94.3223 231.145 94.4777 231.145 94.6397C231.145 94.8017 231.081 94.9571 230.967 95.072C230.854 95.1876 230.699 95.2537 230.538 95.256Z" fill="#FAFAFA"/>
</g>
<path opacity="0.7" d="M200.681 85.7335C200.3 93.8811 196.903 101.596 191.151 107.379C185.399 113.162 177.702 116.6 169.557 117.025C161.411 117.45 153.399 114.832 147.076 109.679C140.753 104.526 136.572 97.206 135.345 89.1423C134.118 81.0786 135.932 72.8466 140.436 66.046C144.939 59.2455 151.81 54.362 159.714 52.3446C167.617 50.3273 175.988 51.3201 183.2 55.1301C190.412 58.9402 195.95 65.2953 198.738 72.9607C200.225 77.0475 200.886 81.3892 200.681 85.7335Z" fill="white"/>
<path d="M200.669 65.2161C196.911 58.7005 191.306 53.4459 184.561 50.1172C177.816 46.7885 170.235 45.5353 162.778 46.516C155.321 47.4968 148.322 50.6675 142.667 55.6269C137.013 60.5864 132.956 67.1118 131.011 74.3773C129.066 81.6429 129.32 89.3222 131.74 96.4436C134.16 103.565 138.639 109.808 144.608 114.384C150.578 118.959 157.771 121.661 165.277 122.148C172.782 122.634 180.264 120.883 186.774 117.117C195.494 112.072 201.855 103.772 204.46 94.0413C207.065 84.3101 205.702 73.9427 200.669 65.2161ZM141.803 99.2114C138.838 94.0767 137.462 88.1782 137.85 82.2618C138.237 76.3453 140.37 70.6766 143.98 65.9725C147.589 61.2683 152.512 57.7401 158.126 55.8338C163.74 53.9275 169.794 53.7288 175.521 55.2629C181.248 56.7969 186.392 59.9949 190.302 64.4522C194.212 68.9096 196.712 74.4262 197.487 80.3046C198.261 86.1829 197.275 92.1589 194.654 97.4769C192.032 102.795 187.892 107.216 182.758 110.181C179.349 112.15 175.585 113.428 171.682 113.943C167.78 114.457 163.813 114.197 160.011 113.179C156.208 112.16 152.644 110.402 149.521 108.006C146.397 105.609 143.777 102.621 141.809 99.2114H141.803Z" fill="#08A94C"/>
<path opacity="0.1" d="M200.669 65.2161C196.911 58.7005 191.306 53.4459 184.561 50.1172C177.816 46.7885 170.235 45.5353 162.778 46.516C155.321 47.4968 148.322 50.6675 142.667 55.6269C137.013 60.5864 132.956 67.1117 131.011 74.3773C129.066 81.6429 129.32 89.3222 131.74 96.4436C134.16 103.565 138.639 109.808 144.608 114.384C150.578 118.959 157.771 121.661 165.277 122.148C172.782 122.634 180.264 120.883 186.774 117.117C195.494 112.072 201.855 103.772 204.46 94.0413C207.065 84.3101 205.702 73.9427 200.669 65.2161ZM141.803 99.2114C138.838 94.0767 137.462 88.1782 137.85 82.2618C138.237 76.3453 140.37 70.6766 143.98 65.9725C147.589 61.2683 152.512 57.74 158.126 55.8338C163.74 53.9275 169.794 53.7288 175.521 55.2629C181.248 56.7969 186.392 59.9949 190.302 64.4522C194.212 68.9096 196.712 74.4262 197.487 80.3046C198.261 86.1829 197.275 92.1589 194.654 97.4769C192.032 102.795 187.892 107.216 182.758 110.181C179.349 112.15 175.585 113.428 171.682 113.943C167.78 114.457 163.813 114.197 160.011 113.179C156.208 112.16 152.644 110.402 149.521 108.006C146.397 105.609 143.777 102.621 141.809 99.2114H141.803Z" fill="black"/>
<path d="M140.687 104.233C135.695 107.912 130.575 111.408 125.431 114.823C120.286 118.239 115.074 121.568 109.837 124.836C104.6 128.105 99.3147 131.306 94.0106 134.414C91.3616 135.997 88.6881 137.529 86.0391 139.087C84.7232 139.925 83.2886 140.559 81.7836 140.97C80.9806 141.183 80.1594 141.32 79.3308 141.38C78.4109 141.455 77.485 141.408 76.5776 141.239C75.9291 141.111 75.3122 140.856 74.7623 140.489C74.2125 140.122 73.7403 139.65 73.373 139.101C73.0056 138.551 72.7502 137.935 72.6215 137.286C72.4927 136.638 72.493 135.97 72.6225 135.322C72.6645 135.114 72.7219 134.909 72.7942 134.709C73.0902 133.84 73.5028 133.014 74.0206 132.256C74.4825 131.574 75.0081 130.938 75.5904 130.355C76.6993 129.257 77.9663 128.331 79.3492 127.608C82.0289 126.081 84.6901 124.542 87.3882 123.028C92.7597 119.992 98.1803 117.037 103.613 114.118C109.046 111.199 114.546 108.372 120.077 105.613C125.608 102.854 131.182 100.168 136.873 97.6905C137.731 97.3108 138.7 97.2617 139.593 97.5528C140.486 97.8438 141.239 98.4544 141.709 99.2673C142.179 100.08 142.332 101.038 142.139 101.957C141.946 102.876 141.42 103.691 140.662 104.245L140.687 104.233Z" fill="#08A94C"/>
<path opacity="0.1" d="M140.687 104.233C135.695 107.912 130.575 111.408 125.431 114.823C120.286 118.239 115.074 121.568 109.837 124.836C104.6 128.105 99.3147 131.306 94.0106 134.414C91.3616 135.997 88.6881 137.529 86.0391 139.087C84.7232 139.925 83.2886 140.559 81.7836 140.97C80.9806 141.183 80.1594 141.32 79.3308 141.38C78.4109 141.455 77.485 141.408 76.5776 141.239C75.9291 141.111 75.3122 140.856 74.7623 140.489C74.2125 140.122 73.7403 139.65 73.373 139.101C73.0056 138.551 72.7502 137.935 72.6215 137.286C72.4927 136.638 72.493 135.97 72.6225 135.322C72.6645 135.114 72.7219 134.909 72.7942 134.709C73.0902 133.84 73.5028 133.014 74.0206 132.256C74.4825 131.574 75.0081 130.938 75.5904 130.355C76.6993 129.257 77.9663 128.331 79.3492 127.608C82.0289 126.081 84.6901 124.542 87.3882 123.028C92.7597 119.992 98.1803 117.037 103.613 114.118C109.046 111.199 114.546 108.372 120.077 105.613C125.608 102.854 131.182 100.168 136.873 97.6905C137.731 97.3108 138.7 97.2617 139.593 97.5528C140.486 97.8438 141.239 98.4544 141.709 99.2673C142.179 100.08 142.332 101.038 142.139 101.957C141.946 102.876 141.42 103.691 140.662 104.245L140.687 104.233Z" fill="black"/>
<path d="M184.282 96.9326L180.53 100.961L151.639 74.9674L155.391 70.9395L184.282 96.9326Z" fill="#F8981D"/>
<path d="M178.96 70.0479L183.105 73.7785L156.965 101.853L152.816 98.1219L178.96 70.0479Z" fill="#F8981D"/>
<path d="M124.797 42.6681C124.797 39.3299 127.507 36.626 130.847 36.626C134.187 36.626 136.897 39.3325 136.897 42.6681C136.897 46.0037 134.187 48.7103 130.847 48.7103C127.507 48.7103 124.797 46.0037 124.797 42.6681Z" fill="#08A94C"/>
<path d="M218.02 33.4514C213.902 34.0778 210.848 37.3658 210.308 41.3172C210.266 41.6133 210.245 41.9119 210.232 42.2133C210.208 42.7974 210.237 43.3947 210.327 43.9947C210.504 45.155 210.896 46.2281 211.444 47.1902C211.581 47.4334 211.732 47.6739 211.891 47.9012C213.839 50.695 217.242 52.3046 220.815 51.7602C225.073 51.1126 228.188 47.6158 228.569 43.4872C228.59 43.2679 228.604 43.0458 228.609 42.8212C228.619 42.2952 228.596 41.7613 228.514 41.2221C228.347 40.1278 227.984 39.1155 227.487 38.1984C227.331 37.9103 227.164 37.6354 226.981 37.3684C225.041 34.5403 221.617 32.9016 218.02 33.4514Z" fill="#08A94C"/>
<path d="M212.748 37.5505C212.764 37.5346 212.01 38.4914 211.817 39.7681C211.576 41.3486 211.624 42.9398 212.029 44.486C212.553 46.4895 213.72 48.1679 215.411 49.389C216.141 49.915 217.618 50.6418 217.949 50.7317C217.965 50.737 214.942 49.1643 213.667 46.9309C212.516 44.9142 211.944 42.8816 211.981 40.5478C212.005 39.0201 212.717 37.5796 212.746 37.5479L212.748 37.5505Z" fill="#6BCB94"/>
<path d="M226.979 37.3681C227.161 37.6324 227.328 37.9099 227.484 38.198C230.101 38.1742 231.872 38.5997 232.115 39.4984C232.362 40.4129 230.98 41.6235 228.606 42.8208C226.404 43.9362 223.348 45.041 219.865 45.8947C216.731 46.6639 213.818 47.0815 211.444 47.1872C208.334 47.3273 206.172 46.9176 205.904 45.9185C205.632 44.9062 207.368 43.5344 210.232 42.2102C210.242 41.9089 210.266 41.6102 210.308 41.3142C206.19 43.0666 203.607 45.0066 203.975 46.4048C204.338 47.7872 207.49 48.2814 211.894 47.9008C214.259 47.6947 216.97 47.248 219.833 46.5291C223.21 45.6806 226.206 44.6075 228.572 43.4868C231.954 41.8878 234.002 40.2015 233.674 38.9513C233.346 37.6984 230.734 37.1751 226.981 37.3681H226.979Z" fill="#05652E"/>
<path d="M213.521 42.6123C213.391 41.7691 214.016 40.9762 214.916 40.8388C215.816 40.7013 216.647 41.2722 216.776 42.1154C216.906 42.9585 216.281 43.7515 215.382 43.8889C214.482 44.0264 213.651 43.4528 213.521 42.6123Z" fill="#6ECC96"/>
<path d="M234.421 96.1749C234.421 96.1564 234.45 96.1406 234.487 96.1406C234.524 96.1406 234.553 96.1564 234.553 96.1749C234.553 96.1934 234.524 96.2092 234.487 96.2092C234.45 96.2092 234.421 96.1934 234.421 96.1749Z" fill="#6ECC96"/>
<path d="M206.079 136.427L205.172 135.766L204.113 136.139L204.462 135.071L203.78 134.178H204.902L205.54 133.258L205.884 134.326L206.961 134.648L206.05 135.306L206.077 136.427H206.079Z" fill="#08A94C"/>
<path d="M206.008 135.225L216.289 145.068L206.315 156.724" stroke="#08A94C" stroke-width="0.65" stroke-linejoin="round"/>
<path d="M216.949 146.079L216.29 145.598L215.519 145.871L215.773 145.096L215.279 144.449H216.094L216.559 143.777L216.811 144.554L217.592 144.79L216.93 145.268L216.951 146.082L216.949 146.079Z" fill="#08A94C"/>
<path d="M206.582 158.021L205.947 157.559L205.206 157.818L205.45 157.072L204.973 156.449H205.759L206.206 155.804L206.447 156.552L207.202 156.776L206.566 157.236L206.585 158.021H206.582Z" fill="#08A94C"/>
<path d="M192.741 134.674L192.27 134.545L191.897 134.859L191.873 134.373L191.458 134.117L191.915 133.945L192.032 133.472L192.336 133.852L192.823 133.818L192.553 134.225L192.738 134.677L192.741 134.674Z" fill="#08A94C"/>
<path d="M191.947 134.19L205.537 135.063" stroke="#08A94C" stroke-width="0.65" stroke-linejoin="round"/>
<path d="M103.913 51.2438L103.254 50.7628L102.484 51.035L102.738 50.2606L102.243 49.613H103.058L103.521 48.9443L103.773 49.7214L104.553 49.954L103.892 50.4324L103.91 51.2465L103.913 51.2438Z" fill="#08A94C"/>
<path d="M109.592 54.5662L109.494 53.9477L108.928 53.6754L109.486 53.3926L109.568 52.7715L110.013 53.2155L110.629 53.1019L110.344 53.6622L110.643 54.212L110.023 54.1142L109.589 54.5688L109.592 54.5662Z" fill="#08A94C"/>
<path d="M101.915 62.2809L101.113 61.932L100.369 62.3946L100.454 61.525L99.7842 60.962L100.639 60.7743L100.967 59.9629L101.412 60.7162L102.285 60.7796L101.703 61.4351L101.912 62.2835L101.915 62.2809Z" fill="#08A94C"/>
<path d="M75.1611 58.2903L74.0364 57.7167L72.9275 58.3167L73.126 57.0718L72.2103 56.2022L73.4568 56.0067L74.0019 54.8701L74.5736 55.9934L75.8254 56.16L74.9335 57.0507L75.1611 58.2903Z" fill="#08A94C"/>
<path d="M67.2242 63.5684L73.6922 56.6487L101.369 61.364L103.36 50.1572L109.595 53.4902" stroke="#08A94C" stroke-width="0.65" stroke-linejoin="round"/>
<path d="M185.55 144.149C185.416 144.67 185.429 146.28 183.941 146.325C185.455 146.946 185.58 147.858 185.791 148.415C186.154 147.163 186.294 146.682 187.594 146.222C186.956 146.037 185.765 145.939 185.548 144.149H185.55Z" fill="#333F47"/>
<path d="M195.38 162.231C195.245 162.752 195.258 164.362 193.771 164.409C195.287 165.03 195.409 165.94 195.62 166.5C195.983 165.247 196.123 164.766 197.423 164.306C196.785 164.121 195.594 164.023 195.377 162.231H195.38Z" fill="#08A94C"/>
<path d="M102.355 34.4238C102.143 34.9207 101.918 36.5145 100.442 36.3401C101.85 37.1779 101.834 38.0977 101.963 38.6819C102.509 37.4951 102.718 37.0405 104.073 36.7788C103.469 36.5013 102.307 36.2291 102.355 34.4265V34.4238Z" fill="#08A94C"/>
<path d="M93.0366 20.5C92.7772 20.9731 92.3988 22.5378 90.9459 22.2207C92.2665 23.1907 92.1606 24.1052 92.2321 24.6973C92.8884 23.5686 93.1425 23.1378 94.516 23.0083C93.9417 22.6753 92.8116 22.2894 93.0366 20.5V20.5Z" fill="#08A94C"/>
<path d="M88.278 39.0439C88.0928 39.5488 87.9525 41.1531 86.4705 41.058C87.9207 41.8192 87.9551 42.739 88.1113 43.3152C88.593 42.102 88.7782 41.6368 90.1173 41.3038C89.5007 41.058 88.3257 40.8465 88.2807 39.0439H88.278Z" fill="#333F47"/>
<path d="M73.0364 139.461L67.0025 118.561L76.7479 119.88L83.3681 143.882L73.0381 139.46L73.0364 139.461Z" fill="#333F47" stroke="#B2BFC8" stroke-width="1.11" stroke-linejoin="round"/>
<path d="M67.16 118.492L83.1727 111.569L92.0353 113.611L77.2044 119.718L67.16 118.492Z" fill="#333F47" stroke="#B2BFC8" stroke-width="1.11" stroke-linejoin="round"/>
<path d="M85.3148 141.626C85.3148 141.626 85.6649 153.079 87.1665 154.687C89.9171 157.63 95.2811 156.978 96.7595 154.252C98.8436 150.404 97.5322 142.387 97.5322 142.387C97.5322 142.387 100.567 153.595 105.144 152.743C111.528 151.552 112.071 148.346 109.62 142.302C107.166 136.256 104.207 129.895 104.207 129.895L85.2998 136.086L85.3148 141.626Z" fill="#E8ECF5" stroke="#B2BFC8" stroke-linejoin="round"/>
<path d="M84.9393 138.067C84.9393 138.067 91.6122 139.026 97.3215 136.966C103.032 134.908 105.656 135.099 105.129 129.636C104.912 127.405 100.214 112.517 98.2182 111.753C96.2225 110.992 94.6953 112.062 92.4205 112.442C90.146 112.818 80.4548 112.65 78.7691 117.625C77.0835 122.6 80.9296 135.206 84.9377 138.068L84.9393 138.067Z" fill="#E8ECF5" stroke="#B2BFC8" stroke-linejoin="round"/>
<path opacity="0.4" d="M86.7889 124.138L97.7151 120.85L99.9739 128.609L89.049 131.898L86.7902 124.14L86.7889 124.138Z" fill="#B2BFC8"/>
<path d="M95.2722 120.641C95.1197 120.454 95.1477 120.179 95.335 120.026C95.5222 119.874 95.797 119.901 95.9496 120.088C96.1022 120.275 96.0741 120.55 95.8868 120.703C95.6996 120.856 95.4248 120.828 95.2722 120.641Z" fill="#F8981D"/>
<path opacity="0.4" d="M86.3156 122.414L94.4116 119.975L94.7682 121.16L86.6706 123.6L86.3156 122.414Z" fill="#B2BFC8"/>
<path opacity="0.4" d="M96.4711 120.155L96.4875 120.142L96.5075 120.166L96.4911 120.18L96.4711 120.155Z" fill="#B2BFC8"/>
<path d="M96.5639 120.269C96.4113 120.082 96.4394 119.807 96.6267 119.654C96.8139 119.502 97.0887 119.529 97.2413 119.716C97.3938 119.903 97.3658 120.178 97.1785 120.331C96.9913 120.484 96.7165 120.456 96.5639 120.269Z" fill="#F8981D"/>
<path d="M81.9363 145.202C81.9363 145.202 84.2094 148.494 85.7721 148.452C87.3348 148.409 90.1087 147.059 90.6866 145.843C91.263 144.628 89.8344 145.067 89.3582 145.375C88.8823 145.679 87.758 146.209 87.5635 145.073C87.3703 143.938 87.3248 143.683 87.6463 143.692C87.9678 143.7 88.4631 145.122 88.9477 145.067C89.4311 145.012 90.617 144.873 89.4099 143.041C88.2041 141.211 87.1252 140.769 87.1252 140.769C87.1252 140.769 87.4134 143.21 81.936 145.205L81.9363 145.202Z" fill="black"/>
<path d="M79.9962 115.375C79.9962 115.375 75.4833 116.126 74.5252 121.84C73.5685 127.555 72.9796 131.817 74.4483 135.691C75.917 139.566 78.3992 145.518 82.4249 145.167C86.4477 144.816 88.9579 141.151 87.5012 139.615C86.0429 138.08 82.2625 135.457 82.0418 132.956C81.821 130.454 82.5841 123.478 82.5841 123.478C82.5841 123.478 82.8599 117.37 79.9962 115.375Z" fill="#E8ECF5" stroke="#B2BFC8" stroke-linejoin="round"/>
<path d="M74.0599 134.54C74.4647 135.02 76.3339 134.811 78.681 134.264C80.9531 133.735 81.9318 133.565 82.0288 133.375C82.1745 133.088 81.9241 131.93 82.0031 130.863C82.0072 130.809 80.3124 131.487 77.3812 132.112C74.4682 132.734 73.6958 132.448 73.6361 132.491C73.5328 132.568 73.7214 134.142 74.0599 134.54Z" fill="#B2BFC8"/>
<path d="M79.8638 114.186C79.8638 114.186 79.9168 116.562 82.9893 117.213C83.6131 117.346 84.3693 117.425 85.2858 117.425C90.5956 117.422 95.4737 115.024 94.7295 111.509C94.7295 111.509 92.215 114.763 87.7647 115.66C85.451 116.129 85.1454 115.92 83.5408 115.715C82.2088 115.545 79.8638 114.186 79.8638 114.186Z" fill="#E8ECF5" stroke="#B2BFC8" stroke-linejoin="round"/>
<path d="M74.909 107.89C73.5136 102.127 77.2383 96.2315 83.2301 94.7237C89.2206 93.2142 95.2061 96.6652 96.6014 102.428C97.9968 108.191 94.2721 114.087 88.2803 115.595C85.515 116.29 82.753 115.93 80.4409 114.775C77.7427 113.425 75.6593 110.994 74.9076 107.889L74.909 107.89Z" fill="#E8ECF5" stroke="#B2BFC8" stroke-linejoin="round"/>
<path d="M78.8147 108.485C77.6826 103.813 80.7038 99.0327 85.5602 97.8119C90.417 96.5882 95.2705 99.3863 96.4026 104.058C97.533 108.732 94.5121 113.509 89.6554 114.733C84.8003 115.955 79.9451 113.159 78.8147 108.485Z" fill="#333F47"/>
<path d="M76.7615 109.047C76.4663 107.83 77.253 106.587 78.517 106.268C79.781 105.95 81.0442 106.677 81.3378 107.895C81.633 109.111 80.8463 110.354 79.5823 110.673C78.3183 110.991 77.0538 110.263 76.7615 109.047Z" fill="#B2BFC8"/>
<path d="M92.6157 102.053C90.7744 99.7962 88.1939 98.8137 88.2476 98.7698C88.3013 98.726 91.4033 99.2208 93.2447 101.478C95.0861 103.735 94.7024 106.805 94.6487 106.849C94.5949 106.893 94.4571 104.311 92.6157 102.053Z" fill="#B2BFC8"/>
<path d="M97.2445 111.477C97.2445 111.477 96.6047 114.775 99.6559 116.631C102.706 118.484 104.673 117.619 107.639 116.456C110.605 115.293 113.059 114.461 113.724 111.343C114.388 108.228 114.445 100.319 112.356 98.5297C110.264 96.7398 104.699 97.6146 105.393 101.284C106.089 104.953 105.673 106.265 105.673 106.265C105.673 106.265 98.8893 108.028 97.2432 111.476L97.2445 111.477Z" fill="#E8ECF5" stroke="#B2BFC8" stroke-linejoin="round"/>
<path d="M104.787 95.893C104.787 95.893 105.097 99.5972 105.721 99.7168C106.346 99.838 107.366 100.032 107.447 98.9879C107.527 97.9423 107.49 96.8759 107.49 96.8759C107.49 96.8759 107.492 99.3089 108.159 99.2821C108.828 99.2569 109.501 99.3114 109.177 96.8459C109.177 96.8459 109.249 99.4471 110.04 98.9717C110.832 98.4964 110.721 97.8941 110.605 96.6691C110.605 96.6691 110.531 98.6526 111.085 98.4203C111.638 98.1881 112.114 95.8093 111.342 94.7762C110.568 93.7416 106.128 93.9461 104.789 95.8917L104.787 95.893Z" fill="#333F47"/>
<path d="M104.586 97.9703C104.586 97.9703 105.793 96.1323 106.644 96.0853C107.495 96.0412 107.82 96.8919 107.174 97.6924C106.528 98.4929 105.537 99.4048 104.923 99.2146C104.311 99.0231 104.358 98.2756 104.586 97.9673L104.586 97.9703Z" fill="#333F47" stroke="#333F47" stroke-linejoin="round"/>
<path opacity="0.4" d="M82.5579 122.754C82.5697 122.785 82.5798 122.817 82.5899 122.85" stroke="#08A94C" stroke-linecap="round" stroke-linejoin="round"/>
<path d="M131.068 105.891C131.002 105.85 130.936 105.81 130.87 105.769L131.068 105.891Z" fill="#E8ECF5"/>
<path d="M105.474 106.418C104.794 106.469 105.028 107.218 105.236 107.566C105.583 108.144 105.909 108.767 106.342 109.274C106.495 109.456 106.56 109.714 106.714 109.897C106.902 110.118 107.074 110.294 107.228 110.553" fill="#E8ECF5"/>
<path d="M107.367 109.103C107.343 109.063 107.32 109.025 107.296 108.985L107.367 109.103Z" fill="#B2BFC8"/>
<path d="M105.745 106.289C106.277 106.552 106.835 108.556 108.95 110.021C111.911 112.072 113.638 111.749 113.549 111.976C113.301 112.612 112.916 113.527 112.573 113.492C111.97 113.431 110.269 113.411 107.864 111.646C104.959 109.514 104.275 106.76 104.67 106.584C104.828 106.515 105.589 106.211 105.747 106.288L105.745 106.289Z" fill="#B2BFC8"/>
<path d="M86.5569 127.5C86.5636 127.521 86.5689 127.541 86.5771 127.561L86.5569 127.5Z" fill="#B2BFC8"/>
<path d="M106.808 143.777C105.604 144.34 104.014 144.894 104.502 145.94C104.99 146.988 106.908 146.138 107.941 145.745C108.887 145.386 110.297 144.671 110.475 144.48C110.556 144.393 109.683 142.608 109.646 142.586C109.567 142.539 107.831 143.297 106.805 143.777L106.808 143.777Z" fill="#B2BFC8"/>
<path d="M106.407 141.837C105.235 142.378 103.753 142.962 103.799 143.607C103.847 144.253 105.696 143.425 106.673 143.02C107.566 142.649 109.24 142.072 109.45 141.92C109.545 141.85 109.053 140.875 109.031 140.864C108.982 140.841 107.408 141.375 106.407 141.837Z" fill="#B2BFC8"/>
</svg>
