<svg width="101" height="100" viewBox="0 0 101 100" fill="none" xmlns="http://www.w3.org/2000/svg">
<path opacity="0.5" fill-rule="evenodd" clip-rule="evenodd" d="M47.3195 99.9785C36.1225 99.5991 18.5408 99.9785 7.64286 87.8532C0.545381 79.9564 0.142863 65.7114 7.68686 55.8822C8.21367 45.7232 15.6921 38.3077 21.7291 30.1455C29.527 19.6027 34.7228 5.78465 47.3195 2.29808C62.6129 -1.93486 81.4018 -0.948824 92.3437 10.6006C103.193 22.0526 101.082 40.3538 98.0855 55.8822C95.6697 68.3997 91.1666 79.5187 81.5714 87.8532C72.8557 95.4238 58.8294 100.368 47.3195 99.9785Z" fill="#9CDDB7"/>
<ellipse cx="50.5" cy="49.9978" rx="42.8571" ry="42.8552" fill="#39BA70"/>
<path d="M47.5391 68.4489L28.5847 57.5061C27.4459 56.8486 27.0558 55.3925 27.7132 54.2538L30.0941 50.13C30.7515 48.9912 32.2078 48.601 33.3465 49.2586L46.1151 56.6301L61.905 29.2825C62.5625 28.1438 64.0187 27.7536 65.1575 28.4111L69.2813 30.7919C70.4201 31.4494 70.8103 32.9055 70.1528 34.0442L50.7916 67.5775C50.134 68.7163 48.6779 69.1064 47.5391 68.4489Z" fill="#F5F8FA"/>
<path opacity="0.5" fill-rule="evenodd" clip-rule="evenodd" d="M88.4107 88.4814C89.8827 87.4837 92.0492 86.1873 93.7981 86.5011C95.6592 86.8351 96.8649 88.8826 97.0978 90.7573C97.2986 92.3742 95.9055 93.5907 94.8312 94.8188C93.9792 95.7929 93.0283 96.617 91.7576 96.8623C90.2389 97.1554 88.5321 97.2959 87.3915 96.2547C86.1686 95.1384 85.5926 93.2833 86.1133 91.7099C86.5773 90.3077 87.1871 89.3107 88.4107 88.4814Z" fill="#9CDDB7"/>
<path opacity="0.5" fill-rule="evenodd" clip-rule="evenodd" d="M0.553516 11.8949C0.772942 8.0529 3.14413 4.9909 6.62668 3.46112C11.9361 1.12886 18.8746 -2.38959 22.2892 2.34706C25.7122 7.0954 20.124 12.5831 16.5316 17.201C13.5777 20.998 9.9869 25.4923 5.45438 23.9871C0.938962 22.4876 0.278811 16.7047 0.553516 11.8949Z" fill="#9CDDB7"/>
</svg>
