<svg width="24" height="24" viewBox="0 0 24 24" fill="none" xmlns="http://www.w3.org/2000/svg">
<g clip-path="url(#clip0_8328_430416)">
<path d="M2.19911 24.0195C0.979909 24.0195 -0.0136719 23.0259 -0.0136719 21.8067V2.23233C-0.0136719 1.01313 0.979909 0.0195312 2.19911 0.0195312H14.6647C15.8839 0.0195312 16.8775 1.01313 16.8775 2.23233V21.8067C16.8775 23.0259 15.8839 24.0195 14.6647 24.0195H2.19911Z" fill="#E8ECF5"/>
<path d="M2.32227 20.6739V15.7636C2.32227 15.3844 2.62946 15.0771 3.00866 15.0771H4.42944C4.80864 15.0771 5.11583 15.3844 5.11583 15.7636V20.6739H2.32227Z" fill="#08A94C"/>
<path d="M6.89258 20.6737V7.8241C6.89258 7.4449 7.19982 7.1377 7.57902 7.1377H8.9998C9.379 7.1377 9.68619 7.4449 9.68619 7.8241V20.6785H6.89258V20.6737Z" fill="#08A94C"/>
<path d="M3.91214 9.89293C3.83054 9.89293 3.74894 9.86893 3.67214 9.82093C3.47534 9.68653 3.42252 9.42253 3.55692 9.22573L8.12653 2.42413C8.25613 2.23213 8.51056 2.17933 8.70736 2.29933L13.2769 5.08333C13.4785 5.20813 13.5409 5.47213 13.4209 5.67373C13.2961 5.87533 13.0321 5.93773 12.8305 5.81773L8.61136 3.24973L4.26736 9.71054C4.18576 9.83054 4.05134 9.89293 3.91214 9.89293Z" fill="#06873D"/>
<path d="M8.59595 4.3921C9.33822 4.3921 9.93995 3.79037 9.93995 3.0481C9.93995 2.30583 9.33822 1.7041 8.59595 1.7041C7.85368 1.7041 7.25195 2.30583 7.25195 3.0481C7.25195 3.79037 7.85368 4.3921 8.59595 4.3921Z" fill="#08A94C"/>
<path d="M3.91236 10.7905C4.65463 10.7905 5.25636 10.1888 5.25636 9.44654C5.25636 8.70427 4.65463 8.10254 3.91236 8.10254C3.17009 8.10254 2.56836 8.70427 2.56836 9.44654C2.56836 10.1888 3.17009 10.7905 3.91236 10.7905Z" fill="#08A94C"/>
<path d="M13.0569 6.84913C13.7992 6.84913 14.4009 6.2474 14.4009 5.50513C14.4009 4.76286 13.7992 4.16113 13.0569 4.16113C12.3146 4.16113 11.7129 4.76286 11.7129 5.50513C11.7129 6.2474 12.3146 6.84913 13.0569 6.84913Z" fill="#08A94C"/>
<path d="M24.1023 12.8192C23.9388 12.3288 23.6231 12.0075 23.1665 11.8497C21.6897 11.3537 20.1847 10.8407 18.736 10.3446L18.5782 10.2883C18.2343 10.1699 17.8961 10.1699 17.541 10.2939C16.3347 10.7054 15.1115 11.1225 13.9278 11.5227L13.0315 11.8271C12.3213 12.0695 12 12.5092 12 13.2589V13.8958C12 14.809 12 15.7503 12.0056 16.6748C12.0056 16.9848 12.0282 17.2836 12.062 17.5654C12.2537 19.0141 12.8963 20.2993 14.0349 21.4999C15.027 22.5427 16.2558 23.3995 17.6932 24.0421L17.7777 24.0816H18.3358L18.4147 24.0478C19.8239 23.4334 21.0527 22.5878 22.0617 21.5281C23.2511 20.2824 23.9106 18.9408 24.0797 17.4245C24.0797 17.4189 24.0854 17.4189 24.0854 17.4132L24.1192 17.3343V12.8756L24.1023 12.8192Z" fill="#08A94C"/>
<path d="M21.8807 14.0255C21.8751 14.0199 21.8695 14.0143 21.8638 14.0086C21.6271 13.7719 21.2438 13.7719 21.007 14.0086L18.0759 16.9398L16.8245 15.6884C16.7118 15.5756 16.5596 15.5137 16.3961 15.5137C16.2326 15.5137 16.0805 15.5756 15.9677 15.6884C15.855 15.8011 15.793 15.9533 15.793 16.1168C15.793 16.2802 15.855 16.4324 15.9677 16.5452L17.6475 18.2249C17.7602 18.3377 17.9124 18.3997 18.0759 18.3997C18.2393 18.3997 18.3915 18.3377 18.5043 18.2249L21.8638 14.8654C21.9766 14.7527 22.0386 14.6005 22.0386 14.437C22.0386 14.2792 21.9822 14.1383 21.8807 14.0255Z" fill="#E8ECF5"/>
<path d="M18.031 20.5018C17.5575 20.5018 17.0841 20.4172 16.6162 20.2369C14.6095 19.4533 13.6174 17.1873 14.4009 15.1863C14.7786 14.2167 15.5114 13.4501 16.4696 13.033C17.4223 12.6159 18.482 12.5933 19.4572 12.971C19.6939 13.0612 19.8066 13.3261 19.7165 13.5629C19.6263 13.7996 19.3613 13.9124 19.1246 13.8222C18.3805 13.5291 17.5688 13.546 16.836 13.8673C16.1033 14.1886 15.5396 14.7748 15.2521 15.5188C14.6546 17.0521 15.4156 18.7938 16.9488 19.3913C17.6928 19.6788 18.5045 19.6619 19.2373 19.3463C19.9701 19.025 20.5338 18.4387 20.8213 17.6947C20.9115 17.4579 21.1764 17.3452 21.4131 17.4354C21.6499 17.5255 21.7626 17.7905 21.6724 18.0272C21.0693 19.5548 19.5924 20.5018 18.031 20.5018Z" fill="#333F47"/>
</g>
<defs>
<clipPath id="clip0_8328_430416">
<rect width="24" height="24" fill="white"/>
</clipPath>
</defs>
</svg>
