<svg width="20" height="20" viewBox="0 0 20 20" fill="none" xmlns="http://www.w3.org/2000/svg">
<path d="M0.688081 9.05529C0.440081 9.05529 0.236084 8.8513 0.236084 8.6033V7.4393C0.236084 7.1913 0.436081 6.9873 0.688081 6.9873H0.788081V9.05129L0.688081 9.05529Z" fill="#333F47"/>
<path d="M0.580078 7.2232V8.8192C0.500078 8.7792 0.448076 8.6992 0.448076 8.6032V7.4392C0.444076 7.3472 0.500078 7.2672 0.580078 7.2232ZM0.996079 6.7832H0.688076C0.324076 6.7832 0.0280762 7.0792 0.0280762 7.4432V8.60721C0.0280762 8.97121 0.324076 9.26721 0.688076 9.26721H0.996079V6.7832Z" fill="#333F47"/>
<path d="M0.771973 8.01176C0.771973 5.77976 2.57997 3.96777 4.81597 3.96777C7.04797 3.96777 8.85997 5.77976 8.85997 8.01176C8.85997 10.2438 7.04797 12.0558 4.81597 12.0558C2.58397 12.0558 0.771973 10.2478 0.771973 8.01176Z" fill="#F8981D"/>
<path d="M4.81597 4.17967C5.83997 4.17967 6.80396 4.57967 7.52796 5.30367C8.25196 6.02767 8.65197 6.99166 8.65197 8.01566C8.65197 9.03966 8.25196 10.0037 7.52796 10.7277C6.80396 11.4517 5.83997 11.8517 4.81597 11.8517C3.79197 11.8517 2.82796 11.4517 2.10396 10.7277C1.37996 10.0037 0.979966 9.03966 0.979966 8.01566C0.979966 6.99166 1.37996 6.02767 2.10396 5.30367C2.82796 4.57567 3.79197 4.17967 4.81597 4.17967ZM4.81597 3.76367C2.46797 3.76367 0.563965 5.66766 0.563965 8.01566C0.563965 10.3637 2.46797 12.2677 4.81597 12.2677C7.16397 12.2677 9.06796 10.3637 9.06796 8.01566C9.06796 5.66366 7.16397 3.76367 4.81597 3.76367Z" fill="#F8981D"/>
<path d="M3.89194 11.5514C2.20394 11.0394 1.25194 9.25938 1.75994 7.57138C2.27194 5.88338 4.05194 4.93138 5.73994 5.43938C7.42794 5.95138 8.37994 7.73138 7.87194 9.41938C7.35994 11.1074 5.57594 12.0634 3.89194 11.5514Z" fill="#333F47"/>
<path d="M4.81602 5.5117C5.61202 5.5117 6.36401 5.82371 6.92801 6.38371C7.49201 6.94771 7.80401 7.6957 7.80401 8.4957C7.80401 9.2957 7.49201 10.0437 6.92801 10.6077C6.36401 11.1717 5.61602 11.4797 4.81602 11.4797C4.02002 11.4797 3.26801 11.1677 2.70401 10.6077C2.14001 10.0437 1.83202 9.2957 1.83202 8.4957C1.83202 7.6957 2.14401 6.94771 2.70401 6.38371C3.26801 5.81971 4.01602 5.5117 4.81602 5.5117ZM4.81602 5.0957C2.93602 5.0957 1.41602 6.6197 1.41602 8.4957C1.41602 10.3717 2.94002 11.8957 4.81602 11.8957C6.69202 11.8957 8.21602 10.3717 8.21602 8.4957C8.21602 6.6197 6.69202 5.0957 4.81602 5.0957Z" fill="#C67A17"/>
<path d="M2.82009 7.29205C2.80009 7.29205 2.77609 7.28405 2.75609 7.27205C2.70009 7.23605 2.68809 7.16407 2.72009 7.10807C3.18809 6.38807 3.98009 5.95605 4.84009 5.95605C4.90409 5.95605 4.95609 6.00805 4.95609 6.07205C4.95609 6.13605 4.90409 6.18807 4.84009 6.18807C4.06009 6.18807 3.34409 6.58005 2.91609 7.23205C2.89609 7.27205 2.86009 7.29205 2.82009 7.29205Z" fill="#E8ECF5"/>
<path d="M2.43216 8.60357C2.36816 8.60357 2.31616 8.55157 2.31616 8.48757C2.31616 8.17157 2.37616 7.85957 2.48816 7.56757C2.51216 7.50757 2.58016 7.47957 2.64016 7.49957C2.70016 7.52357 2.72816 7.59156 2.70816 7.65156C2.60416 7.91556 2.55216 8.19957 2.55216 8.48757C2.55216 8.54757 2.50016 8.60357 2.43216 8.60357Z" fill="#E8ECF5"/>
<path d="M2.16395 12.0716C1.93595 12.0716 1.75195 11.8876 1.75195 11.6636V11.2996C1.75195 11.0756 1.93595 10.8916 2.16395 10.8916H7.49995C7.72795 10.8916 7.91195 11.0756 7.91195 11.2996V11.6636C7.91195 11.8916 7.72795 12.0716 7.49995 12.0716H2.16395Z" fill="#F8981D"/>
<path d="M7.50004 11.0918C7.61204 11.0918 7.70004 11.1838 7.70004 11.2918V11.6558C7.70004 11.7678 7.60804 11.8558 7.50004 11.8558H2.16004C2.04804 11.8558 1.96004 11.7638 1.96004 11.6558V11.2918C1.96004 11.1798 2.05204 11.0918 2.16004 11.0918H7.50004ZM7.50004 10.6758H2.16004C1.82004 10.6758 1.54004 10.9518 1.54004 11.2958V11.6598C1.54004 11.9998 1.81604 12.2798 2.16004 12.2798H7.49604C7.83604 12.2798 8.11604 12.0038 8.11604 11.6598V11.2958C8.12004 10.9558 7.84404 10.6758 7.50004 10.6758Z" fill="#F8981D"/>
<path d="M8.73999 9.05521V6.99121H8.83999C9.08799 6.99121 9.29199 7.19522 9.29199 7.44322V8.60723C9.29199 8.85523 9.09199 9.05922 8.83999 9.05922H8.73999V9.05521Z" fill="#333F47"/>
<path d="M19.188 9.05521V6.99121H19.288C19.536 6.99121 19.74 7.19522 19.74 7.44322V8.60723C19.74 8.85523 19.54 9.05922 19.288 9.05922H19.188V9.05521Z" fill="#333F47"/>
<path d="M19.4 7.2232C19.48 7.2632 19.532 7.3432 19.532 7.4392V8.6032C19.532 8.6992 19.476 8.7792 19.4 8.8192V7.2232ZM19.288 6.7832H18.98V9.2632H19.288C19.652 9.2632 19.948 8.9672 19.948 8.6032V7.4392C19.948 7.0792 19.652 6.7832 19.288 6.7832Z" fill="#333F47"/>
<path d="M11.2239 8.01176C11.2239 5.77976 13.0319 3.96777 15.2679 3.96777C17.4999 3.96777 19.3119 5.77976 19.3119 8.01176C19.3119 10.2438 17.4999 12.0558 15.2679 12.0558C13.0319 12.0558 11.2239 10.2478 11.2239 8.01176Z" fill="#F8981D"/>
<path d="M15.264 4.17967C16.288 4.17967 17.252 4.57967 17.976 5.30367C18.7 6.02767 19.1 6.99166 19.1 8.01566C19.1 9.03966 18.7 10.0037 17.976 10.7277C17.252 11.4517 16.288 11.8517 15.264 11.8517C14.24 11.8517 13.276 11.4517 12.552 10.7277C11.828 10.0037 11.428 9.03966 11.428 8.01566C11.428 6.99166 11.828 6.02767 12.552 5.30367C13.276 4.57567 14.24 4.17967 15.264 4.17967ZM15.264 3.76367C12.916 3.76367 11.012 5.66766 11.012 8.01566C11.012 10.3637 12.916 12.2677 15.264 12.2677C17.612 12.2677 19.516 10.3637 19.516 8.01566C19.516 5.66366 17.612 3.76367 15.264 3.76367Z" fill="#F8981D"/>
<path d="M14.3399 11.5514C12.6519 11.0394 11.6999 9.25938 12.2079 7.57138C12.7199 5.88338 14.4999 4.93138 16.1879 5.43938C17.8759 5.95138 18.8279 7.73138 18.3199 9.41938C17.8079 11.1074 16.0279 12.0634 14.3399 11.5514Z" fill="#333F47"/>
<path d="M15.264 5.5117C16.06 5.5117 16.812 5.82371 17.376 6.38371C17.94 6.94771 18.252 7.6957 18.252 8.4957C18.252 9.2957 17.94 10.0437 17.376 10.6077C16.812 11.1717 16.064 11.4797 15.264 11.4797C14.468 11.4797 13.716 11.1677 13.152 10.6077C12.588 10.0437 12.28 9.2957 12.28 8.4957C12.28 7.6957 12.592 6.94771 13.152 6.38371C13.72 5.81971 14.468 5.5117 15.264 5.5117ZM15.264 5.0957C13.384 5.0957 11.864 6.6197 11.864 8.4957C11.864 10.3717 13.388 11.8957 15.264 11.8957C17.144 11.8957 18.664 10.3717 18.664 8.4957C18.664 6.6197 17.144 5.0957 15.264 5.0957Z" fill="#C67A17"/>
<path d="M13.272 7.29205C13.252 7.29205 13.228 7.28405 13.208 7.27205C13.152 7.23605 13.14 7.16407 13.172 7.10807C13.64 6.38807 14.432 5.95605 15.292 5.95605C15.356 5.95605 15.408 6.00805 15.408 6.07205C15.408 6.13605 15.356 6.18807 15.292 6.18807C14.512 6.18807 13.796 6.58005 13.368 7.23205C13.348 7.27205 13.308 7.29205 13.272 7.29205Z" fill="#E8ECF5"/>
<path d="M12.8841 8.60357C12.8201 8.60357 12.7681 8.55157 12.7681 8.48757C12.7681 8.17157 12.8281 7.85957 12.9401 7.56757C12.9641 7.50757 13.0321 7.47957 13.0921 7.49957C13.1521 7.52357 13.1801 7.59156 13.1601 7.65156C13.0561 7.91956 13.0041 8.19957 13.0041 8.48757C13.0001 8.54757 12.9481 8.60357 12.8841 8.60357Z" fill="#F8981D"/>
<path d="M12.6122 12.0716C12.3842 12.0716 12.2002 11.8876 12.2002 11.6636V11.2996C12.2002 11.0756 12.3842 10.8916 12.6122 10.8916H17.9482C18.1762 10.8916 18.3602 11.0756 18.3602 11.2996V11.6636C18.3602 11.8916 18.1762 12.0716 17.9482 12.0716H12.6122Z" fill="#F8981D"/>
<path d="M17.9522 11.0918C18.0642 11.0918 18.1522 11.1838 18.1522 11.2918V11.6558C18.1522 11.7678 18.0602 11.8558 17.9522 11.8558H12.6122C12.5002 11.8558 12.4122 11.7638 12.4122 11.6558V11.2918C12.4122 11.1798 12.5042 11.0918 12.6122 11.0918H17.9522ZM17.9522 10.6758H12.6122C12.2722 10.6758 11.9922 10.9518 11.9922 11.2958V11.6598C11.9922 11.9998 12.2682 12.2798 12.6122 12.2798H17.9482C18.2882 12.2798 18.5682 12.0038 18.5682 11.6598V11.2958C18.5682 10.9558 18.2922 10.6758 17.9522 10.6758Z" fill="#F8981D"/>
<path d="M11.1361 9.05529C10.8881 9.05529 10.6841 8.8513 10.6841 8.6033V7.4393C10.6841 7.1913 10.8841 6.9873 11.1361 6.9873H11.2361V9.05129L11.1361 9.05529Z" fill="#333F47"/>
<path d="M14.7639 12.3198V9.83984H14.8839C15.1839 9.83984 15.4239 10.0838 15.4239 10.3798V11.7758C15.4239 12.0758 15.1799 12.3158 14.8839 12.3158H14.7639V12.3198Z" fill="#333F47"/>
<path d="M15.0119 10.1238C15.1079 10.1718 15.1719 10.2718 15.1719 10.3838V11.7798C15.1719 11.8918 15.1079 11.9918 15.0119 12.0398V10.1238ZM14.8839 9.5918H14.5159V12.5718H14.8839C15.3199 12.5718 15.6759 12.2198 15.6759 11.7798V10.3838C15.6719 9.94381 15.3199 9.5918 14.8839 9.5918Z" fill="#333F47"/>
<path d="M5.09591 12.3197C4.79591 12.3197 4.55591 12.0757 4.55591 11.7797V10.3838C4.55591 10.0878 4.79991 9.84375 5.09591 9.84375H5.21591V12.3238L5.09591 12.3197Z" fill="#333F47"/>
<path d="M4.96395 10.1238V12.0398C4.86796 11.9918 4.80396 11.8918 4.80396 11.7798V10.3838C4.80396 10.2678 4.86796 10.1718 4.96395 10.1238ZM5.46395 9.5918H5.09596C4.65996 9.5918 4.30396 9.94781 4.30396 10.3838V11.7798C4.30396 12.2158 4.65996 12.5718 5.09596 12.5718H5.46395V9.5918Z" fill="#333F47"/>
<path d="M5.19604 11.0678C5.19604 8.38783 7.36804 6.21582 10.048 6.21582C12.728 6.21582 14.9 8.38783 14.9 11.0678C14.9 13.7478 12.728 15.9198 10.048 15.9198C7.36804 15.9198 5.19604 13.7478 5.19604 11.0678Z" fill="#F8981D"/>
<path d="M8.94002 15.3155C6.91202 14.7035 5.76802 12.5635 6.38402 10.5355C6.99602 8.50746 9.13602 7.36346 11.164 7.97546C13.192 8.58746 14.336 10.7275 13.72 12.7555C13.104 14.7835 10.964 15.9275 8.94002 15.3155Z" fill="#333F47"/>
<path d="M10.052 8.06348C11.008 8.06348 11.908 8.43546 12.584 9.11146C13.26 9.78746 13.632 10.6875 13.632 11.6435C13.632 12.5995 13.26 13.4995 12.584 14.1755C11.908 14.8515 11.008 15.2235 10.052 15.2235C9.09602 15.2235 8.19602 14.8515 7.52002 14.1755C6.84402 13.4995 6.47202 12.5995 6.47202 11.6435C6.47202 10.6875 6.84402 9.78746 7.52002 9.11146C8.19202 8.43546 9.09202 8.06348 10.052 8.06348ZM10.052 7.56348C7.79602 7.56348 5.96802 9.39148 5.96802 11.6475C5.96802 13.9035 7.79602 15.7315 10.052 15.7315C12.308 15.7315 14.136 13.9035 14.136 11.6475C14.136 9.39148 12.304 7.56348 10.052 7.56348Z" fill="#C67A17"/>
<path d="M7.65593 10.1997C7.62793 10.1997 7.60393 10.1917 7.57993 10.1757C7.51593 10.1317 7.49593 10.0477 7.53993 9.97971C8.10393 9.11571 9.05593 8.5957 10.0839 8.5957C10.1599 8.5957 10.2239 8.6597 10.2239 8.7357C10.2239 8.8117 10.1599 8.8757 10.0839 8.8757C9.14793 8.8757 8.28393 9.3437 7.77593 10.1317C7.74793 10.1757 7.69993 10.1997 7.65593 10.1997Z" fill="#E8ECF5"/>
<path d="M7.192 11.7759C7.116 11.7759 7.052 11.7119 7.052 11.6359C7.052 11.2559 7.12 10.8839 7.26 10.5319C7.288 10.4599 7.368 10.4239 7.444 10.4519C7.516 10.4799 7.552 10.5599 7.524 10.6359C7.4 10.9559 7.336 11.2919 7.336 11.6399C7.332 11.7119 7.268 11.7759 7.192 11.7759Z" fill="#E8ECF5"/>
<path d="M6.86382 15.9396C6.59182 15.9396 6.37183 15.7196 6.37183 15.4476V15.0076C6.37183 14.7356 6.59182 14.5156 6.86382 14.5156H13.2718C13.5438 14.5156 13.7638 14.7356 13.7638 15.0076V15.4476C13.7638 15.7196 13.5438 15.9396 13.2718 15.9396H6.86382Z" fill="#F8981D"/>
<path d="M13.2759 14.7677C13.4079 14.7677 13.5159 14.8757 13.5159 15.0077V15.4477C13.5159 15.5797 13.4079 15.6877 13.2759 15.6877H6.86387C6.73187 15.6877 6.62387 15.5797 6.62387 15.4477V15.0077C6.62387 14.8757 6.73187 14.7677 6.86387 14.7677H13.2759ZM13.2759 14.2637H6.86387C6.45587 14.2637 6.11987 14.5957 6.11987 15.0077V15.4477C6.11987 15.8557 6.45187 16.1917 6.86387 16.1917H13.2719C13.6799 16.1917 14.0159 15.8597 14.0159 15.4477V15.0077C14.0159 14.5997 13.6839 14.2637 13.2759 14.2637Z" fill="#F8981D"/>
</svg>
