<svg width="25" height="24" viewBox="0 0 25 24" fill="none" xmlns="http://www.w3.org/2000/svg">
<g id="explore">
<path id="Vector" d="M12.8333 10.9C12.2233 10.9 11.7333 11.39 11.7333 12C11.7333 12.61 12.2233 13.1 12.8333 13.1C13.4433 13.1 13.9333 12.61 13.9333 12C13.9333 11.39 13.4433 10.9 12.8333 10.9ZM12.8333 2C7.31325 2 2.83325 6.48 2.83325 12C2.83325 17.52 7.31325 22 12.8333 22C18.3533 22 22.8333 17.52 22.8333 12C22.8333 6.48 18.3533 2 12.8333 2ZM15.0233 14.19L6.83325 18L10.6433 9.81L18.8333 6L15.0233 14.19Z" fill="#7E93A8"/>
</g>
</svg>
