<svg width="21" height="20" viewBox="0 0 21 20" fill="none" xmlns="http://www.w3.org/2000/svg">
<path d="M0 10C0 4.47715 4.47715 0 10 0H11C16.5228 0 21 4.47715 21 10C21 15.5228 16.5228 20 11 20H10C4.47715 20 0 15.5228 0 10Z" fill="#047CDD"/>
<path d="M13.1602 6.7463C13.1602 6.89463 13.1135 7.03964 13.0259 7.16298C12.9384 7.28631 12.8139 7.38244 12.6683 7.43921C12.5227 7.49597 12.3625 7.51083 12.2079 7.48189C12.0533 7.45295 11.9113 7.38152 11.7999 7.27663C11.6884 7.17174 11.6125 7.0381 11.5818 6.89262C11.551 6.74713 11.5668 6.59633 11.6271 6.45929C11.6875 6.32224 11.7896 6.20511 11.9206 6.1227C12.0517 6.04028 12.2057 5.9963 12.3634 5.9963C12.5747 5.9963 12.7774 6.07532 12.9268 6.21597C13.0763 6.35662 13.1602 6.54739 13.1602 6.7463ZM15.8078 11.8088C14.4293 13.4569 12.2319 14.355 9.27281 14.4819L7.81187 17.6957C7.77097 17.7862 7.70259 17.8634 7.6153 17.9175C7.528 17.9717 7.42567 18.0004 7.32113 18H7.28726C7.17779 17.9936 7.07312 17.9554 6.98764 17.8907C6.90215 17.826 6.84003 17.738 6.8098 17.6388L5.82633 14.3982L2.38515 13.4707C2.27942 13.4427 2.18548 13.3846 2.11628 13.3043C2.04708 13.2241 2.00601 13.1256 1.99873 13.0224C1.99145 12.9193 2.01831 12.8166 2.07562 12.7284C2.13293 12.6402 2.21787 12.5709 2.31875 12.53L5.73402 11.155C5.86683 8.36942 6.82375 6.3013 8.57554 5.00442C11.445 2.87942 15.5422 3.57755 16.3345 3.7388C16.534 3.77939 16.717 3.87324 16.8614 4.00914C17.0057 4.14503 17.1055 4.3172 17.1486 4.50505C17.3239 5.25005 18.0663 9.11005 15.8078 11.8125V11.8088ZM16.1133 4.71567C15.4021 4.57067 11.7305 3.9413 9.23562 5.78942C8.92109 6.02307 8.63531 6.2891 8.38363 6.58255C8.35814 6.90926 8.40876 7.23727 8.53195 7.54366C8.65514 7.85004 8.84793 8.12742 9.09685 8.3564C9.34577 8.58538 9.64481 8.76043 9.97308 8.86934C10.3013 8.97825 10.6509 9.01838 10.9974 8.98692C11.0753 8.97997 11.1538 8.98929 11.2274 9.01421C11.301 9.03914 11.3679 9.07907 11.4232 9.13113C11.4785 9.1832 11.521 9.24612 11.5474 9.3154C11.5739 9.38469 11.5838 9.45862 11.5764 9.53192C11.543 9.85811 11.5857 10.1872 11.7014 10.4963C11.8172 10.8054 12.0034 11.0869 12.2468 11.3212C12.4902 11.5555 12.7851 11.7369 13.1108 11.8527C13.4365 11.9686 13.7852 12.0161 14.1324 11.9919C14.4433 11.7554 14.7251 11.4868 14.9725 11.1913C16.9361 8.84317 16.2674 5.3863 16.1133 4.71692V4.71567Z" fill="white"/>
</svg>
