<svg width="16" height="16" viewBox="0 0 16 16" fill="none" xmlns="http://www.w3.org/2000/svg">
<path d="M7.4725 5.69338C7.4725 5.32671 7.1725 5.02671 6.80584 5.02671H2.13917C1.7725 5.02671 1.4725 5.32671 1.4725 5.69338C1.4725 6.06004 1.7725 6.36004 2.13917 6.36004H6.80584C7.1725 6.36004 7.4725 6.06004 7.4725 5.69338ZM7.4725 11.0267C7.4725 10.66 7.1725 10.36 6.80584 10.36H2.13917C1.7725 10.36 1.4725 10.66 1.4725 11.0267C1.4725 11.3934 1.7725 11.6934 2.13917 11.6934H6.80584C7.1725 11.6934 7.4725 11.3934 7.4725 11.0267ZM11.5058 7.22004C11.2458 7.48004 10.8258 7.48004 10.5658 7.22004L9.1525 5.80671C8.8925 5.54671 8.8925 5.12671 9.1525 4.86671C9.4125 4.60671 9.8325 4.60671 10.0925 4.86671L11.0325 5.80671L13.3925 3.44671C13.6525 3.18671 14.0725 3.18671 14.3325 3.44671C14.5925 3.70671 14.5925 4.12671 14.3325 4.38671L11.5058 7.22004ZM11.5058 12.5534C11.2458 12.8134 10.8258 12.8134 10.5658 12.5534L9.1525 11.14C8.8925 10.88 8.8925 10.46 9.1525 10.2C9.4125 9.94004 9.8325 9.94004 10.0925 10.2L11.0325 11.14L13.3925 8.78004C13.6525 8.52004 14.0725 8.52004 14.3325 8.78004C14.5925 9.04004 14.5925 9.46004 14.3325 9.72004L11.5058 12.5534Z" fill="#7E93A8"/>
</svg>
