<svg width="24" height="24" viewBox="0 0 24 24" fill="none" xmlns="http://www.w3.org/2000/svg">
<path d="M12.001 21.75C13.101 21.75 14.001 20.85 14.001 19.75H10.001C10.001 20.85 10.891 21.75 12.001 21.75ZM18.001 15.75V10.75C18.001 7.68 16.361 5.11 13.501 4.43V3.75C13.501 2.92 12.831 2.25 12.001 2.25C11.171 2.25 10.501 2.92 10.501 3.75V4.43C7.63103 5.11 6.00103 7.67 6.00103 10.75V15.75L4.71103 17.04C4.08103 17.67 4.52103 18.75 5.41103 18.75H18.581C19.471 18.75 19.921 17.67 19.291 17.04L18.001 15.75Z" fill="#333F47"/>
<path d="M19 9.5C21.4853 9.5 23.5 7.48528 23.5 5C23.5 2.51472 21.4853 0.5 19 0.5C16.5147 0.5 14.5 2.51472 14.5 5C14.5 7.48528 16.5147 9.5 19 9.5Z" fill="#D62926" stroke="white"/>
</svg>
