<svg width="24" height="24" viewBox="0 0 24 24" fill="none" xmlns="http://www.w3.org/2000/svg">
<path d="M18 18.875C17.7667 18.875 17.5625 18.7875 17.3875 18.6125C17.2125 18.4375 17.125 18.2333 17.125 18C17.125 17.7667 17.2125 17.5625 17.3875 17.3875C17.5625 17.2125 17.7667 17.125 18 17.125C18.2333 17.125 18.4375 17.2125 18.6125 17.3875C18.7875 17.5625 18.875 17.7667 18.875 18C18.875 18.2333 18.7875 18.4375 18.6125 18.6125C18.4375 18.7875 18.2333 18.875 18 18.875ZM7 22C6.76667 22 6.5625 21.9125 6.3875 21.7375C6.2125 21.5625 6.125 21.3583 6.125 21.125C6.125 20.8917 6.2125 20.6875 6.3875 20.5125C6.5625 20.3375 6.76667 20.25 7 20.25C7.23333 20.25 7.4375 20.3375 7.6125 20.5125C7.7875 20.6875 7.875 20.8917 7.875 21.125C7.875 21.3583 7.7875 21.5625 7.6125 21.7375C7.4375 21.9125 7.23333 22 7 22ZM6 18.875C5.76667 18.875 5.5625 18.7875 5.3875 18.6125C5.2125 18.4375 5.125 18.2333 5.125 18C5.125 17.7667 5.2125 17.5625 5.3875 17.3875C5.5625 17.2125 5.76667 17.125 6 17.125H15C15.2333 17.125 15.4375 17.2125 15.6125 17.3875C15.7875 17.5625 15.875 17.7667 15.875 18C15.875 18.2333 15.7875 18.4375 15.6125 18.6125C15.4375 18.7875 15.2333 18.875 15 18.875H6ZM10 22C9.76667 22 9.5625 21.9125 9.3875 21.7375C9.2125 21.5625 9.125 21.3583 9.125 21.125C9.125 20.8917 9.2125 20.6875 9.3875 20.5125C9.5625 20.3375 9.76667 20.25 10 20.25H17C17.2333 20.25 17.4375 20.3375 17.6125 20.5125C17.7875 20.6875 17.875 20.8917 17.875 21.125C17.875 21.3583 17.7875 21.5625 17.6125 21.7375C17.4375 21.9125 17.2333 22 17 22H10ZM7.25 15.5C5.80227 15.5 4.56533 14.9873 3.5392 13.962C2.51307 12.9367 2 11.7007 2 10.2541C2 8.93471 2.47083 7.75833 3.4125 6.725C4.35417 5.69167 5.525 5.125 6.925 5.025C7.45833 4.09167 8.1625 3.35417 9.0375 2.8125C9.9125 2.27083 10.9035 2 12.0106 2C13.5202 2 14.7875 2.47917 15.8125 3.4375C16.8375 4.39583 17.4667 5.58333 17.7 7C19.0167 7.06667 20.0625 7.5125 20.8375 8.3375C21.6125 9.1625 22 10.1302 22 11.2406C22 12.4135 21.5868 13.4167 20.7604 14.25C19.934 15.0833 18.9305 15.5 17.75 15.5H7.25ZM7.25 14H17.75C18.52 14 19.1708 13.7292 19.7025 13.1875C20.2342 12.6458 20.5 11.9958 20.5 11.2375C20.5 10.4792 20.2342 9.83333 19.7025 9.3C19.1708 8.76667 18.52 8.5 17.75 8.5H16.25V7.75C16.25 6.56667 15.8375 5.5625 15.0125 4.7375C14.1875 3.9125 13.1851 3.5 12.0053 3.5C11.1473 3.5 10.3652 3.72917 9.65912 4.1875C8.95304 4.64583 8.43333 5.26667 8.1 6.05L7.9 6.5H7.2C6.16667 6.53333 5.29167 6.91161 4.575 7.63483C3.85833 8.35804 3.5 9.22857 3.5 10.2464C3.5 11.2821 3.86608 12.1667 4.59823 12.9C5.33036 13.6333 6.21428 14 7.25 14Z" fill="#7E93A8"/>
</svg>
