<svg width="229" height="172" viewBox="0 0 229 172" fill="none" xmlns="http://www.w3.org/2000/svg">
<g id="Group">
<g id="Group 18">
<g id="Graphics">
<path id="Vector" d="M228.5 53.8047H2.50879V108.563H228.5V53.8047Z" fill="#08A94C"/>
<path id="Vector_2" opacity="0.1" d="M228.5 53.8047H2.50879V108.563H228.5V53.8047Z" fill="#FAFAFA"/>
<path id="Vector_3" d="M217.718 97.7812V64.5869L13.2905 64.5869V97.7812L217.718 97.7812Z" fill="#08A94C"/>
<path id="Vector_4" opacity="0.9" d="M217.718 97.7812V64.5869L13.2905 64.5869V97.7812L217.718 97.7812Z" fill="#FAFAFA"/>
<path id="Vector_5" d="M183.331 64.587V97.7812H184.531V64.587H183.331Z" fill="#08A94C"/>
<path id="Vector_6" opacity="0.6" d="M183.331 64.587V97.7812H184.531V64.587H183.331Z" fill="#FAFAFA"/>
<path id="Vector_7" d="M18.3867 69.1654V93.2021H19.5871V69.1654H18.3867Z" fill="#08A94C"/>
<path id="Vector_8" opacity="0.6" d="M18.3867 69.1654V93.2021H19.5871V69.1654H18.3867Z" fill="#FAFAFA"/>
<path id="Vector_9" d="M199.978 85.3742C199.106 85.3738 198.247 85.1584 197.478 84.747C196.709 84.3355 196.053 83.7408 195.569 83.0155C195.085 82.2902 194.787 81.4566 194.701 80.5886C194.616 79.7205 194.746 78.8449 195.08 78.0391C195.414 77.2333 195.941 76.5222 196.615 75.9689C197.289 75.4155 198.09 75.037 198.945 74.8667C199.8 74.6964 200.685 74.7397 201.519 74.9928C202.354 75.2458 203.114 75.7007 203.73 76.3173C204.473 77.0591 204.978 78.0046 205.183 79.0339C205.388 80.0632 205.283 81.1302 204.881 82.0998C204.48 83.0693 203.799 83.898 202.927 84.4809C202.054 85.0637 201.028 85.3746 199.978 85.3742ZM199.978 76.2094C199.083 76.2097 198.216 76.5203 197.525 77.0883C196.833 77.6563 196.36 78.4466 196.186 79.3244C196.012 80.2022 196.148 81.1132 196.57 81.9021C196.993 82.691 197.676 83.309 198.503 83.6507C199.33 83.9924 200.25 84.0367 201.106 83.776C201.962 83.5154 202.701 82.9659 203.197 82.2212C203.694 81.4765 203.916 80.5828 203.827 79.6923C203.739 78.8018 203.344 77.9698 202.71 77.338C202.355 76.9719 201.93 76.6803 201.461 76.4804C200.992 76.2804 200.488 76.1761 199.978 76.1735V76.2094Z" fill="#08A94C"/>
<path id="Vector_10" d="M206.857 87.6318C206.762 87.6314 206.668 87.6122 206.581 87.5752C206.493 87.5381 206.414 87.4841 206.347 87.4162L202.717 83.7862C202.642 83.7218 202.581 83.6425 202.538 83.5533C202.494 83.4642 202.47 83.367 202.466 83.268C202.463 83.169 202.479 83.0703 202.515 82.9781C202.551 82.8858 202.606 82.8021 202.676 82.732C202.746 82.662 202.83 82.6072 202.922 82.571C203.015 82.5349 203.113 82.5182 203.212 82.522C203.311 82.5258 203.408 82.5501 203.498 82.5932C203.587 82.6364 203.666 82.6975 203.731 82.7727L207.361 86.4027C207.494 86.5374 207.57 86.7195 207.57 86.9094C207.57 87.0993 207.494 87.2815 207.361 87.4162C207.228 87.5516 207.047 87.6291 206.857 87.6318Z" fill="#08A94C"/>
<g id="Group_2" opacity="0.6">
<path id="Vector_11" d="M199.978 85.3742C199.106 85.3738 198.247 85.1584 197.478 84.747C196.709 84.3355 196.053 83.7408 195.569 83.0155C195.085 82.2902 194.787 81.4566 194.701 80.5886C194.616 79.7205 194.746 78.8449 195.08 78.0391C195.414 77.2333 195.941 76.5222 196.615 75.9689C197.289 75.4155 198.09 75.037 198.945 74.8667C199.8 74.6964 200.685 74.7397 201.519 74.9928C202.354 75.2458 203.114 75.7007 203.73 76.3173C204.473 77.0591 204.978 78.0046 205.183 79.0339C205.388 80.0632 205.283 81.1302 204.881 82.0998C204.48 83.0693 203.799 83.898 202.927 84.4809C202.054 85.0637 201.028 85.3746 199.978 85.3742ZM199.978 76.2094C199.083 76.2097 198.216 76.5203 197.525 77.0883C196.833 77.6563 196.36 78.4466 196.186 79.3244C196.012 80.2022 196.148 81.1132 196.57 81.9021C196.993 82.691 197.676 83.309 198.503 83.6507C199.33 83.9924 200.25 84.0367 201.106 83.776C201.962 83.5154 202.701 82.9659 203.197 82.2212C203.694 81.4765 203.916 80.5828 203.827 79.6923C203.739 78.8018 203.344 77.9698 202.71 77.338C202.355 76.9719 201.93 76.6803 201.461 76.4804C200.992 76.2804 200.488 76.1761 199.978 76.1735V76.2094Z" fill="#FAFAFA"/>
<path id="Vector_12" d="M206.857 87.6309C206.762 87.6305 206.668 87.6112 206.581 87.5742C206.493 87.5372 206.414 87.4831 206.347 87.4152L202.717 83.7853C202.642 83.7208 202.581 83.6415 202.538 83.5524C202.494 83.4632 202.47 83.366 202.466 83.267C202.463 83.1681 202.479 83.0693 202.515 82.9771C202.551 82.8849 202.606 82.8011 202.676 82.731C202.746 82.661 202.83 82.6062 202.922 82.57C203.015 82.5339 203.113 82.5172 203.212 82.521C203.311 82.5249 203.408 82.5491 203.498 82.5923C203.587 82.6354 203.666 82.6965 203.731 82.7718L207.361 86.4017C207.494 86.5364 207.57 86.7186 207.57 86.9085C207.57 87.0984 207.494 87.2805 207.361 87.4152C207.228 87.5506 207.047 87.6282 206.857 87.6309Z" fill="#FAFAFA"/>
</g>
</g>
<g id="Group 17">
<path id="Vector_13" opacity="0.7" d="M171.859 76.4686C171.412 86.0195 167.43 95.0632 160.687 101.842C153.945 108.621 144.922 112.651 135.374 113.15C125.826 113.648 116.433 110.578 109.021 104.538C101.61 98.4973 96.7083 89.9171 95.2698 80.4645C93.8313 71.012 95.9583 61.3622 101.237 53.3904C106.517 45.4185 114.571 39.694 123.835 37.3291C133.1 34.9643 142.912 36.1281 151.366 40.5944C159.821 45.0606 166.312 52.5104 169.58 61.4959C171.324 66.2867 172.098 71.376 171.859 76.4686Z" fill="white"/>
<path id="Vector_14" d="M171.844 52.4175C167.439 44.7798 160.868 38.6202 152.962 34.7182C145.055 30.8162 136.169 29.3471 127.427 30.4967C118.686 31.6464 110.482 35.3632 103.853 41.1768C97.2244 46.9905 92.4691 54.6397 90.189 63.1566C87.9088 71.6736 88.2062 80.6755 91.0435 89.0234C93.8808 97.3712 99.1305 104.69 106.128 110.053C113.126 115.417 121.558 118.584 130.356 119.154C139.155 119.725 147.925 117.672 155.556 113.257C165.778 107.343 173.234 97.6145 176.288 86.2073C179.342 74.8001 177.744 62.6472 171.844 52.4175ZM102.839 92.2679C99.3639 86.2489 97.7513 79.3345 98.2056 72.399C98.6598 65.4635 101.16 58.8185 105.391 53.3042C109.622 47.7898 115.393 43.6539 121.974 41.4193C128.555 39.1847 135.651 38.9518 142.365 40.7501C149.079 42.5484 155.108 46.297 159.692 51.5221C164.275 56.7472 167.206 63.214 168.114 70.1047C169.022 76.9955 167.866 84.0007 164.793 90.2347C161.719 96.4686 156.867 101.651 150.848 105.127C146.852 107.435 142.44 108.933 137.865 109.536C133.29 110.139 128.641 109.835 124.184 108.641C119.726 107.447 115.547 105.386 111.886 102.577C108.225 99.7675 105.154 96.2645 102.846 92.2679H102.839Z" fill="#08A94C"/>
<path id="Vector_15" opacity="0.1" d="M171.844 52.4175C167.439 44.7798 160.868 38.6202 152.962 34.7182C145.055 30.8162 136.169 29.3471 127.427 30.4967C118.686 31.6464 110.482 35.3632 103.853 41.1768C97.2244 46.9905 92.4691 54.6397 90.189 63.1566C87.9088 71.6736 88.2062 80.6755 91.0435 89.0234C93.8808 97.3712 99.1305 104.69 106.128 110.053C113.126 115.417 121.558 118.584 130.356 119.154C139.155 119.725 147.925 117.672 155.556 113.257C165.778 107.343 173.234 97.6145 176.288 86.2073C179.342 74.8001 177.744 62.6472 171.844 52.4175ZM102.839 92.2679C99.3639 86.2489 97.7514 79.3345 98.2056 72.399C98.6598 65.4635 101.16 58.8185 105.391 53.3042C109.622 47.7898 115.393 43.6539 121.974 41.4193C128.555 39.1847 135.652 38.9518 142.365 40.7501C149.079 42.5484 155.108 46.297 159.692 51.5221C164.275 56.7472 167.206 63.214 168.114 70.1047C169.022 76.9955 167.866 84.0007 164.793 90.2347C161.719 96.4686 156.867 101.651 150.848 105.127C146.852 107.435 142.44 108.933 137.865 109.536C133.29 110.139 128.641 109.835 124.184 108.641C119.726 107.447 115.547 105.386 111.886 102.577C108.225 99.7675 105.154 96.2645 102.846 92.2679H102.839Z" fill="black"/>
<path id="Vector_16" d="M101.531 98.1554C95.68 102.468 89.678 106.565 83.6472 110.569C77.6165 114.573 71.5067 118.476 65.3681 122.307C59.2295 126.138 53.0335 129.89 46.8158 133.535C43.7106 135.389 40.5766 137.186 37.4714 139.012C35.9289 139.994 34.2472 140.738 32.4829 141.219C31.5416 141.469 30.579 141.63 29.6077 141.7C28.5293 141.788 27.444 141.733 26.3803 141.535C25.6201 141.385 24.897 141.086 24.2524 140.656C23.6078 140.226 23.0543 139.673 22.6237 139.028C22.1931 138.384 21.8937 137.661 21.7428 136.901C21.5918 136.141 21.5923 135.359 21.744 134.599C21.7932 134.354 21.8605 134.114 21.9453 133.88C22.2923 132.861 22.7759 131.894 23.3829 131.005C23.9244 130.205 24.5405 129.459 25.223 128.776C26.523 127.489 28.0082 126.404 29.6293 125.556C32.7704 123.766 35.89 121.962 39.0528 120.187C45.3495 116.629 51.7037 113.164 58.0723 109.742C64.4409 106.321 70.8885 103.007 77.3721 99.7727C83.8557 96.538 90.3896 93.3897 97.0601 90.4857C98.0667 90.0407 99.2023 89.9832 100.249 90.3244C101.295 90.6655 102.179 91.3813 102.73 92.3342C103.28 93.2871 103.46 94.4099 103.233 95.487C103.007 96.5641 102.39 97.5195 101.502 98.1697L101.531 98.1554Z" fill="#08A94C"/>
<path id="Vector_17" opacity="0.1" d="M101.531 98.1554C95.68 102.468 89.678 106.565 83.6472 110.569C77.6165 114.573 71.5067 118.476 65.3681 122.307C59.2295 126.138 53.0335 129.89 46.8158 133.535C43.7106 135.389 40.5766 137.186 37.4714 139.012C35.9289 139.994 34.2472 140.738 32.4829 141.219C31.5416 141.469 30.579 141.63 29.6077 141.7C28.5293 141.788 27.444 141.733 26.3803 141.535C25.6201 141.385 24.897 141.086 24.2524 140.656C23.6078 140.226 23.0543 139.673 22.6237 139.028C22.1931 138.384 21.8937 137.661 21.7428 136.901C21.5918 136.141 21.5923 135.359 21.744 134.599C21.7932 134.354 21.8605 134.114 21.9453 133.88C22.2923 132.861 22.7759 131.894 23.3829 131.005C23.9244 130.205 24.5405 129.459 25.223 128.776C26.523 127.489 28.0082 126.404 29.6293 125.556C32.7704 123.766 35.89 121.962 39.0528 120.187C45.3495 116.629 51.7037 113.164 58.0723 109.742C64.4409 106.321 70.8885 103.007 77.3721 99.7727C83.8557 96.538 90.3896 93.3897 97.0601 90.4857C98.0667 90.0407 99.2023 89.9832 100.249 90.3244C101.295 90.6655 102.179 91.3813 102.73 92.3342C103.28 93.2871 103.46 94.4099 103.233 95.487C103.007 96.5641 102.39 97.5195 101.502 98.1697L101.531 98.1554Z" fill="black"/>
<g id="Group 20">
<path id="Vector_18" d="M152.634 89.5979L148.237 94.3196L114.37 63.8496L118.768 59.1279L152.634 89.5979Z" fill="#F8981D"/>
<path id="Vector_19" d="M146.396 58.082L151.255 62.4552L120.613 95.3646L115.749 90.9914L146.396 58.082Z" fill="#F8981D"/>
</g>
</g>
</g>
<path id="Vector_20" d="M82.9043 25.9861C82.9043 22.0729 86.0811 18.9033 89.9962 18.9033C93.9113 18.9033 97.0881 22.076 97.0881 25.9861C97.0881 29.8962 93.9113 33.0689 89.9962 33.0689C86.0811 33.0689 82.9043 29.8962 82.9043 25.9861Z" fill="#08A94C"/>
<g id="Group_3">
<path id="Vector_21" d="M192.183 15.1824C187.356 15.9167 183.776 19.7711 183.143 24.4031C183.094 24.7501 183.069 25.1002 183.053 25.4534C183.025 26.1382 183.059 26.8384 183.165 27.5417C183.373 28.9019 183.832 30.1598 184.474 31.2876C184.635 31.5726 184.812 31.8546 184.998 32.121C187.282 35.396 191.271 37.2829 195.459 36.6446C200.451 35.8855 204.102 31.7864 204.549 26.9468C204.574 26.6896 204.59 26.4294 204.596 26.166C204.608 25.5495 204.58 24.9236 204.484 24.2915C204.289 23.0088 203.864 21.8222 203.28 20.7471C203.097 20.4093 202.902 20.0871 202.688 19.7742C200.414 16.459 196.399 14.538 192.183 15.1824Z" fill="#08A94C"/>
<path id="Vector_22" d="M186.004 19.9875C186.022 19.9689 185.138 21.0905 184.912 22.587C184.629 24.4398 184.685 26.305 185.16 28.1175C185.774 30.466 187.142 32.4335 189.124 33.8649C189.981 34.4815 191.712 35.3335 192.1 35.4389C192.118 35.4451 188.575 33.6016 187.08 30.9835C185.731 28.6194 185.06 26.2368 185.104 23.501C185.132 21.7101 185.966 20.0216 186 19.9844L186.004 19.9875Z" fill="#6BCB94"/>
<path id="Vector_23" d="M202.685 19.7742C202.899 20.084 203.094 20.4093 203.277 20.7471C206.346 20.7192 208.421 21.218 208.706 22.2714C208.995 23.3435 207.375 24.7625 204.593 26.166C202.012 27.4735 198.428 28.7686 194.346 29.7694C190.673 30.671 187.257 31.1605 184.474 31.2845C180.829 31.4487 178.294 30.9685 177.981 29.7973C177.661 28.6106 179.697 27.0026 183.053 25.4503C183.066 25.0971 183.094 24.747 183.143 24.4C178.316 26.4542 175.288 28.7284 175.719 30.3674C176.144 31.9878 179.839 32.5672 185.002 32.121C187.775 31.8794 190.952 31.3557 194.309 30.513C198.267 29.5184 201.779 28.2605 204.552 26.9468C208.517 25.0723 210.918 23.0956 210.534 21.6301C210.149 20.1615 207.087 19.548 202.688 19.7742H202.685Z" fill="#05652E"/>
<path id="Vector_24" d="M186.91 25.9213C186.758 24.9329 187.49 24.0034 188.545 23.8423C189.599 23.6812 190.573 24.3504 190.725 25.3388C190.877 26.3272 190.145 27.2567 189.091 27.4178C188.036 27.5789 187.062 26.9065 186.91 25.9213Z" fill="#6ECC96"/>
</g>
<path id="Vector_25" d="M211.408 88.7082C211.408 88.6865 211.442 88.668 211.486 88.668C211.529 88.668 211.563 88.6865 211.563 88.7082C211.563 88.7298 211.529 88.7483 211.486 88.7483C211.442 88.7483 211.408 88.7298 211.408 88.7082Z" fill="#6ECC96"/>
<g id="Group_4">
<path id="Vector_26" d="M178.186 135.893L177.122 135.118L175.881 135.555L176.291 134.303L175.49 133.256H176.806L177.553 132.178L177.957 133.429L179.219 133.807L178.152 134.579L178.183 135.893H178.186Z" fill="#08A94C"/>
<path id="Vector_27" d="M178.103 134.483L190.155 146.022L178.462 159.685" stroke="#08A94C" stroke-width="0.65" stroke-linejoin="round"/>
<path id="Vector_28" d="M190.927 147.207L190.155 146.644L189.252 146.963L189.55 146.055L188.97 145.296H189.925L190.471 144.509L190.766 145.42L191.681 145.695L190.906 146.256L190.93 147.211L190.927 147.207Z" fill="#08A94C"/>
<path id="Vector_29" d="M178.776 161.206L178.031 160.664L177.163 160.967L177.448 160.094L176.89 159.362H177.811L178.335 158.606L178.618 159.483L179.502 159.747L178.757 160.286L178.779 161.206H178.776Z" fill="#08A94C"/>
<path id="Vector_30" d="M162.551 133.838L161.998 133.687L161.561 134.055L161.533 133.485L161.046 133.185L161.583 132.983L161.719 132.429L162.076 132.875L162.647 132.835L162.33 133.312L162.547 133.842L162.551 133.838Z" fill="#08A94C"/>
<path id="Vector_31" d="M161.619 133.271L177.55 134.294" stroke="#08A94C" stroke-width="0.65" stroke-linejoin="round"/>
</g>
<g id="Group_5">
<path id="Vector_32" d="M58.4234 36.0393L57.6509 35.4754L56.7481 35.7945L57.046 34.8867L56.4658 34.1276H57.4213L57.9642 33.3438L58.259 34.2547L59.1741 34.5273L58.3986 35.0881L58.4203 36.0424L58.4234 36.0393Z" fill="#08A94C"/>
<path id="Vector_33" d="M65.0804 39.9338L64.9657 39.2088L64.3018 38.8897L64.9563 38.5582L65.0525 37.8301L65.5737 38.3506L66.2965 38.2174L65.9615 38.8742L66.3121 39.5187L65.5861 39.404L65.0773 39.9369L65.0804 39.9338Z" fill="#08A94C"/>
<path id="Vector_34" d="M56.0813 48.978L55.1413 48.569L54.2696 49.1112L54.3689 48.0919L53.584 47.4319L54.586 47.2119L54.9707 46.2607L55.4919 47.1438L56.5157 47.2181L55.8332 47.9865L56.0782 48.9811L56.0813 48.978Z" fill="#08A94C"/>
<path id="Vector_35" d="M24.7198 44.2993L23.4013 43.6269L22.1015 44.3303L22.3341 42.8709L21.2607 41.8516L22.7219 41.6223L23.361 40.29L24.0311 41.6068L25.4985 41.802L24.453 42.8462L24.7198 44.2993Z" fill="#08A94C"/>
<path id="Vector_36" d="M15.416 50.4866L22.9981 42.3751L55.4421 47.9026L57.775 34.7656L65.0841 38.6726" stroke="#08A94C" stroke-width="0.65" stroke-linejoin="round"/>
</g>
<g id="Group_6">
<path id="Vector_37" d="M154.122 144.946C153.963 145.557 153.979 147.444 152.235 147.496C154.01 148.224 154.156 149.293 154.404 149.947C154.829 148.478 154.993 147.914 156.517 147.375C155.769 147.158 154.373 147.044 154.118 144.946H154.122Z" fill="#333F47"/>
<path id="Vector_38" d="M165.643 166.142C165.485 166.752 165.5 168.639 163.757 168.695C165.534 169.423 165.677 170.489 165.925 171.145C166.35 169.677 166.515 169.113 168.038 168.574C167.29 168.357 165.894 168.242 165.64 166.142H165.643Z" fill="#08A94C"/>
<path id="Vector_39" d="M56.5965 16.3223C56.3483 16.9048 56.0846 18.773 54.3535 18.5686C56.0039 19.5507 55.9853 20.6289 56.1373 21.3137C56.7764 19.9225 57.0215 19.3896 58.6099 19.0829C57.9026 18.7576 56.5406 18.4384 56.5965 16.3254V16.3223Z" fill="#08A94C"/>
<path id="Vector_40" d="M45.6735 0C45.3695 0.554602 44.9258 2.38882 43.2227 2.01702C44.7707 3.1541 44.6466 4.22613 44.7304 4.92015C45.4998 3.59717 45.7976 3.09214 47.4077 2.94032C46.7345 2.54993 45.4098 2.09757 45.6735 0V0Z" fill="#08A94C"/>
<path id="Vector_41" d="M40.0954 21.7373C39.8783 22.3291 39.7139 24.2098 37.9766 24.0982C39.6766 24.9906 39.717 26.0688 39.9 26.7442C40.4646 25.3221 40.6818 24.7768 42.2516 24.3864C41.5287 24.0982 40.1513 23.8504 40.0985 21.7373H40.0954Z" fill="#333F47"/>
</g>
<g id="Group 19">
<g id="Group_7">
<path id="Vector_42" d="M22.2288 139.45L15.1557 114.95L26.5795 116.496L34.34 144.632L22.2307 139.448L22.2288 139.45Z" fill="#333F47" stroke="#B2BFC8" stroke-width="1.11" stroke-linejoin="round"/>
<path id="Vector_43" d="M15.3398 114.869L34.1105 106.754L44.4994 109.147L27.1142 116.306L15.3398 114.869Z" fill="#333F47" stroke="#B2BFC8" stroke-width="1.11" stroke-linejoin="round"/>
</g>
<g id="Group 2">
<path id="Vector_44" d="M36.6222 141.987C36.6222 141.987 37.0326 155.412 38.7929 157.297C42.0172 160.747 48.3051 159.983 50.0381 156.788C52.4811 152.277 50.9438 142.879 50.9438 142.879C50.9438 142.879 54.5017 156.016 59.867 155.018C67.3497 153.622 67.9872 149.863 65.1131 142.779C62.2375 135.692 58.7679 128.235 58.7679 128.235L36.6046 135.492L36.6222 141.987Z" fill="#E8ECF5" stroke="#B2BFC8" stroke-linejoin="round"/>
<g id="Group_8">
<path id="Vector_45" d="M36.1826 137.815C36.1826 137.815 44.0047 138.94 50.6974 136.525C57.3916 134.112 60.4675 134.336 59.8494 127.932C59.595 125.317 54.0874 107.865 51.7484 106.969C49.4091 106.077 47.6188 107.331 44.9522 107.776C42.286 108.218 30.9257 108.021 28.9497 113.852C26.9737 119.684 31.4822 134.462 36.1807 137.817L36.1826 137.815Z" fill="#E8ECF5" stroke="#B2BFC8" stroke-linejoin="round"/>
<path id="Vector_46" opacity="0.4" d="M38.3504 121.487L51.1585 117.633L53.8063 126.728L40.9998 130.584L38.3519 121.489L38.3504 121.487Z" fill="#B2BFC8"/>
<path id="Vector_47" d="M48.2951 117.388C48.1163 117.168 48.1492 116.846 48.3687 116.667C48.5882 116.488 48.9103 116.521 49.0892 116.74C49.268 116.959 49.2351 117.281 49.0156 117.46C48.7961 117.639 48.474 117.607 48.2951 117.388Z" fill="#F8981D"/>
<path id="Vector_48" opacity="0.4" d="M37.7956 119.465L47.286 116.606L47.7041 117.996L38.2118 120.856L37.7956 119.465Z" fill="#B2BFC8"/>
<path id="Vector_49" opacity="0.4" d="M49.7002 116.818L49.7194 116.803L49.7428 116.831L49.7236 116.847L49.7002 116.818Z" fill="#B2BFC8"/>
<path id="Vector_50" d="M49.8088 116.952C49.63 116.733 49.6629 116.411 49.8824 116.232C50.1019 116.053 50.424 116.085 50.6029 116.304C50.7817 116.524 50.7488 116.846 50.5293 117.025C50.3098 117.204 49.9877 117.171 49.8088 116.952Z" fill="#F8981D"/>
</g>
<g id="Group_9">
<path id="Vector_51" d="M32.6624 146.18C32.6624 146.18 35.327 150.039 37.1588 149.989C38.9906 149.939 42.2423 148.356 42.9198 146.931C43.5954 145.506 41.9208 146.022 41.3626 146.382C40.8047 146.738 39.4867 147.36 39.2587 146.028C39.0323 144.698 38.9789 144.399 39.3558 144.409C39.7327 144.419 40.3132 146.085 40.8814 146.022C41.448 145.957 42.8381 145.794 41.4232 143.646C40.0097 141.501 38.745 140.983 38.745 140.983C38.745 140.983 39.0828 143.844 32.662 146.184L32.6624 146.18Z" fill="black"/>
<path id="Vector_52" d="M30.3876 111.215C30.3876 111.215 25.0975 112.096 23.9744 118.793C22.8529 125.493 22.1626 130.488 23.8843 135.03C25.606 139.573 28.5156 146.549 33.2347 146.138C37.9504 145.726 40.8929 141.43 39.1853 139.629C37.4758 137.83 33.0444 134.755 32.7856 131.823C32.5268 128.891 33.4213 120.713 33.4213 120.713C33.4213 120.713 33.7447 113.553 30.3876 111.215Z" fill="#E8ECF5" stroke="#B2BFC8" stroke-linejoin="round"/>
<path id="Vector_53" d="M23.4285 133.681C23.9031 134.243 26.0942 133.999 28.8456 133.358C31.509 132.738 32.6562 132.538 32.77 132.315C32.9408 131.979 32.6472 130.622 32.7399 129.371C32.7447 129.307 30.758 130.102 27.3219 130.835C23.9072 131.564 23.0018 131.229 22.9318 131.28C22.8107 131.369 23.0318 133.214 23.4285 133.681Z" fill="#B2BFC8"/>
</g>
<g id="Group_10">
<path id="Vector_54" d="M30.2321 109.82C30.2321 109.82 30.2943 112.604 33.896 113.368C34.6272 113.524 35.5136 113.617 36.588 113.617C42.8123 113.613 48.5305 110.802 47.6582 106.681C47.6582 106.681 44.7106 110.496 39.4939 111.548C36.7817 112.097 36.4235 111.852 34.5425 111.612C32.9811 111.413 30.2321 109.82 30.2321 109.82Z" fill="#E8ECF5" stroke="#B2BFC8" stroke-linejoin="round"/>
<path id="Vector_55" d="M24.424 102.44C22.7883 95.6845 27.1545 88.7731 34.1783 87.0056C41.2005 85.2361 48.2169 89.2816 49.8526 96.0369C51.4882 102.792 47.1221 109.704 40.0983 111.471C36.8567 112.287 33.619 111.864 30.9087 110.51C27.7457 108.928 25.3036 106.078 24.4224 102.438L24.424 102.44Z" fill="#E8ECF5" stroke="#B2BFC8" stroke-linejoin="round"/>
<path id="Vector_56" d="M29.0019 103.137C27.6749 97.6605 31.2164 92.0569 36.9093 90.6258C42.6025 89.1913 48.292 92.4713 49.619 97.9482C50.9441 103.427 47.4029 109.027 41.7097 110.461C36.0184 111.894 30.327 108.616 29.0019 103.137Z" fill="#333F47"/>
<path id="Vector_57" d="M26.5952 103.796C26.2491 102.37 27.1712 100.913 28.653 100.539C30.1347 100.166 31.6154 101.018 31.9596 102.445C32.3057 103.871 31.3835 105.328 29.9018 105.702C28.4201 106.076 26.9378 105.221 26.5952 103.796Z" fill="#B2BFC8"/>
<path id="Vector_58" d="M45.18 95.5967C43.0215 92.9508 39.9965 91.7991 40.0595 91.7477C40.1225 91.6963 43.7588 92.2763 45.9173 94.9223C48.0758 97.5682 47.6261 101.167 47.5631 101.219C47.5001 101.27 47.3385 98.2427 45.18 95.5967Z" fill="#B2BFC8"/>
</g>
<path id="Vector_59" d="M50.6066 106.646C50.6066 106.646 49.8567 110.512 53.4333 112.686C57.0084 114.859 59.315 113.844 62.7909 112.482C66.2687 111.118 69.1451 110.143 69.9242 106.488C70.703 102.837 70.7695 93.5657 68.3206 91.4678C65.8682 89.3696 59.3454 90.3951 60.159 94.697C60.9745 98.9973 60.4868 100.535 60.4868 100.535C60.4868 100.535 52.5347 102.603 50.6051 106.644L50.6066 106.646Z" fill="#E8ECF5" stroke="#B2BFC8" stroke-linejoin="round"/>
<path id="Vector_60" d="M59.4485 88.3779C59.4485 88.3779 59.8118 92.7201 60.5429 92.8603C61.2755 93.0024 62.4719 93.2297 62.5671 92.0059C62.6608 90.7802 62.6169 89.5301 62.6169 89.5301C62.6169 89.5301 62.6197 92.3821 63.4015 92.3507C64.1849 92.3212 64.9746 92.3851 64.5942 89.495C64.5942 89.495 64.6783 92.5442 65.6066 91.9869C66.5349 91.4297 66.404 90.7237 66.2689 89.2877C66.2689 89.2877 66.182 91.6128 66.831 91.3406C67.4799 91.0683 68.0376 88.2798 67.1324 87.0688C66.2256 85.856 61.0201 86.0958 59.4504 88.3764L59.4485 88.3779Z" fill="#333F47"/>
<path id="Vector_61" d="M59.213 90.8117C59.213 90.8117 60.628 88.6572 61.6258 88.6021C62.6232 88.5504 63.0043 89.5476 62.2471 90.486C61.4898 91.4244 60.3273 92.4934 59.6082 92.2704C58.891 92.0459 58.9454 91.1696 59.2133 90.8082L59.213 90.8117Z" fill="#333F47" stroke="#333F47" stroke-linejoin="round"/>
<path id="Vector_62" opacity="0.4" d="M33.3909 119.865C33.4047 119.901 33.4165 119.939 33.4284 119.977" stroke="#08A94C" stroke-linecap="round" stroke-linejoin="round"/>
<path id="Vector_63" d="M90.2555 100.097C90.1782 100.049 90.1008 100.001 90.0234 99.9531L90.2555 100.097Z" fill="#E8ECF5"/>
<path id="Vector_64" d="M60.2534 100.716C59.4565 100.775 59.7308 101.653 59.9743 102.061C60.3811 102.739 60.7633 103.468 61.2711 104.064C61.4507 104.276 61.5265 104.579 61.7076 104.793C61.9279 105.052 62.1289 105.259 62.3097 105.563" fill="#E8ECF5"/>
<path id="Vector_65" d="M62.4733 103.861C62.4448 103.815 62.4178 103.77 62.3893 103.723L62.4733 103.861Z" fill="#B2BFC8"/>
<path id="Vector_66" d="M60.572 100.565C61.195 100.873 61.8492 103.222 64.3282 104.939C67.7993 107.343 69.8239 106.965 69.7197 107.231C69.4284 107.976 68.9777 109.049 68.5759 109.008C67.8692 108.937 65.8752 108.913 63.0559 106.844C59.6505 104.345 58.8481 101.117 59.3119 100.91C59.4969 100.829 60.3889 100.473 60.5739 100.563L60.572 100.565Z" fill="#B2BFC8"/>
<path id="Vector_67" d="M38.0783 125.428C38.0861 125.453 38.0923 125.476 38.102 125.5L38.0783 125.428Z" fill="#B2BFC8"/>
<path id="Vector_68" d="M61.8173 144.508C60.4062 145.167 58.5428 145.818 59.114 147.044C59.6867 148.272 61.9354 147.276 63.146 146.815C64.2547 146.393 65.908 145.556 66.1163 145.332C66.2108 145.23 65.1873 143.137 65.1444 143.112C65.052 143.057 63.0174 143.945 61.8138 144.508L61.8173 144.508Z" fill="#B2BFC8"/>
<path id="Vector_69" d="M61.3474 142.234C59.9737 142.869 58.2364 143.553 58.2904 144.309C58.346 145.067 60.5134 144.096 61.6589 143.621C62.7059 143.186 64.6683 142.509 64.9139 142.331C65.0255 142.25 64.4493 141.107 64.4226 141.094C64.3659 141.067 62.5207 141.693 61.3474 142.234Z" fill="#B2BFC8"/>
</g>
</g>
</g>
</svg>
