<svg width="17" height="16" viewBox="0 0 17 16" fill="none" xmlns="http://www.w3.org/2000/svg">
<path d="M9.875 5.33366C9.875 3.86033 8.68167 2.66699 7.20833 2.66699C5.735 2.66699 4.54167 3.86033 4.54167 5.33366C4.54167 6.80699 5.735 8.00033 7.20833 8.00033C8.68167 8.00033 9.875 6.80699 9.875 5.33366ZM1.875 12.0003V12.667C1.875 13.0337 2.175 13.3337 2.54167 13.3337H11.875C12.2417 13.3337 12.5417 13.0337 12.5417 12.667V12.0003C12.5417 10.227 8.98833 9.33366 7.20833 9.33366C5.42833 9.33366 1.875 10.227 1.875 12.0003ZM12.5417 6.66699H15.2083C15.575 6.66699 15.875 6.96699 15.875 7.33366C15.875 7.70033 15.575 8.00033 15.2083 8.00033H12.5417C12.175 8.00033 11.875 7.70033 11.875 7.33366C11.875 6.96699 12.175 6.66699 12.5417 6.66699Z" fill="#F8981D"/>
</svg>
