<svg width="17" height="16" viewBox="0 0 17 16" fill="none" xmlns="http://www.w3.org/2000/svg">
<path d="M13.6251 5.33366H11.9584V4.00033C11.9584 3.26699 11.3584 2.66699 10.6251 2.66699H2.62508C1.89175 2.66699 1.29175 3.26699 1.29175 4.00033V10.0003C1.29175 10.7337 1.89175 11.3337 2.62508 11.3337C2.62508 12.4403 3.51841 13.3337 4.62508 13.3337C5.73175 13.3337 6.62508 12.4403 6.62508 11.3337H10.6251C10.6251 12.4403 11.5184 13.3337 12.6251 13.3337C13.7317 13.3337 14.6251 12.4403 14.6251 11.3337H15.2917C15.6584 11.3337 15.9584 11.0337 15.9584 10.667V8.44699C15.9584 8.16033 15.8651 7.88033 15.6917 7.64699L14.1584 5.60033C14.0317 5.43366 13.8317 5.33366 13.6251 5.33366ZM4.62508 12.0003C4.25841 12.0003 3.95841 11.7003 3.95841 11.3337C3.95841 10.967 4.25841 10.667 4.62508 10.667C4.99175 10.667 5.29175 10.967 5.29175 11.3337C5.29175 11.7003 4.99175 12.0003 4.62508 12.0003ZM13.6251 6.33366L14.9317 8.00033H11.9584V6.33366H13.6251ZM12.6251 12.0003C12.2584 12.0003 11.9584 11.7003 11.9584 11.3337C11.9584 10.967 12.2584 10.667 12.6251 10.667C12.9917 10.667 13.2917 10.967 13.2917 11.3337C13.2917 11.7003 12.9917 12.0003 12.6251 12.0003Z" fill="#047CDD"/>
</svg>
