<svg width="99" height="26" viewBox="0 0 99 26" fill="none" xmlns="http://www.w3.org/2000/svg">
<path d="M22.4639 15.7347C22.4637 18.0258 21.7046 20.2509 20.3076 22.0552C18.9107 23.8595 16.9563 25.1391 14.7561 25.69C12.5559 26.2409 10.2366 26.0314 8.16791 25.0948C6.09925 24.1582 4.40038 22.5485 3.34216 20.5224H8.20758C8.92367 21.1499 9.77114 21.6051 10.6863 21.8539C11.6015 22.1027 12.5605 22.1386 13.4914 21.9589C14.4223 21.7792 15.3007 21.3886 16.0608 20.8164C16.8208 20.2442 17.4427 19.5054 17.8796 18.6554C18.3165 17.8053 18.5572 16.8663 18.5834 15.9087C18.6097 14.9512 18.4209 14.0001 18.0312 13.1269C17.6415 12.2537 17.0611 11.4811 16.3336 10.8673C15.6061 10.2534 14.7504 9.81421 13.8308 9.58267C13.605 9.52519 13.3761 9.4811 13.1453 9.45064C13.0341 9.43566 12.922 9.42349 12.809 9.41506C12.2562 9.31432 11.756 9.02052 11.3956 8.58496C11.0353 8.14939 10.8378 7.59974 10.8376 7.03197V6.33999C10.8381 6.09058 10.8003 5.84261 10.7255 5.60493L10.8376 5.58714C11.0099 5.56185 11.1841 5.54032 11.3592 5.5244C11.6751 5.49444 11.9947 5.47852 12.318 5.47852C13.1157 5.47805 13.9108 5.57234 14.6868 5.75943C14.9215 5.81624 15.1521 5.88116 15.3788 5.9542C17.4345 6.61229 19.2294 7.91505 20.5033 9.6736C21.7772 11.4322 22.4639 13.5551 22.4639 15.7347Z" fill="url(#paint0_linear_2889_10273)"/>
<path d="M14.6858 5.75941C13.9099 5.57232 13.1148 5.47803 12.3171 5.4785C11.9937 5.4785 11.6741 5.49442 11.3582 5.52438C11.1831 5.5403 11.009 5.56184 10.8367 5.58712L10.7246 5.60491C10.5511 5.0544 10.1886 4.58473 9.70248 4.28073C9.2164 3.97672 8.6388 3.85841 8.07397 3.94715C7.50915 4.0359 6.99433 4.32585 6.62249 4.76466C6.25064 5.20347 6.04628 5.7622 6.0463 6.33997V15.7347C6.0453 16.6428 6.23783 17.5404 6.61077 18.3666C6.98372 19.1927 7.52834 19.928 8.20757 20.5224H3.34215C2.56922 19.0476 2.16588 17.4037 2.16749 15.7347V6.33997C2.16709 4.77276 2.74114 3.26097 3.7788 2.09646C4.81647 0.931957 6.24416 0.197316 7.78625 0.034368C9.32835 -0.12858 10.8755 0.291719 12.129 1.21412C13.3825 2.13653 14.2535 3.49563 14.5737 5.02904C14.6262 5.26988 14.6637 5.51382 14.6858 5.75941Z" fill="url(#paint1_linear_2889_10273)"/>
<path d="M21.1763 10.7354C22.2304 13.147 22.3251 15.8763 21.4409 18.3568C20.5567 20.8372 18.7614 22.8781 16.4277 24.0559C14.094 25.2337 11.4012 25.4579 8.90838 24.6818C6.41552 23.9058 4.31407 22.1892 3.04028 19.8885C3.59501 21.1576 4.39875 22.2998 5.40284 23.2459C6.40694 24.192 7.59053 24.9224 8.88196 25.3927C10.1734 25.8631 11.5458 26.0637 12.9162 25.9824C14.2865 25.9011 15.6263 25.5396 16.8544 24.9198C18.0826 24.2999 19.1735 23.4347 20.0612 22.3763C20.9489 21.318 21.6149 20.0886 22.019 18.7626C22.423 17.4365 22.5566 16.0414 22.4118 14.6616C22.267 13.2819 21.8466 11.9462 21.1763 10.7354Z" fill="url(#paint2_linear_2889_10273)"/>
<g style="mix-blend-mode:multiply" opacity="0.5">
<path d="M4.57605 22.3645C4.8234 22.3758 5.07075 22.3833 5.31717 22.3833C6.93831 22.3849 8.55075 22.1438 10.102 21.6679C8.93001 21.2202 7.91707 20.4288 7.19312 19.3953C6.68082 19.444 6.16297 19.4721 5.6377 19.4721C4.97321 19.4716 4.30935 19.4309 3.64966 19.3503H3.64132C3.5598 19.3438 3.4792 19.3325 3.40046 19.3185C3.16422 19.2749 2.93589 19.1953 2.72327 19.0825C3.13383 20.2833 3.76215 21.3963 4.57605 22.3645Z" fill="url(#paint3_linear_2889_10273)"/>
<path d="M20.5767 9.78027C19.9589 11.1416 19.1618 12.4122 18.207 13.5576C18.4412 14.2039 18.5686 14.8847 18.5841 15.5727C19.6888 14.0468 20.5263 12.3406 21.0603 10.5284C20.9096 10.2725 20.7484 10.0231 20.5767 9.78027Z" fill="url(#paint4_linear_2889_10273)"/>
</g>
<path d="M22.4993 5.70438C22.4716 5.64815 22.4381 5.5951 22.3993 5.54613C22.3258 5.44925 22.2338 5.36826 22.1289 5.30795C22.0239 5.24763 21.908 5.20922 21.7881 5.19499H21.7585H21.7289C21.5773 5.18796 21.4264 5.21839 21.2891 5.28366C21.1518 5.34892 21.0323 5.44705 20.9409 5.56954C20.9507 5.51783 20.965 5.46707 20.9835 5.41785C21.0317 5.28559 21.1092 5.16622 21.2099 5.06885C21.3107 4.97148 21.4322 4.89868 21.565 4.85602C21.5594 4.8348 21.5548 4.81326 21.5511 4.79141C21.5359 4.70964 21.5318 4.62615 21.5391 4.54327C21.5499 4.42127 21.5848 4.30269 21.6415 4.19448C21.6983 4.08627 21.7758 3.9906 21.8696 3.91309C21.9761 4.03846 22.0473 4.19048 22.0759 4.35323C22.1044 4.51598 22.0891 4.68349 22.0317 4.83823C22.0252 4.85883 22.0159 4.87849 22.0076 4.89909C22.1311 4.96442 22.2382 5.05744 22.3207 5.17105C22.4032 5.28466 22.4589 5.41584 22.4835 5.55456C22.493 5.60395 22.4983 5.65407 22.4993 5.70438Z" fill="url(#paint5_linear_2889_10273)"/>
<path d="M21.7366 5.60889C21.6367 9.94185 19.8636 14.0634 16.7965 17.0921C13.7294 20.1209 9.61165 21.8167 5.32373 21.8167C4.947 21.8167 4.57335 21.8039 4.2028 21.7783L3.94989 21.7596C3.03716 21.6573 2.18996 21.231 1.5592 20.5563C0.92843 19.8817 0.555049 19.0027 0.505558 18.0759C0.501853 18.0066 0.5 17.9363 0.5 17.8652C0.500087 17.2424 0.64723 16.6286 0.9292 16.0749C1.21117 15.5212 1.61982 15.0435 2.12119 14.6815C1.81775 14.9956 1.60449 15.3871 1.50423 15.8143C1.40396 16.2414 1.42047 16.6881 1.55197 17.1065C1.68348 17.5249 1.92504 17.8992 2.25082 18.1896C2.57659 18.4799 2.97432 18.6753 3.40146 18.7547C3.48021 18.7688 3.5608 18.78 3.64233 18.7866H3.64974C4.31127 18.8674 4.97699 18.908 5.64334 18.9083C6.48616 18.9063 7.32761 18.8393 8.16035 18.7079C11.4757 18.1867 14.5538 16.6522 16.9809 14.3105C19.4079 11.9688 21.0675 8.93218 21.7366 5.60889Z" fill="url(#paint6_linear_2889_10273)"/>
<path d="M4.61875 18.8864C4.68267 18.8864 4.74474 18.8864 4.80866 18.8864C4.41865 18.8668 4.03234 18.8349 3.65066 18.7881H3.64233C3.5608 18.7816 3.48021 18.7703 3.40146 18.7563C2.97396 18.677 2.57584 18.4817 2.24975 18.1913C1.92366 17.9008 1.68189 17.5261 1.55034 17.1074C1.4188 16.6887 1.40242 16.2417 1.50298 15.8143C1.60354 15.3869 1.81724 14.9952 2.12119 14.6812C1.62716 15.0376 1.223 15.5064 0.941376 16.0499C0.65975 16.5934 0.508552 17.1962 0.5 17.8096C0.842766 18.9801 3.12447 18.8864 4.61875 18.8864Z" fill="url(#paint7_linear_2889_10273)"/>
<path d="M45.219 14.1982C44.6051 14.2061 44.0011 14.0374 43.4742 13.7108C42.9568 13.3937 42.525 12.9465 42.2188 12.4104C41.9116 11.8608 41.7499 11.2368 41.7499 10.6016C41.7499 9.96645 41.9116 9.34251 42.2188 8.79291C42.5255 8.25696 42.9572 7.80948 43.4742 7.49157C44.0016 7.16609 44.6053 6.99776 45.219 7.00511H50.8062C51.1132 7.00537 51.4076 7.13192 51.6248 7.35699C51.8419 7.58206 51.964 7.88725 51.9642 8.20554C51.964 8.52384 51.8419 8.82902 51.6248 9.05409C51.4076 9.27916 51.1132 9.40572 50.8062 9.40597H45.2622C44.9874 9.39874 44.7186 9.49059 44.5018 9.66586C44.3657 9.77886 44.2558 9.92215 44.1803 10.0851C44.1048 10.2481 44.0655 10.4266 44.0655 10.6074C44.0655 10.7881 44.1048 10.9666 44.1803 11.1296C44.2558 11.2926 44.3657 11.4358 44.5018 11.5488C44.7192 11.7208 44.987 11.8102 45.2604 11.8021H48.8823C49.4961 11.7946 50.1 11.9633 50.6271 12.2895C51.1451 12.6078 51.5769 13.0568 51.8825 13.5946C52.1906 14.1439 52.3529 14.768 52.3529 15.4034C52.3529 16.0387 52.1906 16.6628 51.8825 17.2121C51.5755 17.7478 51.1439 18.1952 50.6271 18.5134C50.0998 18.8389 49.496 19.0072 48.8823 18.9999H44.5082C44.2012 18.9996 43.9068 18.8731 43.6897 18.648C43.4725 18.4229 43.3505 18.1177 43.3502 17.7995C43.3505 17.4812 43.4725 17.176 43.6897 16.9509C43.9068 16.7258 44.2012 16.5993 44.5082 16.599H48.8428C49.1168 16.6075 49.3851 16.5173 49.6022 16.3439C49.7395 16.2331 49.8501 16.0909 49.9255 15.9284C50.0008 15.7659 50.0389 15.5875 50.0366 15.4072C50.0385 15.2268 50.0006 15.0484 49.9258 14.8855C49.851 14.7227 49.7413 14.5797 49.605 14.4676C49.3886 14.2908 49.1191 14.1985 48.8437 14.2067L45.219 14.1982Z" fill="#333F47"/>
<path d="M55.3751 8.2044C55.3747 8.04655 55.4044 7.89018 55.4623 7.74421C55.5203 7.59825 55.6054 7.46556 55.7129 7.35372C55.8204 7.24189 55.948 7.1531 56.0886 7.09243C56.2292 7.03177 56.3799 7.00041 56.5322 7.00016H61.2919C61.9055 6.99399 62.509 7.16223 63.0368 7.48662C63.5553 7.8038 63.9883 8.25137 64.2958 8.78796C64.6104 9.33441 64.7731 9.96038 64.766 10.5967V11.403C64.7724 12.0377 64.6097 12.662 64.2958 13.207C63.9887 13.7439 63.5556 14.1916 63.0368 14.5083C62.5092 14.8334 61.9056 15.002 61.2919 14.9957H56.9427C56.769 14.9957 56.6025 15.0672 56.4797 15.1945C56.3569 15.3218 56.2879 15.4945 56.2879 15.6745V17.7907C56.2884 17.9487 56.2588 18.1052 56.2008 18.2513C56.1428 18.3973 56.0576 18.5301 55.95 18.642C55.8424 18.7539 55.7146 18.8426 55.5739 18.9032C55.4331 18.9638 55.2823 18.9949 55.1299 18.9949C54.8229 18.9947 54.5286 18.8681 54.3116 18.643C54.0947 18.4179 53.9728 18.1127 53.9728 17.7945V13.7962C53.9727 13.6386 54.0025 13.4824 54.0607 13.3367C54.1188 13.191 54.2041 13.0586 54.3117 12.9471C54.4192 12.8356 54.5469 12.7472 54.6875 12.6869C54.8281 12.6267 54.9787 12.5957 55.1308 12.5958H61.246C61.522 12.6037 61.7923 12.5134 62.0119 12.3397C62.1501 12.2297 62.2616 12.0879 62.3378 11.9255C62.414 11.7631 62.4527 11.5845 62.4509 11.404V10.6424C62.4586 10.3569 62.3696 10.0776 62.1992 9.85321C62.091 9.71195 61.9531 9.5982 61.796 9.52066C61.6389 9.44311 61.4668 9.40382 61.2928 9.40578H56.5322C56.2251 9.40528 55.9308 9.27848 55.7139 9.05323C55.4969 8.82798 55.3751 8.5227 55.3751 8.2044Z" fill="#333F47"/>
<path d="M81.8433 18.9948C80.6072 18.9948 79.5165 18.5274 78.5713 17.5925C77.6701 16.6139 77.2195 15.4836 77.2195 14.2016V11.797C77.2195 10.5156 77.6701 9.38531 78.5713 8.40605C79.5165 7.46868 80.6072 7 81.8433 7H84.2943C84.6015 7 84.896 7.12647 85.1132 7.3516C85.3304 7.57672 85.4524 7.88206 85.4524 8.20043C85.4524 8.5188 85.3304 8.82414 85.1132 9.04926C84.896 9.27438 84.6015 9.40086 84.2943 9.40086H81.9278C81.6044 9.39656 81.2834 9.45937 80.9837 9.58558C80.6841 9.71179 80.4118 9.89886 80.1829 10.1358C79.9747 10.3537 79.8105 10.6126 79.7001 10.8972C79.5897 11.1818 79.5353 11.4864 79.5401 11.7931V14.1055C79.5359 14.4407 79.5964 14.7733 79.718 15.0839C79.8395 15.3946 80.0198 15.6768 80.2482 15.9142C80.4585 16.1302 80.7084 16.3005 80.9831 16.4149C81.2578 16.5293 81.5519 16.5857 81.8479 16.5806H85.7049C86.012 16.5808 86.3064 16.7074 86.5235 16.9325C86.7406 17.1575 86.8627 17.4627 86.8629 17.781C86.8645 17.9404 86.8355 18.0985 86.7776 18.2461C86.7196 18.3937 86.6339 18.5279 86.5255 18.6409C86.417 18.7539 86.288 18.8433 86.1458 18.9041C86.0037 18.9648 85.8513 18.9957 85.6976 18.9948H81.8433Z" fill="#333F47"/>
<path d="M97.0967 17.7908C97.0972 17.9487 97.0676 18.1052 97.0096 18.2513C96.9517 18.3974 96.8664 18.5302 96.7589 18.6421C96.6513 18.7539 96.5235 18.8427 96.3827 18.9033C96.242 18.9638 96.0911 18.995 95.9387 18.995H91.9412C91.3275 19.0024 90.7237 18.834 90.1964 18.5085C89.6818 18.1887 89.2529 17.7399 88.9493 17.2034C88.6349 16.6569 88.4725 16.0309 88.48 15.3947V10.5968C88.4726 9.96053 88.635 9.33456 88.9493 8.78802C89.2559 8.25208 89.6876 7.8046 90.2046 7.48669C90.732 7.16121 91.3357 6.99288 91.9495 7.00023H97.3502C97.6564 7.00275 97.9493 7.13082 98.1647 7.35647C98.3802 7.58212 98.5007 7.88699 98.4999 8.20447C98.4997 8.52276 98.3776 8.82795 98.1605 9.05302C97.9434 9.27809 97.649 9.40464 97.3419 9.4049H92.0009C91.8329 9.40113 91.6659 9.43297 91.5102 9.49844C91.3545 9.56392 91.2134 9.66166 91.0954 9.78568C90.8949 10.0033 90.7854 10.294 90.7905 10.5949V11.7953H93.81C93.9622 11.7954 94.1129 11.8266 94.2534 11.8871C94.394 11.9476 94.5217 12.0362 94.6292 12.1478C94.7368 12.2595 94.822 12.392 94.8802 12.5378C94.9383 12.6836 94.9681 12.8398 94.968 12.9976C94.9678 13.3159 94.8457 13.6211 94.6286 13.8462C94.4115 14.0712 94.1171 14.1978 93.81 14.198H90.7905V15.3347C90.787 15.5091 90.8177 15.6824 90.8808 15.8441C90.944 16.0058 91.0382 16.1525 91.1579 16.2752C91.3681 16.4829 91.649 16.5962 91.9394 16.5903H95.9369C96.244 16.5903 96.5385 16.7168 96.7557 16.9419C96.9729 17.1671 97.0949 17.4724 97.0949 17.7908H97.0967Z" fill="#333F47"/>
<path d="M70.4467 7.00008C70.6683 6.9974 70.8855 7.06373 71.0703 7.19047C71.2584 7.31772 71.4075 7.49806 71.5 7.71025C71.5 7.71025 73.9805 11.6742 74.5507 12.9975C74.9429 13.9113 75.5242 15.9409 75.9172 17.3841C75.9684 17.5717 75.9768 17.769 75.9419 17.9606C75.9071 18.1521 75.8298 18.3327 75.7163 18.488C75.6027 18.6434 75.4559 18.7693 75.2875 18.856C75.119 18.9426 74.9335 18.9875 74.7454 18.9872C74.4793 18.9874 74.2205 18.8971 74.0086 18.7301C73.7968 18.5632 73.6437 18.3288 73.5727 18.0629C73.2054 16.6654 72.4827 14.0646 72.0226 12.9975C71.8802 12.6662 71.1281 11.4391 70.7167 10.7765C70.688 10.7293 70.6482 10.6904 70.6011 10.6635C70.5539 10.6365 70.501 10.6224 70.4472 10.6224C70.3933 10.6224 70.3404 10.6365 70.2933 10.6635C70.2461 10.6904 70.2063 10.7293 70.1776 10.7765C69.7662 11.4429 69.0141 12.6662 68.8718 12.9975C68.4126 14.0665 67.6944 16.6616 67.3216 18.0591C67.2508 18.326 67.0972 18.5615 66.8847 18.7292C66.6721 18.8969 66.4123 18.9876 66.1452 18.9872C65.9564 18.9875 65.77 18.9422 65.6009 18.8552C65.4318 18.7681 65.2844 18.6415 65.1705 18.4854C65.0565 18.3292 64.9791 18.1478 64.9443 17.9554C64.9094 17.763 64.9182 17.5648 64.9697 17.3765C65.3628 15.9333 65.9432 13.9075 66.3353 12.9975C66.9028 11.6742 69.3888 7.71691 69.3888 7.71691C69.4813 7.50472 69.6304 7.32438 69.8186 7.19714C70.0042 7.06777 70.223 6.99912 70.4467 7.00008Z" fill="#333F47"/>
<path d="M70.4439 18.9948C69.8084 18.9948 68.9746 18.7207 68.4034 18.5027C68.2449 18.4415 68.1154 18.3191 68.0421 18.1612C67.9688 18.0032 67.9575 17.8219 68.0103 17.6554L68.2243 16.9786C68.2777 16.8116 68.3914 16.6726 68.5416 16.5908C68.6918 16.5089 68.8668 16.4906 69.0297 16.5397C69.5807 16.6996 70.1997 16.8101 70.4439 16.8101C70.6882 16.8101 71.2842 16.6987 71.8214 16.5388C71.9822 16.4894 72.1552 16.5057 72.3048 16.5843C72.4543 16.6629 72.5692 16.7978 72.6259 16.9614L72.8601 17.6469C72.9181 17.8147 72.9099 17.9995 72.8371 18.161C72.7644 18.3225 72.633 18.4477 72.4716 18.5093C71.9032 18.7226 71.0748 18.9948 70.4439 18.9948Z" fill="url(#paint8_linear_2889_10273)"/>
<path d="M31.658 18.9949C31.3846 18.9982 31.1196 18.8965 30.9142 18.7093C30.6276 18.4561 30.5 18.0592 30.5 17.6689V8.32626C30.5 7.93595 30.6276 7.53898 30.9142 7.28576C31.1196 7.09862 31.3846 6.9969 31.658 7.00017H37.0505C37.6641 6.9939 38.2676 7.16215 38.7953 7.48662C39.3142 7.80368 39.7475 8.25126 40.0553 8.78796C40.3692 9.33467 40.5315 9.96052 40.5246 10.5967C40.53 11.4846 40.2123 12.3419 39.6347 12.9976C40.2126 13.6531 40.5307 14.5104 40.5255 15.3984C40.5326 16.0346 40.3702 16.6605 40.0562 17.2071C39.7488 17.7441 39.3154 18.1918 38.7962 18.5085C38.2685 18.833 37.665 19.0012 37.0514 18.9949H31.658ZM32.816 15.2004V15.9144C32.8159 16.0036 32.8328 16.092 32.8656 16.1744C32.8985 16.2569 32.9467 16.3318 33.0075 16.3949C33.0683 16.4581 33.1405 16.5082 33.22 16.5423C33.2995 16.5765 33.3848 16.5941 33.4708 16.5941H36.9862C37.1562 16.5986 37.3253 16.5672 37.4832 16.5017C37.6411 16.4362 37.7845 16.3381 37.9045 16.2133C38.0044 16.1061 38.0828 15.9795 38.1354 15.8408C38.1881 15.7021 38.2138 15.5541 38.2113 15.4051C38.2155 15.1025 38.105 14.8102 37.9036 14.5911C37.7849 14.4657 37.6426 14.3667 37.4857 14.3002C37.3287 14.2338 37.1603 14.2013 36.9908 14.2046H36.0973C35.9444 14.2049 35.7931 14.1738 35.6519 14.1132C35.5107 14.0526 35.3825 13.9636 35.2746 13.8514C35.1667 13.7392 35.0813 13.606 35.0233 13.4595C34.9653 13.313 34.9358 13.156 34.9365 12.9976C34.9367 12.6793 35.0588 12.3741 35.2759 12.149C35.493 11.9239 35.7875 11.7974 36.0945 11.7971H37.0183C37.3206 11.8012 37.6133 11.6874 37.8384 11.4782C37.9572 11.3673 38.0515 11.2311 38.1148 11.079C38.1782 10.9269 38.2092 10.7624 38.2058 10.5967C38.2083 10.4477 38.1826 10.2996 38.1299 10.161C38.0773 10.0223 37.9988 9.89572 37.899 9.78848C37.7789 9.66376 37.6355 9.56569 37.4776 9.50022C37.3198 9.43476 37.1507 9.40328 36.9807 9.40769H33.4727C33.2985 9.40769 33.1315 9.4794 33.0084 9.60705C32.8852 9.7347 32.816 9.90783 32.816 10.0883V15.1966V15.2004Z" fill="#333F47"/>
<defs>
<linearGradient id="paint0_linear_2889_10273" x1="7.14964" y1="2.92688" x2="18.3749" y2="30.0208" gradientUnits="userSpaceOnUse">
<stop stop-color="#08A94C"/>
<stop offset="1" stop-color="#03441E"/>
</linearGradient>
<linearGradient id="paint1_linear_2889_10273" x1="2.17119" y1="10.2615" x2="14.6858" y2="10.2615" gradientUnits="userSpaceOnUse">
<stop stop-color="#08A94C"/>
<stop offset="1" stop-color="#03441E"/>
</linearGradient>
<linearGradient id="paint2_linear_2889_10273" x1="17.6514" y1="28.3356" x2="14.6743" y2="21.4491" gradientUnits="userSpaceOnUse">
<stop stop-color="#08A94C"/>
<stop offset="1" stop-color="#03441E"/>
</linearGradient>
<linearGradient id="paint3_linear_2889_10273" x1="2.72605" y1="20.7315" x2="10.1085" y2="20.7315" gradientUnits="userSpaceOnUse">
<stop stop-color="#08A94C"/>
<stop offset="1" stop-color="#03441E"/>
</linearGradient>
<linearGradient id="paint4_linear_2889_10273" x1="18.207" y1="12.6765" x2="21.0603" y2="12.6765" gradientUnits="userSpaceOnUse">
<stop stop-color="#08A94C"/>
<stop offset="1" stop-color="#03441E"/>
</linearGradient>
<linearGradient id="paint5_linear_2889_10273" x1="21.8752" y1="3.81619" x2="21.7378" y2="5.39162" gradientUnits="userSpaceOnUse">
<stop stop-color="#F8981D"/>
<stop offset="1" stop-color="#C67A17"/>
</linearGradient>
<linearGradient id="paint6_linear_2889_10273" x1="0.5" y1="13.7133" x2="21.7366" y2="13.7133" gradientUnits="userSpaceOnUse">
<stop stop-color="#F8981D"/>
<stop offset="1" stop-color="#C67A17"/>
</linearGradient>
<linearGradient id="paint7_linear_2889_10273" x1="4.1222" y1="15.4771" x2="1.41806" y2="19.6673" gradientUnits="userSpaceOnUse">
<stop stop-color="#F8981D"/>
<stop offset="1" stop-color="#633D0C"/>
</linearGradient>
<linearGradient id="paint8_linear_2889_10273" x1="70.4366" y1="16.0361" x2="70.4366" y2="19.9116" gradientUnits="userSpaceOnUse">
<stop stop-color="#F8981D"/>
<stop offset="1" stop-color="#C67A17"/>
</linearGradient>
</defs>
</svg>
