<svg width="313" height="234" viewBox="0 0 313 234" fill="none" xmlns="http://www.w3.org/2000/svg">
<mask id="mask0_2578_48459" style="mask-type:alpha" maskUnits="userSpaceOnUse" x="20" y="30" width="277" height="184">
<path d="M268.927 45.8012L267.201 42.9934C252.643 19.3083 250.449 36.0795 222.71 37.8125C219.139 38.026 215.589 38.4997 212.088 39.2299C186.862 44.5634 167.294 24.6672 149.721 31.4693C144.346 45.6561 152.131 49.3366 141.973 60.5947C128.759 75.2518 106.327 75.7153 86.6025 75.104C66.8781 74.4928 44.4262 75.0167 31.2788 89.7276C23.0424 98.9436 20.4224 112.042 21.0875 124.382C22.8476 157.055 45.9042 186.268 75.222 200.784C104.54 215.3 139.044 216.603 171.157 210.188C216.114 201.241 258.868 176.669 284.565 138.717C310.262 100.764 289.485 86.7295 268.927 45.8012Z" fill="url(#paint0_linear_2578_48459)"/>
</mask>
<g mask="url(#mask0_2578_48459)">
<path d="M-184.771 285.526C-209.601 277.083 -233.739 266.724 -256.968 254.543C-258.933 253.518 -261.113 252.129 -261.311 249.93C-261.51 247.731 -259.544 245.946 -257.645 244.788C-238.721 233.215 -212.894 244.11 -192.516 235.265C-187.562 233.116 -182.608 228.652 -183.4 223.361C-184.342 217.013 -192.186 214.764 -198.527 213.921L-235.583 208.961C-241.38 208.184 -248.794 205.654 -248.612 199.785C-248.497 195.255 -243.658 192.494 -239.381 190.923C-224.796 185.527 -209.335 182.892 -193.788 183.153C-188.982 183.235 -183.483 183.318 -180.263 179.747C-175.573 174.506 -180.032 165.627 -186.406 162.668C-192.78 159.708 -200.178 160.337 -207.097 159.097C-214.017 157.857 -221.53 153.343 -221.811 146.317C-205.297 136.893 -184.854 141.621 -165.88 142.299C-142.463 143.159 -119.394 137.339 -96.2915 133.52C-15.854 119.979 71.0073 127.882 142.544 88.6654C150.487 84.3006 159.057 77.8362 159.057 68.8256C159.057 66.2133 158.314 63.5845 158.793 61.0054C159.228 59.3412 160.005 57.7861 161.074 56.4396C162.143 55.0931 163.481 53.9846 165.002 53.1851C180.773 43.662 200.391 56.0784 218.787 57.0043C228.249 57.4838 237.877 54.8054 247.124 56.8721C256.372 58.9387 264.992 69.0901 260.517 77.4393C258.509 80.6515 255.478 83.0921 251.913 84.3668C233.748 92.2035 211.917 85.6729 193.472 92.9309C187.692 95.196 181.747 100.288 182.804 106.405C183.861 112.523 190.846 115.218 196.907 115.714C214.328 117.152 232.361 108.505 248.891 114.193C254.06 115.962 258.948 119.351 261.21 124.327C263.473 129.304 262.399 135.901 257.908 139.042C252.293 142.861 244.779 139.951 238.009 140.084C231.238 140.216 223.906 148.797 229.306 152.88C230.315 153.544 231.433 154.025 232.609 154.302L318.711 179.995C324.474 181.648 330.848 183.93 333.49 189.336C336.793 195.949 332.12 204.431 325.465 207.704C318.81 210.978 310.949 210.383 303.634 209.159C272.489 203.984 239.809 189.22 210.877 201.868C221.308 208.756 233.808 211.796 246.233 210.465C242.666 217.277 233.666 219.36 226.069 218.17C218.473 216.979 211.438 213.392 203.892 211.887C198.327 210.814 192.602 210.886 187.066 212.1C181.529 213.314 176.298 215.643 171.69 218.947C167.991 221.642 164.656 224.998 160.412 226.684C155.837 228.503 150.751 228.189 145.847 227.858L64.2532 222.237" fill="#EBEEF2"/>
<path d="M208.152 125.761H157.275V176.632H208.152V125.761Z" fill="#7E93A8"/>
<path d="M201.886 124.195H203.66V117.794H201.886V124.195Z" fill="#C7C7C7"/>
<path d="M196.868 124.195H198.642V117.794H196.868V124.195Z" fill="#C7C7C7"/>
<path d="M191.851 124.195H193.625V117.794H191.851V124.195Z" fill="#C7C7C7"/>
<path d="M186.844 124.195H188.618V117.794H186.844V124.195Z" fill="#C7C7C7"/>
<path d="M181.826 124.195H183.6V117.794H181.826V124.195Z" fill="#C7C7C7"/>
<path d="M176.809 124.195H178.583V117.794H176.809V124.195Z" fill="#C7C7C7"/>
<path d="M171.803 124.195H173.577V117.794H171.803V124.195Z" fill="#C7C7C7"/>
<path d="M166.784 124.195H168.559V117.794H166.784V124.195Z" fill="#C7C7C7"/>
<path d="M161.767 124.195H163.541V117.794H161.767V124.195Z" fill="#C7C7C7"/>
<path d="M161.174 125.761H164.14V123.349H161.174V125.761Z" fill="#7E93A8"/>
<path opacity="0.1" d="M161.174 125.761H164.14V123.349H161.174V125.761Z" fill="black"/>
<path d="M166.186 125.761H169.153V123.349H166.186V125.761Z" fill="#7E93A8"/>
<path opacity="0.1" d="M166.186 125.761H169.153V123.349H166.186V125.761Z" fill="black"/>
<path d="M171.203 125.761H174.17V123.349H171.203V125.761Z" fill="#7E93A8"/>
<path opacity="0.1" d="M171.203 125.761H174.17V123.349H171.203V125.761Z" fill="black"/>
<path d="M176.216 125.761H179.182V123.349H176.216V125.761Z" fill="#7E93A8"/>
<path opacity="0.1" d="M176.216 125.761H179.182V123.349H176.216V125.761Z" fill="black"/>
<path d="M181.228 125.761H184.195V123.349H181.228V125.761Z" fill="#7E93A8"/>
<path opacity="0.1" d="M181.228 125.761H184.195V123.349H181.228V125.761Z" fill="black"/>
<path d="M186.245 125.761H189.212V123.349H186.245V125.761Z" fill="#7E93A8"/>
<path opacity="0.1" d="M186.245 125.761H189.212V123.349H186.245V125.761Z" fill="black"/>
<path d="M191.258 125.761H194.224V123.349H191.258V125.761Z" fill="#7E93A8"/>
<path opacity="0.1" d="M191.258 125.761H194.224V123.349H191.258V125.761Z" fill="black"/>
<path d="M196.27 125.761H199.237V123.349H196.27V125.761Z" fill="#7E93A8"/>
<path opacity="0.1" d="M196.27 125.761H199.237V123.349H196.27V125.761Z" fill="black"/>
<path d="M201.286 125.761H204.253V123.349H201.286V125.761Z" fill="#7E93A8"/>
<path opacity="0.1" d="M201.286 125.761H204.253V123.349H201.286V125.761Z" fill="black"/>
<path d="M209.718 170.361V172.135H216.12V170.361H209.718Z" fill="#C7C7C7"/>
<path d="M209.718 165.351V167.125H216.12V165.351H209.718Z" fill="#C7C7C7"/>
<path d="M209.718 160.339V162.113H216.12V160.339H209.718Z" fill="#C7C7C7"/>
<path d="M209.718 155.322V157.096H216.12V155.322H209.718Z" fill="#C7C7C7"/>
<path d="M209.718 150.308V152.083H216.12V150.308H209.718Z" fill="#C7C7C7"/>
<path d="M209.718 145.293V147.067H216.12V145.293H209.718Z" fill="#C7C7C7"/>
<path d="M209.718 140.282V142.056H216.12V140.282H209.718Z" fill="#C7C7C7"/>
<path d="M209.723 135.269V137.043H216.125V135.269H209.723Z" fill="#C7C7C7"/>
<path d="M209.718 130.254V132.028H216.12V130.254H209.718Z" fill="#C7C7C7"/>
<path d="M208.153 129.661V132.627H210.565V129.661H208.153Z" fill="#7E93A8"/>
<path opacity="0.1" d="M208.153 129.661V132.627H210.565V129.661H208.153Z" fill="black"/>
<path d="M208.153 134.673V137.639H210.565V134.673H208.153Z" fill="#7E93A8"/>
<path opacity="0.1" d="M208.153 134.673V137.639H210.565V134.673H208.153Z" fill="black"/>
<path d="M208.153 139.691V142.657H210.565V139.691H208.153Z" fill="#7E93A8"/>
<path opacity="0.1" d="M208.153 139.691V142.657H210.565V139.691H208.153Z" fill="black"/>
<path d="M208.153 144.699V147.665H210.565V144.699H208.153Z" fill="#7E93A8"/>
<path opacity="0.1" d="M208.153 144.699V147.665H210.565V144.699H208.153Z" fill="black"/>
<path d="M208.153 149.716V152.682H210.565V149.716H208.153Z" fill="#7E93A8"/>
<path opacity="0.1" d="M208.153 149.716V152.682H210.565V149.716H208.153Z" fill="black"/>
<path d="M208.153 154.729V157.695H210.565V154.729H208.153Z" fill="#7E93A8"/>
<path opacity="0.1" d="M208.153 154.729V157.695H210.565V154.729H208.153Z" fill="black"/>
<path d="M208.153 159.74V162.706H210.565V159.74H208.153Z" fill="#7E93A8"/>
<path opacity="0.1" d="M208.153 159.74V162.706H210.565V159.74H208.153Z" fill="black"/>
<path d="M208.153 164.757V167.723H210.565V164.757H208.153Z" fill="#7E93A8"/>
<path opacity="0.1" d="M208.153 164.757V167.723H210.565V164.757H208.153Z" fill="black"/>
<path d="M208.153 169.769V172.735H210.565V169.769H208.153Z" fill="#7E93A8"/>
<path opacity="0.1" d="M208.153 169.769V172.735H210.565V169.769H208.153Z" fill="black"/>
<path d="M163.547 178.196H161.773V184.597H163.547V178.196Z" fill="#C7C7C7"/>
<path d="M168.559 178.196H166.785V184.597H168.559V178.196Z" fill="#C7C7C7"/>
<path d="M173.571 178.196H171.797V184.597H173.571V178.196Z" fill="#C7C7C7"/>
<path d="M178.589 178.196H176.815V184.597H178.589V178.196Z" fill="#C7C7C7"/>
<path d="M183.599 178.196H181.825V184.597H183.599V178.196Z" fill="#C7C7C7"/>
<path d="M188.613 178.196H186.838V184.597H188.613V178.196Z" fill="#C7C7C7"/>
<path d="M193.63 178.196H191.856V184.597H193.63V178.196Z" fill="#C7C7C7"/>
<path d="M198.642 178.196H196.868V184.597H198.642V178.196Z" fill="#C7C7C7"/>
<path d="M203.654 178.196H201.88V184.597H203.654V178.196Z" fill="#C7C7C7"/>
<path d="M204.254 176.633H201.288V179.046H204.254V176.633Z" fill="#7E93A8"/>
<path opacity="0.1" d="M204.254 176.633H201.288V179.046H204.254V176.633Z" fill="black"/>
<path d="M199.241 176.633H196.275V179.046H199.241V176.633Z" fill="#7E93A8"/>
<path opacity="0.1" d="M199.241 176.633H196.275V179.046H199.241V176.633Z" fill="black"/>
<path d="M194.224 176.633H191.257V179.046H194.224V176.633Z" fill="#7E93A8"/>
<path opacity="0.1" d="M194.224 176.633H191.257V179.046H194.224V176.633Z" fill="black"/>
<path d="M189.212 176.633H186.246V179.046H189.212V176.633Z" fill="#7E93A8"/>
<path opacity="0.1" d="M189.212 176.633H186.246V179.046H189.212V176.633Z" fill="black"/>
<path d="M184.199 176.633H181.233V179.046H184.199V176.633Z" fill="#7E93A8"/>
<path opacity="0.1" d="M184.199 176.633H181.233V179.046H184.199V176.633Z" fill="black"/>
<path d="M179.183 176.633H176.216V179.046H179.183V176.633Z" fill="#7E93A8"/>
<path opacity="0.1" d="M179.183 176.633H176.216V179.046H179.183V176.633Z" fill="black"/>
<path d="M174.171 176.633H171.204V179.046H174.171V176.633Z" fill="#7E93A8"/>
<path opacity="0.1" d="M174.171 176.633H171.204V179.046H174.171V176.633Z" fill="black"/>
<path d="M169.158 176.633H166.192V179.046H169.158V176.633Z" fill="#7E93A8"/>
<path opacity="0.1" d="M169.158 176.633H166.192V179.046H169.158V176.633Z" fill="black"/>
<path d="M164.141 176.633H161.174V179.046H164.141V176.633Z" fill="#7E93A8"/>
<path opacity="0.1" d="M164.141 176.633H161.174V179.046H164.141V176.633Z" fill="black"/>
<path d="M155.71 131.998V130.224H149.308V131.998H155.71Z" fill="#C7C7C7"/>
<path d="M155.71 137.01V135.236H149.308V137.01H155.71Z" fill="#C7C7C7"/>
<path d="M155.71 142.023V140.249H149.308V142.023H155.71Z" fill="#C7C7C7"/>
<path d="M155.71 147.038V145.264H149.308V147.038H155.71Z" fill="#C7C7C7"/>
<path d="M155.71 152.051V150.277H149.308V152.051H155.71Z" fill="#C7C7C7"/>
<path d="M155.71 157.062V155.288H149.308V157.062H155.71Z" fill="#C7C7C7"/>
<path d="M155.705 162.078V160.304H149.303V162.078H155.705Z" fill="#C7C7C7"/>
<path d="M155.71 167.091V165.317H149.308V167.091H155.71Z" fill="#C7C7C7"/>
<path d="M155.71 172.101V170.327H149.308V172.101H155.71Z" fill="#C7C7C7"/>
<path d="M157.275 172.7V169.734H154.863V172.7H157.275Z" fill="#7E93A8"/>
<path opacity="0.1" d="M157.275 172.7V169.734H154.863V172.7H157.275Z" fill="black"/>
<path d="M157.275 167.69V164.724H154.863V167.69H157.275Z" fill="#7E93A8"/>
<path opacity="0.1" d="M157.275 167.69V164.724H154.863V167.69H157.275Z" fill="black"/>
<path d="M157.275 162.673V159.707H154.863V162.673H157.275Z" fill="#7E93A8"/>
<path opacity="0.1" d="M157.275 162.673V159.707H154.863V162.673H157.275Z" fill="black"/>
<path d="M157.28 157.666V154.7H154.867V157.666H157.28Z" fill="#7E93A8"/>
<path opacity="0.1" d="M157.28 157.666V154.7H154.867V157.666H157.28Z" fill="black"/>
<path d="M157.275 152.65V149.684H154.863V152.65H157.275Z" fill="#7E93A8"/>
<path opacity="0.1" d="M157.275 152.65V149.684H154.863V152.65H157.275Z" fill="black"/>
<path d="M157.275 147.634V144.668H154.863V147.634H157.275Z" fill="#7E93A8"/>
<path opacity="0.1" d="M157.275 147.634V144.668H154.863V147.634H157.275Z" fill="black"/>
<path d="M157.275 142.62V139.654H154.863V142.62H157.275Z" fill="#7E93A8"/>
<path opacity="0.1" d="M157.275 142.62V139.654H154.863V142.62H157.275Z" fill="black"/>
<path d="M157.275 137.609V134.643H154.863V137.609H157.275Z" fill="#7E93A8"/>
<path opacity="0.1" d="M157.275 137.609V134.643H154.863V137.609H157.275Z" fill="black"/>
<path d="M157.275 132.592V129.626H154.863V132.592H157.275Z" fill="#7E93A8"/>
<path opacity="0.1" d="M157.275 132.592V129.626H154.863V132.592H157.275Z" fill="black"/>
<path opacity="0.1" d="M162.767 129.964C162.767 130.315 162.663 130.658 162.468 130.95C162.273 131.242 161.996 131.469 161.672 131.603C161.348 131.738 160.991 131.773 160.647 131.704C160.303 131.636 159.987 131.467 159.738 131.219C159.49 130.971 159.321 130.655 159.253 130.311C159.184 129.966 159.22 129.61 159.354 129.286C159.488 128.961 159.716 128.684 160.007 128.489C160.299 128.294 160.642 128.19 160.993 128.19C161.463 128.192 161.914 128.379 162.246 128.712C162.578 129.044 162.766 129.494 162.767 129.964Z" fill="black"/>
<path d="M196.422 163.644H169.006V155.203H170.78V161.87H194.648V155.632H196.422V163.644Z" fill="white"/>
<path d="M178.498 149.588H186.923V138.752H178.498V149.588Z" fill="white"/>
<path d="M191.228 149.588H174.198L182.713 158.39L191.228 149.588Z" fill="white"/>
<path d="M241.197 151.411H216.12V150.988H241.055L264.149 134.072H284.525V134.496H264.285L241.197 151.411Z" fill="#DBDBDB"/>
<path d="M285.999 135.999C285.664 135.999 285.336 135.899 285.057 135.713C284.779 135.527 284.561 135.262 284.433 134.952C284.305 134.643 284.271 134.302 284.337 133.973C284.402 133.644 284.563 133.342 284.8 133.105C285.038 132.868 285.34 132.707 285.668 132.641C285.997 132.576 286.338 132.61 286.648 132.738C286.958 132.866 287.222 133.083 287.409 133.362C287.595 133.641 287.694 133.969 287.694 134.304C287.694 134.753 287.516 135.184 287.198 135.502C286.88 135.82 286.449 135.999 285.999 135.999ZM285.999 132.987C285.743 132.987 285.493 133.063 285.28 133.205C285.067 133.348 284.902 133.55 284.804 133.786C284.706 134.023 284.68 134.283 284.73 134.534C284.78 134.785 284.903 135.015 285.084 135.196C285.265 135.377 285.496 135.5 285.747 135.55C285.998 135.6 286.258 135.574 286.494 135.477C286.731 135.379 286.933 135.213 287.075 135C287.217 134.787 287.293 134.537 287.293 134.281C287.293 133.938 287.157 133.609 286.914 133.366C286.671 133.124 286.342 132.987 285.999 132.987Z" fill="#DBDBDB"/>
<path d="M238.405 146.468H216.12V146.044H238.264L261.358 129.128H272.659V129.552H261.493L238.405 146.468Z" fill="#DBDBDB"/>
<path d="M274.133 131.055C273.798 131.055 273.47 130.956 273.191 130.77C272.912 130.584 272.695 130.319 272.567 130.009C272.439 129.699 272.405 129.359 272.47 129.03C272.536 128.701 272.697 128.399 272.934 128.162C273.171 127.925 273.473 127.763 273.802 127.698C274.131 127.633 274.472 127.666 274.782 127.795C275.091 127.923 275.356 128.14 275.542 128.419C275.729 128.698 275.828 129.025 275.828 129.36C275.828 129.81 275.65 130.241 275.332 130.559C275.014 130.877 274.583 131.055 274.133 131.055ZM274.133 128.05C273.877 128.05 273.626 128.126 273.414 128.268C273.201 128.411 273.035 128.613 272.937 128.85C272.839 129.086 272.814 129.347 272.864 129.598C272.915 129.849 273.039 130.08 273.22 130.26C273.402 130.441 273.633 130.564 273.884 130.613C274.135 130.662 274.396 130.636 274.632 130.537C274.868 130.438 275.07 130.272 275.212 130.058C275.353 129.845 275.428 129.594 275.427 129.338C275.427 129.168 275.393 129 275.328 128.844C275.263 128.687 275.168 128.545 275.048 128.425C274.927 128.305 274.785 128.211 274.628 128.146C274.471 128.082 274.303 128.049 274.133 128.05Z" fill="#DBDBDB"/>
<path d="M266.918 155.976H216.12V156.4H266.918V155.976Z" fill="#DBDBDB"/>
<path d="M268.421 157.904C268.085 157.904 267.758 157.804 267.479 157.618C267.2 157.432 266.983 157.167 266.855 156.857C266.726 156.548 266.693 156.207 266.758 155.878C266.823 155.549 266.985 155.247 267.222 155.01C267.459 154.773 267.761 154.612 268.09 154.546C268.419 154.481 268.76 154.514 269.069 154.643C269.379 154.771 269.644 154.988 269.83 155.267C270.016 155.546 270.116 155.873 270.116 156.209C270.116 156.658 269.937 157.089 269.619 157.407C269.301 157.725 268.87 157.904 268.421 157.904ZM268.421 154.898C268.164 154.897 267.914 154.972 267.7 155.113C267.487 155.255 267.32 155.456 267.221 155.693C267.122 155.929 267.096 156.189 267.145 156.441C267.194 156.692 267.317 156.923 267.498 157.105C267.679 157.286 267.909 157.41 268.16 157.46C268.412 157.511 268.672 157.485 268.909 157.388C269.146 157.29 269.348 157.124 269.49 156.911C269.633 156.698 269.709 156.448 269.709 156.192C269.707 155.85 269.571 155.523 269.33 155.28C269.089 155.038 268.762 154.901 268.421 154.898Z" fill="#DBDBDB"/>
<path d="M300.261 172.922H255.719L255.673 172.899L234.055 161.441H216.12V161.018H234.162L255.826 172.498H300.261V172.922Z" fill="#DBDBDB"/>
<path d="M281.321 179.988H255.69L255.639 179.96L231.738 166.452H216.12V166.028H231.851L231.896 166.056L255.798 179.565H281.321V179.988Z" fill="#DBDBDB"/>
<path d="M282.823 181.491C282.488 181.491 282.16 181.392 281.882 181.206C281.603 181.02 281.385 180.755 281.257 180.445C281.129 180.135 281.095 179.795 281.161 179.466C281.226 179.137 281.388 178.835 281.625 178.598C281.862 178.361 282.164 178.2 282.493 178.134C282.821 178.069 283.162 178.102 283.472 178.231C283.782 178.359 284.046 178.576 284.233 178.855C284.419 179.134 284.518 179.461 284.518 179.797C284.518 180.246 284.34 180.677 284.022 180.995C283.704 181.313 283.273 181.491 282.823 181.491ZM282.823 178.486C282.567 178.486 282.317 178.562 282.104 178.704C281.892 178.846 281.726 179.048 281.628 179.284C281.53 179.521 281.504 179.781 281.554 180.032C281.604 180.283 281.727 180.513 281.908 180.694C282.089 180.875 282.32 180.999 282.571 181.048C282.822 181.098 283.082 181.073 283.318 180.975C283.555 180.877 283.757 180.711 283.899 180.498C284.041 180.286 284.117 180.035 284.117 179.78C284.117 179.436 283.981 179.107 283.738 178.865C283.496 178.622 283.166 178.486 282.823 178.486Z" fill="#DBDBDB"/>
<path d="M149.308 146.367H119.14L119.083 146.322L96.0462 129.446H75.8117V129.022H96.1874L96.2439 129.068L119.275 145.944H149.308V146.367Z" fill="#DBDBDB"/>
<path d="M74.3325 130.948C73.9972 130.948 73.6695 130.849 73.3907 130.663C73.112 130.477 72.8947 130.212 72.7664 129.902C72.6381 129.592 72.6045 129.252 72.6699 128.923C72.7353 128.594 72.8968 128.292 73.1339 128.055C73.3709 127.818 73.673 127.657 74.0018 127.591C74.3306 127.526 74.6715 127.559 74.9812 127.688C75.291 127.816 75.5557 128.033 75.742 128.312C75.9282 128.591 76.0277 128.918 76.0277 129.254C76.0277 129.703 75.8491 130.134 75.5312 130.452C75.2133 130.77 74.7821 130.948 74.3325 130.948ZM74.3325 127.943C74.0766 127.943 73.8264 128.019 73.6136 128.161C73.4008 128.303 73.235 128.505 73.137 128.741C73.0391 128.978 73.0135 129.238 73.0634 129.489C73.1133 129.74 73.2366 129.97 73.4175 130.151C73.5985 130.332 73.8291 130.456 74.0801 130.506C74.3311 130.555 74.5912 130.53 74.8277 130.432C75.0641 130.334 75.2662 130.168 75.4084 129.955C75.5506 129.743 75.6265 129.492 75.6265 129.237C75.6265 128.893 75.4901 128.564 75.2475 128.322C75.0048 128.079 74.6757 127.943 74.3325 127.943Z" fill="#DBDBDB"/>
<path d="M149.307 141.351H121.931L121.874 141.311L98.8371 124.435H87.6774V124.012H98.9784L99.0349 124.051L122.066 140.927H149.307V141.351Z" fill="#DBDBDB"/>
<path d="M86.1972 125.937C85.8619 125.937 85.5342 125.838 85.2554 125.652C84.9766 125.465 84.7594 125.201 84.6311 124.891C84.5028 124.581 84.4692 124.24 84.5346 123.912C84.6 123.583 84.7615 123.281 84.9985 123.044C85.2356 122.807 85.5376 122.645 85.8665 122.58C86.1953 122.515 86.5361 122.548 86.8459 122.676C87.1556 122.805 87.4204 123.022 87.6066 123.301C87.7929 123.579 87.8923 123.907 87.8923 124.242C87.8923 124.692 87.7137 125.123 87.3958 125.441C87.0779 125.759 86.6468 125.937 86.1972 125.937ZM86.1972 122.932C85.941 122.932 85.6906 123.008 85.4777 123.15C85.2648 123.292 85.0989 123.495 85.0012 123.732C84.9034 123.968 84.8781 124.229 84.9285 124.48C84.9789 124.731 85.1027 124.961 85.2842 125.142C85.4658 125.323 85.6968 125.446 85.9482 125.495C86.1996 125.544 86.4599 125.518 86.6963 125.419C86.9326 125.32 87.1343 125.154 87.2758 124.94C87.4173 124.727 87.4923 124.476 87.4911 124.22C87.4926 124.049 87.4602 123.88 87.3958 123.722C87.3314 123.564 87.2362 123.42 87.1158 123.3C86.9955 123.179 86.8523 123.083 86.6946 123.018C86.5369 122.953 86.3678 122.919 86.1972 122.92V122.932Z" fill="#DBDBDB"/>
<path d="M149.308 150.987H65.166V151.411H149.308V150.987Z" fill="#DBDBDB"/>
<path d="M63.6631 152.914C63.3279 152.914 63.0001 152.815 62.7214 152.629C62.4426 152.442 62.2253 152.178 62.097 151.868C61.9687 151.558 61.9352 151.217 62.0006 150.889C62.066 150.56 62.2274 150.258 62.4645 150.021C62.7016 149.784 63.0036 149.622 63.3324 149.557C63.6613 149.492 64.0021 149.525 64.3118 149.653C64.6216 149.782 64.8863 149.999 65.0726 150.278C65.2589 150.556 65.3583 150.884 65.3583 151.219C65.3583 151.669 65.1797 152.1 64.8618 152.418C64.5439 152.736 64.1127 152.914 63.6631 152.914ZM63.6631 149.909C63.4067 149.907 63.1558 149.983 62.9421 150.124C62.7285 150.266 62.5617 150.468 62.4631 150.705C62.3645 150.941 62.3384 151.202 62.3881 151.453C62.4379 151.705 62.5612 151.936 62.7425 152.117C62.9238 152.299 63.1549 152.422 63.4064 152.472C63.658 152.521 63.9186 152.495 64.1553 152.397C64.3919 152.298 64.594 152.131 64.7357 151.918C64.8775 151.704 64.9526 151.453 64.9514 151.197C64.95 150.856 64.8138 150.529 64.5725 150.288C64.3312 150.046 64.0044 149.91 63.6631 149.909Z" fill="#DBDBDB"/>
<path d="M104.612 167.875H93.978V167.451H104.511L126.175 155.965H149.308V156.389H126.276L104.612 167.875Z" fill="#DBDBDB"/>
<path d="M92.4694 169.379C92.1341 169.379 91.8064 169.28 91.5276 169.093C91.2489 168.907 91.0316 168.643 90.9033 168.333C90.775 168.023 90.7414 167.682 90.8068 167.354C90.8722 167.025 91.0337 166.723 91.2708 166.486C91.5078 166.249 91.8099 166.087 92.1387 166.022C92.4675 165.956 92.8084 165.99 93.1181 166.118C93.4279 166.247 93.6926 166.464 93.8789 166.743C94.0651 167.021 94.1645 167.349 94.1645 167.684C94.1645 168.134 93.986 168.565 93.668 168.883C93.3501 169.201 92.919 169.379 92.4694 169.379ZM92.4694 166.373C92.2135 166.373 91.9633 166.449 91.7505 166.591C91.5377 166.734 91.3719 166.936 91.2739 167.172C91.176 167.409 91.1504 167.669 91.2003 167.92C91.2502 168.171 91.3735 168.401 91.5544 168.582C91.7354 168.763 91.966 168.886 92.217 168.936C92.468 168.986 92.7281 168.96 92.9646 168.863C93.201 168.765 93.4031 168.599 93.5453 168.386C93.6875 168.173 93.7634 167.923 93.7634 167.667C93.7634 167.324 93.627 166.995 93.3844 166.752C93.1417 166.51 92.8126 166.373 92.4694 166.373Z" fill="#DBDBDB"/>
<path d="M104.646 174.944H79.0102V174.52H104.533L128.486 160.983H149.308V161.407H128.599L104.646 174.944Z" fill="#DBDBDB"/>
<path d="M77.5069 176.445C77.1716 176.445 76.8439 176.346 76.5651 176.159C76.2864 175.973 76.0691 175.708 75.9408 175.399C75.8125 175.089 75.7789 174.748 75.8443 174.419C75.9097 174.091 76.0712 173.789 76.3082 173.552C76.5453 173.315 76.8474 173.153 77.1762 173.088C77.505 173.022 77.8458 173.056 78.1556 173.184C78.4653 173.312 78.7301 173.53 78.9164 173.808C79.1026 174.087 79.202 174.415 79.202 174.75C79.202 175.2 79.0234 175.631 78.7055 175.949C78.3876 176.266 77.9565 176.445 77.5069 176.445ZM77.5069 173.439C77.251 173.439 77.0008 173.515 76.788 173.657C76.5752 173.8 76.4094 174.002 76.3114 174.238C76.2135 174.474 76.1879 174.735 76.2378 174.986C76.2877 175.237 76.4109 175.467 76.5919 175.648C76.7729 175.829 77.0034 175.952 77.2545 176.002C77.5055 176.052 77.7656 176.026 78.0021 175.928C78.2385 175.831 78.4406 175.665 78.5828 175.452C78.725 175.239 78.8009 174.989 78.8009 174.733C78.8009 174.39 78.6645 174.061 78.4219 173.818C78.1792 173.576 77.8501 173.439 77.5069 173.439Z" fill="#DBDBDB"/>
<path d="M187.957 117.795H187.534V106.275L187.579 106.218L197.512 92.6645V88.8057H197.936V92.8001L197.891 92.8566L187.957 106.41V117.795Z" fill="#DBDBDB"/>
<path d="M197.722 88.9587C197.386 88.9587 197.059 88.8593 196.78 88.6731C196.501 88.4868 196.284 88.2221 196.156 87.9124C196.027 87.6027 195.994 87.2619 196.059 86.9331C196.124 86.6043 196.286 86.3023 196.523 86.0653C196.76 85.8282 197.062 85.6668 197.391 85.6014C197.72 85.536 198.061 85.5696 198.37 85.6979C198.68 85.8262 198.945 86.0434 199.131 86.3221C199.317 86.6009 199.417 86.9286 199.417 87.2638C199.417 87.7133 199.238 88.1444 198.92 88.4623C198.602 88.7801 198.171 88.9587 197.722 88.9587ZM197.722 85.953C197.465 85.953 197.215 86.0291 197.002 86.1715C196.789 86.3139 196.623 86.5163 196.526 86.753C196.428 86.9898 196.403 87.2502 196.453 87.5013C196.503 87.7524 196.627 87.983 196.809 88.1637C196.99 88.3444 197.221 88.4672 197.473 88.5165C197.724 88.5657 197.984 88.5393 198.221 88.4405C198.457 88.3417 198.659 88.175 198.8 87.9615C198.942 87.748 199.017 87.4973 199.016 87.2412C199.016 87.0715 198.982 86.9036 198.917 86.7469C198.852 86.5903 198.757 86.448 198.636 86.3283C198.516 86.2086 198.373 86.1139 198.216 86.0495C198.059 85.9851 197.891 85.9523 197.722 85.953Z" fill="#DBDBDB"/>
<path d="M192.975 117.794H192.551V109.065L192.59 109.009L204.592 92.6299V84.918H205.016V92.7712L204.976 92.8277L192.975 109.201V117.794Z" fill="#DBDBDB"/>
<path d="M204.802 85.1286C204.467 85.1286 204.139 85.0292 203.86 84.843C203.582 84.6568 203.364 84.392 203.236 84.0823C203.108 83.7726 203.074 83.4318 203.14 83.103C203.205 82.7743 203.366 82.4722 203.603 82.2352C203.841 81.9982 204.143 81.8367 204.471 81.7713C204.8 81.7059 205.141 81.7395 205.451 81.8678C205.761 81.9961 206.025 82.2133 206.212 82.492C206.398 82.7708 206.497 83.0985 206.497 83.4337C206.497 83.8832 206.319 84.3143 206.001 84.6322C205.683 84.9501 205.252 85.1286 204.802 85.1286ZM204.802 82.123C204.546 82.123 204.296 82.1988 204.083 82.341C203.87 82.4832 203.705 82.6852 203.607 82.9216C203.509 83.1581 203.483 83.4182 203.533 83.6692C203.583 83.9201 203.706 84.1507 203.887 84.3316C204.068 84.5126 204.299 84.6358 204.55 84.6857C204.801 84.7356 205.061 84.71 205.297 84.6121C205.534 84.5141 205.736 84.3483 205.878 84.1355C206.02 83.9228 206.096 83.6726 206.096 83.4168C206.096 83.2469 206.063 83.0786 205.998 82.9216C205.933 82.7647 205.837 82.622 205.717 82.5019C205.597 82.3818 205.454 82.2865 205.297 82.2214C205.14 82.1564 204.972 82.123 204.802 82.123Z" fill="#DBDBDB"/>
<path d="M182.945 94.7578H182.521V117.798H182.945V94.7578Z" fill="#DBDBDB"/>
<path d="M182.713 94.9704C182.378 94.9704 182.05 94.871 181.771 94.6848C181.492 94.4986 181.275 94.2338 181.147 93.9241C181.018 93.6144 180.985 93.2736 181.05 92.9448C181.116 92.6161 181.277 92.314 181.514 92.077C181.751 91.84 182.053 91.6785 182.382 91.6131C182.711 91.5477 183.052 91.5813 183.362 91.7096C183.671 91.8379 183.936 92.0551 184.122 92.3339C184.309 92.6126 184.408 92.9403 184.408 93.2755C184.408 93.725 184.229 94.1561 183.912 94.474C183.594 94.7919 183.162 94.9704 182.713 94.9704ZM182.713 91.9648C182.457 91.9636 182.206 92.0387 181.992 92.1804C181.778 92.3222 181.612 92.5242 181.513 92.7608C181.414 92.9975 181.388 93.2581 181.438 93.5096C181.488 93.7611 181.611 93.9921 181.792 94.1734C181.974 94.3547 182.205 94.478 182.456 94.5278C182.708 94.5775 182.968 94.5514 183.205 94.4528C183.442 94.3542 183.644 94.1874 183.786 93.9738C183.927 93.7602 184.002 93.5093 184.001 93.2529C184 92.9117 183.864 92.5849 183.622 92.3437C183.381 92.1024 183.054 91.9662 182.713 91.9648Z" fill="#DBDBDB"/>
<path d="M177.933 117.795H177.509V113.416L169.819 98.9187V85.2349H170.243V98.8113L177.933 113.309V117.795Z" fill="#DBDBDB"/>
<path d="M170.034 85.2991C169.698 85.2991 169.371 85.1996 169.092 85.0134C168.813 84.8272 168.596 84.5624 168.468 84.2527C168.339 83.943 168.306 83.6022 168.371 83.2734C168.437 82.9447 168.598 82.6427 168.835 82.4056C169.072 82.1686 169.374 82.0071 169.703 81.9417C170.032 81.8763 170.373 81.9099 170.682 82.0382C170.992 82.1665 171.257 82.3837 171.443 82.6625C171.629 82.9412 171.729 83.2689 171.729 83.6041C171.729 84.0536 171.55 84.4848 171.232 84.8026C170.914 85.1205 170.483 85.2991 170.034 85.2991ZM170.034 82.2934C169.778 82.2922 169.527 82.3672 169.313 82.5087C169.1 82.6501 168.933 82.8518 168.834 83.0881C168.735 83.3244 168.709 83.5848 168.758 83.8361C168.808 84.0874 168.93 84.3185 169.111 84.5C169.292 84.6815 169.522 84.8053 169.774 84.8557C170.025 84.9061 170.285 84.8808 170.522 84.783C170.759 84.6853 170.961 84.5194 171.104 84.3065C171.246 84.0937 171.322 83.8433 171.322 83.5872C171.321 83.2455 171.185 82.9181 170.943 82.6759C170.702 82.4338 170.375 82.2963 170.034 82.2934Z" fill="#DBDBDB"/>
<path d="M172.915 117.794H172.491V115.732L161.45 96.2007V92.3306H161.874V96.0933L172.915 115.619V117.794Z" fill="#DBDBDB"/>
<path d="M161.665 92.445C161.33 92.445 161.002 92.3456 160.724 92.1594C160.445 91.9732 160.228 91.7084 160.099 91.3987C159.971 91.089 159.937 90.7482 160.003 90.4194C160.068 90.0907 160.23 89.7887 160.467 89.5516C160.704 89.3146 161.006 89.1531 161.335 89.0877C161.664 89.0223 162.004 89.0559 162.314 89.1842C162.624 89.3125 162.889 89.5297 163.075 89.8085C163.261 90.0872 163.361 90.4149 163.361 90.7501C163.361 91.1996 163.182 91.6308 162.864 91.9486C162.546 92.2665 162.115 92.445 161.665 92.445ZM161.665 89.4394C161.408 89.4349 161.155 89.5074 160.939 89.6475C160.723 89.7877 160.553 89.9892 160.452 90.2262C160.352 90.4631 160.324 90.7248 160.372 90.9777C160.421 91.2307 160.544 91.4633 160.726 91.6458C160.908 91.8283 161.14 91.9525 161.393 92.0023C161.645 92.0522 161.907 92.0255 162.145 91.9256C162.382 91.8258 162.584 91.6573 162.725 91.4419C162.867 91.2264 162.94 90.9738 162.937 90.7162C162.931 90.3803 162.795 90.0598 162.558 89.8217C162.321 89.5836 162.001 89.4466 161.665 89.4394Z" fill="#DBDBDB"/>
<path d="M235.116 207.962H130.311V198.922H235.116V207.962ZM130.876 207.397H234.551V199.487H130.876V207.397Z" fill="#DBDBDB"/>
<path d="M193.692 201.164H133.045V205.712H193.692V201.164Z" fill="#7E93A8"/>
<path opacity="0.2" d="M139.594 205.717H136.492L133.045 201.164H136.153L139.594 205.717Z" fill="white"/>
<path opacity="0.2" d="M146.144 205.717H143.042L139.595 201.164H142.703L146.144 205.717Z" fill="white"/>
<path opacity="0.2" d="M152.693 205.717H149.591L146.144 201.164H149.252L152.693 205.717Z" fill="white"/>
<path opacity="0.2" d="M159.241 205.717H156.139L152.692 201.164H155.8L159.241 205.717Z" fill="white"/>
<path opacity="0.2" d="M165.79 205.717H162.688L159.241 201.164H162.349L165.79 205.717Z" fill="white"/>
<path opacity="0.2" d="M172.338 205.717H169.236L165.79 201.164H168.897L172.338 205.717Z" fill="white"/>
<path opacity="0.2" d="M178.888 205.717H175.786L172.339 201.164H175.447L178.888 205.717Z" fill="white"/>
<path opacity="0.2" d="M185.437 205.717H182.335L178.888 201.164H181.996L185.437 205.717Z" fill="white"/>
<path opacity="0.2" d="M191.986 205.717H188.884L185.437 201.164H188.545L191.986 205.717Z" fill="white"/>
<path opacity="0.2" d="M193.698 201.164V203.423L191.986 201.164H193.698Z" fill="white"/>
<path d="M173.198 195.803C172.809 195.803 172.435 195.648 172.159 195.372C171.884 195.097 171.729 194.723 171.729 194.334V192.526C171.729 192.489 171.736 192.452 171.751 192.418C171.765 192.384 171.786 192.354 171.812 192.328C171.838 192.302 171.87 192.282 171.904 192.268C171.938 192.255 171.975 192.248 172.012 192.249C172.048 192.248 172.085 192.255 172.119 192.268C172.154 192.282 172.185 192.302 172.211 192.328C172.237 192.354 172.258 192.384 172.273 192.418C172.287 192.452 172.294 192.489 172.294 192.526V194.339C172.312 194.567 172.415 194.78 172.584 194.936C172.752 195.091 172.972 195.177 173.201 195.177C173.43 195.177 173.65 195.091 173.818 194.936C173.987 194.78 174.09 194.567 174.108 194.339V192.526C174.108 192.451 174.138 192.379 174.191 192.326C174.244 192.273 174.316 192.243 174.39 192.243C174.465 192.243 174.537 192.273 174.59 192.326C174.643 192.379 174.673 192.451 174.673 192.526V194.339C174.672 194.532 174.634 194.723 174.559 194.901C174.484 195.079 174.376 195.24 174.239 195.376C174.102 195.512 173.939 195.62 173.761 195.693C173.582 195.766 173.391 195.803 173.198 195.803Z" fill="#C7C7C7"/>
<path d="M177.062 194.424H176.435V195.526C176.435 195.601 176.405 195.673 176.352 195.726C176.299 195.779 176.228 195.808 176.153 195.808C176.078 195.808 176.006 195.779 175.953 195.726C175.9 195.673 175.87 195.601 175.87 195.526V192.526C175.87 192.489 175.877 192.452 175.892 192.418C175.906 192.385 175.927 192.354 175.953 192.328C175.98 192.302 176.011 192.282 176.045 192.268C176.079 192.255 176.116 192.248 176.153 192.249H177.062C177.212 192.238 177.362 192.258 177.503 192.308C177.644 192.358 177.774 192.436 177.884 192.538C177.993 192.64 178.081 192.764 178.141 192.901C178.2 193.039 178.231 193.187 178.231 193.337C178.231 193.486 178.2 193.635 178.141 193.772C178.081 193.909 177.993 194.033 177.884 194.135C177.774 194.237 177.644 194.315 177.503 194.365C177.362 194.415 177.212 194.435 177.062 194.424ZM176.435 193.859H177.062C177.202 193.859 177.335 193.804 177.434 193.705C177.533 193.607 177.588 193.473 177.588 193.334C177.588 193.194 177.533 193.061 177.434 192.962C177.335 192.864 177.202 192.808 177.062 192.808H176.435V193.859Z" fill="#C7C7C7"/>
<path d="M178.832 195.527V192.527C178.831 192.49 178.838 192.454 178.851 192.42C178.865 192.386 178.885 192.355 178.911 192.329C178.937 192.304 178.968 192.283 179.002 192.27C179.036 192.256 179.072 192.249 179.109 192.25H179.708C180.18 192.25 180.632 192.438 180.966 192.771C181.3 193.105 181.487 193.558 181.487 194.03C181.487 194.502 181.3 194.954 180.966 195.288C180.632 195.622 180.18 195.809 179.708 195.809H179.109C179.072 195.809 179.035 195.802 179.001 195.788C178.967 195.774 178.937 195.753 178.911 195.726C178.885 195.7 178.865 195.669 178.851 195.635C178.838 195.6 178.831 195.564 178.832 195.527ZM179.397 195.244H179.708C180.016 195.223 180.305 195.086 180.516 194.86C180.728 194.634 180.845 194.336 180.845 194.027C180.845 193.718 180.728 193.42 180.516 193.194C180.305 192.968 180.016 192.83 179.708 192.809H179.397V195.244Z" fill="#C7C7C7"/>
<path d="M183.974 194.966H182.714L182.465 195.627C182.444 195.68 182.407 195.725 182.36 195.758C182.313 195.79 182.257 195.807 182.2 195.808C182.168 195.813 182.135 195.813 182.104 195.808C182.034 195.78 181.977 195.726 181.946 195.658C181.914 195.589 181.91 195.512 181.934 195.44L183.064 192.446C183.086 192.392 183.124 192.347 183.172 192.315C183.221 192.282 183.277 192.265 183.335 192.265C183.394 192.264 183.451 192.281 183.499 192.314C183.547 192.346 183.585 192.392 183.607 192.446L184.737 195.44C184.761 195.512 184.757 195.589 184.725 195.658C184.694 195.726 184.637 195.78 184.567 195.808C184.535 195.813 184.503 195.813 184.471 195.808C184.414 195.808 184.359 195.791 184.312 195.759C184.265 195.727 184.23 195.68 184.211 195.627L183.974 194.966ZM183.765 194.401L183.352 193.31L182.94 194.401H183.765Z" fill="#C7C7C7"/>
<path d="M187.11 192.809H186.302V195.527C186.302 195.602 186.272 195.674 186.219 195.727C186.166 195.78 186.094 195.809 186.019 195.809C185.944 195.809 185.873 195.78 185.82 195.727C185.767 195.674 185.737 195.602 185.737 195.527V192.809H184.934C184.859 192.809 184.788 192.78 184.735 192.727C184.682 192.674 184.652 192.602 184.652 192.527C184.652 192.49 184.659 192.454 184.673 192.42C184.688 192.386 184.709 192.355 184.735 192.329C184.761 192.303 184.792 192.283 184.827 192.269C184.861 192.256 184.898 192.249 184.934 192.25H187.104C187.141 192.249 187.178 192.256 187.212 192.269C187.246 192.283 187.277 192.303 187.304 192.329C187.33 192.355 187.351 192.386 187.365 192.42C187.379 192.454 187.387 192.49 187.387 192.527C187.385 192.6 187.356 192.671 187.304 192.723C187.253 192.776 187.183 192.807 187.11 192.809Z" fill="#C7C7C7"/>
<path d="M188.229 195.527V192.527C188.228 192.49 188.235 192.454 188.249 192.42C188.262 192.386 188.283 192.355 188.309 192.329C188.334 192.304 188.365 192.283 188.399 192.27C188.433 192.256 188.47 192.249 188.506 192.25H190.173C190.246 192.25 190.317 192.279 190.369 192.331C190.421 192.383 190.45 192.453 190.45 192.527C190.45 192.601 190.421 192.672 190.369 192.725C190.317 192.778 190.247 192.808 190.173 192.809H188.794V193.742H189.981C190.054 193.744 190.124 193.775 190.175 193.828C190.227 193.88 190.256 193.951 190.258 194.024C190.259 194.061 190.252 194.098 190.238 194.132C190.225 194.166 190.204 194.197 190.179 194.224C190.153 194.25 190.122 194.271 190.088 194.285C190.054 194.299 190.018 194.307 189.981 194.307H188.794V195.239H190.173C190.247 195.24 190.317 195.271 190.369 195.324C190.421 195.376 190.45 195.447 190.45 195.521C190.449 195.595 190.419 195.665 190.368 195.718C190.316 195.77 190.247 195.801 190.173 195.804H188.506C188.433 195.802 188.364 195.773 188.312 195.721C188.26 195.669 188.231 195.6 188.229 195.527Z" fill="#C7C7C7"/>
<path d="M191.506 195.084C191.606 195.084 191.703 195.124 191.774 195.195C191.845 195.266 191.884 195.363 191.884 195.463C191.884 195.563 191.845 195.66 191.774 195.731C191.703 195.802 191.606 195.842 191.506 195.842C191.405 195.842 191.309 195.802 191.238 195.731C191.167 195.66 191.127 195.563 191.127 195.463C191.127 195.363 191.167 195.266 191.238 195.195C191.309 195.124 191.405 195.084 191.506 195.084Z" fill="#C7C7C7"/>
<path d="M192.675 195.084C192.776 195.084 192.872 195.124 192.943 195.195C193.014 195.266 193.054 195.363 193.054 195.463C193.054 195.563 193.014 195.66 192.943 195.731C192.872 195.802 192.776 195.842 192.675 195.842C192.575 195.842 192.478 195.802 192.407 195.731C192.336 195.66 192.297 195.563 192.297 195.463C192.297 195.363 192.336 195.266 192.407 195.195C192.478 195.124 192.575 195.084 192.675 195.084Z" fill="#C7C7C7"/>
<path d="M193.845 195.084C193.945 195.084 194.042 195.124 194.113 195.195C194.184 195.266 194.224 195.363 194.224 195.463C194.224 195.563 194.184 195.66 194.113 195.731C194.042 195.802 193.945 195.842 193.845 195.842C193.745 195.842 193.648 195.802 193.577 195.731C193.506 195.66 193.466 195.563 193.466 195.463C193.466 195.363 193.506 195.266 193.577 195.195C193.648 195.124 193.745 195.084 193.845 195.084Z" fill="#C7C7C7"/>
<path d="M76.6297 175.478L76.1742 178.265L75.6889 181.261L71.232 208.578H63.9476L68.3995 181.261L68.8897 178.265L69.3453 175.478H76.6297Z" fill="#7E93A8"/>
<path d="M75.5758 175.478C75.1895 178.245 74.7785 181.008 74.3626 183.766L73.075 192.05L71.7281 200.319L71.0348 204.448L70.3118 208.578L70.906 204.428L71.525 200.284L72.8274 192.005L74.1744 183.736C74.6151 180.979 75.0806 178.226 75.5758 175.478Z" fill="#98A9B9"/>
<path d="M76.1743 178.266L75.689 181.262H68.3997L68.8899 178.266H76.1743Z" fill="#98A9B9"/>
<path d="M112.603 175.478L113.058 178.265L113.544 181.261L118 208.578H125.285L120.833 181.261L120.343 178.265L119.887 175.478H112.603Z" fill="#7E93A8"/>
<path d="M113.681 175.478C114.063 178.245 114.479 181.008 114.895 183.766L116.177 192.05L117.524 200.319L118.222 204.448L118.945 208.578L118.351 204.428L117.732 200.284L116.445 192.005L115.098 183.736C114.637 180.979 114.172 178.226 113.681 175.478Z" fill="#98A9B9"/>
<path d="M113.058 178.266H120.342L120.832 181.262H113.543L113.058 178.266Z" fill="#98A9B9"/>
<path d="M76.3627 167.792H70.5886L71.3067 162.405H75.6446L76.3627 167.792Z" fill="#98A9B9"/>
<path d="M78.7808 159.505C79.2975 156.578 77.3431 153.786 74.4155 153.269C71.4879 152.752 68.6957 154.707 68.179 157.634C67.6622 160.561 69.6166 163.353 72.5442 163.87C75.4718 164.386 78.2641 162.432 78.7808 159.505Z" fill="#B2BECB"/>
<path d="M77.4607 159.504C77.9822 157.304 76.6208 155.097 74.4199 154.576C72.2191 154.054 70.0122 155.416 69.4907 157.616C68.9692 159.817 70.3306 162.023 72.5315 162.545C74.7323 163.066 76.9392 161.705 77.4607 159.504Z" fill="#D8DFE5"/>
<path d="M76.898 158.322C76.86 157.834 76.7216 157.359 76.4915 156.927C76.2614 156.495 75.9447 156.115 75.561 155.811C75.1746 155.511 74.7313 155.293 74.258 155.17C73.7847 155.046 73.2913 155.02 72.8077 155.093C72.3275 155.169 71.8687 155.345 71.4609 155.609C71.0531 155.873 70.7055 156.221 70.4406 156.628C70.161 157.064 69.9779 157.555 69.9036 158.067C69.8293 158.579 69.8655 159.102 70.0098 159.599C70.2557 160.458 70.8304 161.186 71.6093 161.624C72.369 162.055 73.2606 162.193 74.115 162.01C74.9414 161.834 75.6824 161.379 76.2146 160.723C76.7403 160.074 77.044 159.274 77.0812 158.44C77.0812 158.406 77.0812 158.371 77.0466 158.371C77.0119 158.371 77.0119 158.401 77.0119 158.44C76.9931 158.778 76.9281 159.111 76.8188 159.431C76.7047 159.745 76.5534 160.044 76.3682 160.322C76.1729 160.591 75.9469 160.837 75.6947 161.055C75.4355 161.271 75.1512 161.456 74.8479 161.604C74.412 161.81 73.938 161.922 73.4563 161.934C72.9745 161.946 72.4956 161.857 72.05 161.674C71.6031 161.484 71.2026 161.2 70.876 160.841C70.5494 160.482 70.3046 160.057 70.1583 159.594C70.008 159.119 69.9621 158.616 70.0236 158.122C70.0852 157.627 70.2527 157.151 70.5149 156.727C70.7682 156.325 71.1047 155.981 71.5019 155.72C71.8991 155.459 72.3478 155.285 72.8176 155.212C73.4523 155.111 74.1025 155.184 74.6995 155.422C75.2966 155.659 75.8183 156.054 76.2097 156.564C76.398 156.827 76.5512 157.113 76.6653 157.415C76.7756 157.723 76.8488 158.042 76.8832 158.366C76.8832 158.366 76.898 158.336 76.898 158.322Z" fill="#7E93A8"/>
<path d="M76.4172 158.329C76.3819 157.911 76.2607 157.505 76.0613 157.136C75.8619 156.767 75.5886 156.443 75.2585 156.185C74.9272 155.93 74.5488 155.744 74.145 155.637C73.7412 155.53 73.3201 155.504 72.9063 155.561C72.4926 155.622 72.0965 155.771 71.7441 155.996C71.3916 156.221 71.0908 156.518 70.8611 156.868C70.6168 157.241 70.4551 157.662 70.3868 158.102C70.3184 158.543 70.3451 158.993 70.4649 159.423C70.5672 159.795 70.7424 160.142 70.9805 160.446C71.2186 160.749 71.5146 161.002 71.8515 161.19C72.5129 161.569 73.2921 161.685 74.0353 161.517C74.7524 161.363 75.3942 160.966 75.8527 160.393C76.3069 159.83 76.5689 159.136 76.6005 158.413C76.6005 158.383 76.6005 158.353 76.5708 158.353C76.541 158.353 76.5311 158.378 76.5311 158.413C76.4907 158.993 76.2958 159.552 75.9667 160.032C75.6376 160.511 75.1862 160.894 74.6593 161.141C74.2845 161.323 73.8751 161.424 73.4584 161.436C73.0418 161.448 72.6273 161.371 72.2427 161.21C71.8557 161.047 71.5091 160.801 71.2268 160.489C70.9446 160.178 70.7336 159.809 70.6085 159.408C70.48 158.996 70.4427 158.562 70.4992 158.134C70.5556 157.707 70.7044 157.296 70.9354 156.932C71.1535 156.589 71.4435 156.297 71.7855 156.076C72.1275 155.855 72.5132 155.712 72.9162 155.655C73.4552 155.575 74.0059 155.639 74.5121 155.841C75.0184 156.042 75.4621 156.375 75.7982 156.803C75.9599 157.027 76.093 157.27 76.1944 157.526C76.2872 157.79 76.3519 158.062 76.3875 158.338L76.4172 158.329Z" fill="#7E93A8"/>
<path d="M75.9365 158.332C75.9008 157.984 75.7946 157.647 75.6243 157.341C75.4541 157.036 75.2233 156.768 74.9461 156.554C74.3894 156.131 73.689 155.943 72.995 156.03C72.6476 156.075 72.314 156.194 72.016 156.379C71.7181 156.563 71.4627 156.809 71.2667 157.099C71.0548 157.413 70.9128 157.768 70.8505 158.142C70.7881 158.515 70.8068 158.897 70.9052 159.263C70.9885 159.581 71.1354 159.88 71.3371 160.14C71.5388 160.401 71.7911 160.618 72.0789 160.778C72.6465 161.095 73.3118 161.191 73.9458 161.045C74.5569 160.903 75.0996 160.553 75.4809 160.055C75.8582 159.577 76.0795 158.994 76.1147 158.386C76.1147 158.357 76.1148 158.332 76.0801 158.332C76.0742 158.333 76.0685 158.334 76.0634 158.337C76.0582 158.34 76.0536 158.344 76.0499 158.348C76.0462 158.353 76.0435 158.358 76.0419 158.364C76.0403 158.37 76.0398 158.376 76.0405 158.381C76.002 158.869 75.8363 159.337 75.56 159.74C75.2837 160.144 74.9063 160.467 74.4657 160.679C74.1501 160.835 73.8049 160.922 73.4531 160.934C73.1013 160.946 72.751 160.882 72.4255 160.748C72.0966 160.612 71.802 160.405 71.5631 160.141C71.3241 159.877 71.1468 159.564 71.0439 159.223C70.9413 158.876 70.9148 158.511 70.966 158.153C71.0173 157.795 71.1452 157.453 71.341 157.149C71.5279 156.865 71.7738 156.626 72.0618 156.446C72.3498 156.267 72.6732 156.152 73.0098 156.109C73.4549 156.056 73.906 156.109 74.3271 156.262C74.7511 156.423 75.1228 156.697 75.4017 157.054C75.5396 157.237 75.6528 157.437 75.7384 157.649C75.8216 157.866 75.8798 158.092 75.9117 158.322C75.9117 158.322 75.9414 158.337 75.9365 158.332Z" fill="#7E93A8"/>
<path d="M75.462 158.336C75.3891 157.777 75.0991 157.27 74.6548 156.925C74.2104 156.592 73.6567 156.44 73.1048 156.499C72.824 156.531 72.5533 156.623 72.3101 156.767C72.067 156.911 71.8569 157.105 71.6935 157.335C71.5161 157.59 71.3951 157.879 71.3387 158.184C71.2824 158.489 71.2919 158.802 71.3666 159.103C71.4323 159.368 71.5519 159.616 71.7181 159.833C71.8843 160.049 72.0934 160.229 72.3323 160.361C72.8029 160.621 73.3537 160.697 73.8773 160.574C74.3751 160.453 74.817 160.167 75.1302 159.762C75.4283 159.366 75.6008 158.89 75.6254 158.395C75.6261 158.39 75.6257 158.385 75.6243 158.379C75.623 158.374 75.6206 158.37 75.6174 158.366C75.6142 158.361 75.6101 158.358 75.6056 158.355C75.601 158.353 75.5959 158.351 75.5907 158.351C75.5907 158.351 75.556 158.35 75.5511 158.39C75.5214 158.782 75.3922 159.161 75.1755 159.489C74.9589 159.817 74.6621 160.085 74.3131 160.267C74.0581 160.4 73.7772 160.476 73.4899 160.49C73.2025 160.503 72.9157 160.454 72.6492 160.346C72.3791 160.235 72.1376 160.064 71.943 159.846C71.7483 159.628 71.6054 159.369 71.5251 159.088C71.4458 158.807 71.4286 158.511 71.4748 158.222C71.521 157.933 71.6294 157.658 71.7925 157.415C71.9457 157.191 72.1453 157.003 72.3778 156.864C72.6102 156.725 72.8701 156.637 73.1395 156.608C73.4917 156.576 73.8467 156.621 74.1794 156.741C74.5138 156.865 74.8094 157.075 75.0361 157.35C75.1449 157.496 75.2363 157.654 75.3084 157.821C75.3788 157.995 75.4302 158.176 75.462 158.36V158.336Z" fill="#7E93A8"/>
<path d="M118.52 167.792H112.741L113.459 162.405H117.802L118.52 167.792Z" fill="#98A9B9"/>
<path d="M121.04 159.033C121.486 156.09 119.462 153.343 116.519 152.897C113.575 152.451 110.828 154.475 110.382 157.418C109.936 160.361 111.961 163.108 114.904 163.554C117.847 164 120.594 161.976 121.04 159.033Z" fill="#B2BECB"/>
<path d="M119.674 159.177C120.015 156.942 118.479 154.853 116.243 154.512C114.007 154.171 111.918 155.707 111.577 157.943C111.237 160.178 112.773 162.267 115.009 162.608C117.245 162.949 119.334 161.413 119.674 159.177Z" fill="#D8DFE5"/>
<path d="M119.055 158.321C119.016 157.834 118.877 157.359 118.647 156.927C118.417 156.495 118.101 156.115 117.718 155.811C117.331 155.511 116.888 155.293 116.415 155.17C115.941 155.046 115.448 155.02 114.964 155.093C114.484 155.169 114.025 155.344 113.618 155.609C113.21 155.873 112.862 156.22 112.597 156.628C112.316 157.063 112.131 157.553 112.057 158.066C111.983 158.579 112.02 159.102 112.166 159.599C112.41 160.459 112.986 161.187 113.766 161.624C114.526 162.056 115.417 162.193 116.272 162.01C117.098 161.833 117.839 161.379 118.371 160.723C118.897 160.074 119.201 159.274 119.238 158.44C119.238 158.405 119.238 158.371 119.203 158.371C119.169 158.371 119.169 158.401 119.164 158.44C119.144 158.777 119.081 159.11 118.975 159.43C118.862 159.746 118.709 160.045 118.52 160.322C118.133 160.873 117.609 161.315 117 161.604C116.565 161.811 116.092 161.924 115.611 161.936C115.129 161.948 114.651 161.858 114.207 161.673C113.759 161.484 113.358 161.201 113.03 160.842C112.703 160.483 112.457 160.057 112.31 159.594C112.161 159.118 112.115 158.616 112.178 158.121C112.24 157.626 112.409 157.151 112.672 156.727C112.925 156.325 113.261 155.981 113.659 155.72C114.056 155.458 114.504 155.285 114.974 155.212C115.609 155.111 116.259 155.183 116.856 155.421C117.453 155.659 117.975 156.054 118.366 156.564C118.553 156.828 118.706 157.114 118.822 157.415C118.931 157.722 119.002 158.042 119.035 158.366C119.035 158.366 119.055 158.336 119.055 158.321Z" fill="#7E93A8"/>
<path d="M118.574 158.329C118.536 157.911 118.414 157.506 118.215 157.137C118.016 156.769 117.744 156.445 117.415 156.185C117.084 155.93 116.705 155.744 116.302 155.637C115.898 155.53 115.477 155.504 115.063 155.561C114.648 155.622 114.251 155.77 113.898 155.995C113.545 156.22 113.243 156.518 113.013 156.868C112.769 157.241 112.607 157.662 112.539 158.102C112.47 158.543 112.497 158.993 112.617 159.423C112.719 159.795 112.894 160.142 113.132 160.446C113.37 160.749 113.666 161.002 114.003 161.19C114.665 161.568 115.444 161.684 116.187 161.517C116.906 161.364 117.55 160.967 118.009 160.393C118.462 159.829 118.723 159.135 118.757 158.413C118.757 158.383 118.757 158.353 118.723 158.353C118.688 158.353 118.688 158.378 118.683 158.413C118.643 158.993 118.449 159.551 118.121 160.031C117.793 160.511 117.342 160.894 116.816 161.141C116.441 161.323 116.032 161.424 115.615 161.436C115.198 161.448 114.784 161.371 114.399 161.21C114.011 161.047 113.664 160.802 113.38 160.49C113.097 160.179 112.886 159.81 112.76 159.408C112.633 158.996 112.597 158.562 112.653 158.134C112.71 157.707 112.858 157.297 113.087 156.932C113.306 156.59 113.597 156.298 113.938 156.078C114.28 155.857 114.665 155.713 115.068 155.655C115.609 155.572 116.161 155.635 116.67 155.837C117.178 156.039 117.623 156.373 117.96 156.803C118.123 157.026 118.257 157.269 118.356 157.526C118.453 157.788 118.518 158.061 118.549 158.338C118.554 158.338 118.558 158.338 118.563 158.336C118.567 158.334 118.571 158.332 118.574 158.329Z" fill="#7E93A8"/>
<path d="M118.094 158.331C118.056 157.984 117.949 157.648 117.779 157.342C117.608 157.037 117.379 156.769 117.103 156.554C116.546 156.132 115.846 155.943 115.152 156.029C114.807 156.076 114.475 156.196 114.179 156.38C113.883 156.565 113.629 156.809 113.434 157.099C113.222 157.412 113.08 157.768 113.017 158.141C112.954 158.514 112.971 158.896 113.067 159.262C113.153 159.581 113.301 159.879 113.504 160.139C113.706 160.399 113.959 160.616 114.246 160.777C114.812 161.094 115.476 161.19 116.108 161.045C116.72 160.903 117.265 160.553 117.648 160.055C118.026 159.578 118.246 158.994 118.277 158.386C118.277 158.356 118.277 158.331 118.247 158.331C118.241 158.332 118.236 158.334 118.23 158.337C118.225 158.34 118.221 158.343 118.217 158.348C118.213 158.353 118.211 158.358 118.209 158.364C118.207 158.369 118.207 158.375 118.208 158.381C118.168 158.868 118.002 159.336 117.726 159.739C117.45 160.142 117.073 160.466 116.633 160.678C116.317 160.834 115.972 160.921 115.62 160.933C115.268 160.945 114.918 160.882 114.593 160.748C114.264 160.612 113.969 160.404 113.73 160.141C113.491 159.877 113.314 159.563 113.211 159.223C113.108 158.876 113.082 158.511 113.133 158.153C113.184 157.795 113.312 157.452 113.508 157.148C113.694 156.865 113.938 156.625 114.226 156.445C114.513 156.266 114.836 156.151 115.172 156.108C115.619 156.055 116.072 156.108 116.494 156.262C116.918 156.423 117.29 156.697 117.569 157.054C117.707 157.236 117.82 157.436 117.906 157.648C117.984 157.867 118.042 158.092 118.079 158.322C118.083 158.326 118.088 158.33 118.094 158.331Z" fill="#7E93A8"/>
<path d="M117.613 158.335C117.579 158.059 117.49 157.792 117.353 157.55C117.215 157.308 117.031 157.095 116.811 156.924C116.366 156.592 115.813 156.44 115.261 156.499C114.98 156.529 114.708 156.62 114.464 156.764C114.221 156.908 114.011 157.103 113.85 157.335C113.672 157.59 113.551 157.879 113.495 158.184C113.438 158.489 113.448 158.802 113.523 159.103C113.588 159.368 113.708 159.616 113.874 159.833C114.04 160.049 114.249 160.229 114.488 160.361C114.957 160.621 115.506 160.697 116.028 160.573C116.527 160.452 116.97 160.166 117.286 159.761C117.584 159.366 117.757 158.89 117.781 158.395C117.783 158.39 117.783 158.385 117.783 158.38C117.782 158.375 117.78 158.37 117.777 158.366C117.774 158.361 117.771 158.358 117.766 158.355C117.762 158.352 117.757 158.351 117.752 158.35C117.741 158.35 117.731 158.355 117.724 158.362C117.716 158.369 117.712 158.379 117.712 158.39C117.676 158.784 117.539 159.163 117.315 159.489C117.09 159.815 116.785 160.077 116.43 160.252C116.175 160.384 115.895 160.46 115.609 160.474C115.322 160.487 115.036 160.439 114.771 160.331C114.501 160.22 114.259 160.049 114.064 159.831C113.87 159.613 113.727 159.354 113.647 159.073C113.567 158.792 113.55 158.496 113.596 158.207C113.642 157.918 113.751 157.643 113.914 157.4C114.067 157.176 114.266 156.988 114.499 156.849C114.731 156.709 114.991 156.622 115.261 156.593C115.612 156.561 115.965 156.606 116.296 156.726C116.631 156.848 116.927 157.059 117.153 157.335C117.265 157.48 117.358 157.638 117.43 157.806C117.5 157.98 117.552 158.161 117.583 158.345C117.583 158.345 117.618 158.34 117.613 158.335Z" fill="#7E93A8"/>
<path d="M130.914 165.049H58.3128V178.933H130.914V165.049Z" fill="#B2BECB"/>
<path d="M73.2377 165.049L67.9687 178.933H58.5896L63.8585 165.049H73.2377Z" fill="#7E93A8"/>
<path d="M92.4568 165.049L87.1878 178.933H77.8087L83.0777 165.049H92.4568Z" fill="#7E93A8"/>
<path d="M111.671 165.049L106.407 178.933H97.0283L102.297 165.049H111.671Z" fill="#7E93A8"/>
<path d="M130.895 165.049L125.626 178.933H116.247L121.516 165.049H130.895Z" fill="#7E93A8"/>
<path d="M129.449 191.774H59.784V200.563H129.449V191.774Z" fill="#B2BECB"/>
<path d="M74.0995 191.774L69.0485 200.558H60.0507L65.1067 191.774H74.0995Z" fill="#7E93A8"/>
<path d="M92.5458 191.774L87.4898 200.558H78.487L83.543 191.774H92.5458Z" fill="#7E93A8"/>
<path d="M110.982 191.774L105.926 200.558H96.9282L101.984 191.774H110.982Z" fill="#7E93A8"/>
<path d="M129.424 191.774L124.368 200.558H115.37L120.426 191.774H129.424Z" fill="#7E93A8"/>
<path d="M266.426 106.734H210.379C210.379 106.734 215.935 91.5576 224.487 91.5576C233.039 91.5576 235.718 102.03 235.718 102.03C235.718 102.03 241.487 96.3407 246.231 96.3407C250.975 96.3407 255.09 103.862 255.09 103.862C255.09 103.862 261.791 99.8165 266.426 106.734Z" fill="#7E93A8"/>
<path d="M181.014 44.4792H154.823C154.823 44.4792 160.672 36.0024 165.287 36.0024C169.902 36.0024 171.259 41.652 171.259 41.652C171.259 41.652 174.512 39.0178 177.528 39.4882C180.544 39.9586 181.014 44.4792 181.014 44.4792Z" fill="#7E93A8"/>
<path d="M50.6286 103.435H24.4374C24.4374 103.435 30.2857 94.958 34.901 94.958C39.5163 94.958 40.8731 100.608 40.8731 100.608C40.8731 100.608 44.1266 97.9734 47.1424 98.4438C50.1581 98.9142 50.6286 103.435 50.6286 103.435Z" fill="#7E93A8"/>
<path d="M74.4383 139.718H48.2471C48.2471 139.718 54.1004 131.242 58.7107 131.242C63.3211 131.242 64.6829 136.891 64.6829 136.891C64.6829 136.891 67.9363 134.252 70.9521 134.727C73.9679 135.203 74.4383 139.718 74.4383 139.718Z" fill="#7E93A8"/>
<path d="M67.5211 57.1624H16.5005C16.5005 57.1624 23.4878 41.5656 30.9603 40.5901C38.4329 39.6147 42.0083 52.1764 42.0083 52.1764C42.0083 52.1764 46.8316 47.7201 50.6198 47.7201C54.4081 47.7201 57.3348 53.5677 57.3348 53.5677C57.3348 53.5677 64.9312 49.5769 67.5211 57.1624Z" fill="#7E93A8"/>
<path d="M210.985 74.0639C218.416 72.2895 223.001 64.8272 221.227 57.3963C219.453 49.9654 211.99 45.38 204.559 47.1544C197.128 48.9288 192.543 56.3911 194.317 63.822C196.092 71.2528 203.554 75.8383 210.985 74.0639Z" fill="#08A94C"/>
<path opacity="0.1" d="M211.979 73.8045C209.911 74.4674 207.716 74.6342 205.572 74.2914C203.428 73.9486 201.394 73.1059 199.636 71.8314C197.878 70.5568 196.445 68.8864 195.452 66.9551C194.46 65.0238 193.936 62.886 193.923 60.7146C193.91 58.5432 194.408 56.3993 195.378 54.4562C196.347 52.5132 197.76 50.8257 199.503 49.5303C201.246 48.2348 203.269 47.3678 205.409 46.9994C207.549 46.631 209.745 46.7715 211.821 47.4096C209.031 46.678 206.07 46.9762 203.482 48.2494C200.894 49.5226 198.851 51.6857 197.728 54.3424C196.605 56.9991 196.476 59.9716 197.366 62.7153C198.256 65.459 200.105 67.7903 202.573 69.2821C205.042 70.7739 207.965 71.3263 210.808 70.8382C213.651 70.35 216.223 68.854 218.052 66.6241C219.882 64.3943 220.847 61.5799 220.771 58.6965C220.694 55.8131 219.582 53.0538 217.636 50.924C219.292 52.6087 220.489 54.6892 221.113 56.9674C221.738 59.2455 221.769 61.6456 221.203 63.9391C220.638 66.2325 219.495 68.3431 217.883 70.07C216.271 71.7969 214.244 73.0825 211.995 73.8045H211.979Z" fill="black"/>
<path d="M202.491 59.4485C202.608 59.8149 202.613 60.2076 202.506 60.577C202.4 60.9464 202.186 61.2759 201.892 61.5239C201.598 61.7718 201.238 61.9271 200.855 61.97C200.473 62.0129 200.087 61.9416 199.746 61.765C199.404 61.5884 199.123 61.3145 198.937 60.978C198.751 60.6414 198.669 60.2573 198.701 59.8742C198.734 59.491 198.879 59.1261 199.119 58.8256C199.359 58.525 199.682 58.3023 200.048 58.1856C200.292 58.107 200.548 58.0773 200.803 58.0983C201.058 58.1193 201.306 58.1906 201.533 58.308C201.76 58.4254 201.962 58.5867 202.126 58.7824C202.291 58.9781 202.415 59.2045 202.491 59.4485Z" fill="#263238"/>
<path d="M215.078 55.4196C215.196 55.7875 215.203 56.1821 215.096 56.5537C214.99 56.9252 214.776 57.2568 214.481 57.5067C214.187 57.7565 213.824 57.9132 213.441 57.957C213.057 58.0008 212.668 57.9298 212.325 57.7528C211.981 57.5758 211.698 57.3009 211.511 56.9628C211.324 56.6248 211.241 56.2388 211.274 55.8538C211.306 55.4687 211.452 55.102 211.693 54.7999C211.934 54.4978 212.259 54.274 212.627 54.1568C213.119 54.0023 213.653 54.0482 214.112 54.2847C214.571 54.5211 214.918 54.9289 215.078 55.4196Z" fill="#263238"/>
<path d="M209.287 59.7075C209.378 59.994 209.382 60.3012 209.299 60.5901C209.216 60.879 209.048 61.1367 208.818 61.3306C208.589 61.5245 208.306 61.6459 208.007 61.6795C207.708 61.713 207.406 61.6572 207.139 61.5191C206.872 61.3811 206.651 61.1668 206.506 60.9036C206.36 60.6404 206.296 60.34 206.322 60.0404C206.347 59.7408 206.461 59.4554 206.648 59.2204C206.836 58.9853 207.089 58.8111 207.376 58.7199C207.566 58.6584 207.767 58.6352 207.966 58.6516C208.165 58.668 208.36 58.7238 208.537 58.8156C208.715 58.9074 208.873 59.0335 209.001 59.1866C209.13 59.3397 209.227 59.5167 209.287 59.7075Z" fill="#263238"/>
<path fill-rule="evenodd" clip-rule="evenodd" d="M209.153 60.9341C209.066 61.0842 208.953 61.219 208.819 61.3322C208.589 61.5261 208.307 61.6475 208.008 61.6811C207.754 61.7096 207.497 61.6736 207.262 61.5773C207.689 61.2813 208.343 60.9768 209.153 60.9341Z" fill="#D3766A"/>
</g>
<mask id="mask1_2578_48459" style="mask-type:alpha" maskUnits="userSpaceOnUse" x="16" y="21" width="219" height="193">
<path d="M130.613 213.365C102.358 216.339 66.3405 202.106 41.3971 174.328C32.3803 168.461 22.8995 144.012 22.6895 135.212C22.4795 126.411 15.2269 96.6771 16.6966 84.7335C18.1663 72.7899 30.5541 39.0545 36.433 30.8826C42.312 22.7107 100.052 22.0822 109.5 21.0346C118.948 19.9869 191.595 43.0359 203.353 53.0937C215.111 63.1514 233.797 121.193 234.637 159.748C235.477 198.303 167.7 209.461 130.613 213.365Z" fill="#DBFDEA"/>
</mask>
<g mask="url(#mask1_2578_48459)">
<path d="M169.689 74.9786L157.186 114.77C156.685 115.928 157.229 116.931 158.387 116.995L179.211 118.181C179.848 118.171 180.47 117.98 181.003 117.63C181.536 117.28 181.958 116.785 182.22 116.203L194.694 76.4406C195.196 75.2752 194.652 74.2794 193.493 74.2158L172.726 73.0293C172.087 73.0311 171.461 73.2155 170.923 73.5608C170.385 73.9062 169.957 74.3981 169.689 74.9786Z" fill="#263238"/>
<path d="M172.163 75.1272L159.688 114.89C159.187 116.048 159.731 117.044 160.896 117.115L181.712 118.301C182.351 118.291 182.973 118.099 183.507 117.749C184.041 117.399 184.464 116.905 184.729 116.324L197.196 76.5539C197.697 75.3956 197.16 74.4351 195.995 74.3362L175.172 73.1426C174.534 73.1553 173.913 73.3485 173.38 73.6998C172.847 74.051 172.425 74.5459 172.163 75.1272Z" fill="#455A64"/>
<path d="M177.762 77.2931C177.735 77.6427 177.604 77.9763 177.386 78.2516C177.169 78.5268 176.875 78.7315 176.541 78.8396C176.207 78.9476 175.849 78.9543 175.512 78.8588C175.174 78.7632 174.873 78.5697 174.645 78.3027C174.418 78.0357 174.275 77.7072 174.234 77.3588C174.193 77.0105 174.257 76.6579 174.416 76.3456C174.576 76.0334 174.825 75.7756 175.131 75.6048C175.438 75.434 175.788 75.3579 176.138 75.3861C176.606 75.424 177.04 75.646 177.344 76.0035C177.649 76.3611 177.799 76.8249 177.762 77.2931Z" fill="#263238"/>
<path d="M99.0747 132.264C109.197 158.12 133.488 192.431 144.423 193.293C149.622 193.709 158.833 195.567 166.059 190.037C181.824 177.974 195.93 153.833 199.413 139.715C200.656 134.694 176.654 122.058 172.727 125.95C163.544 135.075 152.348 153.431 150.83 153.219C145.263 152.428 124.567 132.737 110.136 118.901C92.6186 102.092 95.0273 121.96 99.0747 132.264Z" fill="#FFBE9D"/>
<path d="M201.758 113.498C199.822 103.003 197.717 100.609 200.783 90.8979C202.796 84.5415 199.589 80.4946 194.652 85.3961C186.571 93.4052 186.225 107.467 187.511 112.376L201.758 113.498Z" fill="#FFBE9D"/>
<path d="M197.916 144.066C197.916 144.066 203.468 129.99 202.514 118.641C201.85 110.773 198.502 93.8082 177.262 83.5673C172.226 81.1378 163.326 81.2508 170.114 88.2075C174.931 93.1514 179.487 94.8253 181.769 98.2083C181.769 98.2083 170.467 99.6915 168.221 104.833C166.27 109.329 164.639 113.957 163.34 118.683C164.15 119.12 164.988 119.504 165.847 119.834C165.847 119.834 163.905 124.715 167.133 132.031L197.916 144.066Z" fill="#FFBE9D"/>
<path d="M200.684 111.196C197.71 108.314 191.304 102.318 184.353 99.2318C176.64 95.8064 160.846 91.2863 158.373 97.0071C156.565 101.202 162.442 103.462 162.442 103.462C162.442 103.462 155.52 102.968 154.714 107.114C154.008 110.892 158.628 112.368 158.628 112.368C158.628 112.368 154.389 112.792 154.389 116.571C154.389 121.112 163.282 119.481 167.252 124.092C168.128 125.124 200.684 111.196 200.684 111.196Z" fill="#FFBE9D"/>
<path d="M182.092 107.989C178.85 105.737 170.176 102.516 162.582 103.356C162.406 103.356 162.328 103.512 162.49 103.526C169.174 104.241 175.746 105.763 182.064 108.06C182.106 108.081 182.127 108.011 182.092 107.989Z" fill="#EB996E"/>
<path d="M178.376 115.682C175.381 114.022 166.298 111.105 158.598 112.214C158.429 112.214 158.358 112.383 158.521 112.398C165.219 112.764 171.854 113.889 178.299 115.752C178.308 115.763 178.321 115.769 178.335 115.769C178.349 115.77 178.362 115.765 178.373 115.756C178.383 115.746 178.389 115.733 178.39 115.719C178.391 115.706 178.386 115.692 178.376 115.682Z" fill="#EB996E"/>
<path d="M130.671 134.368L126.814 139.051L126.016 140.026L110.568 158.685C110.568 158.685 96.5889 135.859 93.7635 122.877C92.0753 115.108 93.2902 110.482 96.6878 109.642C96.9408 109.583 97.1984 109.545 97.4577 109.529C99.6545 109.338 102.607 110.497 106.139 113.103C116.084 120.448 130.671 134.368 130.671 134.368Z" fill="#08A94C"/>
<path d="M107.566 150.924C108.399 148.96 116.982 137.173 124.13 129.686C124.151 129.662 124.182 129.647 124.214 129.645C124.247 129.643 124.279 129.654 124.303 129.676C124.327 129.697 124.342 129.728 124.344 129.76C124.346 129.793 124.335 129.824 124.314 129.849C123.607 130.767 109.48 149.702 107.813 151.136C107.679 151.256 107.509 151.065 107.566 150.924Z" fill="#05652E"/>
<path opacity="0.05" d="M120.457 146.755L110.568 158.677C110.568 158.677 96.5896 135.857 93.7642 122.876C91.8146 113.921 93.7147 109.16 98.3555 109.521L120.457 146.755Z" fill="black"/>
<path d="M123.282 217.071C121.304 219.19 37.6786 228.124 37.1983 227.545C35.9198 225.984 43.612 141.479 77.8703 110.523C83.9097 105.071 94.5757 106.625 99.5202 109.429C101.985 110.841 106.28 122.509 110.483 136.147C113.661 146.564 124.497 215.701 123.282 217.071Z" fill="#08A94C"/>
<path d="M123.282 217.072C122.844 217.545 118.337 218.365 111.606 219.339L110.843 219.445C107.438 219.933 103.511 220.455 99.2726 220.985L98.3543 221.105C86.2544 222.624 71.8236 224.248 60.0133 225.491L59.6318 225.526C46.9174 226.868 37.3604 227.744 37.1979 227.546C37.0355 227.348 37.0355 223.824 37.5935 218.273C37.5935 218.04 37.6429 217.793 37.6641 217.567C38.9991 204.734 42.7004 181.42 50.2302 158.869C50.3503 158.501 50.4774 158.162 50.5975 157.774C52.8507 151.051 55.5091 144.471 58.5582 138.069C58.65 137.878 58.7348 137.695 58.8336 137.504C61.8184 131.224 65.4147 125.253 69.5703 119.678C69.7115 119.494 69.8457 119.318 69.9941 119.148C72.3559 116.048 74.9918 113.167 77.87 110.539C78.677 109.819 79.5718 109.205 80.5329 108.709C80.7519 108.596 80.9779 108.491 81.204 108.392C84.2159 107.127 87.4977 106.642 90.7469 106.979L91.5521 107.064C94.3375 107.336 97.0435 108.147 99.5198 109.451C100.488 110.009 101.745 112.142 103.165 115.384C103.235 115.525 103.299 115.68 103.362 115.836C105.481 120.78 108.017 128.153 110.482 136.169C111.351 138.994 112.799 146.198 114.403 155.182L114.509 155.789C115.067 158.89 115.639 162.209 116.211 165.628C116.296 166.115 116.381 166.595 116.458 167.083C117.624 174.061 118.789 181.392 119.828 188.228C119.863 188.504 119.905 188.786 119.955 189.055C120.831 194.902 121.608 200.355 122.208 204.868C122.25 205.228 122.293 205.574 122.342 205.927C123.14 212.411 123.55 216.74 123.282 217.072Z" fill="#08A94C"/>
<path d="M69.732 122.299C55.9651 150.952 37.5362 222.158 34.8309 232.625C32.9873 239.73 70.0922 246.927 71.074 241.99C72.2042 236.34 86.3949 153 84.9822 122.984C84.2123 106.556 74.4928 112.411 69.732 122.299Z" fill="#FFBE9D"/>
<path d="M85.6966 155.218L52.6249 155.381C52.6249 155.381 61.6027 128.804 70.1497 117.821C78.6966 106.839 85.5553 108.287 86.3182 121.211C87.081 134.136 85.6966 155.218 85.6966 155.218Z" fill="#08A94C"/>
<path d="M86.3179 121.213C86.3602 121.799 86.3885 122.414 86.4097 123.028C86.4097 123.304 86.4097 123.579 86.4521 123.862C86.9183 136.807 85.7033 155.22 85.7033 155.22L76.7185 155.269H75.8214L52.6317 155.396C52.6317 155.396 56.4389 144.096 61.44 133.234C61.6095 132.874 61.7719 132.527 61.9556 132.146C64.5055 126.694 67.3451 121.432 70.1423 117.837C78.6963 106.84 85.5479 108.295 86.3179 121.213Z" fill="#08A94C"/>
<path d="M56.8836 147.724C59.0026 147.074 74.267 146.064 85.0884 146.784C85.1221 146.784 85.1545 146.798 85.1783 146.822C85.2022 146.845 85.2156 146.878 85.2156 146.911C85.2156 146.945 85.2022 146.977 85.1783 147.001C85.1545 147.025 85.1221 147.039 85.0884 147.039C83.8947 147.109 59.1439 148.451 56.8836 148.07C56.6646 148.063 56.6999 147.801 56.8836 147.724Z" fill="#05652E"/>
<path d="M87.7946 135.172C87.7946 135.149 87.7857 135.128 87.7698 135.112C87.7539 135.096 87.7323 135.087 87.7098 135.087C87.6874 135.087 87.6658 135.096 87.6499 135.112C87.634 135.128 87.6251 135.149 87.6251 135.172C87.3227 136.296 87.0869 137.438 86.9187 138.59C86.8693 138.852 86.834 139.12 86.7845 139.381C86.6927 136.556 86.5585 133.809 86.4101 131.04C86.4101 130.913 86.1982 130.913 86.2053 131.04C86.2901 140.638 86.0358 149.403 85.4495 154.954L82.5817 155.195C82.5418 155.203 82.5059 155.224 82.4801 155.256C82.4543 155.287 82.4402 155.327 82.4402 155.368C82.4402 155.408 82.4543 155.448 82.4801 155.479C82.5059 155.511 82.5418 155.533 82.5817 155.541L86.2265 155.668C86.3819 155.668 86.9894 147.673 86.841 141.373C87.0388 140.462 87.2507 139.558 87.399 138.64C87.6193 137.496 87.7516 136.336 87.7946 135.172Z" fill="#05652E"/>
<path d="M57.0965 155.387C55.6061 155.478 54.1157 155.556 52.6323 155.598H52.3356L52.4275 155.309C53.0067 153.487 53.6 151.672 54.2499 149.878C54.8997 148.084 55.5566 146.283 56.263 144.51C56.9693 142.737 57.6757 140.979 58.5021 139.227C59.3286 137.476 60.1197 135.759 61.045 134.085L58.9259 139.425L56.8916 144.764L54.8573 150.111L52.8301 155.492L52.6323 155.21C54.1157 155.217 55.6061 155.295 57.0965 155.387Z" fill="#05652E"/>
<path d="M97.4859 124.072C92.4567 125.732 82.9632 118.662 78.9299 112.617C78.6545 112.2 78.9299 94.628 78.6474 91.1461C78.5838 90.4398 101.018 94.5503 101.018 94.5503C101.018 94.5503 99.4991 102.051 100.064 108.125C100.121 108.633 102.346 122.469 97.4859 124.072Z" fill="#FFBE9D"/>
<path d="M132.98 88.6016C132.566 88.6016 132.263 83.1498 132.263 76.4171C132.263 69.6844 132.566 64.2212 132.98 64.2212C133.394 64.2212 133.697 69.6844 133.697 76.4171C133.697 83.1498 133.366 88.6016 132.98 88.6016Z" fill="#263238"/>
<path d="M47.6784 77.4499C47.6784 77.4499 44.6622 26.9336 90.8072 26.9336C138.849 26.9336 136.507 79.6231 136.507 83.7092C136.507 83.7092 139.991 122.194 93.6634 123.009C45.0392 123.903 47.6784 77.4499 47.6784 77.4499Z" fill="#B2BECB"/>
<path d="M50.6056 76.3587C50.6056 76.3587 46.4908 38.4211 91.2231 38.4097C137.719 38.4097 133.604 78.0583 133.604 81.2635C133.604 81.2635 135.391 110.681 92.1106 111.536C48.8306 112.392 50.6056 76.3587 50.6056 76.3587Z" fill="#263238"/>
<path d="M142.55 52.7485H142.057C138.232 52.7485 135.132 55.8187 135.132 59.6059V84.6131C135.132 88.4003 138.232 91.4704 142.057 91.4704H142.55C146.375 91.4704 149.475 88.4003 149.475 84.6131V59.6059C149.475 55.8187 146.375 52.7485 142.55 52.7485Z" fill="#B2BECB"/>
<path d="M133.662 72.7922C133.626 72.6812 133.606 72.5652 133.605 72.4483C133.605 72.1846 133.605 71.8406 133.524 71.4164C133.42 70.5106 133.42 69.1232 133.166 67.4721C133.062 66.6122 132.935 65.672 132.808 64.6286C132.681 63.5852 132.392 62.4845 132.161 61.2921C131.93 60.0997 131.537 58.8499 131.191 57.5084L130.521 55.4904C130.406 55.1464 130.278 54.791 130.163 54.4356C130.048 54.0801 129.874 53.7476 129.724 53.3922C127.09 46.6667 122.524 40.8577 116.593 36.6866C109.229 31.7227 100.558 29.0156 91.6577 28.9013C91.138 28.9013 90.6067 28.9013 90.1332 28.9013C87.8663 28.8583 85.6024 29.0815 83.3884 29.5663C81.2178 29.995 79.0829 30.5852 77.0016 31.3321C73.0626 32.7119 69.353 34.6673 65.9951 37.1337C62.9677 39.3927 60.3073 42.0996 58.107 45.1598C56.1975 47.8272 54.6446 50.7294 53.4873 53.7935C51.8915 58.25 50.9464 62.9103 50.6808 67.6327C50.5306 69.2952 50.5653 70.6023 50.5422 71.4852C50.5422 71.8979 50.5422 72.2304 50.5422 72.4827C50.5523 72.5971 50.5523 72.7122 50.5422 72.8266C50.5272 72.7125 50.5272 72.5968 50.5422 72.4827C50.5422 72.2304 50.5422 71.8979 50.5422 71.4852C50.5422 70.6023 50.4613 69.2952 50.5422 67.6212C50.7174 62.8575 51.6088 58.1465 53.187 53.6444C54.33 50.5345 55.8834 47.5889 57.8067 44.8846C60.018 41.7779 62.7026 39.0315 65.7641 36.7439C69.1141 34.2549 72.8149 32.2692 76.7475 30.8505C78.8555 30.0922 81.0173 29.4905 83.2151 29.0504C85.4902 28.5553 87.8161 28.3283 90.1447 28.3739C90.6529 28.3739 91.1726 28.3739 91.7154 28.3739C100.734 28.4952 109.516 31.2552 116.962 36.3082C120.165 38.5499 122.978 41.2958 125.289 44.4374C127.307 47.1615 128.946 50.1426 130.163 53.3005L130.602 54.3668L130.948 55.4216C131.179 56.121 131.399 56.809 131.607 57.474C131.953 58.8155 132.288 60.0882 132.554 61.2921C132.819 62.496 132.958 63.5852 133.143 64.663C133.327 65.7408 133.362 66.6581 133.455 67.518C133.674 69.2264 133.639 70.5794 133.697 71.4737C133.697 71.9094 133.697 72.2419 133.697 72.5056C133.694 72.602 133.682 72.6979 133.662 72.7922Z" fill="#263238"/>
<path d="M59.5179 55.6002C54.5975 64.059 53.8129 74.5725 55.8753 84.1385C65.9627 85.28 76.2519 80.2002 82.7751 72.2209C89.2983 64.2416 92.1789 51.6733 92.1004 41.274C74.7164 41.2512 64.4048 47.1415 59.5179 55.6002Z" fill="#455A64"/>
<path d="M100.709 42.7095C109.31 54.7277 106.066 77.1289 106.066 77.1289H114.062C117.488 58.0095 110.92 44.5464 110.92 44.5464L100.709 42.7095Z" fill="#455A64"/>
<path d="M117.769 71.3916C118.395 71.3916 118.44 80.1693 116.485 85.733H121.645C122.361 85.733 124.282 77.211 123.453 71.3916H117.769Z" fill="#455A64"/>
<path d="M149.475 63.5006C147.098 64.1429 144.698 64.3567 142.303 64.1397C139.908 64.3559 137.509 64.142 135.132 63.5006C137.509 62.8737 139.908 62.6599 142.303 62.8614C144.698 62.6591 147.098 62.8729 149.475 63.5006Z" fill="#263238"/>
<path d="M145.172 71.3927C145.172 71.96 145.004 72.5146 144.688 72.9862C144.373 73.4579 143.925 73.8256 143.401 74.0427C142.877 74.2597 142.3 74.3166 141.744 74.2059C141.187 74.0952 140.676 73.822 140.275 73.4209C139.874 73.0198 139.6 72.5087 139.49 71.9523C139.379 71.3959 139.436 70.8192 139.653 70.2951C139.87 69.7709 140.238 69.323 140.71 69.0078C141.181 68.6926 141.736 68.5244 142.303 68.5244C143.064 68.5244 143.794 68.8266 144.332 69.3645C144.87 69.9024 145.172 70.632 145.172 71.3927Z" fill="#263238"/>
<path d="M145.172 81.4318C145.172 81.9991 145.004 82.5536 144.688 83.0253C144.373 83.497 143.925 83.8646 143.401 84.0817C142.877 84.2988 142.3 84.3556 141.744 84.2449C141.187 84.1343 140.676 83.8611 140.275 83.4599C139.874 83.0588 139.6 82.5477 139.49 81.9913C139.379 81.435 139.436 80.8582 139.653 80.3341C139.87 79.81 140.238 79.3621 140.71 79.0469C141.181 78.7317 141.736 78.5635 142.303 78.5635C142.68 78.5619 143.054 78.635 143.403 78.7786C143.752 78.9222 144.069 79.1334 144.335 79.4C144.602 79.6667 144.813 79.9835 144.957 80.3323C145.1 80.681 145.173 81.0547 145.172 81.4318Z" fill="#263238"/>
<path d="M42.1477 52.7485H41.6539C37.8295 52.7485 34.7292 55.8187 34.7292 59.6059V84.6131C34.7292 88.4003 37.8295 91.4704 41.6539 91.4704H42.1477C45.9721 91.4704 49.0725 88.4003 49.0725 84.6131V59.6059C49.0725 55.8187 45.9721 52.7485 42.1477 52.7485Z" fill="#B2BECB"/>
<path d="M49.0725 63.5006C46.6955 64.1409 44.2959 64.3547 41.9008 64.1397C39.5058 64.3567 37.1061 64.1429 34.7292 63.5006C37.1068 62.8729 39.5058 62.6591 41.9008 62.8614C44.2959 62.6611 46.6948 62.8749 49.0725 63.5006Z" fill="#263238"/>
<path d="M44.7693 71.3927C44.7693 71.9605 44.6007 72.5156 44.285 72.9875C43.9692 73.4595 43.5205 73.8271 42.9956 74.0438C42.4707 74.2605 41.8933 74.3166 41.3365 74.205C40.7797 74.0933 40.2686 73.819 39.8679 73.4166C39.4672 73.0143 39.195 72.5021 39.0856 71.9449C38.9763 71.3877 39.0348 70.8106 39.2538 70.2867C39.4728 69.7628 39.8423 69.3157 40.3157 69.002C40.789 68.6882 41.3448 68.5221 41.9127 68.5244C42.6714 68.5276 43.398 68.8312 43.9333 69.3688C44.4687 69.9064 44.7693 70.6341 44.7693 71.3927Z" fill="#263238"/>
<path d="M44.7693 81.4318C44.7692 81.9996 44.6007 82.5546 44.285 83.0266C43.9692 83.4985 43.5205 83.8661 42.9956 84.0829C42.4707 84.2996 41.8933 84.3557 41.3365 84.2441C40.7797 84.1324 40.2686 83.858 39.8679 83.4557C39.4672 83.0533 39.195 82.5411 39.0856 81.9839C38.9763 81.4268 39.0348 80.8497 39.2538 80.3258C39.4728 79.8019 39.8423 79.3547 40.3157 79.041C40.789 78.7273 41.3448 78.5611 41.9127 78.5635C42.2888 78.5635 42.6613 78.6378 43.0086 78.7821C43.356 78.9264 43.6714 79.1378 43.9369 79.4043C44.2023 79.6708 44.4124 79.9871 44.5553 80.3351C44.6981 80.683 44.7708 81.0557 44.7693 81.4318Z" fill="#263238"/>
<path d="M124.733 113.202C124.55 113.352 124.348 113.481 124.132 113.589C123.715 113.829 123.113 114.185 122.315 114.635C120.729 115.492 121.617 114.994 118.597 116.27C115.088 117.769 111.44 118.987 107.695 119.909C103.098 121.039 98.3519 121.599 93.5876 121.571C84.9287 121.444 76.3842 119.763 68.4511 116.625C66.06 115.68 66.0204 115.761 63.7874 114.54C62.9773 114.122 62.3986 113.745 61.9936 113.495C61.7748 113.386 61.5725 113.253 61.3918 113.097C61.6209 113.181 61.8416 113.282 62.0514 113.4C62.4796 113.61 63.0814 113.955 63.9031 114.352C66.1743 115.489 66.2316 115.349 68.6247 116.259C76.5369 119.27 85.0149 120.882 93.5992 121.006C98.3419 121.042 103.068 120.497 107.649 119.386C111.37 118.496 115.001 117.324 118.504 115.883C121.513 114.67 120.071 115.132 122.222 114.415L124.085 113.495C124.29 113.379 124.507 113.281 124.733 113.202Z" fill="#263238"/>
<g opacity="0.3">
<path d="M61.5767 113.374C65.4968 118.216 69.4067 122.11 75.0065 124.772C80.6062 127.434 86.7235 128.796 92.9107 128.758C99.0979 128.721 105.199 127.285 110.766 124.555C116.334 121.826 120.071 119.437 125.091 112.983C115.05 118.72 104.037 121.453 92.8185 121.588C81.5999 121.724 67.7178 116.569 61.7964 113.374" fill="black"/>
</g>
</g>
<defs>
<linearGradient id="paint0_linear_2578_48459" x1="145.202" y1="213.744" x2="143.189" y2="-177.972" gradientUnits="userSpaceOnUse">
<stop stop-color="#EBEBEB"/>
<stop offset="1" stop-color="#EBEBEB" stop-opacity="0"/>
</linearGradient>
</defs>
</svg>
